<?xml version="1.0" encoding="utf-8"?>
<svg version="1.1"
     xmlns="http://www.w3.org/2000/svg"
     x="0px" y="0px" viewBox="0 0 284.2 252.4" enable-background="new 0 0 284.2 252.4" xml:space="preserve">
<g>
	<path fill-rule="evenodd" clip-rule="evenodd" fill="#FFFFFF" stroke="#000000" stroke-width="0.7501" stroke-miterlimit="22.9256" d="
		M158.2,11.3c41,71.1,81,144.7,123.5,214.7c6.5,10.7-3,26-15,26c-83.1,0-166.1,0-249.2,0c-12,0-21.5-15.4-15-26
		C45,156,85,82.4,126,11.3C134.4-3.3,149.8-3.3,158.2,11.3L158.2,11.3z"/>
    <path fill-rule="evenodd" clip-rule="evenodd" fill="#B92B1E" d="M129.8,13.5L12.7,217.2c-2.1,3.7-4.2,7.4-6.4,11.1
		c-4.7,7.7,2.5,19.4,11.3,19.4h249.2c8.7,0,15.9-11.7,11.3-19.4c-2.2-3.7-4.3-7.4-6.4-11.1L154.4,13.5
		C147.9,2.1,136.3,2.1,129.8,13.5L129.8,13.5z M135.5,228.1h112.7c1.8,0,4.7-3.9,3.6-5.8c-5.7-9.5-12.1-20.8-17.6-30.5L146.5,39.2
		c-2.8-4.9-6-4.9-8.8,0L38,212.7c-1.8,3.2-3.7,6.4-5.6,9.6c-1.1,1.9,1.7,5.8,3.6,5.8C69.2,228.1,102.3,228.1,135.5,228.1
		L135.5,228.1z"/>
    <path fill-rule="evenodd" clip-rule="evenodd" d="M112.3,194.5h-9.1v-36.9h9.1V194.5L112.3,194.5z M135.1,194.5H126v-36.9h9.1
		V194.5L135.1,194.5z M171.9,194.5h9.1v-36.9h-9.1V194.5L171.9,194.5z M149.1,194.5h9.1v-36.9h-9.1V194.5L149.1,194.5z M81.6,157.6
		h7.5v36.9h-7.5v9.8h7.5v8.1h14.2v-8.1h9.1v8.1H126v-8.1h9.1v8.1h7h7v-8.1h9.1v8.1h13.7v-8.1h9.1v8.1h14.2v-8.1h7.5v-9.8h-7.5v-36.9
		h7.5v-8.4h-7.5V149l-7.5-9.3l-6.7,9.3v0.2h-9.1V149l-7-9.3l-6.7,9.3v0.2h-9.1V149l-7-9.3l-7,9.3v0.2H126V149l-6.7-9.3l-7,9.3v0.2
		h-9.1V149l-6.7-9.3l-7.5,9.3v0.2h-7.5V157.6L81.6,157.6z"/>
</g>
</svg>
