<?xml version="1.0" encoding="utf-8"?>
<svg version="1.1"
	 xmlns="http://www.w3.org/2000/svg"
	 x="0px" y="0px" viewBox="0 0 283.5 251.7" enable-background="new 0 0 283.5 251.7" xml:space="preserve">
<g>
	
		<path fill-rule="evenodd" clip-rule="evenodd" fill="#FFFFFF" stroke="#000000" stroke-width="0.7501" stroke-miterlimit="22.9256" d="
		M125.6,10.9C84.6,82,44.6,155.6,2.1,225.6c-6.5,10.7,3,26,15,26c83.1,0,166.1,0,249.2,0c12,0,21.5-15.4,15-26
		C238.8,155.6,198.9,82,157.8,10.9C149.4-3.6,134-3.6,125.6,10.9L125.6,10.9z"/>
	<path fill-rule="evenodd" clip-rule="evenodd" fill="#B92B1E" d="M154.1,13l117.1,203.7c2.1,3.7,4.2,7.4,6.5,11.1
		c4.7,7.7-2.5,19.4-11.3,19.4H17.1c-8.7,0-15.9-11.7-11.3-19.4c2.2-3.7,4.3-7.4,6.4-11.1L129.4,13C136,1.6,147.5,1.7,154.1,13
		L154.1,13z M148.3,227.6H35.6c-1.8,0-4.7-3.9-3.6-5.8c5.7-9.5,12.1-20.8,17.6-30.5l87.7-152.6c2.8-4.9,6-4.9,8.8,0l99.8,173.5
		c1.8,3.2,3.7,6.4,5.6,9.6c1.1,1.9-1.7,5.8-3.6,5.8C214.7,227.6,181.5,227.6,148.3,227.6L148.3,227.6z"/>
	<path fill-rule="evenodd" clip-rule="evenodd" d="M142.1,222.3h23.7l0-44.3c0-20.2-2.6-34-14.4-50.8c-9.6-12.1-23.1-22.7-34.3-32.5
		L101.7,113c7,6.1,25.8,21.2,31.2,28.8c6.7,9.5,9.3,20.1,9.3,31.6L142.1,222.3L142.1,222.3z"/>
</g>
</svg>
