<?xml version="1.0" encoding="utf-8"?>
<svg version="1.1"
	 xmlns="http://www.w3.org/2000/svg"
	 x="0px" y="0px" viewBox="0 0 283.5 251.7" enable-background="new 0 0 283.5 251.7" xml:space="preserve">
<g>
	
		<path fill-rule="evenodd" clip-rule="evenodd" fill="#FFFFFF" stroke="#000000" stroke-width="0.7501" stroke-miterlimit="22.9256" d="
		M157.8,10.9c41,71.1,81,144.7,123.5,214.7c6.5,10.7-3,26-15,26c-83.1,0-166.1,0-249.2,0c-12,0-21.5-15.4-15-26
		C44.6,155.6,84.6,82,125.6,10.9C134-3.6,149.4-3.6,157.8,10.9L157.8,10.9z"/>
	<path fill-rule="evenodd" clip-rule="evenodd" d="M181.5,168.7c4.6,0,8.3,3.7,8.3,8.3s-3.7,8.3-8.3,8.3c-4.6,0-8.3-3.7-8.3-8.3
		S177,168.7,181.5,168.7L181.5,168.7z M181.5,173.7c1.9,0,3.4,1.5,3.4,3.4c0,1.9-1.5,3.4-3.4,3.4c-1.9,0-3.4-1.5-3.4-3.4
		C178.1,175.2,179.7,173.7,181.5,173.7L181.5,173.7z M177.6,135.9c4.6,0,8.3,3.7,8.3,8.3c0,4.6-3.7,8.3-8.3,8.3
		c-4.6,0-8.3-3.7-8.3-8.3C169.3,139.6,173,135.9,177.6,135.9L177.6,135.9z M177.6,140.8c1.9,0,3.4,1.5,3.4,3.4
		c0,1.9-1.5,3.4-3.4,3.4c-1.9,0-3.4-1.5-3.4-3.4C174.2,142.3,175.7,140.8,177.6,140.8L177.6,140.8z M127.3,113.4l-18,39.8l-7.3-3.3
		l13.5-30.2l-6.7,0.9l-1.2-4.8l12.9-5.5L127.3,113.4L127.3,113.4z M150.1,162.4l-15.8-7.1c5.4-2.3,12.9-4.9,18-7.4
		c5.8-2.7,7.7-6.9,7.6-12.4c-0.3-12.2-14.7-16.8-24.2-11.7l2.8,8.1c0,0,0.1-0.1,0.3-0.2c0.8-0.4,2.9-1.8,5.5-2.3
		c4-0.7,6,0.7,6.9,2.6c3.7,7.3-4.2,9.3-8.1,11.3l-20.1,7.8l-3.1,6.9l24.7,11L150.1,162.4L150.1,162.4z M192.3,142.6l6.1,2.7
		l-32.2,33.5l-6.1-2.7L192.3,142.6L192.3,142.6z M79.7,147.8L249,223.5H36.6L79.7,147.8L79.7,147.8z"/>
	<path fill-rule="evenodd" clip-rule="evenodd" fill="#B92B1E" d="M129.4,13L12.3,216.7c-2.1,3.7-4.2,7.4-6.4,11.1
		c-4.7,7.7,2.5,19.4,11.3,19.4h249.2c8.7,0,15.9-11.7,11.3-19.4c-2.2-3.7-4.3-7.4-6.4-11.1L154.1,13C147.5,1.6,136,1.7,129.4,13
		L129.4,13z M135.2,227.6h112.7c1.8,0,4.7-3.9,3.6-5.8c-5.7-9.5-12.1-20.8-17.6-30.5L146.1,38.7c-2.8-4.9-6-4.9-8.8,0L37.6,212.3
		c-1.8,3.2-3.7,6.4-5.6,9.6c-1.1,1.9,1.7,5.8,3.6,5.8C68.8,227.6,102,227.6,135.2,227.6L135.2,227.6z"/>
</g>
</svg>
