<?xml version="1.0" encoding="utf-8"?>
<svg version="1.1"
	 xmlns="http://www.w3.org/2000/svg"
	 x="0px" y="0px" viewBox="0 0 283.5 251.7" enable-background="new 0 0 283.5 251.7" xml:space="preserve">
<g>
	
		<path fill-rule="evenodd" clip-rule="evenodd" fill="#FFFFFF" stroke="#000000" stroke-width="0.7501" stroke-miterlimit="22.9256" d="
		M157.8,10.9c41,71.1,81,144.7,123.5,214.7c6.5,10.7-3,26-15,26c-83.1,0-166.1,0-249.2,0c-12,0-21.5-15.4-15-26
		C44.6,155.6,84.6,82,125.6,10.9C134-3.6,149.4-3.6,157.8,10.9L157.8,10.9z"/>
	<path fill-rule="evenodd" clip-rule="evenodd" fill="#B92B1E" d="M129.4,13L12.3,216.7c-2.1,3.7-4.2,7.4-6.4,11.1
		c-4.7,7.7,2.5,19.4,11.3,19.4h249.2c8.7,0,15.9-11.7,11.3-19.4c-2.2-3.7-4.3-7.4-6.4-11.1L154.1,13C147.5,1.6,136,1.7,129.4,13
		L129.4,13z M135.2,227.6h112.7c1.8,0,4.7-3.9,3.6-5.8c-5.7-9.5-12.1-20.8-17.6-30.5L146.1,38.7c-2.8-4.9-6-4.9-8.8,0L37.6,212.3
		c-1.8,3.2-3.7,6.4-5.6,9.6c-1.1,1.9,1.7,5.8,3.6,5.8C68.8,227.6,102,227.6,135.2,227.6L135.2,227.6z"/>
	<path fill-rule="evenodd" clip-rule="evenodd" d="M92.2,142l17.7,40l-7.3,3.3l-13.5-30.2l-3.8,5.6l-4.4-2.3l4.5-13.3L92.2,142
		L92.2,142z M173.3,141.7c3-3.3,8.1,1.2,5.1,4.5C175.4,149.6,170.3,145,173.3,141.7L173.3,141.7z M169.6,138.4
		c3.1-3.4,8.3-3.7,11.7-0.7c3.4,3.1,3.7,8.3,0.7,11.7c-3.1,3.4-8.3,3.7-11.7,0.7C166.9,147.1,166.6,141.8,169.6,138.4L169.6,138.4z
		 M157.3,112.9l6.1-2.7l3.6,46.3l-6.1,2.7L157.3,112.9L157.3,112.9z M146.1,122.7c3-3.3,8.1,1.2,5.1,4.5
		C148.2,130.6,143.2,126.1,146.1,122.7L146.1,122.7z M142.5,119.4c3.1-3.4,8.3-3.7,11.7-0.7c3.4,3.1,3.7,8.3,0.7,11.7
		c-3.1,3.4-8.3,3.7-11.7,0.7C139.7,128.1,139.4,122.9,142.5,119.4L142.5,119.4z M131.5,164.3c-7.5,3.5-15-14.4-15.1-20.7
		c-0.1-5.3,4.2-7.2,7.3-6c5.3,2,11.6,16,10.8,22C134.2,161.7,133.3,163.5,131.5,164.3L131.5,164.3z M134.9,171.8
		c7.3-3.3,8.6-11.5,7.1-18.9c-2-9.5-9.9-24.1-21.1-23.6c-7.2,0.3-11.7,6-12.2,13.3C107.9,155.2,120.3,178.3,134.9,171.8L134.9,171.8
		z M34.7,223.5L204,147.8l43.2,75.7H34.7L34.7,223.5z"/>
</g>
</svg>
