<?xml version="1.0" encoding="utf-8"?>
<svg version="1.1"
	 xmlns="http://www.w3.org/2000/svg"
	 x="0px" y="0px" viewBox="0 0 283.5 251.7" enable-background="new 0 0 283.5 251.7" xml:space="preserve">
<g>
	
		<path fill-rule="evenodd" clip-rule="evenodd" fill="#FFFFFF" stroke="#000000" stroke-width="0.7501" stroke-miterlimit="22.9256" d="
		M157.8,10.9c41,71.1,81,144.7,123.5,214.7c6.5,10.7-3,26-15,26c-83.1,0-166.1,0-249.2,0c-12,0-21.5-15.4-15-26
		C44.6,155.6,84.6,82,125.6,10.9C134-3.6,149.4-3.6,157.8,10.9L157.8,10.9z"/>
	<path fill-rule="evenodd" clip-rule="evenodd" fill="#B92B1E" d="M129.4,13L12.3,216.7c-2.1,3.7-4.2,7.4-6.4,11.1
		c-4.7,7.7,2.5,19.4,11.3,19.4h249.2c8.7,0,15.9-11.7,11.3-19.4c-2.2-3.7-4.3-7.4-6.4-11.1L154.1,13C147.5,1.6,136,1.7,129.4,13
		L129.4,13z M135.2,227.6h112.7c1.8,0,4.7-3.9,3.6-5.8c-5.7-9.5-12.1-20.8-17.6-30.5L146.1,38.7c-2.8-4.9-6-4.9-8.8,0L37.6,212.3
		c-1.8,3.2-3.7,6.4-5.6,9.6c-1.1,1.9,1.7,5.8,3.6,5.8C68.8,227.6,102,227.6,135.2,227.6L135.2,227.6z"/>
	<path fill-rule="evenodd" clip-rule="evenodd" d="M121.8,152.9l1.1-9.2l-13.8-1.7l-1.1,9.2c-0.5,3.8,2.2,7.3,6.1,7.8
		C117.9,159.5,121.4,156.8,121.8,152.9L121.8,152.9z M159.4,157.6l1.1-9.2l13.8,1.7l-1.1,9.2c-0.5,3.8-3.9,6.5-7.8,6.1
		C161.6,164.8,158.9,161.4,159.4,157.6L159.4,157.6z M141.9,144.8l31.5,3.8c3.3,0.4,6.3-1.9,6.7-5.2l1.9-15.5
		c0.4-2.9-1.5-5.6-4.2-6.4l-3.7-18.5c-0.5-2.7-1.6-5.2-4.4-5.6l-21.4-2.6l-0.2,0l-0.2,0L126.4,92c-2.7-0.3-4.4,1.9-5.6,4.4
		l-8.1,17.1c-2.8,0.2-5.3,2.3-5.6,5.2l-1.9,15.5c-0.4,3.3,1.9,6.3,5.2,6.7L141.9,144.8L141.9,144.8z M147.5,98.9l0.2,0l18.1,2.2
		c2.3,0.3,3.2,2.4,3.7,4.6l3.2,15l-27.5-3.4l-27.5-3.4l6.7-13.8c1-2,2.4-3.8,4.7-3.5l18.1,2.2L147.5,98.9L147.5,98.9z M134.6,220.1
		c8.6-8.1,14.1-19.5,1.4-27.1c-10.9-6.6-22.4-12.2-33.3-18.7c-4.3-2.6-2.4-4.7,0-7.7c1.2-1.5,3.2-4,5.3-6.6
		c-6.4,1.7-12.9,3.5-16.5,4.6c-8,2.7-10,10.4-3.2,15.8c6.7,5.3,14.5,10.2,21.6,15.3c9.2,6.6,7.7,10.6-1.3,16.6
		c-2.9,2-7.4,4.9-11.9,7.9H134.6L134.6,220.1z M221,220.1h-38.7c4.1-2.3,7.2-6,5.8-11.1c-1.3-4.4-5.3-5.5-9.2-7.2
		c-10.3-4.6-20.8-8.9-31.3-13.3c-6.8-2.9-6.3-10.7,0.6-14.2c3.1-1.6,8.8-4.3,14.5-7c-0.9,1.8-4.3,7.9-4.4,9.4
		c-0.3,3.8,4,4.7,6.8,5.6l28,9.5c11.4,3.8,20.7,9.3,25.7,20.9C219.7,215.1,220.3,217.5,221,220.1L221,220.1z"/>
</g>
</svg>
