<?xml version="1.0" encoding="utf-8"?>
<svg version="1.1"
	 xmlns="http://www.w3.org/2000/svg"
	 x="0px" y="0px" viewBox="0 0 283.5 251.7" enable-background="new 0 0 283.5 251.7" xml:space="preserve">
<g>
	
		<path fill-rule="evenodd" clip-rule="evenodd" fill="#FFFFFF" stroke="#000000" stroke-width="0.7501" stroke-miterlimit="22.9256" d="
		M157.8,10.9c41,71.1,81,144.7,123.5,214.7c6.5,10.7-3,26-15,26c-83.1,0-166.1,0-249.2,0c-12,0-21.5-15.4-15-26
		C44.6,155.6,84.6,82,125.6,10.9C134-3.6,149.4-3.6,157.8,10.9L157.8,10.9z"/>
	<path fill-rule="evenodd" clip-rule="evenodd" fill="#B92B1E" d="M129.4,13L12.3,216.7c-2.1,3.7-4.2,7.4-6.4,11.1
		c-4.7,7.7,2.5,19.4,11.3,19.4h249.2c8.7,0,15.9-11.7,11.3-19.4c-2.2-3.7-4.3-7.4-6.4-11.1L154.1,13C147.5,1.6,136,1.7,129.4,13
		L129.4,13z M135.2,227.6h112.7c1.8,0,4.7-3.9,3.6-5.8c-5.7-9.5-12.1-20.8-17.6-30.5L146.1,38.7c-2.8-4.9-6-4.9-8.8,0L37.6,212.3
		c-1.8,3.2-3.7,6.4-5.6,9.6c-1.1,1.9,1.7,5.8,3.6,5.8C68.8,227.6,102,227.6,135.2,227.6L135.2,227.6z"/>
	<path fill-rule="evenodd" clip-rule="evenodd" d="M88.3,124.1h11.8c3.2,0,4.8,2.7,5.8,5.6l6.9,20.1l-38.2,0l-1.1,0l-22,38.2l23.1,0
		l43.8,0c4.5,0,8.3-3.7,8.3-8.3l0-21.6c0-4.1-3-7.5-6.8-8.2l-8.2-24.9c-1.2-3.6-3.1-6.9-6.9-6.9h-13L88.3,124.1L88.3,124.1z
		 M100.8,202.9l0-12.8l19.1,0l0,12.8c0,5.3-4.3,9.6-9.5,9.6C105.1,212.5,100.8,208.2,100.8,202.9L100.8,202.9z M110.4,157.3
		c5,0,9.1,4.1,9.1,9.1c0,5-4.1,9.1-9.1,9.1c-5,0-9.1-4.1-9.1-9.1C101.3,161.4,105.4,157.3,110.4,157.3L110.4,157.3z M159.3,143.5
		c3.3,0,5.9,2.6,5.9,5.9c0,3.3-2.6,5.9-5.9,5.9c-3.3,0-5.9-2.6-5.9-5.9C153.4,146.2,156.1,143.5,159.3,143.5L159.3,143.5z
		 M161.6,161.6c4.3,0,7.8,3.5,7.8,7.8c0,4.3-3.5,7.8-7.8,7.8c-4.3,0-7.8-3.5-7.8-7.8C153.8,165.1,157.3,161.6,161.6,161.6
		L161.6,161.6z M204.7,157.3c4.9,0,8.9,4,8.9,8.9c0,4.9-4,8.9-8.9,8.9c-4.9,0-8.9-4-8.9-8.9C195.8,161.3,199.8,157.3,204.7,157.3
		L204.7,157.3z M214.8,183.7c3.6,0,6.6,2.9,6.6,6.6c0,3.6-2.9,6.6-6.6,6.6s-6.6-2.9-6.6-6.6C208.2,186.6,211.2,183.7,214.8,183.7
		L214.8,183.7z M198.6,190.8c4.5,0,8.2,3.7,8.2,8.2c0,4.5-3.7,8.2-8.2,8.2c-4.5,0-8.2-3.7-8.2-8.2
		C190.4,194.5,194.1,190.8,198.6,190.8L198.6,190.8z M188.4,199.6l-30.6,10.1l1.1,3.8l31.1-9.1L188.4,199.6L188.4,199.6z
		 M132.5,210.4l1.9,3l62.2-38.8l-3.9-4.8L132.5,210.4L132.5,210.4z M149.6,175.7L122.9,211l2.2,2.3l28.9-33.8L149.6,175.7
		L149.6,175.7z"/>
</g>
</svg>
