<?xml version="1.0" encoding="utf-8"?>
<svg version="1.1"
	 xmlns="http://www.w3.org/2000/svg"
	 x="0px" y="0px" viewBox="0 0 283.5 251.7" enable-background="new 0 0 283.5 251.7" xml:space="preserve">
<g>
	
		<path fill-rule="evenodd" clip-rule="evenodd" fill="#FFFFFF" stroke="#000000" stroke-width="0.7501" stroke-miterlimit="22.9256" d="
		M157.8,10.9c41,71.1,81,144.7,123.5,214.7c6.5,10.7-3,26-15,26c-83.1,0-166.1,0-249.2,0c-12,0-21.5-15.4-15-26
		C44.6,155.6,84.6,82,125.6,10.9C134-3.6,149.4-3.6,157.8,10.9L157.8,10.9z"/>
	<path fill-rule="evenodd" clip-rule="evenodd" fill="#B92B1E" d="M129.4,13L12.3,216.7c-2.1,3.7-4.2,7.4-6.4,11.1
		c-4.7,7.7,2.5,19.4,11.3,19.4h249.2c8.7,0,15.9-11.7,11.3-19.4c-2.2-3.7-4.3-7.4-6.4-11.1L154.1,13C147.5,1.6,136,1.7,129.4,13
		L129.4,13z M135.2,227.6h112.7c1.8,0,4.7-3.9,3.6-5.8c-5.7-9.5-12.1-20.8-17.6-30.5L146.1,38.7c-2.8-4.9-6-4.9-8.8,0L37.6,212.3
		c-1.8,3.2-3.7,6.4-5.6,9.6c-1.1,1.9,1.7,5.8,3.6,5.8C68.8,227.6,102,227.6,135.2,227.6L135.2,227.6z"/>
	<path fill-rule="evenodd" clip-rule="evenodd" d="M59.3,188.3h67.1c-2.7-1.2-4.3-4.1-4-7.2l1.1-9.2l13.8,1.7l-1.1,9.2
		c-0.3,2.5-1.9,4.5-4,5.5h5.6V204H59.3V188.3L59.3,188.3z M173.8,187.5l1.1-9.2l13.8,1.7l-1.1,9.2c-0.5,3.8-3.9,6.5-7.8,6.1
		C176.1,194.7,173.3,191.3,173.8,187.5L173.8,187.5z M156.3,174.7l31.5,3.8c3.3,0.4,6.3-1.9,6.7-5.2l1.9-15.5
		c0.4-2.9-1.5-5.6-4.2-6.4l-3.7-18.5c-0.5-2.7-1.6-5.2-4.4-5.6l-21.4-2.6l-0.2,0l-0.2,0l-21.4-2.6c-2.7-0.3-4.4,1.9-5.6,4.4
		l-8.1,17.1c-2.8,0.2-5.3,2.3-5.6,5.2l-1.9,15.5c-0.4,3.3,1.9,6.3,5.2,6.7L156.3,174.7L156.3,174.7z M161.9,128.8l0.2,0l18.1,2.2
		c2.3,0.3,3.2,2.4,3.7,4.6l3.2,15l-27.5-3.4l-27.5-3.4l6.7-13.8c1-2,2.4-3.8,4.7-3.5l18.1,2.2L161.9,128.8L161.9,128.8z
		 M146.1,188.5c1.1,0,1.9,0.9,1.9,1.9c0,1.1-0.9,1.9-1.9,1.9c-1.1,0-1.9-0.9-1.9-1.9C144.2,189.4,145,188.5,146.1,188.5L146.1,188.5
		z M158.2,189.8c1.4,0,2.5,1.1,2.5,2.5c0,1.4-1.1,2.5-2.5,2.5c-1.4,0-2.5-1.1-2.5-2.5C155.6,190.9,156.8,189.8,158.2,189.8
		L158.2,189.8z M156,196.5c2.2,0,3.9,1.8,3.9,3.9c0,2.2-1.8,3.9-3.9,3.9c-2.2,0-3.9-1.8-3.9-3.9C152.1,198.3,153.8,196.5,156,196.5
		L156,196.5z M144.1,202.5c1.7,0,3,1.3,3,2.9c0,1.6-1.3,2.9-3,2.9c-1.7,0-3-1.3-3-2.9C141.1,203.9,142.4,202.5,144.1,202.5
		L144.1,202.5z M168.4,193.6c2,0,3.7,1.7,3.7,3.7c0,2.1-1.7,3.7-3.7,3.7c-2.1,0-3.7-1.7-3.7-3.7
		C164.7,195.3,166.4,193.6,168.4,193.6L168.4,193.6z M169.6,203c1.8,0,3.2,1.4,3.2,3.2c0,1.8-1.4,3.2-3.2,3.2
		c-1.8,0-3.2-1.4-3.2-3.2C166.4,204.4,167.8,203,169.6,203L169.6,203z M183.8,204.4c2.2,0,4.1,1.8,4.1,4.1c0,2.2-1.8,4.1-4.1,4.1
		c-2.2,0-4.1-1.8-4.1-4.1C179.7,206.2,181.5,204.4,183.8,204.4L183.8,204.4z M190.8,195.6c1.5,0,2.7,1.2,2.7,2.7
		c0,1.5-1.2,2.7-2.7,2.7c-1.5,0-2.7-1.2-2.7-2.7C188.1,196.8,189.3,195.6,190.8,195.6L190.8,195.6z"/>
</g>
</svg>
