<?xml version="1.0" encoding="utf-8"?>
<svg version="1.1"
     xmlns="http://www.w3.org/2000/svg"
     x="0px" y="0px" viewBox="0 0 283.5 251.7" enable-background="new 0 0 283.5 251.7" xml:space="preserve">
<g>
	<path fill-rule="evenodd" clip-rule="evenodd" fill="#FFFFFF" stroke="#000000" stroke-width="0.7501" stroke-miterlimit="22.9256" d="
		M157.8,10.9c41,71.1,81,144.7,123.5,214.7c6.5,10.7-3,26-15,26c-83.1,0-166.1,0-249.2,0c-12,0-21.5-15.4-15-26
		C44.6,155.6,84.6,82,125.6,10.9C134-3.6,149.4-3.6,157.8,10.9L157.8,10.9z"/>
    <path fill-rule="evenodd" clip-rule="evenodd" fill="#B92B1E" d="M129.4,13.1L12.3,216.8c-2.1,3.7-4.2,7.4-6.4,11.1
		c-4.7,7.7,2.5,19.4,11.3,19.4h249.2c8.7,0,15.9-11.7,11.3-19.4c-2.2-3.7-4.3-7.4-6.4-11.1L154.1,13.1C147.5,1.8,136,1.8,129.4,13.1
		L129.4,13.1z M135.2,227.7h112.7c1.8,0,4.7-3.9,3.6-5.8c-5.7-9.5-12.1-20.8-17.6-30.5L146.1,38.8c-2.8-4.9-6-4.9-8.8,0L37.6,212.4
		c-1.8,3.2-3.7,6.4-5.6,9.6c-1.1,1.9,1.7,5.8,3.6,5.8C68.8,227.7,102,227.7,135.2,227.7L135.2,227.7z"/>
    <path fill-rule="evenodd" clip-rule="evenodd" d="M91.2,212.6c1.6,5.2,6.4,9,12.1,9c7,0,12.7-5.7,12.7-12.7c0-0.2,0-0.4,0-0.6h5.4
		c0,0.2,0,0.4,0,0.6c0,7,5.7,12.7,12.7,12.7c7,0,12.7-5.7,12.7-12.7c0-0.2,0-0.4,0-0.6h5.4c0,0.2,0,0.4,0,0.6
		c0,7,5.7,12.7,12.7,12.7c7,0,12.7-5.7,12.7-12.7c0-0.2,0-0.4,0-0.6h17v-17.2H82.1v5.7H71.9v15.8H91.2L91.2,212.6z M103.3,197.6
		c6.2,0,11.3,5,11.3,11.3c0,6.2-5,11.3-11.3,11.3c-6.2,0-11.3-5-11.3-11.3C92.1,202.7,97.1,197.6,103.3,197.6L103.3,197.6z
		 M103.3,204.5c2.4,0,4.4,2,4.4,4.4c0,2.4-2,4.4-4.4,4.4c-2.4,0-4.4-2-4.4-4.4C98.9,206.5,100.9,204.5,103.3,204.5L103.3,204.5z
		 M134,197.6c6.2,0,11.3,5,11.3,11.3c0,6.2-5,11.3-11.3,11.3c-6.2,0-11.3-5-11.3-11.3C122.7,202.7,127.8,197.6,134,197.6L134,197.6z
		 M134,204.5c2.4,0,4.4,2,4.4,4.4c0,2.4-2,4.4-4.4,4.4c-2.4,0-4.4-2-4.4-4.4C129.6,206.5,131.6,204.5,134,204.5L134,204.5z
		 M164.7,204.5c2.4,0,4.4,2,4.4,4.4c0,2.4-2,4.4-4.4,4.4c-2.4,0-4.4-2-4.4-4.4C160.3,206.5,162.2,204.5,164.7,204.5L164.7,204.5z
		 M164.7,197.6c6.2,0,11.3,5,11.3,11.3c0,6.2-5,11.3-11.3,11.3c-6.2,0-11.3-5-11.3-11.3C153.4,202.7,158.5,197.6,164.7,197.6
		L164.7,197.6z M86,156.5H91v-16h12.5v16h55.7v31.5c-24.2,0-48.8,0-73.1,0C77.1,177.4,76.7,166.9,86,156.5L86,156.5z M161.9,142.1
		c12.1,0,24.5,0,36.5,0v8.8h-4.4v37h-32.2V142.1L161.9,142.1z M170.7,150.5h13.7v15h-13.7V150.5L170.7,150.5z M141.7,57.2
		c6.9,0,12.5,5.6,12.5,12.5c0,4.5-2.4,8.5-6,10.7c6.1,2.6,10.3,8.6,10.3,15.6c0,9.1-7.1,16.4-16,16.9c-0.7,8.2-7.6,14.6-15.9,14.5
		h-8.4c-6.9,0-12.7,4.5-14.7,10.6H91.2c-0.3-12.7,8-23.6,19.5-27.2c0.3-7.9,6.3-14.3,14-15.2c0.1-6.9,4.4-12.8,10.5-15.3
		c-3.6-2.2-5.9-6.2-5.9-10.7C129.2,62.8,134.8,57.2,141.7,57.2L141.7,57.2z"/>
</g>
</svg>
