<?xml version="1.0" encoding="utf-8"?>
<svg version="1.1"
	 xmlns="http://www.w3.org/2000/svg"
	 x="0px" y="0px" viewBox="0 0 283.5 247.2" enable-background="new 0 0 283.5 247.2" xml:space="preserve">
<g>
	
		<path fill-rule="evenodd" clip-rule="evenodd" fill="#FFFFFF" stroke="#000000" stroke-width="0.7501" stroke-miterlimit="22.9256" d="
		M157.8,6.4c41,71.1,81,144.7,123.5,214.7c6.5,10.7-3,26-15,26c-83.1,0-166.1,0-249.2,0c-12,0-21.5-15.4-15-26
		C44.6,151.1,84.6,77.5,125.6,6.4C134-8.1,149.4-8.1,157.8,6.4L157.8,6.4z"/>
	<path fill-rule="evenodd" clip-rule="evenodd" fill="#B92B1E" d="M129.4,8.5L12.3,212.2c-2.1,3.7-4.2,7.4-6.4,11.1
		c-4.7,7.7,2.5,19.4,11.3,19.4h249.2c8.7,0,15.9-11.7,11.3-19.4c-2.2-3.7-4.3-7.4-6.4-11.1L154.1,8.5C147.5-2.8,136-2.8,129.4,8.5
		L129.4,8.5z M135.2,223.1h112.7c1.8,0,4.7-3.9,3.6-5.8c-5.7-9.5-12.1-20.8-17.6-30.5L146.1,34.2c-2.8-4.9-6-4.9-8.8,0L37.6,207.8
		c-1.8,3.2-3.7,6.4-5.6,9.6c-1.1,1.9,1.7,5.8,3.6,5.8C68.8,223.1,102,223.1,135.2,223.1L135.2,223.1z"/>
	<path fill-rule="evenodd" clip-rule="evenodd" d="M115.1,81.5h21.7v133.7h-21.7V81.5L115.1,81.5z M168.3,81.5h-21.8l0,31
		c0,12,0.5,20.6,5.8,31c4.7,9.3,11.6,14.3,14.3,19.3c1.7,3.2,3.2,7.7,3.5,11.6c0.3,3.7,0.2,11,0.2,15.2v25.6H192l0-31.3
		c0-7.5-0.5-17.2-2.9-23.9c-2.6-7.1-6.3-12.5-11.4-18c-4-4.4-6.4-7.5-8.2-13.3c-1.1-3.5-1.2-10.2-1.2-14.6L168.3,81.5L168.3,81.5z"
		/>
</g>
</svg>
