<?xml version="1.0" encoding="utf-8"?>
<svg version="1.1"
	 xmlns="http://www.w3.org/2000/svg"
	 x="0px" y="0px" viewBox="0 0 283.5 251.7" enable-background="new 0 0 283.5 251.7" xml:space="preserve">
<g>
	
		<path fill-rule="evenodd" clip-rule="evenodd" fill="#FFFFFF" stroke="#000000" stroke-width="0.7501" stroke-miterlimit="22.9256" d="
		M157.8,10.9c41,71.1,81,144.7,123.5,214.7c6.5,10.7-3,26-15,26c-83.1,0-166.1,0-249.2,0c-12,0-21.5-15.4-15-26
		C44.6,155.6,84.6,82,125.6,10.9C134-3.6,149.4-3.6,157.8,10.9L157.8,10.9z"/>
	<path fill-rule="evenodd" clip-rule="evenodd" fill="#B92B1E" d="M129.4,13L12.3,216.7c-2.1,3.7-4.2,7.4-6.4,11.1
		c-4.7,7.7,2.5,19.4,11.3,19.4h249.2c8.7,0,15.9-11.7,11.3-19.4c-2.2-3.7-4.3-7.4-6.4-11.1L154.1,13C147.5,1.6,136,1.7,129.4,13
		L129.4,13z M135.2,227.6h112.7c1.8,0,4.7-3.9,3.6-5.8c-5.7-9.5-12.1-20.8-17.6-30.5L146.1,38.7c-2.8-4.9-6-4.9-8.8,0L37.6,212.3
		c-1.8,3.2-3.7,6.4-5.6,9.6c-1.1,1.9,1.7,5.8,3.6,5.8C68.8,227.6,102,227.6,135.2,227.6L135.2,227.6z"/>
	<path d="M134.3,195.5h15.2l3.3,24.7H131L134.3,195.5L134.3,195.5z M205,195.5h-17.2l9.5,24.7h23.7L205,195.5L205,195.5z
		 M78.8,195.5H96l-9.5,24.7H62.7L78.8,195.5L78.8,195.5z M155.7,148.3l-11.2,11l28.3,48.6c3.3,5.7,11.6,5,13.8-1.2
		c0.8-2.1,0.6-4.4-0.5-6.3L155.7,148.3L155.7,148.3z M130.4,116.9l-21.7,21.7c-1.1,1.1-1.7,2.6-1.7,4.1c0,5.2,6.3,7.8,10,4.2
		l13.5-13.3V116.9L130.4,116.9z M180.8,112.8c-1-4.4-3.5-5.4-7-7.5c-2.2-1.3-21-12.4-22.5-12.8c-4.4-1.1-6.4,0.6-10.4,2.9
		c-1.5,0.9-3,1.7-4.4,2.7c-3,1.8-3,2.7-3,6c-0.1,5.1,0.2,37.1-0.1,37.5c-0.7,0.9-18.3,18-19,19.2c-0.9,1.4-2,6.8-2.4,8.5l-7.9,33.3
		c-1.1,4.7,2.4,9.2,7.2,9.2c3.4,0,6.5-2.4,7.3-5.7c0.9-4,7.2-31.1,8-32.7c0.8-1.6,5.4-5.7,6.9-7.3c6.2-6.2,12.4-12.4,18.6-18.6
		c1.1-1.1,4.9-4.6,5.4-5.8c0.8-1.8,0.6-14.5,0.6-16.3l0-15.7c1.8,0.4,10.4,6.2,10.9,7.1c0.5,1,0.3,20,0.3,22.6
		c0,3.2,2.6,5.9,5.9,5.9c3.2,0,5.9-2.6,5.9-5.9V112.8L180.8,112.8z M143.9,64.8c-5.6,0.6-12.4,4.8-14,10.4
		c-1.4,4.9,0.5,14.1,6.4,15.2c3.3,0.6,5.3,0.2,8.3-1.2c5.8-2.7,13.7-8.4,12.9-15.5C156.6,66.5,150.3,64.1,143.9,64.8L143.9,64.8z"/>
</g>
</svg>
