<?xml version="1.0" encoding="utf-8"?>
<svg version="1.1"
	 xmlns="http://www.w3.org/2000/svg"
	 x="0px" y="0px" viewBox="0 0 283.5 251.7" enable-background="new 0 0 283.5 251.7" xml:space="preserve">
<g>
	
		<path fill-rule="evenodd" clip-rule="evenodd" fill="#FFFFFF" stroke="#000000" stroke-width="0.7501" stroke-miterlimit="22.9256" d="
		M157.8,10.9c41,71.1,81,144.7,123.5,214.7c6.5,10.7-3,26-15,26c-83.1,0-166.1,0-249.2,0c-12,0-21.5-15.4-15-26
		C44.6,155.6,84.6,82,125.6,10.9C134-3.6,149.4-3.6,157.8,10.9L157.8,10.9z"/>
	<path fill-rule="evenodd" clip-rule="evenodd" fill="#B92B1E" d="M129.4,13L12.3,216.7c-2.1,3.7-4.2,7.4-6.4,11.1
		c-4.7,7.7,2.5,19.4,11.3,19.4h249.2c8.7,0,15.9-11.7,11.3-19.4c-2.2-3.7-4.3-7.4-6.4-11.1L154.1,13C147.5,1.6,136,1.7,129.4,13
		L129.4,13z M135.2,227.6h112.7c1.8,0,4.7-3.9,3.6-5.8c-5.7-9.5-12.1-20.8-17.6-30.5L146.1,38.7c-2.8-4.9-6-4.9-8.8,0L37.6,212.3
		c-1.8,3.2-3.7,6.4-5.6,9.6c-1.1,1.9,1.7,5.8,3.6,5.8C68.8,227.6,102,227.6,135.2,227.6L135.2,227.6z"/>
	<path fill-rule="evenodd" clip-rule="evenodd" d="M148.2,91.8c-2.1,1.5-3.8,3.7-5,5.9c-1.5,2.8-2.5,6.3-1.7,9.5
		c1.2,4.7,7.2,11.5,12.6,9.6c3.1-1.1,4.5-2.4,6.3-5c1.5-2.2,2.8-4.5,3.8-7c1.5-3.9,2.2-8.6-0.4-12.2C159.6,87,153.2,88,148.2,91.8
		L148.2,91.8z M95.5,118.9c-3.9,3-7.1,9.2-5.7,14.2c1.2,4.2,6.8,10.2,11.6,8.4c2.8-1,4-2.3,5.6-4.7c1.3-2,2.5-4.2,3.3-6.4
		c1.3-3.6,1.8-7.9-0.7-11.1C105.7,114.4,99.9,115.4,95.5,118.9L95.5,118.9z M160.9,139.1l-6.8-11.8l-8,13.9c-0.7,1.2-1,1-2,0.4
		l-11.6-6.7c-1-0.6-2.1-0.9-3.2-0.9c-6.6,0-8.3,8.5-2.7,11.8l18.7,11c2.1,1.2,4.7,1.4,6-1L160.9,139.1L160.9,139.1z M105.9,163
		l-5.4-9.5l-7.5,4.4c-1,0.6-1.2,0.3-1.7-0.6l-4.9-8.5c-0.5-0.9-1.2-1.6-2-2.1c-4.9-2.9-9.9,2.8-7.2,7.6l8.7,15.1
		c1,1.8,3.1,3.2,5.2,2L105.9,163L105.9,163z M215.1,163.9l-14,8.2c-1.3,0.7-2.3,0.8-3.1-0.5l-7.3-12.6l-11.3,6.5l12.8,22.2
		c1.1,1.9,3.5,2.5,5.4,1.5l24-13.8L215.1,163.9L215.1,163.9z M184.9,111.3l-17.7,0c-2.3,0-2.8-0.2-4.5,1.4c-1.5,1.3-6.2,8.1-6.5,9.9
		c-0.4,2.5,0.2,3.4,1.4,5.6l12,20.9c0.2,0.4,1.3,1.9,1,2.4c-0.1,0.1-0.2,0.2-0.3,0.3l-20.5,11.8c-3,1.7-2.7,2.6-2.7,5.8l0,36.3
		c0,3.6,2.9,6.5,6.5,6.5c3.6,0,6.5-2.9,6.5-6.5v-32.2c0-0.7,0.6-0.9,1.1-1.2l26.2-14.9c3.8-2.2,6-6.8,3.7-10.8l-8.5-15.1
		c-0.5-0.9-1.1-1.9-1.7-2.8c-0.7-1.1-1.4-2.2-2-3.3c-0.2-0.3-1-1.6-0.8-2c0.2-0.3,1.3-0.2,1.6-0.2h12L184.9,111.3L184.9,111.3z
		 M129.7,173.7l-10.8,6.7l7.8,13.6c1.1,1.9,2.9,5.9,5.2,6.5c0.5,0.1,1.8,0.1,2.4,0.2c1.4,0,2.8,0,4.3,0c2.1,0,4.2,0,6.2,0v-12.6h-6
		c-0.8,0-0.9-0.1-1.3-0.8L129.7,173.7L129.7,173.7z M130,106.6c-2,0-3.8,1-4.7,2.7l-22.1,38.2c-1.1,2-1.3,3-0.2,5L110,165
		c0.2,0.3,0.3,0.6,0.3,1c0,0.7-1,1.3-1.5,1.7c-1.5,1.1-3.1,2.2-4.7,3.3c-2.5,1.8-2.2,1.9-3.6,4.4l-15.8,27.2c-0.6,1-0.9,2.1-0.9,3.2
		c0,6.4,8.5,8.8,11.8,3.2l12.2-20.8c1.5-2.6,2.9-6,5.6-7.7l15.7-9.8c1.9-1.2,2.4-2.2,1.9-4.4c-0.2-0.9-0.6-1.9-1.1-2.7l-10.3-17.4
		c-1.7-2.9-1-3.5,0.6-6.3l14.5-25.2C136.9,111.2,134.2,106.6,130,106.6L130,106.6z"/>
</g>
</svg>
