<?xml version="1.0" encoding="utf-8"?>
<svg version="1.1"
	 xmlns="http://www.w3.org/2000/svg"
	 x="0px" y="0px" viewBox="0 0 283.5 251.7" enable-background="new 0 0 283.5 251.7" xml:space="preserve">
<g>
	
		<path fill-rule="evenodd" clip-rule="evenodd" fill="#FFFFFF" stroke="#000000" stroke-width="0.7501" stroke-miterlimit="22.9256" d="
		M157.8,10.9c41,71.1,81,144.7,123.5,214.7c6.5,10.7-3,26-15,26c-83.1,0-166.1,0-249.2,0c-12,0-21.5-15.4-15-26
		C44.6,155.6,84.6,82,125.6,10.9C134-3.6,149.4-3.6,157.8,10.9L157.8,10.9z"/>
	<path fill-rule="evenodd" clip-rule="evenodd" fill="#B92B1E" d="M129.4,13L12.3,216.7c-2.1,3.7-4.2,7.4-6.4,11.1
		c-4.7,7.7,2.5,19.4,11.3,19.4h249.2c8.7,0,15.9-11.7,11.3-19.4c-2.2-3.7-4.3-7.4-6.4-11.1L154.1,13C147.5,1.6,136,1.7,129.4,13
		L129.4,13z M135.2,227.6h112.7c1.8,0,4.7-3.9,3.6-5.8c-5.7-9.5-12.1-20.8-17.6-30.5L146.1,38.7c-2.8-4.9-6-4.9-8.8,0L37.6,212.3
		c-1.8,3.2-3.7,6.4-5.6,9.6c-1.1,1.9,1.7,5.8,3.6,5.8C68.8,227.6,102,227.6,135.2,227.6L135.2,227.6z"/>
	<path fill-rule="evenodd" clip-rule="evenodd" d="M116.1,154.7h48.5l-14,33.6l-37-28.4L116.1,154.7L116.1,154.7z M89.2,162.2
		c5.1,0,9.8,1.3,13.9,3.6l8.6-18c0.3-0.6,0.6-1.2,0.5-1.9c0-0.9-0.5-1.6-1.1-2.2c-0.7-0.6-1.8-0.9-2.6-1.4c-0.8-0.5-1.6-1.2-2.3-1.9
		c-4.7-4.9-4.1-12.7,1.8-16.3c1.4-0.8,2.9-1.3,4.5-1.3l15,0c4.8,0,4.4,6.4,0.4,6.4h-14.4c-3,0-4.6,3.3-3.1,5.7
		c0.1,0.2,0.2,0.3,0.3,0.5c1.2,1.4,3.3,2,4.7,3.2c2.9,2.6,3.6,5.6,3.1,9.3l0,0.3l47.8,0l1.5-3.4h-12.5c-5.7,0-5.7-8.9,0-8.9h20.9
		c5.7,0,5.7,8.9,0,8.9H174l-0.1,0.2c-0.4,0.9-0.7,1.7-1.1,2.6c-0.3,0.7-1,2.2-1,2.9c-0.1,0.5,0.2,1.1,0.5,1.5
		c3.2,4.4,6.3,8.8,9.5,13.1c3.8-1.9,8.1-2.9,12.7-2.9c16,0,29,13,29,29s-13,29-29,29c-14.4,0-26.3-10.4-28.6-24.2l-15.8,0.1
		L110.3,166l-1.8,3.6c5.9,5.3,9.7,13,9.7,21.6c0,16-13,29-29,29c-16,0-29-13-29-29S73.2,162.2,89.2,162.2L89.2,162.2z M191.3,189.7
		h-21.1c0.4-6.9,3.8-13.1,8.8-17.2L191.3,189.7L191.3,189.7z M165.4,189.7h-9.6l13.1-31.5l7.4,10.3
		C170,173.5,165.9,181.1,165.4,189.7L165.4,189.7z M170.7,196.1l24.2-0.1c1.2,0,2.4-0.5,3.2-1.4c1.5-1.7,1.3-4,0.2-5.8
		c-1.9-2.9-3.8-5.7-5.8-8.5c-2.6-3.7-5.3-7.5-7.9-11.2c3-1.3,6.3-2.1,9.8-2.1c13.3,0,24.2,10.8,24.2,24.2
		c0,13.3-10.8,24.2-24.2,24.2C182.7,215.4,173,207.1,170.7,196.1L170.7,196.1z M101,170.2l-5.6,11.7c-0.5,1-1.3,2.6-2.1,3.4l0,0
		l-4.3,2.6c-1.6,1-3.6,3-2.7,5.1c0.1,0.2,0.3,0.5,0.4,0.7c1,1.1,2.9,1.2,4.1,0.4l7.1-4.3c1.1-0.7,2-2.5,2.6-3.7l5.7-11.8
		c4.3,4.4,7,10.4,7,17c0,13.3-10.8,24.2-24.2,24.2c-13.3,0-24.2-10.8-24.2-24.2c0-13.3,10.8-24.2,24.2-24.2
		C93.5,167.1,97.5,168.2,101,170.2L101,170.2z"/>
</g>
</svg>
