<?xml version="1.0" encoding="utf-8"?>
<svg version="1.1"
	 xmlns="http://www.w3.org/2000/svg"
	 x="0px" y="0px" viewBox="0 0 283.5 251.7" enable-background="new 0 0 283.5 251.7" xml:space="preserve">
<g>
	
		<path fill-rule="evenodd" clip-rule="evenodd" fill="#FFFFFF" stroke="#000000" stroke-width="0.7501" stroke-miterlimit="22.9256" d="
		M157.8,10.9c41,71.1,81,144.7,123.5,214.7c6.5,10.7-3,26-15,26c-83.1,0-166.1,0-249.2,0c-12,0-21.5-15.4-15-26
		C44.6,155.6,84.6,82,125.6,10.9C134-3.6,149.4-3.6,157.8,10.9L157.8,10.9z"/>
	<path fill-rule="evenodd" clip-rule="evenodd" fill="#B92B1E" d="M129.4,13L12.3,216.7c-2.1,3.7-4.2,7.4-6.4,11.1
		c-4.7,7.7,2.5,19.4,11.3,19.4h249.2c8.7,0,15.9-11.7,11.3-19.4c-2.2-3.7-4.3-7.4-6.4-11.1L154.1,13C147.5,1.6,136,1.7,129.4,13
		L129.4,13z M135.2,227.6h112.7c1.8,0,4.7-3.9,3.6-5.8c-5.7-9.5-12.1-20.8-17.6-30.5L146.1,38.7c-2.8-4.9-6-4.9-8.8,0L37.6,212.3
		c-1.8,3.2-3.7,6.4-5.6,9.6c-1.1,1.9,1.7,5.8,3.6,5.8C68.8,227.6,102,227.6,135.2,227.6L135.2,227.6z"/>
	<path fill-rule="evenodd" clip-rule="evenodd" d="M163.6,92.4c2.3,1.7,4.3,4.2,5.7,6.8c1.7,3.2,2.8,7.2,1.9,10.9
		c-1.4,5.3-8.2,13.1-14.3,11c-3.5-1.2-5.1-2.7-7.2-5.7c-1.7-2.5-3.2-5.2-4.3-8c-1.7-4.4-2.5-9.8,0.5-13.9
		C150.6,87.1,157.9,88.2,163.6,92.4L163.6,92.4z M129.4,179.3c0.1,1.6-0.1,2.6-0.8,4l-18.2,31.4l-1,1.7c-3.9,6.7-14.3,4-14.3-3.8
		c0-2.6,1.3-4.3,2.5-6.4l15.3-26.6c0.5-1.3,0.1-2.8-0.1-4.2l-1.9-14.8l17.5,10.1C128.3,170.9,129.3,177.3,129.4,179.3L129.4,179.3z
		 M135.6,154.3l9.3-15.9l6.7,25.1L135.6,154.3L135.6,154.3z M108.4,139.3l7.9,4.5c4.4-7.3,8.9-14.7,13.1-22.1h-10.8L108.4,139.3
		L108.4,139.3z M167.3,173.3l32.7,18.9c4.7-4.9,5.2-9.5,13.8-20.8l28.5,49.4h-81.1c2.4-3.6,6.1-8.4,9.3-11.1
		c13.2-11,19.2-9.8,25.7-14.2l-29.5-17c-0.8,2.6-3.1,3.2-5.5,3.5v30.6c0,4.2-3.4,7.7-7.6,7.7c-4.2,0-7.7-3.5-7.7-7.7V182
		c0-3.8,0-3.5-4-5.9l-28.6-16.5c-3-1.8-3.9-3.8-2.1-7c0.9-1.5,1.7-3.1,2.6-4.6l-7.9-4.5l-1.7,2.8c-3.5,6.2-12.8,3.7-12.8-3.3
		c0-1.5,0.5-2.8,1.3-4c2.4-3.8,15.7-27.4,16.6-28.6c1.4-1.8,3.2-1.9,5.4-2c3.5,0,21-0.2,23.1,0.1c1.2,0.1,2.6,1,3.5,1.8l11.5,12
		c1.4,1.5,1.9,2.9,2.6,4.8L167.3,173.3L167.3,173.3z"/>
</g>
</svg>
