<?xml version="1.0" encoding="utf-8"?>
<svg version="1.1"
	 xmlns="http://www.w3.org/2000/svg"
	 x="0px" y="0px" viewBox="0 0 283.5 251.7" enable-background="new 0 0 283.5 251.7" xml:space="preserve">
<g>
	
		<path fill-rule="evenodd" clip-rule="evenodd" fill="#FFFFFF" stroke="#000000" stroke-width="0.7501" stroke-miterlimit="22.9256" d="
		M157.8,10.9c41,71.1,81,144.7,123.5,214.7c6.5,10.7-3,26-15,26c-83.1,0-166.1,0-249.2,0c-12,0-21.5-15.4-15-26
		C44.6,155.6,84.6,82,125.6,10.9C134-3.6,149.4-3.6,157.8,10.9L157.8,10.9z"/>
	<path fill-rule="evenodd" clip-rule="evenodd" fill="#B92B1E" d="M129.4,13L12.3,216.7c-2.1,3.7-4.2,7.4-6.4,11.1
		c-4.7,7.7,2.5,19.4,11.3,19.4h249.2c8.7,0,15.9-11.7,11.3-19.4c-2.2-3.7-4.3-7.4-6.4-11.1L154.1,13C147.5,1.6,136,1.7,129.4,13
		L129.4,13z M135.2,227.6h112.7c1.8,0,4.7-3.9,3.6-5.8c-5.7-9.5-12.1-20.8-17.6-30.5L146.1,38.7c-2.8-4.9-6-4.9-8.8,0L37.6,212.3
		c-1.8,3.2-3.7,6.4-5.6,9.6c-1.1,1.9,1.7,5.8,3.6,5.8C68.8,227.6,102,227.6,135.2,227.6L135.2,227.6z"/>
	<path fill-rule="evenodd" clip-rule="evenodd" d="M107.4,161.5C107.4,161.5,107.4,161.5,107.4,161.5L107.4,161.5z M189.2,136.9
		c4.4,0,7.9,3.6,7.9,7.9c0,2.1-0.2,19.7,0.3,22.1c0.5,2.3,8.5,10.4,9.8,13.8c0.3,0.8,0.4,1.5,0.6,2.2l2.1,31.9
		c0.3,5-7.4,5.8-8.2,0.9l-3.1-18.9c-0.3-0.8-1.7-2.8-2.5-3.5c-3.5-2.9-11.3-2.7-14.1-5.3c-3.7-3.4-2.1-10.4-9.3-7.9
		c-2,0.7-21.8,8.4-22.4,9c-1.7,1.6-1.3,6.8-1.3,9.4v16.9c0,4.9-8.3,4.9-8.3,0c0-3.5,0.2-18.1-0.3-20.7c-0.3-1.5-1.7-2.6-3-3.3
		c-2.5-1.4-15-0.1-17.8-1.4c-1.1-0.5-2.8-1.8-3.6-2.8c-2.7-3.4-7.6-24.8-8.5-25.6l17.7,0c4.8-1.2,4.8-5.5,5.8-11.2
		c0.4-2.5,1.9-12.1,2.9-13.1c0.6-0.5,1.7-0.4,2.4-0.3H189.2L189.2,136.9z M185.3,194.5l-9.2,22.2c-0.8,1.9-2.9,2.8-4.8,2.1l-0.9-0.3
		c-1.9-0.7-2.9-3.5-2.1-5.3l10.4-25.4L185.3,194.5L185.3,194.5z M124.1,194h9.7l-8.7,22.4c-0.7,1.9-3.3,3.1-5.1,2.3l-0.9-0.3
		c-1.9-0.7-3-3.2-2.2-5.1L124.1,194L124.1,194z M125,115.9c2.9-3.2,2.7,8.3,5.7,9.4c2.7,0.2,4.8,2,4.8,4.1c0,2.2-2.2,3.9-4.9,4.2
		l-4.5,22.2c-0.3,1.4-1.3,2.4-2.9,2.4h-18c-1.6,0-2.6-1-2.9-2.4l-4.5-22.2c-2.8-0.2-4.9-2-4.9-4.2c0-2.1,2.1-3.9,4.8-4.1
		c3.1-1.1,2.8-12.6,5.7-9.4c1,1.1,2.1,7.6,2.8,8.8c0.2,0.4,6.8,0.2,7.9,0.2c1,0,7.8,0.2,8-0.2C122.9,123.6,124,117,125,115.9
		L125,115.9z"/>
</g>
</svg>
