<?xml version="1.0" encoding="utf-8"?>
<svg version="1.1"
	 xmlns="http://www.w3.org/2000/svg"
	 x="0px" y="0px" viewBox="0 0 283.5 251.7" enable-background="new 0 0 283.5 251.7" xml:space="preserve">
<g>
	
		<path fill-rule="evenodd" clip-rule="evenodd" fill="#FFFFFF" stroke="#000000" stroke-width="0.7501" stroke-miterlimit="22.9256" d="
		M157.8,10.9c41,71.1,81,144.7,123.5,214.7c6.5,10.7-3,26-15,26c-83.1,0-166.1,0-249.2,0c-12,0-21.5-15.4-15-26
		C44.6,155.6,84.6,82,125.6,10.9C134-3.6,149.4-3.6,157.8,10.9L157.8,10.9z"/>
	<path fill-rule="evenodd" clip-rule="evenodd" fill="#B92B1E" d="M129.4,13L12.3,216.7c-2.1,3.7-4.2,7.4-6.4,11.1
		c-4.7,7.7,2.5,19.4,11.3,19.4h249.2c8.7,0,15.9-11.7,11.3-19.4c-2.2-3.7-4.3-7.4-6.4-11.1L154.1,13C147.5,1.6,136,1.7,129.4,13
		L129.4,13z M135.2,227.6h112.7c1.8,0,4.7-3.9,3.6-5.8c-5.7-9.5-12.1-20.8-17.6-30.5L146.1,38.7c-2.8-4.9-6-4.9-8.8,0L37.6,212.3
		c-1.8,3.2-3.7,6.4-5.6,9.6c-1.1,1.9,1.7,5.8,3.6,5.8C68.8,227.6,102,227.6,135.2,227.6L135.2,227.6z"/>
	<path fill-rule="evenodd" clip-rule="evenodd" d="M173.1,190.4V216c0,2.2,1.8,4,4,4h0.6c2.2,0,4-1.8,4-4v-20.3
		C179.3,193.2,176.5,191.4,173.1,190.4L173.1,190.4z M130.8,157.9l-8.1-3.2c-1.2,3-2.4,6.1-3.6,9.1c-0.6,1.6-1.3,3.1-1.8,4.7
		c-0.3,0.9-0.6,1.8-0.6,2.8c0,1.8,1.2,4.5,1.8,6.2l7,18.9c1.8,5,9.9,2,8-3l-7-18.9c-0.8-2.2-1.2-3.4-0.3-5.6L130.8,157.9
		L130.8,157.9z M141,94c4.4-4.9,8.9-10,13.1-15.1c0.8-1,2.2-2.6,2.6-3.8c0.1-0.5,0.2-1,0.2-1.5l0-4.5c0-1-0.4-1.6-1.2-2.1
		c-0.6-0.4-1.8-0.4-2.5-0.2c-1.2,0.4-1.8,1.3-1.8,2.5l-0.1,2.7c0,1.3-0.4,1.6-1.3,2.6l-8.7,9.9l0-5.3c0-2.1-2.9-3.4-4.6-2.5
		c-1.3,0.7-2,1.6-2,3.1l-0.1,5.7l-0.4-0.3c-1.1-0.8-2.2-1.5-3.2-2.3c-1-0.7-2.2-1.5-3-2.4c-0.3-0.3-0.6-0.6-0.5-1.1l1.4-4.8
		c0.4-1.5,0.3-3.2-1.3-3.7c-1-0.3-2-0.2-2.8,0.5c-1,0.8-2.5,6.8-2.9,8.3c-0.7,2.3-1,3,1.1,4.5l8.3,6.2c0.4,0.3,1.7,1.1,1.8,1.6
		c0,0.1,0,0.2,0,0.3l-0.1,2.4l-0.3,0c-2.8-0.3-5.6-0.8-8.4-1.2c-1.9-0.2-3.7-0.5-5.6-0.6c-1.1-0.1-2.8-0.2-3.9,0
		c-2.8,0.5-4.2,2.9-3.2,5.6c0.4,1.3,6.3,5.2,7.6,6.1c1.1,0.8,7.7,5.1,8.1,6.1c0.3,0.8-2,13.6-2.3,15.1c-0.5,3.1-1.1,6.2-1.7,9.3
		c-0.3,1.8-0.7,3.6-0.9,5.4l-0.1,0.4l-15.8-8.1c-1.3-0.7-2.7-0.6-3.9,0.2c-1.3,0.8-1.6,2.4-1.9,3.8l-6,32c-0.2,1.2,0,2.3,0.8,3.2
		c2.2,2.5,7,1.9,7.6-1.8l4.7-25.1c0.3-1.6,1.6-1,2.7-0.4l16.4,8.1c5.2,2.6,7.1-1.7,8.6-1.2c0.4,0.1,1.1,0.6,1.4,0.8
		c1,0.6,1.9,1.3,2.9,1.9c2.8,1.9,5.6,3.8,8.4,5.7c4.1,2.8,8.2,5.6,12.3,8.4c1.7,1.1,3.4,2.2,5,3.4c0.5,0.4,1.6,1.1,1.9,1.6
		c0.4,0.7,0.8,1.9,1,2.7c0.5,1.4,0.9,2.9,1.4,4.3c0.4,1.4,0.9,2.8,1.4,4.1c0.3,0.8,0.7,1.9,1.2,2.6c0.3,0.4,0.6,0.8,1,1.1
		c1,0.8,2.5,1.3,3.6,1.9c2.2,1.2,4.2,2.6,6,4.3c1.9,1.7,2.4,2.7,3.3,5c2.5,7.2,5.7,14.2,8.6,21.3c0.5,1.1,1.3,2,2.5,2.3
		c3.2,0.9,6.8-2.1,5.4-5.6l-10-25.9c-0.4-0.9-0.7-2.3-1.3-3.1c-0.9-1.2-2.1-2.2-3.2-3.2c-1.6-1.4-5.2-4.1-4.3-6.5l0,0l8-14.7
		c0.9-1.6,2.5-4.4,2.1-6.3c-0.4-2.3-4.1-4.6-5.8-5.8l-37.7-25.8c-1-0.7-1.5-2.1-1.8-3.2c-0.5-1.7-0.9-3.5-1.3-5.2l-4.3-15.7l4-0.3
		c1-0.1,1.9-0.7,2.5-1.5c0.8-1.2,0.7-2.7,0.2-4c-0.9-2.2-6.3-1.7-8.3-1.8l-0.6,0L141,94L141,94z"/>
</g>
</svg>
