<?xml version="1.0" encoding="utf-8"?>
<svg version="1.1"
	 xmlns="http://www.w3.org/2000/svg"
	 x="0px" y="0px" viewBox="0 0 283.5 251.7" enable-background="new 0 0 283.5 251.7" xml:space="preserve">
<g>
	
		<path fill-rule="evenodd" clip-rule="evenodd" fill="#FFFFFF" stroke="#000000" stroke-width="0.7501" stroke-miterlimit="22.9256" d="
		M157.8,10.9c41,71.1,81,144.7,123.5,214.7c6.5,10.7-3,26-15,26c-83.1,0-166.1,0-249.2,0c-12,0-21.5-15.4-15-26
		C44.6,155.6,84.6,82,125.6,10.9C134-3.6,149.4-3.6,157.8,10.9L157.8,10.9z"/>
	<path fill-rule="evenodd" clip-rule="evenodd" fill="#B92B1E" d="M129.4,13L12.3,216.7c-2.1,3.7-4.2,7.4-6.4,11.1
		c-4.7,7.7,2.5,19.4,11.3,19.4h249.2c8.7,0,15.9-11.7,11.3-19.4c-2.2-3.7-4.3-7.4-6.4-11.1L154.1,13C147.5,1.6,136,1.7,129.4,13
		L129.4,13z M135.2,227.6h112.7c1.8,0,4.7-3.9,3.6-5.8c-5.7-9.5-12.1-20.8-17.6-30.5L146.1,38.7c-2.8-4.9-6-4.9-8.8,0L37.6,212.3
		c-1.8,3.2-3.7,6.4-5.6,9.6c-1.1,1.9,1.7,5.8,3.6,5.8C68.8,227.6,102,227.6,135.2,227.6L135.2,227.6z"/>
	<path fill-rule="evenodd" clip-rule="evenodd" d="M172.5,99.3l70.1,121.4H97.4c2-4.9,4.5-11.6,8.4-15.8c1.6-1.7,8.3-7.6,10.3-9
		c4.1-2.8,8.1-4.1,10.5-7c3.1-3.8,4.9-4.7,7.5-9.5c4.3-7.7,7.3-13.6,13.3-20.9c5-6.2,4.5-4.8,7.9-12.4c4-8.9,3-12.9,5.1-21
		c0.8-3.1,3.5-10.2,5-13.4C167.2,107.7,170.3,102.9,172.5,99.3L172.5,99.3z M86.2,182.7c8.8,0,16,7.2,16,16c0,8.8-7.2,16-16,16
		c-8.8,0-16-7.2-16-16C70.2,189.8,77.4,182.7,86.2,182.7L86.2,182.7z M119.1,167.4c5.8,0,10.4,4.7,10.4,10.4
		c0,5.8-4.7,10.4-10.4,10.4c-5.8,0-10.4-4.7-10.4-10.4C108.6,172.1,113.3,167.4,119.1,167.4L119.1,167.4z M106.6,149.4
		c3.4,0,6.2,2.8,6.2,6.1c0,3.4-2.8,6.2-6.2,6.2c-3.4,0-6.1-2.8-6.1-6.2C100.5,152.2,103.2,149.4,106.6,149.4L106.6,149.4z
		 M130.7,135.5c4.2,0,7.6,3.4,7.6,7.6c0,4.2-3.4,7.6-7.6,7.6c-4.2,0-7.6-3.4-7.6-7.6C123.2,138.8,126.6,135.5,130.7,135.5
		L130.7,135.5z M147.5,137c-3.7,0-6.7-3-6.7-6.7c0-3.7,3-6.7,6.7-6.7c3.7,0,6.7,3,6.7,6.7C154.1,134,151.2,137,147.5,137L147.5,137z
		 M156.7,100.8c2.8,0,5,2.2,5,5c0,2.8-2.2,5-5,5c-2.8,0-5-2.2-5-5C151.7,103,153.9,100.8,156.7,100.8L156.7,100.8z"/>
</g>
</svg>
