<?xml version="1.0" encoding="utf-8"?>
<svg version="1.1"
	 xmlns="http://www.w3.org/2000/svg"
	 x="0px" y="0px" viewBox="0 0 283.5 251.7" enable-background="new 0 0 283.5 251.7" xml:space="preserve">
<g>
	
		<path fill-rule="evenodd" clip-rule="evenodd" fill="#FFFFFF" stroke="#000000" stroke-width="0.7501" stroke-miterlimit="22.9256" d="
		M157.8,10.9c41,71.1,81,144.7,123.5,214.7c6.5,10.7-3,26-15,26c-83.1,0-166.1,0-249.2,0c-12,0-21.5-15.4-15-26
		C44.6,155.6,84.6,82,125.6,10.9C134-3.6,149.4-3.6,157.8,10.9L157.8,10.9z"/>
	<path fill-rule="evenodd" clip-rule="evenodd" fill="#B92B1E" d="M129.4,13L12.3,216.7c-2.1,3.7-4.2,7.4-6.4,11.1
		c-4.7,7.7,2.5,19.4,11.3,19.4h249.2c8.7,0,15.9-11.7,11.3-19.4c-2.2-3.7-4.3-7.4-6.4-11.1L154.1,13C147.5,1.6,136,1.7,129.4,13
		L129.4,13z M135.2,227.6h112.7c1.8,0,4.7-3.9,3.6-5.8c-5.7-9.5-12.1-20.8-17.6-30.5L146.1,38.7c-2.8-4.9-6-4.9-8.8,0L37.6,212.3
		c-1.8,3.2-3.7,6.4-5.6,9.6c-1.1,1.9,1.7,5.8,3.6,5.8C68.8,227.6,102,227.6,135.2,227.6L135.2,227.6z"/>
	<path fill-rule="evenodd" clip-rule="evenodd" d="M137.2,172.1c-8.5-1.6-15-9.2-15-18.2c0-10.1,8.1-18.3,18.2-18.4
		c0.1,0,0.8,0,0.9,0l8.9,2.9c-9.1,0-16,9.1-16,17.4s5.7,14.2,12.4,16.3H137.2L137.2,172.1z M200.5,156c4.5,0,8.1,3.6,8.1,8.1
		c0,4.5-3.6,8.1-8.1,8.1c-4.5,0-8.1-3.6-8.1-8.1C192.5,159.6,196.1,156,200.5,156L200.5,156z M112.1,170.7
		c-13.2,0.2-23.4-9.5-23.4-21.5c0-11.7,10-21.6,21.8-21.2c8.4,0.3,10.8,1.9,15.2,3.5C103.2,130.3,93.6,156.2,112.1,170.7
		L112.1,170.7z M170.4,145.5l10.5,3.6c-10.8,4.3-12,16.2-2.6,23h-11.8c-0.2,0-0.9-0.2-1.2-0.4c-5.4-2-8.9-6.7-8.9-12.7
		c0-6.1,4-11.3,9.5-13.1C167.9,145.5,170.4,145.5,170.4,145.5L170.4,145.5z M104.8,220.3H116v-47h84.7c10.4,0,12.7-14.6,3-17.9
		l-81.9-27.9c-2-0.7-4-1.3-5.9-1.8v-7.6c0-7.2-11.2-7.2-11.2,0v7.5c-10.9,2.3-19.1,12-19.1,23.6c0,11.6,8.2,21.3,19.1,23.6V220.3
		L104.8,220.3z"/>
</g>
</svg>
