<?xml version="1.0" encoding="utf-8"?>
<svg version="1.1"
	 xmlns="http://www.w3.org/2000/svg"
	 x="0px" y="0px" viewBox="0 0 283.5 183" enable-background="new 0 0 283.5 183" xml:space="preserve">
<g>
	<polygon fill-rule="evenodd" clip-rule="evenodd" fill="#FFFFFF" stroke="#000000" stroke-width="0.5669" stroke-miterlimit="22.9256" points="
		141.7,61.5 248.3,0 283.5,9.6 273.8,44.9 193,91.5 273.8,138.2 283.5,173.4 248.3,183 141.7,121.5 35.2,183 0,173.4 9.6,138.2 
		90.4,91.5 9.6,44.9 0,9.6 35.2,0 141.7,61.5 	"/>
	<path fill-rule="evenodd" clip-rule="evenodd" fill="#B92B1E" d="M141.7,64L248.6,2.2l32.3,8.8L272,43.5l-83.2,48l83.2,48l8.9,32.4
		l-32.3,8.8l-106.8-61.7L34.9,180.8L2.6,172l8.9-32.4l83.2-48l-83.2-48L2.6,11.1l32.3-8.8L141.7,64L141.7,64z M33.4,14.1l-17.2,4.7
		l4.8,17.4l95.8,55.3l-95.8,55.3l-4.8,17.4l17.2,4.7l108.4-62.6l108.4,62.6l17.2-4.7l-4.8-17.4l-95.8-55.3l95.8-55.3l4.8-17.4
		l-17.2-4.7L141.7,76.7L33.4,14.1L33.4,14.1z"/>
</g>
</svg>
