<?xml version="1.0" encoding="utf-8"?>
<svg version="1.1"
	 xmlns="http://www.w3.org/2000/svg"
	 x="0px" y="0px" viewBox="0 0 283.7 303.7" enable-background="new 0 0 283.7 303.7" xml:space="preserve">
<g>
	<polygon fill-rule="evenodd" clip-rule="evenodd" fill="#FFFFFF" stroke="#000000" stroke-width="0.5669" stroke-miterlimit="22.9256" points="
		141.9,61.5 248.5,0 283.7,9.6 274,44.9 193.2,91.5 274,138.2 283.7,173.4 248.5,183 141.9,121.5 35.4,183 0.2,173.4 9.8,138.2 
		90.6,91.5 9.8,44.9 0.2,9.6 35.4,0 141.9,61.5 	"/>
	<path fill-rule="evenodd" clip-rule="evenodd" fill="#B92B1E" d="M141.9,64L248.8,2.2l32.3,8.8l-8.9,32.4l-83.2,48l83.2,48
		l8.9,32.4l-32.3,8.8l-106.8-61.7L35.1,180.8L2.8,172l8.9-32.4l83.2-48l-83.2-48L2.8,11.1l32.3-8.8L141.9,64L141.9,64z M33.5,14.1
		l-17.2,4.7l4.8,17.4l95.8,55.3l-95.8,55.3l-4.8,17.4l17.2,4.7l108.4-62.6l108.4,62.6l17.2-4.7l-4.8-17.4L167,91.5l95.8-55.3
		l4.8-17.4l-17.2-4.7L141.9,76.7L33.5,14.1L33.5,14.1z"/>
	
		<polygon fill-rule="evenodd" clip-rule="evenodd" fill="#FFFFFF" stroke="#000000" stroke-width="0.5669" stroke-miterlimit="22.9256" points="
		141.8,242.3 35.2,303.7 0,294 9.7,258.7 141.8,182.6 273.9,258.7 283.6,294 248.4,303.7 141.8,242.3 	"/>
	<path fill-rule="evenodd" clip-rule="evenodd" fill="#B92B1E" d="M141.8,197.7l-25,14.5l-95.9,55.2l-4.8,17.4l17.2,4.7l108.4-62.4
		L141.8,197.7L141.8,197.7z M141.8,197.7l25,14.5l95.9,55.2l4.8,17.4l-17.2,4.7l-108.4-62.4L141.8,197.7L141.8,197.7z M141.8,197.7
		L141.8,197.7L141.8,197.7L141.8,197.7z M141.8,197.7L141.8,197.7L141.8,197.7L141.8,197.7z M141.8,239.8L34.9,301.4l-32.3-8.9
		l8.9-32.4l83.3-47.9l47.1-27.2l47.1,27.2l83.3,47.9l8.9,32.4l-32.3,8.9L141.8,239.8L141.8,239.8z"/>
</g>
</svg>
