<?xml version="1.0" encoding="utf-8"?>
<svg version="1.1"
	 xmlns="http://www.w3.org/2000/svg"
	 x="0px" y="0px" viewBox="0 0 283.5 251.7" enable-background="new 0 0 283.5 251.7" xml:space="preserve">
<g>
	
		<path fill-rule="evenodd" clip-rule="evenodd" fill="#FFFFFF" stroke="#000000" stroke-width="0.7501" stroke-miterlimit="22.9256" d="
		M157.8,10.9c41,71.1,81,144.7,123.5,214.7c6.5,10.7-3,26-15,26c-83.1,0-166.1,0-249.2,0c-12,0-21.5-15.4-15-26
		C44.6,155.6,84.6,82,125.6,10.9C134-3.6,149.4-3.6,157.8,10.9L157.8,10.9z"/>
	<path fill-rule="evenodd" clip-rule="evenodd" fill="#B92B1E" d="M129.4,13L12.3,216.7c-2.1,3.7-4.2,7.4-6.4,11.1
		c-4.7,7.7,2.5,19.4,11.3,19.4h249.2c8.7,0,15.9-11.7,11.3-19.4c-2.2-3.7-4.3-7.4-6.4-11.1L154.1,13C147.5,1.6,136,1.7,129.4,13
		L129.4,13z M135.2,227.6h112.7c1.8,0,4.7-3.9,3.6-5.8c-5.7-9.5-12.1-20.8-17.6-30.5L146.1,38.7c-2.8-4.9-6-4.9-8.8,0L37.6,212.3
		c-1.8,3.2-3.7,6.4-5.6,9.6c-1.1,1.9,1.7,5.8,3.6,5.8C68.8,227.6,102,227.6,135.2,227.6L135.2,227.6z"/>
	<path fill-rule="evenodd" clip-rule="evenodd" d="M158.8,75.7l-13.7-7.5l-0.1,69.9c0,2.2,0.1,4.4-0.1,6.5c-0.1,1.4-0.4,3.3-1.6,4.2
		c-2.2,1.6-6.2-0.7-8.1-1.9l-15.4-9.3c-5.4-3.3-4.5-2.1-5.2-8.4l-1.8-14.5l-10.1-8l-0.5,27.9l-24.6,13.1l11.7,5.4l13.8-5
		c5.9-2.1,4.4-2.5,9.8,0.9l15.3,9.5c1.9,1.2,5.8,3.7,5.3,6.4c-0.3,1.5-1.8,2.6-3,3.4c-1.8,1.1-3.9,2.1-5.8,3.1l-62.3,31.8l12.9,8.8
		l85.9-29.4c3.7-1.3,3.8-1.1,7,0.9l43.8,27.2c3.4,2.1,8,1,10.1-2.4c2.1-3.4,1-8-2.4-10.1l-44.1-26.7c-3.3-2-3.4-2-4-5.9L158.8,75.7
		L158.8,75.7z"/>
</g>
</svg>
