<?xml version="1.0" encoding="utf-8"?>
<svg version="1.1"
	 xmlns="http://www.w3.org/2000/svg"
	 x="0px" y="0px" viewBox="0 0 283.5 251.7" enable-background="new 0 0 283.5 251.7" xml:space="preserve">
<g>
	
		<path fill-rule="evenodd" clip-rule="evenodd" fill="#FFFFFF" stroke="#000000" stroke-width="0.7501" stroke-miterlimit="22.9256" d="
		M157.8,10.9c41,71.1,81,144.7,123.5,214.7c6.5,10.7-3,26-15,26c-83.1,0-166.1,0-249.2,0c-12,0-21.5-15.4-15-26
		C44.6,155.6,84.6,82,125.6,10.9C134-3.6,149.4-3.6,157.8,10.9L157.8,10.9z"/>
	<path fill-rule="evenodd" clip-rule="evenodd" fill="#B92B1E" d="M129.4,13L12.3,216.7c-2.1,3.7-4.2,7.4-6.4,11.1
		c-4.7,7.7,2.5,19.4,11.3,19.4h249.2c8.7,0,15.9-11.7,11.3-19.4c-2.2-3.7-4.3-7.4-6.4-11.1L154.1,13C147.5,1.6,136,1.7,129.4,13
		L129.4,13z M135.2,227.6h112.7c1.8,0,4.7-3.9,3.6-5.8c-5.7-9.5-12.1-20.8-17.6-30.5L146.1,38.7c-2.8-4.9-6-4.9-8.8,0L37.6,212.3
		c-1.8,3.2-3.7,6.4-5.6,9.6c-1.1,1.9,1.7,5.8,3.6,5.8C68.8,227.6,102,227.6,135.2,227.6L135.2,227.6z"/>
	<path fill-rule="evenodd" clip-rule="evenodd" d="M176.3,159.6h17.9c2.3,0,3.4,1.9,4.1,4l4.8,14.3h-53.8l4.8-14.3
		c0.7-2.1,1.9-4,4.1-4H176.3L176.3,159.6z M194.7,214.5l0-8.8l13.5,0l0,8.8c0,3.8-3,6.9-6.8,6.9
		C197.8,221.3,194.7,218.3,194.7,214.5L194.7,214.5z M157.9,214.5l0-8.8l-13.5,0l0,8.8c0,3.8,3,6.9,6.8,6.9
		C154.9,221.3,157.9,218.3,157.9,214.5L157.9,214.5z M142.9,140.1l-3.6-10.9c-0.7-2.1-1.8-4-4-4h-34.7c-2.2,0-3.3,1.9-4,4l-4.7,14.4
		c-2.2,0.4-3.9,2.4-3.9,4.7l0,12.1c0,2.6,2.1,4.8,4.8,4.8l21.2,0c0,0.2,0,0.5,0,0.7l0,13.6c0,3,2.4,5.4,5.3,5.4l20.6,0l0,13.6
		c0,3.2,2.6,5.9,5.8,5.9l30.8,0l30.8,0c3.2,0,5.8-2.7,5.8-5.9l0-14.9c0-2.9-2.1-5.3-4.8-5.8l-5.8-17.7c-0.8-2.6-2.2-4.9-4.9-4.9
		h-22.7l-3.5-10.8c-0.8-2.4-2-4.5-4.5-4.5H142.9L142.9,140.1z M170.3,155.4h-15.1c-2.7,0-4,2.4-4.9,4.9l-0.1,0.4h-27.4l4.4-13
		c0.7-1.9,1.7-3.7,3.8-3.7h16.5h16.5c2.1,0,3.1,1.8,3.8,3.7L170.3,155.4L170.3,155.4z M138.8,140.1H128c-2.1,0-3.3,1.5-4.1,3.5h-28
		l4-11.6c0.6-1.7,1.5-3.3,3.4-3.3h14.7h14.7c1.9,0,2.8,1.6,3.4,3.3L138.8,140.1L138.8,140.1z M102.9,173.5l0-7.2l-11.1,0l0,7.2
		c0,3.1,2.5,5.6,5.6,5.6C100.4,179.2,102.9,176.6,102.9,173.5L102.9,173.5z M130.6,194.2l0-8l-12.4,0l0,8c0,3.5,2.8,6.3,6.2,6.3
		C127.8,200.5,130.6,197.7,130.6,194.2L130.6,194.2z"/>
</g>
</svg>
