<?xml version="1.0" encoding="utf-8"?>
<svg version="1.1"
	 xmlns="http://www.w3.org/2000/svg"
	 x="0px" y="0px" viewBox="0 0 283.5 55.6" enable-background="new 0 0 283.5 55.6" xml:space="preserve">
<g>
	
		<polygon fill-rule="evenodd" clip-rule="evenodd" fill="#FFFFFF" stroke="#000000" stroke-width="0.5669" stroke-miterlimit="22.9256" points="
		283.5,0 0,0 0,55.6 283.5,55.6 283.5,0 	"/>
	<path fill-rule="evenodd" clip-rule="evenodd" fill="#B92B1E" d="M28,51L4.8,27.8V51H28L28,51z M28,4.6L4.8,27.8V4.6H28L28,4.6z
		 M233.7,4.6h-46.4l-23.2,23.2L187.3,51h46.4l-23.2-23.2L233.7,4.6L233.7,4.6z M165.4,4.6H119L95.8,27.8L119,51h46.4l-23.2-23.2
		L165.4,4.6L165.4,4.6z M96.9,4.6H50.5L27.3,27.8L50.5,51h46.4L73.7,27.8L96.9,4.6L96.9,4.6z M278.8,4.6h-23.2l-23.2,23.2L255.6,51
		h23.2V4.6L278.8,4.6z"/>
</g>
</svg>
