<?xml version="1.0" encoding="utf-8"?>
<svg version="1.1"
	 xmlns="http://www.w3.org/2000/svg"
	 x="0px" y="0px" viewBox="0 0 141.7 283.5" enable-background="new 0 0 141.7 283.5" xml:space="preserve">
<g>
	
		<path fill-rule="evenodd" clip-rule="evenodd" fill="#FFFFFF" stroke="#000000" stroke-width="0.5669" stroke-miterlimit="22.9256" d="
		M123.9,0H17.8C8,0,0,8,0,17.8v247.9c0,9.8,8,17.8,17.8,17.8h106.1c9.8,0,17.8-8,17.8-17.8V17.8C141.7,8,133.7,0,123.9,0L123.9,0z"
		/>
	<path fill-rule="evenodd" clip-rule="evenodd" d="M123.9,4H17.8C10.2,4,4,10.2,4,17.8v247.9c0,7.6,6.2,13.8,13.8,13.8h106.1
		c7.6,0,13.8-6.2,13.8-13.8V17.8C137.7,10.2,131.5,4,123.9,4L123.9,4z M123.9,8.5H17.8c-5.1,0-9.3,4.2-9.3,9.3v247.9
		c0,5.1,4.2,9.3,9.3,9.3h106.1c5.1,0,9.3-4.2,9.3-9.3V17.8C133.3,12.7,129.1,8.5,123.9,8.5L123.9,8.5z"/>
	<polygon fill-rule="evenodd" clip-rule="evenodd" fill="#B92B1E" points="8.5,120.8 133.3,192.2 133.3,162.5 8.5,91.2 8.5,120.8 	
		"/>
</g>
</svg>
