<?xml version="1.0" encoding="utf-8"?>
<svg version="1.1"
	 xmlns="http://www.w3.org/2000/svg"
	 x="0px" y="0px" viewBox="0 0 283.5 251.7" enable-background="new 0 0 283.5 251.7" xml:space="preserve">
<g>
	
		<path fill-rule="evenodd" clip-rule="evenodd" fill="#FFFFFF" stroke="#000000" stroke-width="0.7501" stroke-miterlimit="22.9256" d="
		M157.8,10.9c41,71.1,81,144.7,123.5,214.7c6.5,10.7-3,26-15,26c-83.1,0-166.1,0-249.2,0c-12,0-21.5-15.4-15-26
		C44.6,155.6,84.6,82,125.6,10.9C134-3.6,149.4-3.6,157.8,10.9L157.8,10.9z"/>
	<path fill-rule="evenodd" clip-rule="evenodd" fill="#B92B1E" d="M129.4,13.1L12.3,216.8c-2.1,3.7-4.2,7.4-6.4,11.1
		c-4.7,7.7,2.5,19.4,11.3,19.4h249.2c8.7,0,15.9-11.7,11.3-19.4c-2.2-3.7-4.3-7.4-6.4-11.1L154.1,13.1C147.5,1.8,136,1.8,129.4,13.1
		L129.4,13.1z M135.2,227.7h112.7c1.8,0,4.7-3.9,3.6-5.8c-5.7-9.5-12.1-20.8-17.6-30.5L146.1,38.8c-2.8-4.9-6-4.9-8.8,0L37.6,212.4
		c-1.8,3.2-3.7,6.4-5.6,9.6c-1.1,1.9,1.7,5.8,3.6,5.8C68.8,227.7,102,227.7,135.2,227.7L135.2,227.7z"/>
	<path fill-rule="evenodd" clip-rule="evenodd" d="M141.7,145.3h-11.3l-7-8.3l18.3-16.7v0l0,0l18.3,16.7l-7,8.3H141.7L141.7,145.3z
		 M128.8,148.3h13h13l9.6-11.4L143,117.5l0-6.3h-1.3h-1.3l0,6.3l-21.3,19.4L128.8,148.3L128.8,148.3z M179,207.6
		c-1,3.7-4.4,6.5-8.4,6.5c-4.8,0-8.7-3.9-8.7-8.7c0-4.8,3.9-8.7,8.7-8.7c4,0,7.4,2.8,8.4,6.5c1-3.7,4.4-6.5,8.4-6.5
		c4.8,0,8.7,3.9,8.7,8.7c0,4.8-3.9,8.7-8.7,8.7C183.3,214.1,179.9,211.3,179,207.6L179,207.6z M104.4,207.6c-1,3.7-4.4,6.5-8.4,6.5
		c-4.8,0-8.7-3.9-8.7-8.7c0-4.8,3.9-8.7,8.7-8.7c4,0,7.4,2.8,8.4,6.5c1-3.7,4.4-6.5,8.4-6.5c4.8,0,8.7,3.9,8.7,8.7
		c0,4.8-3.9,8.7-8.7,8.7C108.8,214.1,105.4,211.3,104.4,207.6L104.4,207.6z M139.5,206h11.1h9.5c-0.4-5.3,3.2-9.3,5.9-10.1l-11.2,0
		v0l-9.8,0l-9.8,0l0,0l-17.8,0c2.7,0.8,6.4,4.8,5.9,10.1H139.5L139.5,206z M89.7,151.3h48.4h7.2h48.4c4.8,0,6.8,2.7,8.6,6.2
		c1.3,2.5,2.7,4.8,4.1,7.2c1.3,2.3,2.6,4.7,4,7c1.8,3.1,2.2,4.8,2.2,8.2v14c0,6.3-5.1,11.4-11.4,11.4h-3.5c0-5.7-4.6-10.3-10.3-10.3
		c-30.4,0-60.9,0-91.3,0c-5.7,0-10.3,4.6-10.3,10.3h-3.5c-6.3,0-11.4-5.1-11.4-11.4v-14c0-3.5,0.3-5.1,2.2-8.2c1.4-2.4,2.7-4.7,4-7
		c1.4-2.4,2.7-4.7,4.1-7.2C82.9,154,84.9,151.3,89.7,151.3L89.7,151.3z M196.7,156.2h-7.4c-2,0-3.6,1.6-3.6,3.6V172
		c0,2,1.6,3.6,3.6,3.6h14.1c4.1,0,4.2-3.4,2.8-5.7l-6-10.1C199.3,158.1,198.7,156.2,196.7,156.2L196.7,156.2z M86.8,156.2h7.4
		c2,0,3.6,1.6,3.6,3.6V172c0,2-1.6,3.6-3.6,3.6H80c-4.1,0-4.2-3.4-2.8-5.7l6-10.1C84.2,158.1,84.8,156.2,86.8,156.2L86.8,156.2z
		 M104.1,156.2h18.5c2,0,3.6,1.6,3.6,3.6V172c0,2-1.6,3.6-3.6,3.6h-18.5c-2,0-3.6-1.6-3.6-3.6v-12.2
		C100.5,157.8,102.1,156.2,104.1,156.2L104.1,156.2z M160.9,156.2h18.5c2,0,3.6,1.6,3.6,3.6V172c0,2-1.6,3.6-3.6,3.6h-18.5
		c-2,0-3.6-1.6-3.6-3.6v-12.2C157.3,157.8,159,156.2,160.9,156.2L160.9,156.2z M132.5,156.2H151c2,0,3.6,1.6,3.6,3.6V172
		c0,2-1.6,3.6-3.6,3.6h-18.5c-2,0-3.6-1.6-3.6-3.6v-12.2C128.9,157.8,130.5,156.2,132.5,156.2L132.5,156.2z"/>
</g>
</svg>
