<?xml version="1.0" encoding="utf-8"?>
<svg version="1.1"
	 xmlns="http://www.w3.org/2000/svg"
	 x="0px" y="0px" viewBox="0 0 283.5 251.7" enable-background="new 0 0 283.5 251.7" xml:space="preserve">
<g>
	
		<path fill-rule="evenodd" clip-rule="evenodd" fill="#FFFFFF" stroke="#000000" stroke-width="0.7501" stroke-miterlimit="22.9256" d="
		M157.8,10.9c41,71.1,81,144.7,123.5,214.7c6.5,10.7-3,26-15,26c-83.1,0-166.1,0-249.2,0c-12,0-21.5-15.4-15-26
		C44.6,155.6,84.6,82,125.6,10.9C134-3.6,149.4-3.6,157.8,10.9L157.8,10.9z"/>
	<path fill-rule="evenodd" clip-rule="evenodd" fill="#B92B1E" d="M129.4,13.1L12.3,216.8c-2.1,3.7-4.2,7.4-6.4,11.1
		c-4.7,7.7,2.5,19.4,11.3,19.4h249.2c8.7,0,15.9-11.7,11.3-19.4c-2.2-3.7-4.3-7.4-6.4-11.1L154.1,13.1C147.5,1.8,136,1.8,129.4,13.1
		L129.4,13.1z M135.2,227.7h112.7c1.8,0,4.7-3.9,3.6-5.8c-5.7-9.5-12.1-20.8-17.6-30.5L146.1,38.8c-2.8-4.9-6-4.9-8.8,0L37.6,212.4
		c-1.8,3.2-3.7,6.4-5.6,9.6c-1.1,1.9,1.7,5.8,3.6,5.8C68.8,227.7,102,227.7,135.2,227.7L135.2,227.7z"/>
	<path fill-rule="evenodd" clip-rule="evenodd" d="M94.6,190c-8.5-14.8-9.3-31.9-3.7-46.7l14.9,5.2c-4.2,10.6-3.7,22.9,2.4,33.6
		c0.1,0.2,0.3,0.5,0.4,0.7l8-13.9l24.6,42.6H92.1l8-13.8C98.1,195.4,96.2,192.8,94.6,190L94.6,190z M141.8,107.8
		c17.1,0,32.3,7.9,42.2,20.2l-12,10.3c-7.2-9.2-18.5-14.9-31.1-14.7l8,13.9H99.7l24.6-42.6l8,13.8
		C135.4,108.1,138.5,107.8,141.8,107.8L141.8,107.8z M189.3,189.7c-8.5,14.8-23,24-38.6,26.5l-2.9-15.5c11.6-1.7,22.2-8.6,28.3-19.6
		l-16,0l24.6-42.6l24.6,42.6l-15.9,0C192.2,184,190.9,186.9,189.3,189.7L189.3,189.7z"/>
</g>
</svg>
