<?xml version="1.0" encoding="utf-8"?>
<svg version="1.1"
	 xmlns="http://www.w3.org/2000/svg"
	 x="0px" y="0px" viewBox="0 0 283.5 251.7" enable-background="new 0 0 283.5 251.7" xml:space="preserve">
<g>
	
		<path fill-rule="evenodd" clip-rule="evenodd" fill="#FFFFFF" stroke="#000000" stroke-width="0.7501" stroke-miterlimit="22.9256" d="
		M157.8,10.9c41,71.1,81,144.7,123.5,214.7c6.5,10.7-3,26-15,26c-83.1,0-166.1,0-249.2,0c-12,0-21.5-15.4-15-26
		C44.6,155.6,84.6,82,125.6,10.9C134-3.6,149.4-3.6,157.8,10.9L157.8,10.9z"/>
	<path fill-rule="evenodd" clip-rule="evenodd" fill="#B92B1E" d="M129.4,13.1L12.3,216.8c-2.1,3.7-4.2,7.4-6.4,11.1
		c-4.7,7.7,2.5,19.4,11.3,19.4h249.2c8.7,0,15.9-11.7,11.3-19.4c-2.2-3.7-4.3-7.4-6.4-11.1L154.1,13.1C147.5,1.8,136,1.8,129.4,13.1
		L129.4,13.1z M135.2,227.7h112.7c1.8,0,4.7-3.9,3.6-5.8c-5.7-9.5-12.1-20.8-17.6-30.5L146.1,38.8c-2.8-4.9-6-4.9-8.8,0L37.6,212.4
		c-1.8,3.2-3.7,6.4-5.6,9.6c-1.1,1.9,1.7,5.8,3.6,5.8C68.8,227.7,102,227.7,135.2,227.7L135.2,227.7z"/>
	<path fill-rule="evenodd" clip-rule="evenodd" d="M141.7,173.2c12.5,0,22.7,10.1,22.7,22.6c0,12.5-10.1,22.7-22.7,22.7
		c-12.5,0-22.7-10.1-22.7-22.7C119.1,183.3,129.2,173.2,141.7,173.2L141.7,173.2z M141.7,126.5c12.5,0,22.7,10.1,22.7,22.7
		c0,12.5-10.1,22.7-22.7,22.7c-12.5,0-22.7-10.1-22.7-22.7C119.1,136.6,129.2,126.5,141.7,126.5L141.7,126.5z M141.7,79.7
		c12.5,0,22.7,10.1,22.7,22.6c0,12.5-10.1,22.7-22.7,22.7c-12.5,0-22.7-10.1-22.7-22.7C119.1,89.9,129.2,79.7,141.7,79.7L141.7,79.7
		z M141.7,176.1c10.9,0,19.8,8.9,19.8,19.8c0,10.9-8.9,19.8-19.8,19.8c-10.9,0-19.8-8.9-19.8-19.8
		C122,184.9,130.8,176.1,141.7,176.1L141.7,176.1z M141.7,129.3c10.9,0,19.8,8.9,19.8,19.8c0,10.9-8.9,19.8-19.8,19.8
		c-10.9,0-19.8-8.9-19.8-19.8C122,138.2,130.8,129.3,141.7,129.3L141.7,129.3z M141.7,82.6c10.9,0,19.8,8.9,19.8,19.8
		c0,10.9-8.9,19.8-19.8,19.8c-10.9,0-19.8-8.9-19.8-19.8C122,91.5,130.8,82.6,141.7,82.6L141.7,82.6z"/>
	<path fill-rule="evenodd" clip-rule="evenodd" fill="#B92B1E" d="M141.7,82.6c10.9,0,19.8,8.9,19.8,19.8c0,10.9-8.9,19.8-19.8,19.8
		c-10.9,0-19.8-8.9-19.8-19.8C122,91.5,130.8,82.6,141.7,82.6L141.7,82.6z"/>
	<path fill-rule="evenodd" clip-rule="evenodd" fill="#F6F100" d="M141.7,129.3c10.9,0,19.8,8.9,19.8,19.8
		c0,10.9-8.9,19.8-19.8,19.8c-10.9,0-19.8-8.9-19.8-19.8C122,138.2,130.8,129.3,141.7,129.3L141.7,129.3z"/>
	<path fill-rule="evenodd" clip-rule="evenodd" fill="#168C30" d="M141.7,176.1c10.9,0,19.8,8.9,19.8,19.8
		c0,10.9-8.9,19.8-19.8,19.8c-10.9,0-19.8-8.9-19.8-19.8C122,184.9,130.8,176.1,141.7,176.1L141.7,176.1z"/>
</g>
</svg>
