<?xml version="1.0" encoding="utf-8"?>
<svg version="1.1"
	 xmlns="http://www.w3.org/2000/svg"
	 x="0px" y="0px" viewBox="0 0 283.5 251.7" enable-background="new 0 0 283.5 251.7" xml:space="preserve">
<g>
	
		<path fill-rule="evenodd" clip-rule="evenodd" fill="#FFFFFF" stroke="#000000" stroke-width="0.7501" stroke-miterlimit="22.9256" d="
		M157.8,10.9c41,71.1,81,144.7,123.5,214.7c6.5,10.7-3,26-15,26c-83.1,0-166.1,0-249.2,0c-12,0-21.5-15.4-15-26
		C44.6,155.6,84.6,82,125.6,10.9C134-3.6,149.4-3.6,157.8,10.9L157.8,10.9z"/>
	<path fill-rule="evenodd" clip-rule="evenodd" fill="#B92B1E" d="M129.4,13.1L12.3,216.8c-2.1,3.7-4.2,7.4-6.4,11.1
		c-4.7,7.7,2.5,19.4,11.3,19.4h249.2c8.7,0,15.9-11.7,11.3-19.4c-2.2-3.7-4.3-7.4-6.4-11.1L154.1,13.1C147.5,1.8,136,1.8,129.4,13.1
		L129.4,13.1z M135.2,227.7h112.7c1.8,0,4.7-3.9,3.6-5.8c-5.7-9.5-12.1-20.8-17.6-30.5L146.1,38.8c-2.8-4.9-6-4.9-8.8,0L37.6,212.4
		c-1.8,3.2-3.7,6.4-5.6,9.6c-1.1,1.9,1.7,5.8,3.6,5.8C68.8,227.7,102,227.7,135.2,227.7L135.2,227.7z"/>
	<path fill-rule="evenodd" clip-rule="evenodd" d="M83.5,140.6h11.1l62-62l10.8,10.8l-62.6,62.6l-9.8-9.8v49.8c3-1,5.9-2,9-2
		c6.2,0,12.4,4,18.5,4c6.4,0,12.9-4,19.3-4c6.4,0,12.9,4,19.3,4c6.1,0,12.2-4,18.3-4c3.1,0,6.1,1,9.2,2v-51.4H200l46.1,79.5h-57.6
		v-0.9c-3.1-1-6.1-2-9.2-2c-6.1,0-12.2,4-18.3,4c-6.4,0-12.9-4-19.3-4c-6.4,0-12.9,4-19.3,4c-6.2,0-12.4-4-18.5-4c-3,0-6,1-9,2v0.9
		H37.3L83.5,140.6L83.5,140.6z M94.9,197.4v5.5c3-1,5.9-2,9-2c6.2,0,12.4,4,18.5,4c6.4,0,12.9-4,19.3-4c6.4,0,12.9,4,19.3,4
		c6.1,0,12.2-4,18.3-4c3.1,0,6.1,1,9.2,2v-5.5c-3.1-1-6.1-2-9.2-2c-6.1,0-12.2,4-18.3,4c-6.4,0-12.9-4-19.3-4c-6.4,0-12.9,4-19.3,4
		c-6.2,0-12.4-4-18.5-4C100.9,195.4,98,196.4,94.9,197.4L94.9,197.4z M94.9,208.3v5.5c3-1,5.9-2,9-2c6.2,0,12.4,4,18.5,4
		c6.4,0,12.9-4,19.3-4c6.4,0,12.9,4,19.3,4c6.1,0,12.2-4,18.3-4c3.1,0,6.1,1,9.2,2v-5.5c-3.1-1-6.1-2-9.2-2c-6.1,0-12.2,4-18.3,4
		c-6.4,0-12.9-4-19.3-4c-6.4,0-12.9,4-19.3,4c-6.2,0-12.4-4-18.5-4C100.9,206.4,98,207.3,94.9,208.3L94.9,208.3z"/>
</g>
</svg>
