<?xml version="1.0" encoding="utf-8"?>
<svg version="1.1"
	 xmlns="http://www.w3.org/2000/svg"
	 x="0px" y="0px" viewBox="0 0 284 284" enable-background="new 0 0 284 284" xml:space="preserve">
<g>
	
		<path fill-rule="evenodd" clip-rule="evenodd" fill="#FFFFFF" stroke="#000000" stroke-width="0.5669" stroke-miterlimit="22.9256" d="
		M151.4,4.2l128.5,128.5c5.2,5.2,5.2,13.6,0,18.8L151.4,279.9c-5.2,5.2-13.6,5.2-18.8,0L4.2,151.4c-5.2-5.2-5.2-13.6,0-18.8
		L132.6,4.2C137.8-1,146.2-1,151.4,4.2L151.4,4.2z"/>
	<path fill-rule="evenodd" clip-rule="evenodd" d="M148.1,9.9l126.1,126.1c3.3,3.3,3.3,8.8,0,12.1L148.1,274.1
		c-3.3,3.3-8.8,3.3-12.1,0L9.9,148.1c-3.3-3.3-3.3-8.8,0-12.1L135.9,9.9C139.3,6.5,144.7,6.5,148.1,9.9L148.1,9.9z M150.3,7.3
		l126.4,126.4c4.5,4.6,4.5,12,0,16.5L150.3,276.7c-4.6,4.5-12,4.5-16.5,0L7.3,150.3c-4.6-4.6-4.6-12,0-16.5L133.7,7.3
		C138.3,2.8,145.7,2.8,150.3,7.3L150.3,7.3z"/>
	<path fill-rule="evenodd" clip-rule="evenodd" d="M152.3,58l73.8,73.8c5.6,5.6,5.6,14.9,0,20.5L152.3,226c-5.6,5.6-14.9,5.6-20.5,0
		L58,152.3c-5.6-5.6-5.6-14.9,0-20.5L131.8,58C137.4,52.4,146.6,52.4,152.3,58L152.3,58z M150.8,60.7l72.5,72.5
		c4.9,4.9,4.9,12.8,0,17.6l-72.5,72.5c-4.9,4.9-12.8,4.9-17.6,0l-72.5-72.5c-4.9-4.9-4.9-12.8,0-17.6l72.5-72.5
		C138,55.9,146,55.9,150.8,60.7L150.8,60.7z"/>
	<path fill-rule="evenodd" clip-rule="evenodd" fill="#F6F100" d="M150.8,60.7l72.5,72.5c4.9,4.9,4.9,12.8,0,17.6l-72.5,72.5
		c-4.9,4.9-12.8,4.9-17.6,0l-72.5-72.5c-4.9-4.9-4.9-12.8,0-17.6l72.5-72.5C138,55.9,146,55.9,150.8,60.7L150.8,60.7z"/>
</g>
</svg>
