<?xml version="1.0" encoding="utf-8"?>
<svg version="1.1"
	 xmlns="http://www.w3.org/2000/svg"
	 x="0px" y="0px" viewBox="0 0 284 284" enable-background="new 0 0 284 284" xml:space="preserve">
<g>
	
		<path fill-rule="evenodd" clip-rule="evenodd" fill="#FFFFFF" stroke="#000000" stroke-width="0.5669" stroke-miterlimit="22.9256" d="
		M151.4,4.2l128.5,128.5c5.2,5.2,5.2,13.6,0,18.8L151.4,279.9c-5.2,5.2-13.6,5.2-18.8,0L4.2,151.4c-5.2-5.2-5.2-13.6,0-18.8
		L132.6,4.2C137.8-1,146.2-1,151.4,4.2L151.4,4.2z"/>
	<path fill-rule="evenodd" clip-rule="evenodd" d="M148.1,9.9l52.6,52.6l-22,22L152.3,58c-5.6-5.6-14.9-5.6-20.5,0L58,131.8
		c-5.6,5.6-5.6,14.9,0,20.5l26.4,26.4l-22,22L9.9,148.1c-3.3-3.3-3.3-8.8,0-12.1L135.9,9.9C139.3,6.5,144.7,6.5,148.1,9.9L148.1,9.9
		z M150.8,60.7l25.8,25.8l-90.1,90.1l-25.8-25.8c-4.9-4.9-4.9-12.8,0-17.6l72.5-72.5C138,55.9,146,55.9,150.8,60.7L150.8,60.7z
		 M179.2,89.1l2,2l-90.1,90.1l-2-2L179.2,89.1L179.2,89.1z M183.9,93.7l2,2l-90.1,90.1l-2-2L183.9,93.7L183.9,93.7z M188.5,98.4l2,2
		l-90.1,90.1l-2-2L188.5,98.4L188.5,98.4z M193.1,103l2,2L105,195.1l-2-2L193.1,103L193.1,103z M197.8,107.6l25.6,25.6
		c4.9,4.9,4.9,12.8,0,17.6l-72.5,72.5c-4.9,4.9-12.8,4.9-17.6,0l-25.6-25.6L197.8,107.6L197.8,107.6z M181.3,87l2,2l22-22l-2-2
		L181.3,87L181.3,87z M185.9,91.7l2,2l22-22l-2-2L185.9,91.7L185.9,91.7z M190.6,96.3l2,2l22-22l-2-2L190.6,96.3L190.6,96.3z
		 M195.2,100.9l2,2l22-22l-2-2L195.2,100.9L195.2,100.9z M199.8,105.6l26.2,26.2c5.6,5.6,5.6,14.9,0,20.5L152.3,226
		c-5.6,5.6-14.9,5.6-20.5,0l-26.2-26.2l-22,22l52.4,52.4c3.3,3.3,8.8,3.3,12.1,0l126.1-126.1c3.3-3.3,3.3-8.8,0-12.1l-52.4-52.4
		L199.8,105.6L199.8,105.6z M102.9,197.2l-2-2l-22,22l2,2L102.9,197.2L102.9,197.2z M98.3,192.6l-2-2l-22,22l2,2L98.3,192.6
		L98.3,192.6z M93.7,188l-2-2l-22,22l2,2L93.7,188L93.7,188z M89.1,183.3l-2-2l-22,22l2,2L89.1,183.3L89.1,183.3z M150.3,7.3
		l126.4,126.4c4.5,4.6,4.5,12,0,16.5L150.3,276.7c-4.6,4.5-12,4.5-16.5,0L7.3,150.3c-4.6-4.6-4.6-12,0-16.5L133.7,7.3
		C138.3,2.8,145.7,2.8,150.3,7.3L150.3,7.3z"/>
	<path fill-rule="evenodd" clip-rule="evenodd" fill="#F6F100" d="M150.8,60.7l25.8,25.8l-90.1,90.1l-25.8-25.8
		c-4.9-4.9-4.9-12.8,0-17.6l72.5-72.5C138,55.9,146,55.9,150.8,60.7L150.8,60.7z M179.2,89.1l2,2l-90.1,90.1l-2-2L179.2,89.1
		L179.2,89.1z M183.9,93.7l2,2l-90.1,90.1l-2-2L183.9,93.7L183.9,93.7z M188.5,98.4l2,2l-90.1,90.1l-2-2L188.5,98.4L188.5,98.4z
		 M193.1,103l2,2L105,195.1l-2-2L193.1,103L193.1,103z M197.8,107.6l25.6,25.6c4.9,4.9,4.9,12.8,0,17.6l-72.5,72.5
		c-4.9,4.9-12.8,4.9-17.6,0l-25.6-25.6L197.8,107.6L197.8,107.6z"/>
</g>
</svg>
