<?xml version="1.0" encoding="utf-8"?>
<svg version="1.1"
	 xmlns="http://www.w3.org/2000/svg"
	 x="0px" y="0px" viewBox="0 0 284.2 252.4" enable-background="new 0 0 284.2 252.4" xml:space="preserve">
<g>
	
		<path fill-rule="evenodd" clip-rule="evenodd" fill="#FFFFFF" stroke="#000000" stroke-width="0.7501" stroke-miterlimit="22.9256" d="
		M158.2,241.1c41-71.1,81-144.7,123.5-214.7c6.5-10.7-3-26-15-26c-83.1,0-166.1,0-249.2,0c-12,0-21.5,15.4-15,26
		C45,96.5,85,170,126,241.1C134.4,255.7,149.8,255.7,158.2,241.1L158.2,241.1z"/>
	<path fill-rule="evenodd" clip-rule="evenodd" fill="#B92B1E" d="M129.8,239.1L12.7,35.3c-2.1-3.7-4.2-7.4-6.5-11.1
		C1.6,16.6,8.8,4.9,17.5,4.9h249.2c8.7,0,15.9,11.7,11.3,19.4c-2.2,3.7-4.3,7.4-6.4,11.1L154.4,239.1
		C147.9,250.4,136.3,250.4,129.8,239.1L129.8,239.1z M135.5,24.4h112.7c1.8,0,4.7,3.9,3.6,5.8c-5.7,9.5-12.1,20.8-17.6,30.5
		l-87.7,152.6c-2.8,4.9-6,4.9-8.8,0L38,39.8c-1.8-3.2-3.7-6.4-5.6-9.6c-1.1-1.9,1.7-5.8,3.6-5.8C69.2,24.4,102.3,24.4,135.5,24.4
		L135.5,24.4z"/>
</g>
</svg>
