<?xml version="1.0" encoding="utf-8"?>
<svg version="1.1"
	 xmlns="http://www.w3.org/2000/svg"
	 x="0px" y="0px" viewBox="0 0 284 284" enable-background="new 0 0 284 284" xml:space="preserve">
<g>
	
		<polygon fill-rule="evenodd" clip-rule="evenodd" fill="#FFFFFF" stroke="#000000" stroke-width="0.5669" stroke-miterlimit="22.9256" points="
		83.4,0.3 200.7,0.3 283.7,83.4 283.7,200.7 200.7,283.7 83.4,283.7 0.3,200.7 0.3,83.4 83.4,0.3 	"/>
	<path fill-rule="evenodd" clip-rule="evenodd" fill="#B92B1E" d="M86.8,8.5h110.5l78.3,78.3v110.5l-78.3,78.3H86.8L8.5,197.3V86.8
		L86.8,8.5L86.8,8.5z M81.6,101.7H135v14.4h-19.4v65.7H101v-65.7H81.6V101.7L81.6,101.7z M22.1,173.2l9.4-11.4
		c24,16.9,35.1-0.6,28.3-8.6c-4.7-5.6-25-5.1-31.5-20.5c-1.1-2.7-1.4-6.1-1.4-9.5c0-23.9,31.3-30.1,49.8-12.8l-9.3,10.9
		c-5-3.6-8.8-6.1-16.5-6.3c-5.8-0.1-9.5,3.5-9.5,9.3c0,5.4,4.7,8.1,16,11.3c7.9,2.3,14.2,7.5,17.6,15.6c3.7,8.8,0.5,20-7,26.1
		c-5.1,4.2-9.4,6.6-18,6.6C41.9,183.9,28.7,179.9,22.1,173.2L22.1,173.2z M169.4,113.7c-11.9,0-18.2,12.8-18.2,27.7
		c0,14.9,6.2,29,18.2,29c12,0,18.2-14.1,18.2-29C187.7,126.5,181.4,113.7,169.4,113.7L169.4,113.7z M137.5,141.3
		c0-20,12.5-40.9,32-40.9c19.4,0,32,21,32,40.9c0,21.1-11.7,41.4-32,42.1C149.1,182.7,137.5,162.5,137.5,141.3L137.5,141.3z
		 M222.9,115v25.4h16.7c6.7,0,12.5-5.8,12.5-12.1c0-7.3-6-13.2-13-13.2H222.9L222.9,115z M224.5,153.6v28.6h-14.6v-80.5h26.6
		c15,0,28.7,11,28.7,25.9c0,14.9-12.6,25.9-29.4,25.9L224.5,153.6L224.5,153.6z"/>
</g>
</svg>
