<?xml version="1.0" encoding="utf-8"?>
<svg version="1.1"
	 xmlns="http://www.w3.org/2000/svg"
	 x="0px" y="0px" viewBox="0 0 284 284" enable-background="new 0 0 284 284" xml:space="preserve">
<g>
	
		<path fill-rule="evenodd" clip-rule="evenodd" fill="#FFFFFF" stroke="#000000" stroke-width="0.5669" stroke-miterlimit="22.9256" d="
		M142,0.3c78.3,0,141.7,63.5,141.7,141.7c0,78.3-63.5,141.7-141.7,141.7C63.7,283.7,0.3,220.3,0.3,142C0.3,63.7,63.7,0.3,142,0.3
		L142,0.3z"/>
	<path fill-rule="evenodd" clip-rule="evenodd" fill="#B92B1E" d="M142,27.7c63.1,0,114.3,51.2,114.3,114.3
		c0,51.8-34.4,95.5-81.6,109.5v-40.6h23.5l-38-65.1l-38,65.1h23.5v45.3c-1.3,0-2.5,0.1-3.8,0.1c-63.1,0-114.3-51.2-114.3-114.3
		C27.7,78.9,78.9,27.7,142,27.7L142,27.7z M142,4.2c76.1,0,137.8,61.7,137.8,137.8c0,76.1-61.7,137.8-137.8,137.8
		C65.9,279.9,4.2,218.1,4.2,142C4.2,65.9,65.9,4.2,142,4.2L142,4.2z"/>
	<polygon points="100.2,45.5 100.2,127.4 76.6,127.4 114.6,192.5 152.6,127.4 129.1,127.4 129.1,45.5 100.2,45.5 	"/>
</g>
</svg>
