<?xml version="1.0" encoding="utf-8"?>
<svg version="1.1"
	 xmlns="http://www.w3.org/2000/svg"
	 x="0px" y="0px" viewBox="0 0 284 284" enable-background="new 0 0 284 284" xml:space="preserve">
<g>
	
		<path fill-rule="evenodd" clip-rule="evenodd" fill="#FFFFFF" stroke="#000000" stroke-width="0.5669" stroke-miterlimit="22.9256" d="
		M142,0.3c78.3,0,141.7,63.5,141.7,141.7c0,78.3-63.5,141.7-141.7,141.7C63.7,283.7,0.3,220.3,0.3,142C0.3,63.7,63.7,0.3,142,0.3
		L142,0.3z"/>
	<path fill-rule="evenodd" clip-rule="evenodd" fill="#B92B1E" d="M142,4.6c75.9,0,137.4,61.5,137.4,137.4
		c0,75.9-61.5,137.4-137.4,137.4C66.1,279.5,4.6,217.9,4.6,142C4.6,66.1,66.1,4.6,142,4.6L142,4.6z M69,55.4L228.7,215
		c16.6-19.7,26.7-45.2,26.7-73c0-62.6-50.7-113.3-113.3-113.3C114.2,28.7,88.7,38.7,69,55.4L69,55.4z M215,228.7L55.4,69
		c-16.6,19.7-26.7,45.2-26.7,73c0,62.6,50.7,113.3,113.3,113.3C169.8,255.4,195.3,245.3,215,228.7L215,228.7z"/>
	<path d="M143.3,46.9c6.9,0.8,15.4,5.9,17.4,12.9c2.2,8-1.9,24.9-18.2,17.4c-7.2-3.3-17-10.4-16-19.3
		C127.5,49.1,135.3,46,143.3,46.9L143.3,46.9z M113,131.6c0,2.6,0,4.7,0,8c0,9.8-14.9,9.8-14.9,0v-22.8L113,131.6L113,131.6z
		 M165.7,184.3l9,37.8c1,4.2,4.7,7.1,9,7.1c6,0,10.4-5.6,9-11.4c-1.4-5.9-1.4-5.9-2-8.5L165.7,184.3L165.7,184.3z M156.3,137.8
		c-0.1-7.2,0.3-42.5-0.1-44.8c-0.4-2.7-1.4-3.4-3.6-4.8l-11.2-6.5c-5.4-2.4-8.6,0.1-13,2.6l-16.3,9.3l11.2,11.2l2.6-2l0,4.5
		L156.3,137.8L156.3,137.8z M160,111.8l26.8,26.9c1.4,1.4,2.1,3.2,2.1,5.2c0,6.5-7.8,9.8-12.5,5.3L160,132.8V111.8L160,111.8z
		 M143.7,162.2l-36.2,62.2c-4.1,7-14.3,6.2-17.1-1.4c-0.9-2.6-0.7-5.4,0.6-7.8l38.8-66.7L143.7,162.2L143.7,162.2z"/>
</g>
</svg>
