<?xml version="1.0" encoding="utf-8"?>
<svg version="1.1"
	 xmlns="http://www.w3.org/2000/svg"
	 x="0px" y="0px" viewBox="0 0 284 284" enable-background="new 0 0 284 284" xml:space="preserve">
<g>
	
		<path fill-rule="evenodd" clip-rule="evenodd" fill="#FFFFFF" stroke="#000000" stroke-width="0.5669" stroke-miterlimit="22.9256" d="
		M142,0.3c78.3,0,141.7,63.5,141.7,141.7c0,78.3-63.5,141.7-141.7,141.7C63.7,283.7,0.3,220.3,0.3,142C0.3,63.7,63.7,0.3,142,0.3
		L142,0.3z"/>
	<path fill-rule="evenodd" clip-rule="evenodd" fill="#B92B1E" d="M142,4.6c75.9,0,137.4,61.5,137.4,137.4
		c0,75.9-61.5,137.4-137.4,137.4C66.1,279.5,4.6,217.9,4.6,142C4.6,66.1,66.1,4.6,142,4.6L142,4.6z M142,28.7
		c62.6,0,113.3,50.7,113.3,113.3c0,62.6-50.7,113.3-113.3,113.3c-62.6,0-113.3-50.7-113.3-113.3C28.7,79.4,79.4,28.7,142,28.7
		L142,28.7z"/>
	<path d="M136.2,122.3c-4.5,4.5-9.2,7.4-15.2,7.4c-9.4,0-16.4-5.3-21-14.1c-3.5-6.7-5.3-14-5.3-23.6c0-10.7,3.7-19.6,8.5-27.2
		c6.7-11,23.6-11.7,35.3-7l3.1,14c-7.3-2.8-20.4-7.8-27.3-0.4c-4.6,4.9-5.1,9.3-5.1,16.7c7.4-7.5,21.4-9,29.3-1
		C147.4,96,145.2,113.5,136.2,122.3L136.2,122.3z M130.9,104.8c0-3.6-0.1-6.2-1.8-8.3c-1.7-2.1-4.7-3.2-7.6-3.2
		c-2.5,0-5,0.8-7.3,2.4c-2.1,1.5-4.5,3-5.6,5.1c0.2,4,1.2,7.5,3,10.5c2.2,3.5,5.1,5.3,8.7,5.3c2.6,0,4.9-1.1,6.8-3.4
		C129.2,110.9,130.9,108.2,130.9,104.8L130.9,104.8z M158.2,85h30.5v8.4h-10.8V129h-9V93.4h-10.8V85L158.2,85z M156.9,162.1
		c2.1,2.7,3.8,3.8,7.3,3.8h36.1v-15c0-5.4,4.3-9.7,10-9.7c5.4,0,9.7,4.4,9.7,9.7v45.8c0,5.4-4.3,9.7-10,9.7c-5.4,0-9.7-4.4-9.7-9.7
		v-15h-36.3c-3.2,0-5.1,1.2-7,3.7c-7.6,9.7-22.4,9.7-30,0c-1.9-2.5-3.8-3.7-7-3.7H83.7v15c0,5.4-4.3,9.7-10,9.7
		c-5.4,0-9.7-4.4-9.7-9.7v-45.8c0-5.4,4.3-9.7,10-9.7c5.4,0,9.7,4.4,9.7,9.7v15h36.1c3.5,0,5.2-1.2,7.3-3.8
		C134.7,152.7,149.4,152.7,156.9,162.1L156.9,162.1z"/>
</g>
</svg>
