<?xml version="1.0" encoding="utf-8"?>
<svg version="1.1"
	 xmlns="http://www.w3.org/2000/svg"
	 x="0px" y="0px" viewBox="0 0 284 284" enable-background="new 0 0 284 284" xml:space="preserve">
<g>
	
		<path fill-rule="evenodd" clip-rule="evenodd" fill="#FFFFFF" stroke="#000000" stroke-width="0.5669" stroke-miterlimit="22.9256" d="
		M142,0.3c78.3,0,141.7,63.5,141.7,141.7c0,78.3-63.5,141.7-141.7,141.7C63.7,283.7,0.3,220.3,0.3,142C0.3,63.7,63.7,0.3,142,0.3
		L142,0.3z"/>
	<path fill-rule="evenodd" clip-rule="evenodd" fill="#B92B1E" d="M142,4.6c75.9,0,137.4,61.5,137.4,137.4
		c0,75.9-61.5,137.4-137.4,137.4C66.1,279.5,4.6,217.9,4.6,142C4.6,66.1,66.1,4.6,142,4.6L142,4.6z M142,28.7
		c62.6,0,113.3,50.7,113.3,113.3c0,62.6-50.7,113.3-113.3,113.3c-62.6,0-113.3-50.7-113.3-113.3C28.7,79.4,79.4,28.7,142,28.7
		L142,28.7z"/>
	<path fill-rule="evenodd" clip-rule="evenodd" d="M142,218.4l-28.9,29h57.8L142,218.4L142,218.4z M142,65.6l28.9-29h-57.8L142,65.6
		L142,65.6z M161.4,163.9l4.3,42.8l-10,0l-2-28.4L142,200.6l-11.7-22.3l-2,28.4l-10,0l4.3-42.8l9.4,0l9.9,19.8l9.9-19.8L161.4,163.9
		L161.4,163.9z M143.7,130.8c4.5,0,8.2,3.7,8.2,8.2c0,1.5-0.4,2.9-1.1,4.1l-8.9,17l-5.3,0l6.8-12.8c-4.3-0.2-7.8-3.8-7.8-8.2
		C135.5,134.4,139.2,130.8,143.7,130.8L143.7,130.8z M162.5,146.4l-2.6-16.4c5.6,3.5,11.6,5,17.4,5c10.9,0,18.5-7.2,18.5-14.4
		c0-6.8-5.1-13.5-13-13.2c-3.4,0.1-7.1,1.7-11.3,5.2l-8.9-4.2V68.6h45.2L204.2,83L175.8,83v15c17.5-8.6,35.4,3,35.1,20.5
		c-0.3,16.5-11.6,29.6-30.1,29.7C175.1,148.2,168.9,147.4,162.5,146.4L162.5,146.4z M78.7,145.2l-1.3-15.5c8.1,6.2,34.9,10,35.8-5.9
		c0.5-8.1-5.6-11.3-12.9-11.3c-2.3,0-4.8,0.2-7.2,1v-13.1c10.8-1.3,16.5-6.3,16.8-13c0.2-3.4-2.3-7.5-8.4-7.7
		c-5.2-0.2-13.1,3.4-17.7,7.2L79,73.5c5.6-3.8,16.6-6.1,23.9-6.2c11.7,0,22.5,6.1,22.5,19c0,7.4-5.5,13.6-13.8,17.6v0.2
		c10.7,1.6,17.6,11,17.6,21.6c0,16.8-16,22.4-28.9,22.4C92.5,148.2,83.3,148,78.7,145.2L78.7,145.2z"/>
</g>
</svg>
