<?xml version="1.0" encoding="utf-8"?>
<svg version="1.1"
	 xmlns="http://www.w3.org/2000/svg"
	 x="0px" y="0px" viewBox="0 0 284 284" enable-background="new 0 0 284 284" xml:space="preserve">
<g>
	
		<path fill-rule="evenodd" clip-rule="evenodd" fill="#FFFFFF" stroke="#000000" stroke-width="0.5669" stroke-miterlimit="22.9256" d="
		M142,0.3c78.3,0,141.7,63.5,141.7,141.7c0,78.3-63.5,141.7-141.7,141.7C63.7,283.7,0.3,220.3,0.3,142C0.3,63.7,63.7,0.3,142,0.3
		L142,0.3z"/>
	<path fill-rule="evenodd" clip-rule="evenodd" fill="#B92B1E" d="M142,4.6c75.9,0,137.4,61.5,137.4,137.4
		c0,75.9-61.5,137.4-137.4,137.4C66.1,279.5,4.6,217.9,4.6,142C4.6,66.1,66.1,4.6,142,4.6L142,4.6z M142,28.7
		c62.6,0,113.3,50.7,113.3,113.3c0,62.6-50.7,113.3-113.3,113.3c-62.6,0-113.3-50.7-113.3-113.3C28.7,79.4,79.4,28.7,142,28.7
		L142,28.7z"/>
	<path fill-rule="evenodd" clip-rule="evenodd" d="M143.7,148.8c4.5,0,8.2,3.7,8.2,8.2c0,1.5-0.4,2.9-1.1,4.1l-8.9,17h-5.3l6.8-12.8
		c-4.3-0.2-7.8-3.8-7.8-8.2C135.5,152.4,139.2,148.8,143.7,148.8L143.7,148.8z M161.4,181.9l4.3,42.8l-10,0l-2-28.4L142,218.6
		l-11.7-22.3l-2,28.4l-10,0l4.3-42.8l9.4,0l9.9,19.8l9.9-19.8L161.4,181.9L161.4,181.9z M218.4,142l29,28.9v-57.8L218.4,142
		L218.4,142z M65.6,142l-29-28.9v57.8L65.6,142L65.6,142z M156.4,100.9l3.8-14.1h47.9v14.1c-10.8,14.2-21.3,42.4-25.4,64.6
		l-16.8-0.4c5.3-22.2,15.6-45.5,26.4-64.3H156.4L156.4,100.9z M126.2,165.6H78.1v-13.7c6.5-6.1,13.7-13,19.8-19.3
		c4.8-5.1,8.9-9.9,11.7-13.4c3.3-4.2,7.2-7.7,6-13.3c-1.1-5-5.2-9.1-10.6-9C99,97,94,101.6,88.6,107.6l-9.2-10.3
		c5.1-7.5,16.5-11.8,25.1-11.8c13.3,0,24.5,9.2,24.5,22.9c0,4.7-0.6,9.5-3.7,13.8c-2.9,4-9.1,10.7-16.7,18.2l-10.9,10.7h32.2
		L126.2,165.6L126.2,165.6z"/>
</g>
</svg>
