<?xml version="1.0" encoding="utf-8"?>
<svg version="1.1"
	 xmlns="http://www.w3.org/2000/svg"
	 x="0px" y="0px" viewBox="0 0 284 284" enable-background="new 0 0 284 284" xml:space="preserve">
<g>
	
		<path fill-rule="evenodd" clip-rule="evenodd" fill="#FFFFFF" stroke="#000000" stroke-width="0.5669" stroke-miterlimit="22.9256" d="
		M142,0.3c78.3,0,141.7,63.5,141.7,141.7c0,78.3-63.5,141.7-141.7,141.7C63.7,283.7,0.3,220.3,0.3,142C0.3,63.7,63.7,0.3,142,0.3
		L142,0.3z"/>
	<path fill-rule="evenodd" clip-rule="evenodd" fill="#B92B1E" d="M142,4.6c75.9,0,137.4,61.5,137.4,137.4
		c0,75.9-61.5,137.4-137.4,137.4C66.1,279.5,4.6,217.9,4.6,142C4.6,66.1,66.1,4.6,142,4.6L142,4.6z M142,28.7
		c62.6,0,113.3,50.7,113.3,113.3c0,62.6-50.7,113.3-113.3,113.3c-62.6,0-113.3-50.7-113.3-113.3C28.7,79.4,79.4,28.7,142,28.7
		L142,28.7z"/>
	<path fill-rule="evenodd" clip-rule="evenodd" d="M153.2,211.5c1.7,0,3.3-0.3,4.9-0.9c1.6-0.6,3-1.6,4.4-2.8
		c1.4-1.3,2.5-2.9,3.5-4.8c1-1.9,1.8-4.2,2.4-6.8c0.6-2.6,0.9-5.6,0.9-8.9c0-3.3-0.3-6.3-0.9-8.9c-0.6-2.6-1.4-4.9-2.4-6.8
		c-1-1.9-2.2-3.5-3.5-4.8c-1.3-1.3-2.8-2.2-4.4-2.9c-1.6-0.6-3.2-0.9-4.9-0.9c-1.7,0-3.3,0.3-4.9,0.9c-1.6,0.6-3,1.6-4.4,2.8
		c-1.4,1.3-2.5,2.9-3.5,4.8c-1,1.9-1.8,4.2-2.4,6.8c-0.6,2.6-0.9,5.6-0.9,8.9c0,3.3,0.3,6.3,0.9,8.9c0.6,2.6,1.4,4.9,2.4,6.8
		c1,1.9,2.2,3.5,3.5,4.8c1.3,1.3,2.8,2.2,4.4,2.8C149.9,211.2,151.5,211.5,153.2,211.5L153.2,211.5z M153.2,202.8
		c-0.9,0-1.7-0.2-2.6-0.7c-0.9-0.5-1.6-1.4-2.4-2.5c-0.7-1.2-1.3-2.7-1.7-4.7c-0.4-1.9-0.6-4.4-0.7-7.2c0-2.8,0.2-5.1,0.4-7
		c0.3-1.9,0.7-3.4,1.2-4.6c0.5-1.2,1.1-2.1,1.7-2.7c0.6-0.6,1.3-1,2-1.3c0.7-0.2,1.4-0.3,2-0.3c0.7,0,1.3,0.1,2,0.3
		c0.7,0.2,1.3,0.6,2,1.3c0.6,0.6,1.2,1.5,1.7,2.7c0.5,1.2,0.9,2.7,1.2,4.6c0.3,1.9,0.4,4.2,0.4,7c0,2.9-0.2,5.3-0.7,7.2
		c-0.4,1.9-1,3.5-1.7,4.7c-0.7,1.2-1.5,2-2.4,2.5C154.9,202.5,154.1,202.8,153.2,202.8L153.2,202.8z M128.9,164l-0.2,46.7l-8.5,0
		l0-35.4l-6.2,3.8l-3.3-4.2l10.2-10.9L128.9,164L128.9,164z M216,201l-28.6,28.6v-57.1L216,201L216,201z M63.6,201l28.6,28.6v-57.1
		L63.6,201L63.6,201z M153.7,217l2.6,25.3l-6,0l-1.2-16.8l-7,13.1l-7-13.1l-1.2,16.8l-6,0l2.6-25.3l5.7,0l6,11.7l6-11.7L153.7,217
		L153.7,217z M116.4,124.8h98.8V70.7c0-4-3.3-7.3-7.3-7.3h-84.3c-4,0-7.3,3.3-7.3,7.3V124.8L116.4,124.8z M113,128h68.4
		c-6.7,1.5-11.7,7.4-11.9,14.5h-60c-0.2-8.2-6.9-14.9-15.2-14.9s-15,6.6-15.2,14.9h-7.8c-4.2,0-7.7-3.4-7.7-7.7V128v-15.5V110
		c0.2-1.3,0.7-2.5,1.5-3.7l11.7-17c1.3-1.9,2.8-3.3,5.3-3.3h22.3c4.6,0,8.4,3.8,8.4,8.4v18.1V128L113,128z M188,128h27.1v14.5h-15.2
		C199.7,135.4,194.7,129.5,188,128L188,128z M94.3,136.1c3.8,0,6.8,3,6.8,6.8c0,3.8-3,6.8-6.8,6.8c-3.8,0-6.8-3-6.8-6.8
		C87.5,139.1,90.5,136.1,94.3,136.1L94.3,136.1z M94.3,129.6c7.3,0,13.3,5.9,13.3,13.3c0,7.3-5.9,13.3-13.3,13.3
		c-7.3,0-13.3-5.9-13.3-13.3C81,135.5,87,129.6,94.3,129.6L94.3,129.6z M184.7,136.1c3.8,0,6.8,3,6.8,6.8c0,3.8-3,6.8-6.8,6.8
		c-3.8,0-6.8-3-6.8-6.8C177.9,139.1,180.9,136.1,184.7,136.1L184.7,136.1z M184.7,129.6c7.3,0,13.3,5.9,13.3,13.3
		c0,7.3-5.9,13.3-13.3,13.3c-7.3,0-13.3-5.9-13.3-13.3C171.4,135.5,177.4,129.6,184.7,129.6L184.7,129.6z M83,90.6h18.3
		c2.3,0,4.2,1.9,4.2,4.2v10.7c0,2.3-1.9,4.2-4.2,4.2H76.5c-3.8,0-4.9-4.5-3.3-6.8l7.1-10.6C80.9,91.3,81.7,90.6,83,90.6L83,90.6z"/>
</g>
</svg>
