<?xml version="1.0" encoding="utf-8"?>
<svg version="1.1"
	 xmlns="http://www.w3.org/2000/svg"
	 x="0px" y="0px" viewBox="0 0 284 284" enable-background="new 0 0 284 284" xml:space="preserve">
<g>
	
		<path fill-rule="evenodd" clip-rule="evenodd" fill="#FFFFFF" stroke="#000000" stroke-width="0.5669" stroke-miterlimit="22.9256" d="
		M142,0.3c78.3,0,141.7,63.5,141.7,141.7c0,78.3-63.5,141.7-141.7,141.7C63.7,283.7,0.3,220.3,0.3,142C0.3,63.7,63.7,0.3,142,0.3
		L142,0.3z"/>
	<path fill-rule="evenodd" clip-rule="evenodd" fill="#B92B1E" d="M142,4.6c75.9,0,137.4,61.5,137.4,137.4
		c0,75.9-61.5,137.4-137.4,137.4C66.1,279.5,4.6,217.9,4.6,142C4.6,66.1,66.1,4.6,142,4.6L142,4.6z M142,28.7
		c62.6,0,113.3,50.7,113.3,113.3c0,62.6-50.7,113.3-113.3,113.3c-62.6,0-113.3-50.7-113.3-113.3C28.7,79.4,79.4,28.7,142,28.7
		L142,28.7z"/>
	<path fill-rule="evenodd" clip-rule="evenodd" d="M200.9,73.4l2.9,28.6l-6.9,0l-1.4-19l-8,14.9l-8-14.9l-1.4,19l-6.9,0l2.9-28.6
		h6.5l6.8,13.2l6.8-13.2H200.9L200.9,73.4z M91,63.3l2.3-8.5H122v8.5c-6.4,8.5-12.8,25.4-15.2,38.7l-10.1-0.2
		c3.2-13.3,9.4-27.2,15.8-38.5H91L91,63.3z M144,94c-9.4,0.1-8.9-24.7-4-29.5c2.5-2.5,7.5-2.6,9.7,2.7C152.4,73.3,152.9,94.1,144,94
		L144,94z M144,102.8c18.7,0,20.3-34.5,9.3-44.9c-9.1-8.6-25.3-3.3-25.3,20.6C128,89.1,131.9,102.8,144,102.8L144,102.8z M84.1,172
		c-10.5-2.9-21.4,3.4-24.2,13.9c-2.9,10.5,3.4,21.4,13.9,24.2c10.5,2.9,21.4-3.4,24.2-13.9C100.9,185.7,94.6,174.9,84.1,172
		L84.1,172z M81.7,180.8c-5.7-1.5-11.5,1.8-13,7.5c-1.5,5.7,1.8,11.5,7.5,13c5.7,1.5,11.5-1.8,13-7.5
		C90.7,188.2,87.4,182.4,81.7,180.8L81.7,180.8z M190.9,172c-10.5-2.9-21.4,3.4-24.2,13.9c-2.9,10.5,3.4,21.4,13.9,24.2
		c10.5,2.9,21.4-3.4,24.2-13.9C207.7,185.7,201.5,174.9,190.9,172L190.9,172z M188.6,180.8c-5.7-1.5-11.5,1.8-13,7.5
		c-1.5,5.7,1.8,11.5,7.5,13c5.7,1.5,11.5-1.8,13-7.5C197.6,188.2,194.2,182.4,188.6,180.8L188.6,180.8z M114.3,150.1
		c-9.7-11.5-19.4-22.9-29.1-34.4c-5.3-6.3-7.7-6.2-15.7-6.2l-32.1,0.1c-0.7,2.2-1.3,4.4-1.8,6.7l39.3-0.2c3.4,0,8,2.8,8.5,6.1
		l2.8,18.6c0.5,3.3-3.8,8-7.2,8l-46.2-0.6c0.9,15.6,5,30.3,11.8,43.5l12-0.1c-0.8-15,13.4-26.7,28.1-22.7
		c9.4,2.6,15.8,10.8,16.4,20.1c7.2-2.8,9.9-2.1,11.6-10.7l3.7-18.1C117.4,154.8,118,154.5,114.3,150.1L114.3,150.1z M246.9,110.4
		c-2,0.6-3.8,1.5-5.5,3.2c-10.4,10.4-18.5,21-28.8,31.4c-15.6,2.2-31.1,4.4-46.7,6.6c-5.8,0.8-10.7,4.3-10.6,8.7l0.2,17.6
		c1,5.6,3.3,7.5,8.9,9c1.6-13.6,14.9-22.5,28-19c10.7,2.9,17.5,13.2,16.3,23.9l30.8,0c6.8-13.2,10.9-28,11.8-43.6l-17.8-0.2
		c-5.7-0.1-7.7-6.6-5.5-9.1l15-17.3c1.6-1.8,3.4-3.7,5.6-4.6C248.1,114.8,247.5,112.6,246.9,110.4L246.9,110.4z"/>
</g>
</svg>
