<?xml version="1.0" encoding="utf-8"?>
<svg version="1.1"
	 xmlns="http://www.w3.org/2000/svg"
	 x="0px" y="0px" viewBox="0 0 284 284" enable-background="new 0 0 284 284" xml:space="preserve">
<g>
	
		<path fill-rule="evenodd" clip-rule="evenodd" fill="#FFFFFF" stroke="#000000" stroke-width="0.5669" stroke-miterlimit="22.9256" d="
		M142,0.3c78.3,0,141.7,63.5,141.7,141.7c0,78.3-63.5,141.7-141.7,141.7C63.7,283.7,0.3,220.3,0.3,142C0.3,63.7,63.7,0.3,142,0.3
		L142,0.3z"/>
	<path fill-rule="evenodd" clip-rule="evenodd" fill="#B92B1E" d="M142,4.6c75.9,0,137.4,61.5,137.4,137.4
		c0,75.9-61.5,137.4-137.4,137.4C66.1,279.5,4.6,217.9,4.6,142C4.6,66.1,66.1,4.6,142,4.6L142,4.6z M142,28.7
		c62.6,0,113.3,50.7,113.3,113.3c0,62.6-50.7,113.3-113.3,113.3c-62.6,0-113.3-50.7-113.3-113.3C28.7,79.4,79.4,28.7,142,28.7
		L142,28.7z"/>
	<path fill-rule="evenodd" clip-rule="evenodd" d="M182.9,87.1h4.3v9.1h8.5v-9.1h4.3v23.7h-4.3v-10.6h-8.5v10.6h-4.3V87.1
		L182.9,87.1z M62.6,87.1h18v4.7h-6.3v19h-5.4v-19h-6.3V87.1L62.6,87.1z M119,87.1h4.9l2.7,23.7h-4.7l-1.6-16.9l-6,13.6l-6-13.6
		l-1.6,16.9h-4.7l2.7-23.7h4.9l4.7,10.6L119,87.1L119,87.1z M93.1,102.1l-2.8-9.3l-2.8,9.3H93.1L93.1,102.1z M90.2,87.1h2.3
		l7.9,23.7h-4.9l-1.4-4.7h-8l-1.4,4.7H80l7.9-23.7H90.2L90.2,87.1z M164.9,110.8h-2.2V100c-1.7,0-2.5-0.2-3.5,1.2
		c-2.6,3.4-3.7,6.2-5.8,9.6l-5.5,0c2-2.5,2.8-4.4,4.2-6.6c1-1.6,2.1-3.6,2.8-4.6c0.8-1,1.4-1.7,2.7-1.9c-0.7-0.1-2.9-3.4-3.9-5.1
		c-1-1.6-1.8-1.5-3.5-1.5l1.2-4.6c1.8,0,3.2,0.7,4,1.5c1.7,1.8,3.5,5.1,5.4,7.2c0.5,0.6,1.2,0.6,2,0.5v-8.6h4.4v8.6
		c0.8,0.1,1.5,0.1,2-0.5c1.8-2.2,3.6-5.4,5.4-7.2c0.8-0.9,2.3-1.6,4-1.5l1.2,4.6c-1.7,0-2.6-0.1-3.5,1.5c-1,1.7-3.2,5-3.9,5.1
		c1.3,0.2,1.9,0.9,2.7,1.9c0.7,1,1.8,3,2.8,4.6c1.4,2.2,2.2,4.1,4.2,6.6l-5.5,0c-2.1-3.4-3.2-6.3-5.8-9.6c-1-1.4-1.8-1.2-3.5-1.2
		v10.8H164.9L164.9,110.8z M217.1,91c-3.4,0-7.5-0.6-7.5,3.3c0,3.8,4.5,3.3,7.5,3.3V91L217.1,91z M217.1,110.8v-9.6
		c-4.4,0-4.8,0.3-6.7,3.6l-3.1,6h-5.3c0.9-1.1,3.9-6.6,4.9-8.7c0.6-1.4,1.3-1.9,2.8-2.3c-7.2-1.8-5.7-10.6-1-12.1
		c2.7-0.8,9.2-0.6,12.5-0.6v23.7H217.1L217.1,110.8z M137.7,86.8c5.4,0,9.7,5.5,9.7,12.2c0,6.8-4.4,12.2-9.7,12.2
		c-5.4,0-9.7-5.5-9.7-12.2C128,92.3,132.4,86.8,137.7,86.8L137.7,86.8z M137.7,90.4c7.1,0,7.1,17.3,0,17.3
		C130.6,107.7,130.6,90.4,137.7,90.4L137.7,90.4z M55.7,130.3h172.8c6.4,0,11.6,5.2,11.6,11.6v0.5c0,6.4-5.2,11.6-11.6,11.6H55.7
		c-6.4,0-11.6-5.2-11.6-11.6v-0.5C44.1,135.6,49.3,130.3,55.7,130.3L55.7,130.3z M165,184.9c0,10.9,11,11.1,11-0.1
		c0-9.5-7-9.4-9.4-6C165.5,180.2,165,182.2,165,184.9L165,184.9z M160.9,185.1c0-14.2,12.1-14.7,16.6-9.1c4.5,5.6,4,21.2-7,21.2
		C163.9,197.2,160.9,191.7,160.9,185.1L160.9,185.1z M147.7,196.8v-18.8h-6.4v-4.8h17.5v4.8h-6.4v18.8H147.7L147.7,196.8z
		 M100.6,173.1h4.3c0,2.3-0.1,15.3,0.2,16.8c0.9,4.8,7.7,4.9,8.3,0c0.3-2.4,0.1-13.8,0.1-16.8l4.3,0v14.8c0,12.5-17.1,12.4-17.1,0.2
		V173.1L100.6,173.1z M97.4,190.7C94,201,79,199.2,79,185.1c0-14.8,15.2-16,18.3-6.2l-3.9,1.8c-1.2-5.8-9.9-6.6-9.9,4
		c0,10.4,7.8,10.5,9.7,4.5L97.4,190.7L97.4,190.7z M120.6,193.1l3.2-2.7c6.3,5.4,10.7,2.2,10.9-0.4c0.4-4.9-12.4-0.9-12.7-10.2
		c-0.2-6.3,9.5-10.1,17-3.9l-2.9,3c-1.3-1-2.1-2.1-5.4-2.2c-2.5-0.1-4.1,1.3-4,2.9c0.1,4.8,13.1,1.3,12.7,10.2
		C139,198,126.2,199.6,120.6,193.1L120.6,193.1z M187.1,173.1l6.7,11.3l6.7-11.3h4.6l0,23.7h-4.6v-16l-6.7,11.2l-6.7-11.2v16h-4.6
		l0-23.7H187.1L187.1,173.1z"/>
</g>
</svg>
