<?xml version="1.0" encoding="utf-8"?>
<svg version="1.1"
	 xmlns="http://www.w3.org/2000/svg"
	 x="0px" y="0px" viewBox="0 0 284 284" enable-background="new 0 0 284 284" xml:space="preserve">
<g>
	
		<path fill-rule="evenodd" clip-rule="evenodd" fill="#FFFFFF" stroke="#000000" stroke-width="0.5669" stroke-miterlimit="22.9256" d="
		M142,0.3c78.3,0,141.7,63.5,141.7,141.7c0,78.3-63.5,141.7-141.7,141.7C63.7,283.7,0.3,220.3,0.3,142C0.3,63.7,63.7,0.3,142,0.3
		L142,0.3z"/>
	<path fill-rule="evenodd" clip-rule="evenodd" fill="#B92B1E" d="M142,4.6c75.9,0,137.4,61.5,137.4,137.4
		c0,75.9-61.5,137.4-137.4,137.4C66.1,279.5,4.6,217.9,4.6,142C4.6,66.1,66.1,4.6,142,4.6L142,4.6z M142,28.7
		c62.6,0,113.3,50.7,113.3,113.3c0,62.6-50.7,113.3-113.3,113.3c-62.6,0-113.3-50.7-113.3-113.3C28.7,79.4,79.4,28.7,142,28.7
		L142,28.7z"/>
	<path fill-rule="evenodd" clip-rule="evenodd" d="M55.7,130.3h172.8c6.4,0,11.6,5.2,11.6,11.6v0.5c0,6.4-5.2,11.6-11.6,11.6H55.7
		c-6.4,0-11.6-5.2-11.6-11.6v-0.5C44.1,135.6,49.3,130.3,55.7,130.3L55.7,130.3z M199.7,74.8h6.5c3,0,6,2.1,6,6.7
		c0,4.6-3.1,6.7-5.9,6.7h-6.5V74.8L199.7,74.8z M191.8,109.6h7.6V94.8h7.2c7.6,0,13.6-6.8,13.7-13.7c0.1-6.9-5.3-13.4-12.9-13.4
		h-15.5v28.7V109.6L191.8,109.6z M153.8,88.6c0,19.3,19.4,19.8,19.4-0.1c0-16.9-12.4-16.6-16.7-10.7
		C154.7,80.1,153.8,83.8,153.8,88.6L153.8,88.6z M146.5,88.9c0-25.2,21.4-26,29.4-16.2c8,9.9,7.1,37.6-12.3,37.6
		C151.8,110.3,146.5,100.5,146.5,88.9L146.5,88.9z M117.6,109.6V76.2h-11.3v-8.6h31.1v8.6h-11.3v33.4H117.6L117.6,109.6z
		 M64.4,103.5l5.8-4.8c11.2,9.6,19,4,19.4-0.8c0.7-8.8-22-1.6-22.5-18.1c-0.4-11.2,16.9-18,30.2-6.9L92,78.3
		c-2.3-1.7-3.8-3.7-9.6-3.8c-4.5-0.1-7.2,2.3-7.2,5.2c0.2,8.6,23.4,2.3,22.6,18.2C97.2,112.3,74.4,115.2,64.4,103.5L64.4,103.5z
		 M196.2,173.1h15v23.7h-4.5v-19.7h-6l-0.3,10.1c-0.2,5.6-3.1,9.2-8.5,10.2L191,193c4.4-0.9,4.7-3.6,4.8-6.4L196.2,173.1
		L196.2,173.1z M49.3,173.3h4.3v8.7c7.1-0.7,2.7-9.2,12.1-9.2l0.9,4.4c-4.4-0.2-5.2,6.2-8.3,6.8c4.9,0.8,4.5,5.7,10,12.9h-5.2
		c-6.1-9.9-4.7-10.5-9.6-10.5V197h-4.3V173.3L49.3,173.3z M82.8,172.7c5.3,0,9.6,5.5,9.6,12.2c0,6.8-4.3,12.2-9.6,12.2
		c-5.3,0-9.6-5.5-9.6-12.2C73.2,178.2,77.5,172.7,82.8,172.7L82.8,172.7z M82.8,176.3c7,0,7,17.3,0,17.3
		C75.8,193.6,75.8,176.3,82.8,176.3L82.8,176.3z M145.9,196.8h4.3v-8.4h4c4.3,0,7.6-3.9,7.7-7.7c0.1-3.9-3-7.6-7.3-7.6h-8.7v16.2
		V196.8L145.9,196.8z M150.3,177.2h3.7c1.7,0,3.4,1.2,3.4,3.8c0,2.6-1.8,3.8-3.4,3.8h-3.7V177.2L150.3,177.2z M222.4,193.1h4.4
		c2,0,4-1.1,4-3.6c0-2.5-2.1-3.6-4-3.6h-4.4V193.1L222.4,193.1z M218.1,173.1h4.3v7.5v1.4h5.8c4.4,0,7.2,2.8,7.1,7.2
		c-0.1,4.4-3.1,7.6-7.1,7.6h-10.1v-16.2V173.1L218.1,173.1z M177.4,172.7c5.3,0,9.6,5.5,9.6,12.2c0,6.8-4.3,12.2-9.6,12.2
		c-5.3,0-9.6-5.5-9.6-12.2C167.8,178.2,172.1,172.7,177.4,172.7L177.4,172.7z M177.4,176.3c7,0,7,17.3,0,17.3
		C170.4,193.6,170.4,176.3,177.4,176.3L177.4,176.3z M121.9,173.1h18v4.7h-6.3v19h-5.2v-19h-6.4V173.1L121.9,173.1z M98.4,173.4h4.4
		v9.1h8.8v-9.1h4.4V197h-4.4v-10.6h-8.8V197h-4.4V173.4L98.4,173.4z"/>
</g>
</svg>
