<?xml version="1.0" encoding="utf-8"?>
<svg version="1.1"
	 xmlns="http://www.w3.org/2000/svg"
	 x="0px" y="0px" viewBox="0 0 284 284" enable-background="new 0 0 284 284" xml:space="preserve">
<g>
	
		<path fill-rule="evenodd" clip-rule="evenodd" fill="#FFFFFF" stroke="#000000" stroke-width="0.5669" stroke-miterlimit="22.9256" d="
		M142,0.3c78.3,0,141.7,63.5,141.7,141.7c0,78.3-63.5,141.7-141.7,141.7C63.7,283.7,0.3,220.3,0.3,142C0.3,63.7,63.7,0.3,142,0.3
		L142,0.3z"/>
	<path fill-rule="evenodd" clip-rule="evenodd" fill="#B92B1E" d="M142,4.6c75.9,0,137.4,61.5,137.4,137.4
		c0,75.9-61.5,137.4-137.4,137.4C66.1,279.5,4.6,217.9,4.6,142C4.6,66.1,66.1,4.6,142,4.6L142,4.6z M142,28.7
		c62.6,0,113.3,50.7,113.3,113.3c0,62.6-50.7,113.3-113.3,113.3c-62.6,0-113.3-50.7-113.3-113.3C28.7,79.4,79.4,28.7,142,28.7
		L142,28.7z"/>
	<path fill-rule="evenodd" clip-rule="evenodd" d="M55.7,130.3h172.8c6.4,0,11.6,5.2,11.6,11.6v0.5c0,6.4-5.2,11.6-11.6,11.6H55.7
		c-6.4,0-11.6-5.2-11.6-11.6v-0.5C44.1,135.6,49.3,130.3,55.7,130.3L55.7,130.3z M196.6,103.6c-0.7,4.4-4.8,7.6-9.1,7.7
		c-6.5,0.1-9.9-5.4-9.9-12c0-3.9,0.9-7,2.8-9.2c1.9-2.2,4.3-3.3,7.4-3.3c4.7,0.1,7.6,2.7,8.8,7.4c-1.4,0.4-2.8,0.8-4.2,1.2
		c0,0-1.1-4.7-4.8-4.7c-3.9,0-5.3,4.4-5.3,8.5c0,3.6,1.1,8.2,5.2,8.2c2.6,0,4.4-2.4,4.9-4.9L196.6,103.6L196.6,103.6z M223,107.1
		h4.4c2,0,4-1.1,4-3.6c0-2.5-2.1-3.6-4-3.6H223V107.1L223,107.1z M218.7,87.1h4.3v7.5V96h5.8c4.4,0,7.2,2.8,7.1,7.2
		c-0.1,4.4-3.1,7.6-7.1,7.6h-10.1V94.6V87.1L218.7,87.1z M71.3,87.1h17.6v23.7h-4.3V91.2h-9v19.6h-4.3V87.1L71.3,87.1z M133.4,103.6
		c-0.7,4.4-4.8,7.6-9.1,7.7c-6.5,0.1-9.9-5.4-9.9-12c0-3.9,0.9-7,2.8-9.2c1.9-2.2,4.3-3.3,7.4-3.3c4.7,0.1,7.6,2.7,8.8,7.4
		c-1.4,0.4-2.8,0.8-4.2,1.2c0,0-1.1-4.7-4.8-4.7c-3.9,0-5.3,4.4-5.3,8.5c0,3.6,1.1,8.2,5.2,8.2c2.6,0,4.4-2.4,4.9-4.9L133.4,103.6
		L133.4,103.6z M165.9,86.8c5.3,0,9.6,5.5,9.6,12.2c0,6.8-4.3,12.2-9.6,12.2c-5.3,0-9.6-5.5-9.6-12.2
		C156.3,92.3,160.6,86.8,165.9,86.8L165.9,86.8z M165.9,90.4c7,0,7,17.3,0,17.3C158.9,107.7,158.9,90.4,165.9,90.4L165.9,90.4z
		 M58.7,86.8c5.3,0,9.6,5.5,9.6,12.2c0,6.8-4.3,12.2-9.6,12.2c-5.3,0-9.6-5.5-9.6-12.2C49.1,92.3,53.4,86.8,58.7,86.8L58.7,86.8z
		 M58.7,90.4c7,0,7,17.3,0,17.3C51.7,107.7,51.7,90.4,58.7,90.4L58.7,90.4z M198,87.1h18v4.7h-6.3v19h-5.4v-19H198V87.1L198,87.1z
		 M135.7,87.1h4.4v9.1h8.8v-9.1h4.4v23.7h-4.4v-10.6h-8.8v10.6h-4.4V87.1L135.7,87.1z M102.2,87.1h2.3l7.9,23.7h-4.9l-1.4-4.7h-8
		l-1.4,4.7h-4.9l7.9-23.7H102.2L102.2,87.1z M105,102.1l-2.8-9.3l-2.8,9.3H105L105,102.1z M114,188.1l-2.8-9.3l-2.8,9.3h2.8H114
		L114,188.1z M111.1,173.1h2.4l8,23.7h-4.9l-1.5-4.7h-4h-4l-1.5,4.7h-4.9l8-23.7H111.1L111.1,173.1z M80.5,173.1h8.1
		c7.7,0,10.3,6.2,10.3,12.1c0,5.9-3,11.6-10.3,11.6h-8.1V173.1L80.5,173.1z M85,177v15.7h3.3c5.2,0,5.9-4.8,5.9-7.8
		c0-3-0.8-7.8-5.9-7.8H85L85,177z M124,196.8v-23.7h5.1l8.4,15.7v-15.7h4.5v23.7h-4.9l-8.5-15.9v15.9H124L124,196.8z M155.4,188.6
		v-3.9h8.9v11.9h-3.9l-0.6-1.6c-2.7,3-7.2,2.7-10.3,0.7c-1.6-1-2.9-2.5-3.7-4.5c-0.8-1.9-1.2-4.1-1.2-6.3c0-2.5,0.5-4.7,1.4-6.6
		c0.9-1.9,2.3-3.4,4.1-4.4c1.4-0.8,3-1.2,5.1-1.2c3.1,0,4.6,0.7,6,2c1.2,1,2.2,2.3,2.7,3.9l-3.9,2l-0.1,0c-0.8-2.5-2.3-3.8-4.8-3.8
		c-2.1,0-3.1,0.9-4.2,2.2c-1.1,1.3-1.3,3.2-1.3,5.8c0,2.8,0.2,4.8,1.3,6.3c1.1,1.4,2.4,2,4.3,2c3.5,0,4.3-2.6,4.7-4.4L155.4,188.6
		L155.4,188.6z M167.6,196.8v-23.7h14.8v4h-10.6v5.3h8.4v4.1h-8.4v6.2h10.6v4H167.6L167.6,196.8z M186.8,196.8v-23.7h8.3
		c6,0,7.6,3.7,7.6,6.6c0.1,2.9-1.9,4.8-4,6c3.5,2.2,4.2,6.6,7,11.1h-5.1l-3.6-7.2c-0.8-1.5-1.8-2.3-3.2-2.3h-2.5v9.5H186.8
		L186.8,196.8z M191.2,183.3h3.5c1.9,0,3.5-1,3.4-3.2c-0.1-2.2-1.5-3.1-3.4-3.1h-3.5V183.3L191.2,183.3z"/>
</g>
</svg>
