<?xml version="1.0" encoding="utf-8"?>
<svg version="1.1"
	 xmlns="http://www.w3.org/2000/svg"
	 x="0px" y="0px" viewBox="0 0 284 284" enable-background="new 0 0 284 284" xml:space="preserve">
<g>
	
		<path fill-rule="evenodd" clip-rule="evenodd" fill="#FFFFFF" stroke="#000000" stroke-width="0.5669" stroke-miterlimit="22.9256" d="
		M142,0.3c78.3,0,141.7,63.5,141.7,141.7c0,78.3-63.5,141.7-141.7,141.7C63.7,283.7,0.3,220.3,0.3,142C0.3,63.7,63.7,0.3,142,0.3
		L142,0.3z"/>
	<path fill-rule="evenodd" clip-rule="evenodd" d="M120.2,72.9c11.7,0,34.3-0.2,45.8,0c24.6,0.5,45.2,21.1,45.2,46.3v73.1
		l-28.9-28.9V119c0-10.2-7.2-17.4-17.4-17.4l-44.5,0L87.4,68.7l32.8-18.9V72.9L120.2,72.9z M210.5,229.1h-28.2V201L210.5,229.1
		L210.5,229.1z M86.6,105.3L55.3,87.2l8.4-4.8L86.6,105.3L86.6,105.3z"/>
	<path fill-rule="evenodd" clip-rule="evenodd" fill="#B92B1E" d="M142,4.6c75.9,0,137.4,61.5,137.4,137.4
		c0,75.9-61.5,137.4-137.4,137.4C66.1,279.5,4.6,217.9,4.6,142C4.6,66.1,66.1,4.6,142,4.6L142,4.6z M68.9,55.4l159.7,159.7
		c16.7-19.7,26.7-45.2,26.7-73.1c0-62.6-50.7-113.3-113.3-113.3C114.2,28.7,88.7,38.7,68.9,55.4L68.9,55.4z M215.1,228.6L55.4,68.9
		C38.7,88.6,28.7,114.1,28.7,142c0,62.6,50.7,113.3,113.3,113.3C169.9,255.4,195.4,245.3,215.1,228.6L215.1,228.6z"/>
</g>
</svg>
