<?xml version="1.0" encoding="utf-8"?>
<svg version="1.1"
	 xmlns="http://www.w3.org/2000/svg"
	 x="0px" y="0px" viewBox="0 0 284 284" enable-background="new 0 0 284 284" xml:space="preserve">
<g>
	
		<path fill-rule="evenodd" clip-rule="evenodd" fill="#FFFFFF" stroke="#000000" stroke-width="0.5669" stroke-miterlimit="22.9256" d="
		M142,0.3c78.3,0,141.7,63.5,141.7,141.7c0,78.3-63.5,141.7-141.7,141.7C63.7,283.7,0.3,220.3,0.3,142C0.3,63.7,63.7,0.3,142,0.3
		L142,0.3z"/>
	<path fill-rule="evenodd" clip-rule="evenodd" fill="#B92B1E" d="M142,4.6c75.9,0,137.4,61.5,137.4,137.4
		c0,75.9-61.5,137.4-137.4,137.4C66.1,279.5,4.6,217.9,4.6,142C4.6,66.1,66.1,4.6,142,4.6L142,4.6z M68.9,55.4l159.7,159.7
		c16.7-19.7,26.7-45.2,26.7-73.1c0-62.6-50.7-113.3-113.3-113.3C114.2,28.7,88.7,38.7,68.9,55.4L68.9,55.4z M215.1,228.6L55.4,68.9
		C38.7,88.6,28.7,114.1,28.7,142c0,62.6,50.7,113.3,113.3,113.3C169.9,255.4,195.4,245.3,215.1,228.6L215.1,228.6z"/>
	<path fill-rule="evenodd" clip-rule="evenodd" d="M155,72.9h-35.7c-8,0-15.5,2-22.1,5.6l23.1,23.1H155v23.1l64.9-37.5L155,49.8
		V72.9L155,72.9z M78.6,97.3c-3.6,6.6-5.6,14-5.6,22v101h28.9v-99.7L78.6,97.3L78.6,97.3z"/>
</g>
</svg>
