<?xml version="1.0" encoding="utf-8"?>
<svg version="1.1"
	 xmlns="http://www.w3.org/2000/svg"
	 x="0px" y="0px" viewBox="0 0 284 284" enable-background="new 0 0 284 284" xml:space="preserve">
<g>
	
		<path fill-rule="evenodd" clip-rule="evenodd" fill="#FFFFFF" stroke="#000000" stroke-width="0.5669" stroke-miterlimit="22.9256" d="
		M142,0.3c78.3,0,141.7,63.5,141.7,141.7c0,78.3-63.5,141.7-141.7,141.7C63.7,283.7,0.3,220.3,0.3,142C0.3,63.7,63.7,0.3,142,0.3
		L142,0.3z"/>
	<path fill-rule="evenodd" clip-rule="evenodd" fill="#B92B1E" d="M142,4.6c75.9,0,137.4,61.5,137.4,137.4
		c0,75.9-61.5,137.4-137.4,137.4C66.1,279.5,4.6,217.9,4.6,142C4.6,66.1,66.1,4.6,142,4.6L142,4.6z M142,28.7
		c62.6,0,113.3,50.7,113.3,113.3c0,62.6-50.7,113.3-113.3,113.3c-62.6,0-113.3-50.7-113.3-113.3C28.7,79.4,79.4,28.7,142,28.7
		L142,28.7z M64.8,180.9c0,4.4-3.5,7.9-7.9,7.9c-4.4,0-7.9-3.6-7.9-7.9v0v-10.8h15.8V180.9L64.8,180.9L64.8,180.9z M126,180.9
		L126,180.9v-10.8h-15.8v10.8v0c0,4.4,3.5,7.9,7.9,7.9C122.4,188.9,126,185.3,126,180.9L126,180.9z M64.6,114.1h45.7
		c2.3,0,3.4,2,4.1,4.2l6.1,18.8H54.3l5.8-18.8C60.8,116,62.3,114.1,64.6,114.1L64.6,114.1z M125.5,136.9c3.1,0,5.7,2.6,5.7,5.7v20.2
		c0,3.2-2.6,5.7-5.7,5.7H49.3c-3.1,0-5.7-2.6-5.7-5.7v-20.2c0-3.2,2.6-5.7,5.7-5.7l7.4-23c0.9-2.7,2.3-5.1,5.1-5.1H113
		c2.8,0,4.2,2.4,5.1,5.1L125.5,136.9L125.5,136.9z"/>
	<path fill-rule="evenodd" clip-rule="evenodd" d="M174,180.9c0,4.4-3.5,7.9-7.9,7.9c-4.4,0-7.9-3.6-7.9-7.9v0v-10.8H174V180.9
		L174,180.9L174,180.9z M235.2,180.9L235.2,180.9v-10.8h-15.8v10.8v0c0,4.4,3.5,7.9,7.9,7.9C231.6,188.9,235.2,185.3,235.2,180.9
		L235.2,180.9z M173.8,114.1h45.7c2.3,0,3.4,2,4.1,4.2l6.1,18.8h-66.1l5.8-18.8C170,116,171.5,114.1,173.8,114.1L173.8,114.1z
		 M234.7,136.9c3.1,0,5.7,2.6,5.7,5.7v20.2c0,3.2-2.6,5.7-5.7,5.7h-76.2c-3.1,0-5.7-2.6-5.7-5.7v-20.2c0-3.2,2.6-5.7,5.7-5.7l7.4-23
		c0.9-2.7,2.3-5.1,5.1-5.1h51.2c2.8,0,4.2,2.4,5.1,5.1L234.7,136.9L234.7,136.9z"/>
</g>
</svg>
