<?xml version="1.0" encoding="utf-8"?>
<svg version="1.1"
	 xmlns="http://www.w3.org/2000/svg"
	 x="0px" y="0px" viewBox="0 0 284 284" enable-background="new 0 0 284 284" xml:space="preserve">
<g>
	
		<path fill-rule="evenodd" clip-rule="evenodd" fill="#FFFFFF" stroke="#000000" stroke-width="0.5669" stroke-miterlimit="22.9256" d="
		M142,0.3c78.3,0,141.7,63.5,141.7,141.7c0,78.3-63.5,141.7-141.7,141.7C63.7,283.7,0.3,220.3,0.3,142C0.3,63.7,63.7,0.3,142,0.3
		L142,0.3z"/>
	<path fill-rule="evenodd" clip-rule="evenodd" d="M142,4.6c75.9,0,137.4,61.5,137.4,137.4c0,75.9-61.5,137.4-137.4,137.4
		C66.1,279.5,4.6,217.9,4.6,142C4.6,66.1,66.1,4.6,142,4.6L142,4.6z M250.4,65.7L65.7,250.4c21.6,15.2,47.9,24.2,76.4,24.2
		c73.2,0,132.6-59.4,132.6-132.6C274.6,113.6,265.7,87.3,250.4,65.7L250.4,65.7z M61.4,247.3L247.2,61.4c-1-1.3-2-2.5-3-3.8
		L57.6,244.3C58.8,245.3,60.1,246.3,61.4,247.3L61.4,247.3z M53.6,240.8L240.8,53.6c-1.1-1.2-2.1-2.4-3.3-3.5L50.1,237.6
		C51.2,238.7,52.4,239.7,53.6,240.8L53.6,240.8z M46.4,233.8L233.8,46.4c-1.2-1.1-2.3-2.2-3.5-3.2L43.1,230.3
		C44.2,231.5,45.2,232.7,46.4,233.8L46.4,233.8z M39.7,226.3L226.3,39.7c-1.2-1-2.5-2-3.8-3L36.7,222.5
		C37.6,223.8,38.6,225.1,39.7,226.3L39.7,226.3z M33.5,218.2L218.2,33.5C196.7,18.3,170.4,9.4,142,9.4C68.8,9.4,9.4,68.8,9.4,142
		C9.4,170.4,18.3,196.7,33.5,218.2L33.5,218.2z"/>
	<path fill-rule="evenodd" clip-rule="evenodd" fill="#C7C7C7" d="M174,180.9c0,10.5-15.8,10.5-15.8,0v-10.8H174V180.9L174,180.9z
		 M235.2,180.9v-10.8h-15.8v10.8C219.3,191.4,235.2,191.4,235.2,180.9L235.2,180.9z M173.8,114.1h6.5l5.2-5.2h-6.8l-5.2,5.2
		C173.6,114.1,173.7,114.1,173.8,114.1L173.8,114.1z M187.8,114.1h6.8l5.2-5.2H193L187.8,114.1L187.8,114.1z M202,114.1h17.4
		c2.3,0,3.4,2,4.1,4.2l6.1,18.8h-50.6l-26.3,26.3c0.2,2.9,2.7,5.2,5.7,5.2h76.2c3.1,0,5.7-2.6,5.7-5.7v-20.2c0-3.2-2.6-5.7-5.7-5.7
		l-7.4-23c-0.9-2.7-2.3-5.1-5.1-5.1h-15L202,114.1L202,114.1z M171.6,137h-6.8l-12.1,12v6.8L171.6,137L171.6,137z M166.3,128.1
		l3-9.8l-7.1,7.1l-3.2,10L166.3,128.1L166.3,128.1z M152.9,141.5c0.5-2.3,2.2-4.1,4.5-4.5L152.9,141.5L152.9,141.5z M165.8,114.4
		c1-3.2,2.2-5.5,5.5-5.5L165.8,114.4L165.8,114.4z M64.8,180.9c0,10.5-15.8,10.5-15.8,0v-10.8h15.8V180.9L64.8,180.9z M126,180.9v-5
		l-11.9,11.9c1.7,1,4.9,1.4,5.9,0.8l5.7-5.7C125.9,182.3,126,181.6,126,180.9L126,180.9z M124.3,170.1h-6.8l-7.4,7.4
		c0,2.1-0.2,4.3,0.5,6.2L124.3,170.1L124.3,170.1z M64.6,114.1h45.7c2.3,0,3.4,2,4.1,4.2l4.7,14.4l3.9-3.9l-4.8-14.9
		c-0.9-2.7-2.3-5.1-5.1-5.1H61.8c-2.8,0-4.2,2.4-5.1,5.1l-7.4,23c-3.1,0-5.7,2.6-5.7,5.7v20.2c0,3.2,2.6,5.7,5.7,5.7h33.9l31.5-31.5
		H54.3l5.8-18.8C60.8,116,62.3,114.1,64.6,114.1L64.6,114.1z M125.5,136.9c1,0,2,0.3,2.8,0.7l-30.9,30.9h-6.8l34.1-34.1L125.5,136.9
		L125.5,136.9z M131.2,142.2l0,6.7l-19.6,19.6h-6.8L131.2,142.2L131.2,142.2z M131.2,156.4l0,6.8l-5.4,5.4l-6.8,0L131.2,156.4
		L131.2,156.4z"/>
</g>
</svg>
