<?xml version="1.0" encoding="utf-8"?>
<svg version="1.1"
	 xmlns="http://www.w3.org/2000/svg"
	 x="0px" y="0px" viewBox="0 0 284 284" enable-background="new 0 0 284 284" xml:space="preserve">
<g>
	
		<path fill-rule="evenodd" clip-rule="evenodd" fill="#FFFFFF" stroke="#000000" stroke-width="0.5669" stroke-miterlimit="22.9256" d="
		M142,0.3c78.3,0,141.7,63.5,141.7,141.7c0,78.3-63.5,141.7-141.7,141.7C63.7,283.7,0.3,220.3,0.3,142C0.3,63.7,63.7,0.3,142,0.3
		L142,0.3z"/>
	<path fill-rule="evenodd" clip-rule="evenodd" fill="#B92B1E" d="M142,4.6c75.9,0,137.4,61.5,137.4,137.4
		c0,75.9-61.5,137.4-137.4,137.4C66.1,279.5,4.6,217.9,4.6,142C4.6,66.1,66.1,4.6,142,4.6L142,4.6z M142,28.7
		c62.6,0,113.3,50.7,113.3,113.3c0,62.6-50.7,113.3-113.3,113.3c-62.6,0-113.3-50.7-113.3-113.3C28.7,79.4,79.4,28.7,142,28.7
		L142,28.7z M63.3,73h75.8c4.6,0,8.3,3.8,8.3,8.3v80.1h-3.9V181c0,4.3-3.5,7.9-7.9,7.9h-0.1c-4.3,0-7.9-3.5-7.9-7.9v-19.5h-10.8
		c-4.3,3.4-9.7,5.4-15.6,5.4c-5.9,0-11.3-2-15.6-5.4H74.8V181c0,4.3-3.5,7.9-7.9,7.9h-0.1c-4.3,0-7.9-3.5-7.9-7.9v-19.5H55V81.4
		C55,76.8,58.7,73,63.3,73L63.3,73z"/>
	<path fill-rule="evenodd" clip-rule="evenodd" d="M176,180.9c0,4.4-3.5,7.9-7.9,7.9c-4.4,0-7.9-3.6-7.9-7.9v0v-10.8H176V180.9
		L176,180.9L176,180.9z M237.2,180.9L237.2,180.9v-10.8h-15.8v10.8v0c0,4.4,3.5,7.9,7.9,7.9C233.6,188.9,237.2,185.3,237.2,180.9
		L237.2,180.9z M175.8,114.1h45.7c2.3,0,3.4,2,4.1,4.2l6.1,18.8h-66.1l5.8-18.8C172,116,173.5,114.1,175.8,114.1L175.8,114.1z
		 M236.7,136.9c3.1,0,5.7,2.6,5.7,5.7v20.2c0,3.2-2.6,5.7-5.7,5.7h-76.2c-3.1,0-5.7-2.6-5.7-5.7v-20.2c0-3.2,2.6-5.7,5.7-5.7l7.4-23
		c0.9-2.7,2.3-5.1,5.1-5.1h51.2c2.8,0,4.2,2.4,5.1,5.1L236.7,136.9L236.7,136.9z"/>
</g>
</svg>
