<?xml version="1.0" encoding="utf-8"?>
<svg version="1.1"
	 xmlns="http://www.w3.org/2000/svg"
	 x="0px" y="0px" viewBox="0 0 284 284" enable-background="new 0 0 284 284" xml:space="preserve">
<g>
	
		<path fill-rule="evenodd" clip-rule="evenodd" fill="#FFFFFF" stroke="#000000" stroke-width="0.5669" stroke-miterlimit="22.9256" d="
		M142,0.3c78.3,0,141.7,63.5,141.7,141.7c0,78.3-63.5,141.7-141.7,141.7C63.7,283.7,0.3,220.3,0.3,142C0.3,63.7,63.7,0.3,142,0.3
		L142,0.3z"/>
	<path fill-rule="evenodd" clip-rule="evenodd" d="M142,4.6c75.9,0,137.4,61.5,137.4,137.4c0,75.9-61.5,137.4-137.4,137.4
		C66.1,279.5,4.6,217.9,4.6,142C4.6,66.1,66.1,4.6,142,4.6L142,4.6z M250.4,65.7L65.7,250.4c21.6,15.2,47.9,24.2,76.4,24.2
		c73.2,0,132.6-59.4,132.6-132.6C274.6,113.6,265.7,87.3,250.4,65.7L250.4,65.7z M61.4,247.3L247.2,61.4c-1-1.3-2-2.5-3-3.8
		L57.6,244.3C58.8,245.3,60.1,246.3,61.4,247.3L61.4,247.3z M53.6,240.8L240.8,53.6c-1.1-1.2-2.1-2.4-3.3-3.5L50.1,237.6
		C51.2,238.7,52.4,239.7,53.6,240.8L53.6,240.8z M46.4,233.8L233.8,46.4c-1.1-1.1-2.3-2.2-3.5-3.2L43.1,230.3
		C44.2,231.5,45.2,232.7,46.4,233.8L46.4,233.8z M39.7,226.3L226.3,39.7c-1.2-1-2.5-2-3.8-3L36.7,222.5
		C37.6,223.8,38.6,225.1,39.7,226.3L39.7,226.3z M33.5,218.2L218.2,33.5C196.7,18.3,170.4,9.4,142,9.4C68.8,9.4,9.4,68.8,9.4,142
		C9.4,170.4,18.3,196.7,33.5,218.2L33.5,218.2z"/>
	<path fill-rule="evenodd" clip-rule="evenodd" fill="#C7C7C7" d="M63.3,73h75.8c4.6,0,8.3,3.8,8.3,8.3v22.8l-59.1,59.1
		c-1-0.6-1.9-1.2-2.8-1.9H74.8v15.5l-11.2,11.2c-2.7-1.2-4.7-4-4.7-7.2v-19.5H55V81.4C55,76.8,58.7,73,63.3,73L63.3,73z
		 M147.5,111.7v6.8l-48.3,48.3c-2-0.2-3.8-0.5-5.6-1.1L147.5,111.7L147.5,111.7z M147.5,125.9v6.8l-28.8,28.8h-1.8
		c-2.8,2.2-6.1,3.8-9.6,4.7L147.5,125.9L147.5,125.9z M147.5,140.1v6.8l-19.8,19.8v-5.2h-1.5L147.5,140.1L147.5,140.1z M147.5,154.4
		v6.8l-0.3,0.3h-3.6v3.6l-15.9,15.9v-6.8L147.5,154.4L147.5,154.4z M143.6,172.5v8.5c0,7.2-9,10.6-13.8,5.3L143.6,172.5L143.6,172.5
		z M176,180.9c0,4.4-3.5,7.9-7.9,7.9c-4.4,0-7.9-3.6-7.9-7.9v-10.8H176V180.9L176,180.9z M237.2,180.9v-10.8h-15.8v10.8
		c0,4.4,3.5,7.9,7.9,7.9C233.6,188.9,237.2,185.3,237.2,180.9L237.2,180.9z M175.8,114.1h4.6l5.2-5.2h-6.8l-13.7,13.7l-3.2,10
		l7.3-7.3l2.2-7C172,116,173.5,114.1,175.8,114.1L175.8,114.1z M187.8,114.1h6.8l5.2-5.2H193L187.8,114.1L187.8,114.1z M202,114.1
		h19.4c2.3,0,3.4,2,4.1,4.2l6.1,18.8h-52.6l-24.3,24.3v1.5c0,3.2,2.6,5.7,5.7,5.7h76.2c3.1,0,5.7-2.6,5.7-5.7v-20.2
		c0-3.2-2.6-5.7-5.7-5.7l-7.4-23c-0.9-2.7-2.3-5.1-5.1-5.1h-17L202,114.1L202,114.1z M171.6,137h-6.1l0.3-1l-11.1,11.1v6.8
		L171.6,137L171.6,137z M169.5,110.7c0.3-0.4,0.7-0.8,1.1-1.1L169.5,110.7L169.5,110.7z"/>
</g>
</svg>
