<?xml version="1.0" encoding="utf-8"?>
<svg version="1.1"
	 xmlns="http://www.w3.org/2000/svg"
	 x="0px" y="0px" viewBox="0 0 284 284" enable-background="new 0 0 284 284" xml:space="preserve">
<g>
	
		<path fill-rule="evenodd" clip-rule="evenodd" fill="#FFFFFF" stroke="#000000" stroke-width="0.5669" stroke-miterlimit="22.9256" d="
		M142,0.3c78.3,0,141.7,63.5,141.7,141.7c0,78.3-63.5,141.7-141.7,141.7C63.7,283.7,0.3,220.3,0.3,142C0.3,63.7,63.7,0.3,142,0.3
		L142,0.3z"/>
	<path fill-rule="evenodd" clip-rule="evenodd" fill="#B92B1E" d="M142,4.6c75.9,0,137.4,61.5,137.4,137.4
		c0,75.9-61.5,137.4-137.4,137.4C66.1,279.5,4.6,217.9,4.6,142C4.6,66.1,66.1,4.6,142,4.6L142,4.6z M142,28.7
		c62.6,0,113.3,50.7,113.3,113.3c0,62.6-50.7,113.3-113.3,113.3c-62.6,0-113.3-50.7-113.3-113.3C28.7,79.4,79.4,28.7,142,28.7
		L142,28.7z"/>
	<path fill-rule="evenodd" clip-rule="evenodd" d="M72.6,191.9l-3.3-20.6c7.3,4.5,15.3,6.2,22.8,6.2c14.1,0,24-9.4,24-18.7
		c0-8.9-6.7-17.7-16.9-17.4c-4.4,0.1-9.9,1.7-14.8,6.7L73,142.8V91.3h58.7l-4.8,17.8H89.7V130c22.6-12.1,46,3.9,45.7,26.3
		c-0.4,21.5-15.4,38.5-39.3,38.9C88.7,195.1,80.9,193.2,72.6,191.9L72.6,191.9z M183,195.1c18.7,0,29.4-16,33.3-33.4
		c4.8-22.1,1.9-60.4-22.5-70.1c-15.6-6.2-30.8,1.6-38.7,16.6c-11.7,22.1-11.2,73.6,17.3,84.8C175.8,194.4,179.3,195.1,183,195.1
		L183,195.1z M183,176.9c-8.9,0.1-13.4-9.5-15.2-17.6c-2.4-10.7-3.9-46.1,10.6-50.6c7.9-2.5,14.3,1,17.7,8.8
		c5.1,11.9,7,49.6-7.1,57.8C187,176.3,185,176.9,183,176.9L183,176.9z"/>
</g>
</svg>
