<?xml version="1.0" encoding="utf-8"?>
<svg version="1.1"
	 xmlns="http://www.w3.org/2000/svg"
	 x="0px" y="0px" viewBox="0 0 284 284" enable-background="new 0 0 284 284" xml:space="preserve">
<g>
	
		<path fill-rule="evenodd" clip-rule="evenodd" fill="#FFFFFF" stroke="#000000" stroke-width="0.5669" stroke-miterlimit="22.9256" d="
		M142,0.3c78.3,0,141.7,63.5,141.7,141.7c0,78.3-63.5,141.7-141.7,141.7C63.7,283.7,0.3,220.3,0.3,142C0.3,63.7,63.7,0.3,142,0.3
		L142,0.3z"/>
	<path fill-rule="evenodd" clip-rule="evenodd" d="M142,4.6c75.9,0,137.4,61.5,137.4,137.4c0,75.9-61.5,137.4-137.4,137.4
		C66.1,279.5,4.6,217.9,4.6,142C4.6,66.1,66.1,4.6,142,4.6L142,4.6z M250.4,65.7L65.7,250.4c21.6,15.2,47.9,24.2,76.4,24.2
		c73.2,0,132.6-59.4,132.6-132.6C274.6,113.6,265.7,87.3,250.4,65.7L250.4,65.7z M61.4,247.3L247.2,61.4c-1-1.3-2-2.5-3-3.8
		L57.6,244.3C58.8,245.3,60.1,246.3,61.4,247.3L61.4,247.3z M53.6,240.8L240.8,53.6c-1.1-1.2-2.1-2.4-3.3-3.5L50.1,237.6
		C51.2,238.7,52.4,239.7,53.6,240.8L53.6,240.8z M46.4,233.8L233.8,46.4c-1.1-1.1-2.3-2.2-3.5-3.2L43.1,230.3
		C44.2,231.5,45.2,232.7,46.4,233.8L46.4,233.8z M39.7,226.3L226.3,39.7c-1.2-1-2.5-2-3.8-3L36.7,222.5
		C37.6,223.8,38.6,225.1,39.7,226.3L39.7,226.3z M33.5,218.2L218.2,33.5C196.7,18.3,170.4,9.4,142,9.4C68.8,9.4,9.4,68.8,9.4,142
		C9.4,170.4,18.3,196.7,33.5,218.2L33.5,218.2z"/>
	<path fill-rule="evenodd" clip-rule="evenodd" fill="#C7C7C7" d="M72.6,191.9l-0.7-4.7l10.7-10.7c2,0.4,4,0.7,5.9,0.8l-14.7,14.7
		C73.4,192.1,73,192,72.6,191.9L72.6,191.9z M70.9,180.8l-1.5-9.4c2.4,1.5,4.9,2.7,7.4,3.6L70.9,180.8L70.9,180.8z M96.1,177.3
		c3.8-0.5,7.2-1.7,10.1-3.3l-20.3,20.3c-1.9-0.3-3.8-0.6-5.8-1L96.1,177.3L96.1,177.3z M114.4,165.8c1.5-2.8,2-5.5,1.7-8.5
		l15.8-15.8c0.8,1.5,1.5,3.1,2,4.7L114.4,165.8L114.4,165.8z M114.5,151.4c-0.7-1.5-1.5-2.9-2.6-4.2l13.7-13.7
		c1.2,1.1,2.3,2.2,3.3,3.5L114.5,151.4L114.5,151.4z M107.9,143.8c-6.9-4.2-16.8-2.3-23.5,4.5L73,142.8V91.3h58.7l-4.8,17.8H89.7
		V130c11.4-6.1,23-5,31.7,0.4L107.9,143.8L107.9,143.8z M135.2,152.4c0.1,1,0.3,6.2,0,6.7l-35.8,35.8c-0.5,0.2-5.8,0.1-6.8,0.1
		L135.2,152.4L135.2,152.4z M133.5,168.4c-3.6,11.8-12.4,20.9-24.8,24.8L133.5,168.4L133.5,168.4z M183,195.1
		c37.4,0,42.7-61.9,26.9-88.9l-13.1,13.1c5.1,15.2,5.7,57.6-13.8,57.6c-12.2,0-15.7-16.4-16.5-27.3l-15.8,15.8
		C155.3,181.8,166,195.1,183,195.1L183,195.1z M206.9,101.7c-1-1.3-2-2.5-3.2-3.6l-12.5,12.5c1.2,1,2.2,2.2,3.2,3.6L206.9,101.7
		L206.9,101.7z M199.6,94.8c-1.3-0.9-2.8-1.7-4.3-2.4l-16,16c2.5-0.7,4.8-0.7,7-0.2L199.6,94.8L199.6,94.8z M189.8,90.4
		c-2-0.5-4-0.8-5.9-0.8l-34.1,34.1c-0.5,2.6-1,5.3-1.3,8.1L189.8,90.4L189.8,90.4z M175.3,90.7c-10.3,3-18.2,11.6-22.4,22.4
		L175.3,90.7L175.3,90.7z M147.9,139.7c-0.1,2.2-0.1,4.5,0,6.7l19.5-19.5c0.6-3.4,1.4-6.6,2.6-9.3L147.9,139.7L147.9,139.7z
		 M148.4,153.4c0.2,2,0.5,3.9,0.9,5.9l16.9-16.9c0-2.3,0-4.6,0.2-6.9L148.4,153.4L148.4,153.4z"/>
</g>
</svg>
