<?xml version="1.0" encoding="utf-8"?>
<svg version="1.1"
	 xmlns="http://www.w3.org/2000/svg"
	 x="0px" y="0px" viewBox="0 0 284 284" enable-background="new 0 0 284 284" xml:space="preserve">
<g>
	
		<path fill-rule="evenodd" clip-rule="evenodd" fill="#FFFFFF" stroke="#000000" stroke-width="0.5669" stroke-miterlimit="22.9256" d="
		M142,0.3c78.3,0,141.7,63.5,141.7,141.7c0,78.3-63.5,141.7-141.7,141.7C63.7,283.7,0.3,220.3,0.3,142C0.3,63.7,63.7,0.3,142,0.3
		L142,0.3z"/>
	<path fill-rule="evenodd" clip-rule="evenodd" fill="#B92B1E" d="M142,4.6c75.9,0,137.4,61.5,137.4,137.4
		c0,75.9-61.5,137.4-137.4,137.4C66.1,279.5,4.6,217.9,4.6,142C4.6,66.1,66.1,4.6,142,4.6L142,4.6z M68.9,55.4l159.7,159.7
		c16.7-19.7,26.7-45.2,26.7-73.1c0-62.6-50.7-113.3-113.3-113.3C114.2,28.7,88.7,38.7,68.9,55.4L68.9,55.4z M215.1,228.6L55.4,68.9
		C38.7,88.6,28.7,114.1,28.7,142c0,62.6,50.7,113.3,113.3,113.3C169.9,255.4,195.4,245.3,215.1,228.6L215.1,228.6z"/>
	<path fill-rule="evenodd" clip-rule="evenodd" d="M100.8,136.5h17.1l10.8,10.8h-28.2c-6.6,0-12.1,5.4-12.1,12.1v1.6
		c0,6.6,5.4,12.1,12.1,12.1h54l9.8,9.8c-2.8,0.7-5.6,1-8.6,1h-54.9c-12.7,0-23.2-10.4-23.2-23.2v-1C77.6,147,88,136.5,100.8,136.5
		L100.8,136.5z M155.3,136.6H180c-3.7-9.7-12.7-16.6-24.6-16.6h-16.7l-10.4-10.4h28.6c16.7,0,30.4,11.5,34.5,27H206
		c2.4-7.7,8.6-13.3,18.1-13.3c9.5,0,18.9,8.5,18.9,18.9c0,10.4-8.5,18.9-18.9,18.9c-8.6,0-15.9-5.8-18.2-13.7h-13.2
		c-0.1,7.5-2.5,14.4-6.4,20.2l-7.5-7.5c1.7-3.9,2.9-8.2,3.2-12.7h-15.9L155.3,136.6L155.3,136.6z M91.3,120
		c-18.2,1.9-32.7,16-35.3,33.9c-6.6-11.6-10.3-25-10.3-39.3c0-14.3,3.7-27.6,10.3-39.2c2.4,17.9,16.8,32.1,34.8,34.2l10.5,10.5H91.3
		L91.3,120z"/>
</g>
</svg>
