<?xml version="1.0" encoding="utf-8"?>
<svg version="1.1"
	 xmlns="http://www.w3.org/2000/svg"
	 x="0px" y="0px" viewBox="0 0 284 284" enable-background="new 0 0 284 284" xml:space="preserve">
<g>
	
		<path fill-rule="evenodd" clip-rule="evenodd" fill="#FFFFFF" stroke="#000000" stroke-width="0.5669" stroke-miterlimit="22.9256" d="
		M142,0.3c78.3,0,141.7,63.5,141.7,141.7c0,78.3-63.5,141.7-141.7,141.7C63.7,283.7,0.3,220.3,0.3,142C0.3,63.7,63.7,0.3,142,0.3
		L142,0.3z"/>
	<path fill-rule="evenodd" clip-rule="evenodd" fill="#B92B1E" d="M142,4.6c75.9,0,137.4,61.5,137.4,137.4
		c0,75.9-61.5,137.4-137.4,137.4C66.1,279.5,4.6,217.9,4.6,142C4.6,66.1,66.1,4.6,142,4.6L142,4.6z M128.5,142l-73.1,73.1l0,0
		c-0.5-0.6-1-1.2-1.5-1.8l0-0.1c-1.7-2.1-3.4-4.4-5-6.6l-0.2-0.2c-0.4-0.6-0.8-1.2-1.3-1.9l-0.1-0.2c-0.4-0.6-0.8-1.3-1.2-1.9l0,0
		c-0.5-0.9-1.1-1.7-1.6-2.6l-0.4-0.6c-0.3-0.6-0.6-1.1-1-1.7l-0.3-0.6c-0.3-0.5-0.6-1.1-0.9-1.6c-0.2-0.3-0.3-0.6-0.4-0.9
		c-0.2-0.5-0.5-1-0.7-1.4c-0.2-0.4-0.4-0.9-0.6-1.3c-0.2-0.3-0.3-0.7-0.5-1c-0.2-0.5-0.4-0.9-0.7-1.4c-0.2-0.4-0.4-0.8-0.6-1.2
		c-0.2-0.4-0.4-0.9-0.6-1.3c-0.2-0.4-0.3-0.8-0.5-1.2c-0.2-0.5-0.4-1-0.6-1.5c-0.1-0.3-0.2-0.6-0.4-0.9c-0.2-0.6-0.4-1.1-0.6-1.7
		l-0.3-0.8c-0.2-0.6-0.4-1.2-0.6-1.8c-0.1-0.2-0.2-0.5-0.2-0.7c-0.2-0.7-0.4-1.3-0.7-2l-0.2-0.7c-0.2-0.7-0.4-1.4-0.6-2.1l-0.2-0.6
		c-0.2-0.7-0.4-1.4-0.5-2l-0.1-0.6c-0.2-0.7-0.4-1.4-0.5-2.1l-0.1-0.5c-0.2-0.8-0.4-1.6-0.5-2.4l-0.1-0.4c-0.2-0.8-0.3-1.6-0.5-2.4
		l-0.1-0.4c-0.1-0.8-0.3-1.6-0.4-2.4l-0.1-0.4c-0.1-0.8-0.2-1.6-0.3-2.4l0-0.3c-0.1-0.9-0.2-1.8-0.3-2.7l0-0.1
		c-0.1-0.9-0.2-1.8-0.2-2.7l0-0.3c-0.1-0.8-0.1-1.7-0.2-2.6l0-0.3c0-0.9-0.1-1.8-0.1-2.6l0-0.2c0-0.9,0-1.9,0-2.8c0-1,0-1.9,0-2.9
		l0-0.2c0-0.9,0.1-1.8,0.1-2.6l0-0.3c0-0.9,0.1-1.7,0.2-2.6l0-0.3c0.1-0.9,0.1-1.8,0.2-2.7l0-0.2c0.1-0.9,0.2-1.8,0.3-2.7l0-0.3
		c0.1-0.8,0.2-1.6,0.3-2.5l0.1-0.3c0.1-0.8,0.3-1.6,0.4-2.4l0.1-0.4c0.1-0.8,0.3-1.7,0.5-2.5l0-0.2c0.2-0.8,0.4-1.7,0.5-2.5l0.1-0.4
		c0.2-0.7,0.4-1.5,0.5-2.2l0.1-0.5c0.2-0.7,0.4-1.4,0.6-2.1l0.2-0.6c0.2-0.7,0.4-1.4,0.6-2.1l0.2-0.6c0.2-0.7,0.5-1.4,0.7-2.2
		l0.2-0.6c0.2-0.6,0.4-1.3,0.7-1.9l0.2-0.7c0.2-0.6,0.4-1.2,0.7-1.8c0.1-0.3,0.2-0.5,0.3-0.8c0.2-0.6,0.5-1.2,0.7-1.8
		c0.1-0.3,0.3-0.6,0.4-0.9c0.2-0.5,0.5-1.1,0.7-1.6c0.1-0.3,0.3-0.7,0.5-1c0.2-0.5,0.5-1,0.7-1.6l0.4-0.9c0.2-0.5,0.5-1,0.7-1.4
		c0.2-0.4,0.4-0.8,0.6-1.1c0.2-0.4,0.4-0.8,0.6-1.2c0.2-0.5,0.5-0.9,0.8-1.4c0.2-0.3,0.3-0.6,0.5-0.9c0.3-0.5,0.5-1,0.8-1.4l0.5-0.9
		c0.3-0.5,0.6-0.9,0.8-1.4c0.2-0.4,0.4-0.7,0.7-1.1c0.3-0.5,0.7-1.1,1-1.6l0.3-0.5c0.4-0.6,0.8-1.1,1.1-1.7l0.3-0.4
		c0.4-0.6,0.8-1.1,1.2-1.7l0.3-0.4c1.6-2.2,3.3-4.3,5-6.4l0,0L128.5,142L128.5,142z M68.9,228.6l73.1-73.1l73.1,73.1l0,0
		c-2.1,1.7-4.2,3.4-6.4,5l-0.4,0.3c-0.6,0.4-1.1,0.8-1.7,1.2l-0.4,0.3c-0.6,0.4-1.1,0.8-1.7,1.1l-0.5,0.3c-0.5,0.4-1.1,0.7-1.6,1
		c-0.4,0.2-0.7,0.5-1.1,0.7c-0.5,0.3-0.9,0.6-1.4,0.8c-0.3,0.2-0.6,0.4-0.9,0.5c-0.5,0.3-1,0.6-1.4,0.8c-0.3,0.2-0.6,0.3-0.9,0.5
		c-0.5,0.3-0.9,0.5-1.4,0.8c-0.4,0.2-0.8,0.4-1.2,0.6c-0.4,0.2-0.7,0.4-1.1,0.6c-0.5,0.2-1,0.5-1.4,0.7c-0.3,0.1-0.6,0.3-0.9,0.4
		c-0.5,0.2-1,0.5-1.6,0.7c-0.3,0.2-0.7,0.3-1,0.5c-0.5,0.2-1.1,0.5-1.6,0.7c-0.3,0.1-0.6,0.3-0.9,0.4c-0.6,0.2-1.2,0.5-1.8,0.7
		l-0.8,0.3c-0.6,0.2-1.2,0.5-1.8,0.7l-0.7,0.2c-0.6,0.2-1.3,0.5-1.9,0.7l-0.6,0.2c-0.7,0.2-1.4,0.5-2.2,0.7l-0.6,0.2
		c-0.7,0.2-1.4,0.4-2.1,0.6l-0.6,0.2c-0.7,0.2-1.4,0.4-2.1,0.6l-0.5,0.1c-0.7,0.2-1.5,0.4-2.2,0.5l-0.4,0.1
		c-0.8,0.2-1.7,0.4-2.5,0.5l-0.2,0c-0.8,0.2-1.7,0.3-2.5,0.5l-0.4,0.1c-0.8,0.1-1.6,0.3-2.4,0.4l-0.3,0.1c-0.8,0.1-1.6,0.2-2.5,0.3
		l-0.3,0c-0.9,0.1-1.8,0.2-2.7,0.3l-0.2,0c-0.9,0.1-1.8,0.2-2.7,0.2l-0.3,0c-0.9,0.1-1.7,0.1-2.6,0.2l-0.3,0c-0.9,0-1.8,0.1-2.6,0.1
		l-0.2,0c-0.9,0-1.9,0-2.9,0c-1,0-1.9,0-2.9,0l-0.2,0c-0.9,0-1.8-0.1-2.6-0.1l-0.3,0c-0.9,0-1.7-0.1-2.6-0.2l-0.3,0
		c-0.9-0.1-1.8-0.1-2.7-0.2l-0.2,0c-0.9-0.1-1.8-0.2-2.7-0.3l-0.3,0c-0.8-0.1-1.6-0.2-2.5-0.3l-0.3-0.1c-0.8-0.1-1.6-0.3-2.4-0.4
		l-0.4-0.1c-0.8-0.2-1.7-0.3-2.5-0.5l-0.2,0c-0.8-0.2-1.7-0.4-2.5-0.5l-0.4-0.1c-0.7-0.2-1.5-0.4-2.2-0.5l-0.5-0.1
		c-0.7-0.2-1.4-0.4-2.1-0.6l-0.6-0.2c-0.7-0.2-1.4-0.4-2.1-0.6l-0.6-0.2c-0.7-0.2-1.4-0.5-2.2-0.7l-0.6-0.2
		c-0.6-0.2-1.3-0.4-1.9-0.7l-0.7-0.2c-0.6-0.2-1.2-0.4-1.8-0.7l-0.8-0.3c-0.6-0.2-1.2-0.5-1.8-0.7c-0.3-0.1-0.6-0.3-0.9-0.4
		c-0.5-0.2-1.1-0.5-1.6-0.7c-0.3-0.1-0.7-0.3-1-0.5c-0.5-0.2-1-0.5-1.6-0.7l-0.9-0.4c-0.5-0.2-1-0.5-1.4-0.7
		c-0.4-0.2-0.7-0.4-1.1-0.6c-0.4-0.2-0.8-0.4-1.2-0.6c-0.5-0.2-0.9-0.5-1.4-0.8c-0.3-0.2-0.6-0.3-0.9-0.5c-0.5-0.3-1-0.5-1.4-0.8
		c-0.3-0.2-0.6-0.3-0.9-0.5c-0.5-0.3-0.9-0.6-1.4-0.8c-0.4-0.2-0.7-0.4-1.1-0.7c-0.5-0.3-1.1-0.7-1.6-1l-0.5-0.3
		c-0.6-0.4-1.1-0.8-1.7-1.1l-0.4-0.3c-0.6-0.4-1.1-0.8-1.7-1.2l-0.4-0.3C73.1,232,71,230.4,68.9,228.6L68.9,228.6L68.9,228.6z
		 M155.5,142l73.1-73.1l0,0c1.7,2.1,3.4,4.2,5,6.4l0.3,0.4c0.4,0.6,0.8,1.1,1.2,1.7l0.3,0.4c0.4,0.6,0.8,1.1,1.1,1.7l0.3,0.5
		c0.4,0.5,0.7,1.1,1,1.6c0.2,0.4,0.5,0.7,0.7,1.1c0.3,0.5,0.6,0.9,0.8,1.4c0.2,0.3,0.4,0.6,0.5,0.9c0.3,0.5,0.6,1,0.8,1.4
		c0.2,0.3,0.3,0.6,0.5,0.9c0.3,0.5,0.5,0.9,0.8,1.4c0.2,0.4,0.4,0.8,0.6,1.2c0.2,0.4,0.4,0.7,0.6,1.1c0.2,0.5,0.5,1,0.7,1.4l0.4,0.9
		c0.2,0.5,0.5,1,0.7,1.6c0.2,0.3,0.3,0.7,0.5,1c0.2,0.5,0.5,1.1,0.7,1.6c0.1,0.3,0.3,0.6,0.4,0.9c0.2,0.6,0.5,1.2,0.7,1.8
		c0.1,0.3,0.2,0.5,0.3,0.8c0.2,0.6,0.5,1.2,0.7,1.8l0.2,0.7c0.2,0.6,0.5,1.3,0.7,1.9l0.2,0.6c0.2,0.7,0.5,1.4,0.7,2.2l0.2,0.6
		c0.2,0.7,0.4,1.4,0.6,2.1l0.2,0.6c0.2,0.7,0.4,1.4,0.6,2.1l0.1,0.5c0.2,0.7,0.4,1.5,0.5,2.2l0.1,0.4c0.2,0.8,0.4,1.7,0.5,2.5l0,0.2
		c0.2,0.8,0.3,1.7,0.5,2.5l0.1,0.4c0.1,0.8,0.3,1.6,0.4,2.4l0.1,0.3c0.1,0.8,0.2,1.6,0.3,2.5l0,0.3c0.1,0.9,0.2,1.8,0.3,2.7l0,0.2
		c0.1,0.9,0.2,1.8,0.2,2.7l0,0.3c0.1,0.9,0.1,1.7,0.2,2.6l0,0.3c0,0.9,0.1,1.8,0.1,2.6l0,0.2c0,0.9,0,1.9,0,2.9c0,1,0,1.9,0,2.8
		l0,0.2c0,0.9-0.1,1.8-0.1,2.6l0,0.3c0,0.9-0.1,1.7-0.2,2.6l0,0.3c-0.1,0.9-0.1,1.8-0.2,2.7l0,0.1c-0.1,0.9-0.2,1.8-0.3,2.7l0,0.3
		c-0.1,0.8-0.2,1.6-0.3,2.4l-0.1,0.4c-0.1,0.8-0.3,1.6-0.4,2.4l-0.1,0.4c-0.1,0.8-0.3,1.6-0.5,2.4L253,165c-0.2,0.8-0.3,1.6-0.5,2.4
		l-0.1,0.5c-0.2,0.7-0.3,1.4-0.5,2.1l-0.1,0.6c-0.2,0.7-0.4,1.4-0.5,2l-0.2,0.6c-0.2,0.7-0.4,1.4-0.6,2.1l-0.2,0.7
		c-0.2,0.7-0.4,1.3-0.7,2l-0.2,0.7c-0.2,0.6-0.4,1.2-0.6,1.8l-0.3,0.8c-0.2,0.6-0.4,1.1-0.6,1.7c-0.1,0.3-0.2,0.6-0.4,0.9
		c-0.2,0.5-0.4,1-0.6,1.5c-0.2,0.4-0.3,0.8-0.5,1.2c-0.2,0.4-0.4,0.9-0.6,1.3c-0.2,0.4-0.4,0.8-0.6,1.2c-0.2,0.5-0.4,0.9-0.7,1.4
		c-0.2,0.3-0.3,0.7-0.5,1c-0.2,0.4-0.4,0.9-0.6,1.3c-0.2,0.5-0.5,1-0.7,1.4c-0.1,0.3-0.3,0.6-0.5,0.9c-0.3,0.6-0.6,1.1-0.9,1.6
		l-0.3,0.6c-0.3,0.6-0.6,1.1-1,1.7l-0.3,0.6c-0.5,0.9-1,1.7-1.6,2.6l0,0c-0.4,0.6-0.8,1.3-1.2,1.9l-0.1,0.2
		c-0.4,0.6-0.8,1.2-1.3,1.9l-0.2,0.2c-1.6,2.3-3.2,4.5-5,6.6l0,0.1c-0.5,0.6-1,1.2-1.5,1.8l0,0L155.5,142L155.5,142z M215.1,55.4
		L142,128.5L68.9,55.4l0,0c0.6-0.5,1.2-1,1.8-1.5l0.1,0c2.1-1.7,4.4-3.4,6.6-5l0.2-0.2c0.6-0.4,1.2-0.8,1.9-1.3l0.2-0.1
		c0.6-0.4,1.3-0.8,1.9-1.2l0,0c0.9-0.5,1.7-1.1,2.6-1.6l0.6-0.3c0.6-0.3,1.1-0.6,1.7-1l0.6-0.3c0.5-0.3,1.1-0.6,1.6-0.9
		c0.3-0.2,0.6-0.3,0.9-0.4c0.5-0.3,1-0.5,1.4-0.7c0.4-0.2,0.9-0.4,1.3-0.6c0.3-0.2,0.7-0.3,1-0.5c0.5-0.2,0.9-0.4,1.4-0.7
		c0.4-0.2,0.8-0.4,1.2-0.6c0.4-0.2,0.9-0.4,1.3-0.6c0.4-0.2,0.8-0.3,1.2-0.5c0.5-0.2,1-0.4,1.5-0.6c0.3-0.1,0.6-0.2,0.9-0.4
		c0.6-0.2,1.1-0.4,1.7-0.6c0.3-0.1,0.5-0.2,0.8-0.3c0.6-0.2,1.2-0.4,1.8-0.6l0.7-0.2c0.7-0.2,1.3-0.4,2-0.7l0.7-0.2
		c0.7-0.2,1.4-0.4,2.1-0.6l0.6-0.2c0.7-0.2,1.3-0.4,2-0.5l0.6-0.2c0.7-0.2,1.4-0.4,2.1-0.5l0.5-0.1c0.8-0.2,1.6-0.4,2.4-0.5l0.4-0.1
		c0.8-0.2,1.6-0.3,2.4-0.5l0.4-0.1c0.8-0.1,1.6-0.3,2.4-0.4l0.4-0.1c0.8-0.1,1.6-0.2,2.4-0.3l0.3,0c0.9-0.1,1.8-0.2,2.7-0.3l0.1,0
		c0.9-0.1,1.8-0.2,2.7-0.2l0.3,0c0.8-0.1,1.7-0.1,2.6-0.2l0.3,0c0.9,0,1.8-0.1,2.6-0.1l0.2,0c0.9,0,1.9,0,2.8,0c1,0,1.9,0,2.8,0
		l0.2,0c0.9,0,1.8,0.1,2.6,0.1l0.3,0c0.9,0,1.7,0.1,2.6,0.2l0.3,0c0.9,0.1,1.8,0.1,2.7,0.2l0.1,0c0.9,0.1,1.8,0.2,2.7,0.3l0.3,0
		c0.8,0.1,1.6,0.2,2.4,0.3l0.4,0.1c0.8,0.1,1.6,0.3,2.4,0.4l0.4,0.1c0.8,0.1,1.6,0.3,2.4,0.5L165,31c0.8,0.2,1.6,0.3,2.4,0.5
		l0.5,0.1c0.7,0.2,1.4,0.3,2.1,0.5l0.6,0.2c0.7,0.2,1.4,0.4,2,0.5l0.6,0.2c0.7,0.2,1.4,0.4,2.1,0.6l0.7,0.2c0.7,0.2,1.3,0.4,2,0.7
		l0.7,0.2c0.6,0.2,1.2,0.4,1.8,0.6l0.8,0.3c0.6,0.2,1.1,0.4,1.7,0.6c0.3,0.1,0.6,0.2,0.9,0.4c0.5,0.2,1,0.4,1.5,0.6
		c0.4,0.2,0.8,0.3,1.2,0.5c0.4,0.2,0.9,0.4,1.3,0.6c0.4,0.2,0.8,0.4,1.2,0.6c0.5,0.2,0.9,0.4,1.4,0.7c0.3,0.2,0.7,0.3,1,0.5
		c0.4,0.2,0.9,0.4,1.3,0.6c0.5,0.2,1,0.5,1.4,0.7l0.9,0.4c0.6,0.3,1.1,0.6,1.6,0.9l0.6,0.3c0.6,0.3,1.1,0.6,1.7,1l0.6,0.3
		c0.9,0.5,1.7,1,2.6,1.6l0,0c0.6,0.4,1.3,0.8,1.9,1.2l0.2,0.1c0.6,0.4,1.2,0.8,1.9,1.3l0.2,0.2c2.3,1.6,4.5,3.2,6.6,5l0.1,0
		C213.9,54.4,214.5,54.9,215.1,55.4L215.1,55.4L215.1,55.4z"/>
	<path fill-rule="evenodd" clip-rule="evenodd" fill="#3298DF" d="M122.6,142L55.8,75.1c-0.7,0.9-1.3,1.8-2,2.6l-0.3,0.4
		c-0.4,0.5-0.8,1.1-1.1,1.6l-0.3,0.4c-0.4,0.5-0.7,1.1-1.1,1.6l-0.3,0.5c-0.3,0.5-0.7,1-1,1.5c-0.2,0.3-0.4,0.7-0.6,1
		c-0.3,0.4-0.5,0.9-0.8,1.3L47.7,87c-0.3,0.5-0.5,0.9-0.8,1.4c-0.2,0.3-0.3,0.6-0.5,0.9c-0.2,0.4-0.5,0.9-0.7,1.3
		c-0.2,0.4-0.4,0.8-0.6,1.1c-0.2,0.4-0.4,0.7-0.6,1.1c-0.2,0.5-0.5,0.9-0.7,1.4l-0.4,0.9c-0.2,0.5-0.5,1-0.7,1.5
		c-0.1,0.3-0.3,0.6-0.4,1c-0.2,0.5-0.5,1-0.7,1.5c-0.1,0.3-0.3,0.6-0.4,0.9c-0.2,0.6-0.5,1.1-0.7,1.7c-0.1,0.2-0.2,0.5-0.3,0.7
		c-0.2,0.6-0.4,1.1-0.6,1.7l-0.2,0.7c-0.2,0.6-0.4,1.2-0.6,1.8l-0.2,0.6c-0.2,0.7-0.5,1.4-0.7,2l-0.2,0.6c-0.2,0.7-0.4,1.3-0.6,2
		l-0.2,0.6c-0.2,0.7-0.4,1.3-0.5,2l-0.1,0.5c-0.2,0.7-0.4,1.4-0.5,2.1l-0.1,0.4c-0.2,0.8-0.4,1.6-0.5,2.4l0,0.2
		c-0.2,0.8-0.3,1.6-0.5,2.4l-0.1,0.4c-0.1,0.8-0.3,1.5-0.4,2.3l-0.1,0.3c-0.1,0.8-0.2,1.6-0.3,2.4l0,0.3c-0.1,0.8-0.2,1.7-0.3,2.5
		l0,0.2c-0.1,0.9-0.2,1.7-0.2,2.6l0,0.3c-0.1,0.8-0.1,1.7-0.2,2.5l0,0.3c0,0.8-0.1,1.7-0.1,2.5l0,0.2c0,0.9,0,1.8,0,2.7
		c0,0.9,0,1.8,0,2.7l0,0.2c0,0.8,0.1,1.7,0.1,2.5l0,0.3c0,0.8,0.1,1.6,0.2,2.5l0,0.3c0.1,0.9,0.1,1.7,0.2,2.6l0,0.1
		c0.1,0.8,0.2,1.7,0.3,2.5l0,0.3c0.1,0.8,0.2,1.6,0.3,2.4l0.1,0.4c0.1,0.8,0.2,1.5,0.4,2.3l0.1,0.4c0.1,0.8,0.3,1.5,0.4,2.3l0.1,0.4
		c0.2,0.8,0.3,1.5,0.5,2.3l0.1,0.5c0.2,0.7,0.3,1.4,0.5,2l0.1,0.6c0.2,0.6,0.3,1.3,0.5,1.9l0.2,0.6c0.2,0.7,0.4,1.3,0.6,1.9l0.2,0.7
		c0.2,0.6,0.4,1.3,0.6,1.9c0.1,0.2,0.2,0.5,0.2,0.7c0.2,0.6,0.4,1.2,0.6,1.7l0.3,0.8c0.2,0.5,0.4,1.1,0.6,1.6
		c0.1,0.3,0.2,0.6,0.3,0.9c0.2,0.5,0.4,1,0.6,1.5c0.2,0.4,0.3,0.8,0.5,1.2c0.2,0.4,0.4,0.8,0.5,1.3c0.2,0.4,0.4,0.8,0.5,1.2
		c0.2,0.5,0.4,0.9,0.6,1.4c0.2,0.3,0.3,0.7,0.5,1c0.2,0.4,0.4,0.8,0.6,1.2c0.2,0.5,0.5,0.9,0.7,1.4c0.1,0.3,0.3,0.5,0.4,0.8
		c0.3,0.5,0.6,1.1,0.9,1.6l0.3,0.6c0.3,0.5,0.6,1.1,0.9,1.6l0.4,0.6c0.5,0.8,1,1.7,1.5,2.5l0,0c0.4,0.6,0.8,1.2,1.2,1.8l0.1,0.2
		c0.4,0.6,0.8,1.2,1.2,1.8l0.2,0.2c1.1,1.6,2.3,3.2,3.4,4.7L122.6,142L122.6,142z M75.1,228.3c0.9,0.7,1.8,1.3,2.6,2l0.4,0.3
		c0.5,0.4,1.1,0.8,1.6,1.1l0.4,0.3c0.5,0.4,1.1,0.7,1.6,1.1l0.5,0.3c0.5,0.3,1,0.7,1.6,1c0.3,0.2,0.7,0.4,1,0.6
		c0.4,0.3,0.9,0.5,1.3,0.8c0.3,0.2,0.6,0.3,0.9,0.5c0.5,0.3,0.9,0.5,1.4,0.8c0.3,0.2,0.6,0.3,0.9,0.5c0.4,0.2,0.9,0.5,1.3,0.7
		c0.4,0.2,0.8,0.4,1.1,0.6c0.4,0.2,0.7,0.4,1.1,0.6c0.5,0.2,0.9,0.5,1.4,0.7l0.9,0.4c0.5,0.2,1,0.5,1.5,0.7c0.3,0.1,0.6,0.3,1,0.4
		c0.5,0.2,1,0.5,1.5,0.7c0.3,0.1,0.6,0.3,0.9,0.4c0.6,0.2,1.1,0.5,1.7,0.7l0.8,0.3c0.6,0.2,1.1,0.4,1.7,0.6l0.7,0.2
		c0.6,0.2,1.2,0.4,1.8,0.6l0.6,0.2c0.7,0.2,1.4,0.5,2,0.7l0.6,0.2c0.7,0.2,1.3,0.4,2,0.6l0.6,0.2c0.7,0.2,1.3,0.4,2,0.5l0.5,0.1
		c0.7,0.2,1.4,0.4,2.1,0.5l0.4,0.1c0.8,0.2,1.6,0.4,2.4,0.5l0.2,0c0.8,0.2,1.6,0.3,2.4,0.5l0.4,0.1c0.8,0.1,1.5,0.3,2.3,0.4l0.3,0.1
		c0.8,0.1,1.6,0.2,2.4,0.3l0.3,0c0.8,0.1,1.7,0.2,2.5,0.3l0.2,0c0.9,0.1,1.7,0.2,2.6,0.2l0.3,0c0.8,0.1,1.7,0.1,2.5,0.2l0.3,0
		c0.8,0,1.7,0.1,2.5,0.1l0.2,0c0.9,0,1.8,0,2.7,0c0.9,0,1.8,0,2.7,0l0.2,0c0.8,0,1.7-0.1,2.5-0.1l0.3,0c0.8,0,1.7-0.1,2.5-0.2l0.3,0
		c0.9-0.1,1.7-0.1,2.6-0.2l0.2,0c0.8-0.1,1.7-0.2,2.5-0.3l0.3,0c0.8-0.1,1.6-0.2,2.4-0.3l0.3-0.1c0.8-0.1,1.5-0.2,2.3-0.4l0.4-0.1
		c0.8-0.1,1.6-0.3,2.4-0.5l0.2,0c0.8-0.2,1.6-0.3,2.4-0.5l0.4-0.1c0.7-0.2,1.4-0.3,2.1-0.5l0.5-0.1c0.7-0.2,1.4-0.4,2-0.5l0.6-0.2
		c0.7-0.2,1.4-0.4,2-0.6l0.6-0.2c0.7-0.2,1.4-0.4,2-0.7l0.6-0.2c0.6-0.2,1.2-0.4,1.8-0.6l0.7-0.2c0.6-0.2,1.1-0.4,1.7-0.6l0.8-0.3
		c0.6-0.2,1.1-0.5,1.7-0.7c0.3-0.1,0.6-0.3,0.9-0.4c0.5-0.2,1-0.4,1.5-0.7c0.3-0.1,0.6-0.3,1-0.4c0.5-0.2,1-0.5,1.5-0.7
		c0.3-0.1,0.6-0.3,0.8-0.4c0.5-0.2,0.9-0.5,1.4-0.7c0.4-0.2,0.7-0.4,1.1-0.6c0.4-0.2,0.8-0.4,1.1-0.6c0.4-0.2,0.9-0.5,1.3-0.7
		c0.3-0.2,0.6-0.3,0.9-0.5c0.5-0.3,0.9-0.5,1.4-0.8c0.3-0.2,0.6-0.3,0.9-0.5c0.4-0.3,0.9-0.5,1.3-0.8c0.3-0.2,0.7-0.4,1-0.6
		c0.5-0.3,1-0.7,1.6-1l0.5-0.3c0.5-0.4,1.1-0.7,1.6-1.1l0.4-0.3c0.5-0.4,1.1-0.8,1.6-1.1l0.4-0.3c0.9-0.7,1.8-1.3,2.6-2L142,161.4
		L75.1,228.3L75.1,228.3z M161.4,142l66.9,66.9c1.2-1.5,2.3-3.1,3.4-4.7l0.2-0.2c0.4-0.6,0.8-1.2,1.2-1.8l0.1-0.2
		c0.4-0.6,0.8-1.2,1.2-1.8l0,0c0.5-0.8,1-1.7,1.5-2.5l0.3-0.6c0.3-0.5,0.6-1.1,0.9-1.6l0.3-0.6c0.3-0.5,0.6-1,0.9-1.6
		c0.1-0.3,0.3-0.5,0.4-0.8c0.2-0.5,0.5-0.9,0.7-1.4c0.2-0.4,0.4-0.8,0.6-1.2c0.2-0.3,0.3-0.7,0.5-1c0.2-0.5,0.4-0.9,0.6-1.4
		c0.2-0.4,0.4-0.8,0.5-1.2c0.2-0.4,0.4-0.8,0.5-1.3c0.2-0.4,0.3-0.8,0.5-1.2c0.2-0.5,0.4-1,0.6-1.5c0.1-0.3,0.2-0.6,0.3-0.9
		c0.2-0.5,0.4-1.1,0.6-1.6l0.3-0.8c0.2-0.6,0.4-1.1,0.6-1.7l0.2-0.7c0.2-0.6,0.4-1.3,0.6-1.9l0.2-0.7c0.2-0.6,0.4-1.3,0.6-1.9
		l0.2-0.6c0.2-0.6,0.4-1.3,0.5-1.9l0.1-0.6c0.2-0.7,0.3-1.4,0.5-2l0.1-0.5c0.2-0.8,0.3-1.5,0.5-2.3l0.1-0.4c0.2-0.8,0.3-1.5,0.4-2.3
		l0.1-0.4c0.1-0.8,0.3-1.5,0.4-2.3l0.1-0.4c0.1-0.8,0.2-1.6,0.3-2.4l0-0.3c0.1-0.8,0.2-1.7,0.3-2.5l0-0.1c0.1-0.9,0.2-1.7,0.2-2.6
		l0-0.3c0.1-0.8,0.1-1.6,0.2-2.5l0-0.3c0-0.8,0.1-1.7,0.1-2.5l0-0.2c0-0.9,0-1.8,0-2.7c0-0.9,0-1.8,0-2.7l0-0.2
		c0-0.8-0.1-1.7-0.1-2.5l0-0.3c0-0.8-0.1-1.7-0.2-2.5l0-0.3c-0.1-0.9-0.1-1.7-0.2-2.6l0-0.2c-0.1-0.8-0.2-1.7-0.3-2.5l0-0.3
		c-0.1-0.8-0.2-1.6-0.3-2.4l-0.1-0.3c-0.1-0.8-0.2-1.5-0.4-2.3l-0.1-0.4c-0.1-0.8-0.3-1.6-0.5-2.4l0-0.2c-0.2-0.8-0.3-1.6-0.5-2.4
		l-0.1-0.4c-0.2-0.7-0.3-1.4-0.5-2.1l-0.1-0.5c-0.2-0.7-0.4-1.4-0.5-2l-0.2-0.6c-0.2-0.7-0.4-1.4-0.6-2l-0.2-0.6
		c-0.2-0.7-0.4-1.4-0.7-2l-0.2-0.6c-0.2-0.6-0.4-1.2-0.6-1.8l-0.2-0.7c-0.2-0.6-0.4-1.1-0.6-1.7c-0.1-0.2-0.2-0.5-0.3-0.7
		c-0.2-0.6-0.5-1.1-0.7-1.7c-0.1-0.3-0.3-0.6-0.4-0.9c-0.2-0.5-0.4-1-0.7-1.5c-0.1-0.3-0.3-0.6-0.4-1c-0.2-0.5-0.5-1-0.7-1.5
		l-0.4-0.9c-0.2-0.5-0.5-0.9-0.7-1.4c-0.2-0.4-0.4-0.7-0.6-1.1c-0.2-0.4-0.4-0.8-0.6-1.1c-0.2-0.4-0.5-0.9-0.7-1.3
		c-0.2-0.3-0.3-0.6-0.5-0.9c-0.3-0.5-0.5-0.9-0.8-1.4c-0.2-0.3-0.3-0.6-0.5-0.9c-0.3-0.4-0.5-0.9-0.8-1.3c-0.2-0.3-0.4-0.7-0.6-1
		c-0.3-0.5-0.7-1-1-1.6l-0.3-0.5c-0.4-0.5-0.7-1.1-1.1-1.6l-0.3-0.4c-0.4-0.5-0.8-1.1-1.1-1.6l-0.3-0.4c-0.7-0.9-1.3-1.8-2-2.6
		L161.4,142L161.4,142z M208.9,55.7c-1.5-1.2-3.1-2.3-4.7-3.4l-0.2-0.2c-0.6-0.4-1.2-0.8-1.8-1.2l-0.2-0.1c-0.6-0.4-1.2-0.8-1.8-1.2
		l0,0c-0.8-0.5-1.7-1-2.5-1.5l-0.6-0.4c-0.5-0.3-1.1-0.6-1.6-0.9l-0.6-0.3c-0.5-0.3-1-0.6-1.6-0.8l-0.9-0.5
		c-0.5-0.2-0.9-0.5-1.4-0.7c-0.4-0.2-0.8-0.4-1.2-0.6c-0.3-0.2-0.7-0.3-1-0.5c-0.5-0.2-0.9-0.4-1.4-0.6c-0.4-0.2-0.8-0.4-1.2-0.5
		c-0.4-0.2-0.8-0.4-1.3-0.5c-0.4-0.2-0.8-0.3-1.2-0.5c-0.5-0.2-1-0.4-1.5-0.6c-0.3-0.1-0.6-0.2-0.9-0.3c-0.5-0.2-1.1-0.4-1.6-0.6
		l-0.8-0.3c-0.6-0.2-1.1-0.4-1.7-0.6l-0.7-0.2c-0.6-0.2-1.3-0.4-1.9-0.6l-0.7-0.2c-0.6-0.2-1.3-0.4-1.9-0.6l-0.6-0.2
		c-0.6-0.2-1.3-0.4-1.9-0.5l-0.6-0.2c-0.7-0.2-1.4-0.3-2-0.5l-0.5-0.1c-0.8-0.2-1.5-0.3-2.3-0.5l-0.4-0.1c-0.8-0.2-1.5-0.3-2.3-0.4
		l-0.4-0.1c-0.8-0.1-1.5-0.3-2.3-0.4l-0.4-0.1c-0.8-0.1-1.6-0.2-2.4-0.3l-0.3,0c-0.8-0.1-1.7-0.2-2.5-0.3l-0.1,0
		c-0.9-0.1-1.7-0.2-2.6-0.2l-0.3,0c-0.8-0.1-1.6-0.1-2.5-0.2l-0.3,0c-0.8,0-1.7-0.1-2.5-0.1l-0.2,0c-0.9,0-1.8,0-2.7,0
		c-0.9,0-1.8,0-2.7,0l-0.2,0c-0.8,0-1.7,0.1-2.5,0.1l-0.3,0c-0.8,0-1.6,0.1-2.5,0.2l-0.3,0c-0.9,0.1-1.7,0.1-2.6,0.2l-0.1,0
		c-0.8,0.1-1.7,0.2-2.5,0.3l-0.3,0c-0.8,0.1-1.6,0.2-2.4,0.3l-0.4,0.1c-0.8,0.1-1.5,0.2-2.3,0.4l-0.4,0.1c-0.8,0.1-1.5,0.3-2.3,0.4
		l-0.4,0.1c-0.8,0.2-1.5,0.3-2.3,0.5l-0.5,0.1c-0.7,0.2-1.4,0.3-2,0.5l-0.6,0.2c-0.6,0.2-1.3,0.3-1.9,0.5l-0.6,0.2
		c-0.7,0.2-1.3,0.4-1.9,0.6l-0.7,0.2c-0.6,0.2-1.3,0.4-1.9,0.6l-0.7,0.2c-0.6,0.2-1.2,0.4-1.7,0.6c-0.3,0.1-0.5,0.2-0.8,0.3
		c-0.5,0.2-1.1,0.4-1.6,0.6c-0.3,0.1-0.6,0.2-0.9,0.3c-0.5,0.2-1,0.4-1.5,0.6c-0.4,0.2-0.8,0.3-1.2,0.5c-0.4,0.2-0.8,0.4-1.3,0.5
		c-0.4,0.2-0.8,0.4-1.2,0.5c-0.5,0.2-0.9,0.4-1.4,0.6c-0.3,0.2-0.7,0.3-1,0.5c-0.4,0.2-0.8,0.4-1.2,0.6c-0.5,0.2-0.9,0.5-1.4,0.7
		c-0.3,0.1-0.5,0.3-0.8,0.4c-0.5,0.3-1.1,0.6-1.6,0.9l-0.6,0.3c-0.5,0.3-1.1,0.6-1.6,0.9l-0.6,0.4c-0.8,0.5-1.7,1-2.5,1.5l0,0
		c-0.6,0.4-1.2,0.8-1.8,1.2l-0.2,0.1c-0.6,0.4-1.2,0.8-1.8,1.2l-0.2,0.2c-1.6,1.1-3.2,2.3-4.7,3.4l66.9,66.9L208.9,55.7L208.9,55.7z
		"/>
</g>
</svg>
