<?xml version="1.0" encoding="utf-8"?>
<svg version="1.1"
	 xmlns="http://www.w3.org/2000/svg"
	 x="0px" y="0px" viewBox="0 0 284 284" enable-background="new 0 0 284 284" xml:space="preserve">
<g>
	
		<path fill-rule="evenodd" clip-rule="evenodd" fill="#FFFFFF" stroke="#000000" stroke-width="0.5669" stroke-miterlimit="22.9256" d="
		M142,0.3c78.3,0,141.7,63.5,141.7,141.7c0,78.3-63.5,141.7-141.7,141.7C63.7,283.7,0.3,220.3,0.3,142C0.3,63.7,63.7,0.3,142,0.3
		L142,0.3z"/>
	<path fill-rule="evenodd" clip-rule="evenodd" d="M210,118.4c5.6,0,10.2,4.6,10.2,10.2v35.9c0,5.6-4.6,10.2-10.2,10.2H73.9
		c-5.6,0-10.2-4.6-10.2-10.2v-35.9c0-5.6,4.6-10.2,10.2-10.2l13.3-40.9c1.5-4.7,4.1-9,9-9h91.4c5,0,7.5,4.3,9,9L210,118.4L210,118.4
		z M101.2,77.8h81.5c4.1,0,6.1,3.5,7.4,7.4l10.9,33.4H82.9l10.3-33.4C94.4,81.3,97.1,77.8,101.2,77.8L101.2,77.8z M210.8,196.7
		L210.8,196.7v-19.3h-28.3v19.3v0c0,7.8,6.3,14.1,14.1,14.1C204.4,210.9,210.8,204.6,210.8,196.7L210.8,196.7z M101.5,196.7
		c0,7.8-6.3,14.1-14.1,14.1c-7.8,0-14.1-6.3-14.1-14.1v0v-19.3h28.3V196.7L101.5,196.7L101.5,196.7z M87.4,128
		c7.8,0,14.1,6.3,14.1,14.1s-6.3,14.1-14.1,14.1c-7.8,0-14.1-6.3-14.1-14.1S79.6,128,87.4,128L87.4,128z M196.6,128
		c7.8,0,14.1,6.3,14.1,14.1s-6.3,14.1-14.1,14.1c-7.8,0-14.1-6.3-14.1-14.1S188.8,128,196.6,128L196.6,128z"/>
	<path fill-rule="evenodd" clip-rule="evenodd" fill="#B92B1E" d="M142,4.6c75.9,0,137.4,61.5,137.4,137.4
		c0,75.9-61.5,137.4-137.4,137.4C66.1,279.5,4.6,217.9,4.6,142C4.6,66.1,66.1,4.6,142,4.6L142,4.6z M142,28.7
		c62.6,0,113.3,50.7,113.3,113.3c0,62.6-50.7,113.3-113.3,113.3c-62.6,0-113.3-50.7-113.3-113.3C28.7,79.4,79.4,28.7,142,28.7
		L142,28.7z"/>
</g>
</svg>
