<?xml version="1.0" encoding="utf-8"?>
<svg version="1.1"
	 xmlns="http://www.w3.org/2000/svg"
	 x="0px" y="0px" viewBox="0 0 284 284" enable-background="new 0 0 284 284" xml:space="preserve">
<g>
	
		<path fill-rule="evenodd" clip-rule="evenodd" fill="#FFFFFF" stroke="#000000" stroke-width="0.5669" stroke-miterlimit="22.9256" d="
		M142,0.3c78.3,0,141.7,63.5,141.7,141.7c0,78.3-63.5,141.7-141.7,141.7C63.7,283.7,0.3,220.3,0.3,142C0.3,63.7,63.7,0.3,142,0.3
		L142,0.3z"/>
	<path fill-rule="evenodd" clip-rule="evenodd" fill="#B92B1E" d="M215.1,228.6L55.4,68.9C38.7,88.6,28.7,114.1,28.7,142
		c0,62.6,50.7,113.3,113.3,113.3C169.9,255.4,195.4,245.3,215.1,228.6L215.1,228.6z M68.9,55.4l159.7,159.7
		c16.7-19.7,26.7-45.2,26.7-73.1c0-62.6-50.7-113.3-113.3-113.3C114.2,28.7,88.7,38.7,68.9,55.4L68.9,55.4z M142,4.6
		c75.9,0,137.4,61.5,137.4,137.4c0,75.9-61.5,137.4-137.4,137.4C66.1,279.5,4.6,217.9,4.6,142C4.6,66.1,66.1,4.6,142,4.6L142,4.6z"
		/>
	<path fill-rule="evenodd" clip-rule="evenodd" fill="#3298DF" d="M208.9,228.3l-29.6-29.6v30.5h-28.9v-59.4L133.7,153v76.1h-28.9
		v-105l-49-49C40.9,94.3,32.9,117.7,32.9,142c0,60.3,48.9,109.2,109.2,109.2C166.4,251.2,189.8,243.2,208.9,228.3L208.9,228.3z
		 M75.2,55.7l29.6,29.6V54.8h28.9v59.5l16.7,16.7V54.8h28.9v105.1l49,49c14.9-19.1,22.9-42.5,22.9-66.9
		c0-60.3-48.9-109.2-109.2-109.2C117.7,32.9,94.3,40.9,75.2,55.7L75.2,55.7z"/>
</g>
</svg>
