<?xml version="1.0" encoding="utf-8"?>
<svg version="1.1"
	 xmlns="http://www.w3.org/2000/svg"
	 x="0px" y="0px" viewBox="0 0 284 284" enable-background="new 0 0 284 284" xml:space="preserve">
<g>
	
		<path fill-rule="evenodd" clip-rule="evenodd" fill="#FFFFFF" stroke="#000000" stroke-width="0.5669" stroke-miterlimit="22.9256" d="
		M142,0.3c78.3,0,141.7,63.5,141.7,141.7c0,78.3-63.5,141.7-141.7,141.7C63.7,283.7,0.3,220.3,0.3,142C0.3,63.7,63.7,0.3,142,0.3
		L142,0.3z"/>
	<path fill-rule="evenodd" clip-rule="evenodd" d="M142,4.6c75.9,0,137.4,61.5,137.4,137.4c0,75.9-61.5,137.4-137.4,137.4
		C66.1,279.5,4.6,217.9,4.6,142C4.6,66.1,66.1,4.6,142,4.6L142,4.6z M250.4,65.7L65.7,250.4c21.6,15.2,47.9,24.2,76.4,24.2
		c73.2,0,132.6-59.4,132.6-132.6C274.6,113.6,265.7,87.3,250.4,65.7L250.4,65.7z M61.4,247.3L247.2,61.4c-1-1.3-2-2.5-3-3.8
		L57.6,244.3C58.8,245.3,60.1,246.3,61.4,247.3L61.4,247.3z M53.6,240.8L240.8,53.6c-1.1-1.2-2.1-2.4-3.3-3.5L50.1,237.6
		C51.2,238.7,52.4,239.7,53.6,240.8L53.6,240.8z M46.4,233.8L233.8,46.4c-1.1-1.1-2.3-2.2-3.5-3.2L43.1,230.3
		C44.2,231.5,45.2,232.7,46.4,233.8L46.4,233.8z M39.7,226.3L226.3,39.7c-1.2-1-2.5-2-3.8-3L36.7,222.5
		C37.6,223.8,38.6,225.1,39.7,226.3L39.7,226.3z M33.5,218.2L218.2,33.5C196.7,18.3,170.4,9.4,142,9.4C68.8,9.4,9.4,68.8,9.4,142
		C9.4,170.4,18.3,196.7,33.5,218.2L33.5,218.2z"/>
</g>
</svg>
