<?xml version="1.0" encoding="utf-8"?>
<svg version="1.1"
	 xmlns="http://www.w3.org/2000/svg"
	 x="0px" y="0px" viewBox="0 0 284 284" enable-background="new 0 0 284 284" xml:space="preserve">
<g>
	
		<path fill-rule="evenodd" clip-rule="evenodd" fill="#FFFFFF" stroke="#000000" stroke-width="0.5669" stroke-miterlimit="22.9256" d="
		M142,0.3c78.3,0,141.7,63.5,141.7,141.7c0,78.3-63.5,141.7-141.7,141.7C63.7,283.7,0.3,220.3,0.3,142C0.3,63.7,63.7,0.3,142,0.3
		L142,0.3z"/>
	<path fill-rule="evenodd" clip-rule="evenodd" fill="#B92B1E" d="M142,4.6c75.9,0,137.4,61.5,137.4,137.4
		c0,75.9-61.5,137.4-137.4,137.4C66.1,279.5,4.6,217.9,4.6,142C4.6,66.1,66.1,4.6,142,4.6L142,4.6z M142,28.7
		c62.6,0,113.3,50.7,113.3,113.3c0,62.6-50.7,113.3-113.3,113.3c-62.6,0-113.3-50.7-113.3-113.3C28.7,79.4,79.4,28.7,142,28.7
		L142,28.7z"/>
	<path fill-rule="evenodd" clip-rule="evenodd" fill="#D39218" d="M102,64.3h80.1c5.6,0,10.2,4.6,10.2,10.2v109H91.8v-109
		C91.8,68.9,96.4,64.3,102,64.3L102,64.3z"/>
	<path fill-rule="evenodd" clip-rule="evenodd" d="M91.4,192.6h101.3v-5.4H91.4V192.6L91.4,192.6z M105.6,195.9H91.4v28.6h14.3
		v-11.2h27.1c1.3,3.9,5,6.7,9.3,6.7c4.3,0,8-2.8,9.3-6.7h27.1v11.2h14.3v-28.6h-14.3v11.2h-27.1c-1.3-3.9-5-6.7-9.3-6.7
		c-4.4,0-8,2.8-9.4,6.7h-27.1V195.9L105.6,195.9z"/>
</g>
</svg>
