<?xml version="1.0" encoding="utf-8"?>
<svg version="1.1"
	 xmlns="http://www.w3.org/2000/svg"
	 x="0px" y="0px" viewBox="0 0 284 284" enable-background="new 0 0 284 284" xml:space="preserve">
<g>
	
		<path fill-rule="evenodd" clip-rule="evenodd" fill="#FFFFFF" stroke="#000000" stroke-width="0.5669" stroke-miterlimit="22.9256" d="
		M142,0.3c78.3,0,141.7,63.5,141.7,141.7c0,78.3-63.5,141.7-141.7,141.7C63.7,283.7,0.3,220.3,0.3,142C0.3,63.7,63.7,0.3,142,0.3
		L142,0.3z"/>
	<path fill-rule="evenodd" clip-rule="evenodd" fill="#B92B1E" d="M142,4.6c75.9,0,137.4,61.5,137.4,137.4
		c0,75.9-61.5,137.4-137.4,137.4C66.1,279.5,4.6,217.9,4.6,142C4.6,66.1,66.1,4.6,142,4.6L142,4.6z M142,28.7
		c62.6,0,113.3,50.7,113.3,113.3c0,62.6-50.7,113.3-113.3,113.3c-62.6,0-113.3-50.7-113.3-113.3C28.7,79.4,79.4,28.7,142,28.7
		L142,28.7z M130.5,88l0.2-16.8l7,13.2l11.4-13.2l-0.4,17.7l9.1-8.1l-9.1,29.5l-5.6-4.6l-3.7,4.1l-3.5-4.5l-5.7,4.8l-8.6-25.9
		L130.5,88L130.5,88z"/>
	<path fill-rule="evenodd" clip-rule="evenodd" d="M187.9,154.8c4,0,7.3,3.3,7.3,7.3v25.5c0,4-3.3,7.3-7.3,7.3H91.2
		c-4,0-7.3-3.3-7.3-7.3V162c0-4,3.3-7.3,7.3-7.3l9.4-29.1c1.1-3.4,2.9-6.4,6.4-6.4h65c3.5,0,5.3,3.1,6.4,6.4L187.9,154.8
		L187.9,154.8z M110.6,125.9h58c2.9,0,4.4,2.5,5.3,5.3l7.7,23.8H97.6l7.3-23.8C105.8,128.4,107.7,125.9,110.6,125.9L110.6,125.9z
		 M188.5,210.5L188.5,210.5v-13.7h-20.1v13.7v0c0,5.6,4.5,10.1,10.1,10.1C184,220.6,188.5,216.1,188.5,210.5L188.5,210.5z
		 M110.8,210.5c0,5.6-4.5,10.1-10.1,10.1c-5.6,0-10.1-4.5-10.1-10.1v0v-13.7h20.1V210.5L110.8,210.5L110.8,210.5z M100.8,161.6
		c5.6,0,10.1,4.5,10.1,10.1c0,5.6-4.5,10.1-10.1,10.1c-5.6,0-10.1-4.5-10.1-10.1C90.7,166.1,95.2,161.6,100.8,161.6L100.8,161.6z
		 M178.4,161.6c5.6,0,10.1,4.5,10.1,10.1c0,5.6-4.5,10.1-10.1,10.1c-5.6,0-10.1-4.5-10.1-10.1C168.4,166.1,172.9,161.6,178.4,161.6
		L178.4,161.6z"/>
	<path fill-rule="evenodd" clip-rule="evenodd" fill="#D39218" d="M168.9,119.3h-58.6l-33-36.2l33,8.9L91.8,55.2l28.7,10.7l9.4-29.8
		L155,64.7l32-24l-18.4,50.5l38.1-19.4L168.9,119.3L168.9,119.3z M130.5,88l0.2-16.8l7,13.2l11.4-13.2l-0.4,17.7l9.1-8.1l-9.1,29.5
		l-5.6-4.6l-3.7,4.1l-3.5-4.5l-5.7,4.8l-8.6-25.9L130.5,88L130.5,88z"/>
</g>
</svg>
