<?xml version="1.0" encoding="utf-8"?>
<svg version="1.1"
	 xmlns="http://www.w3.org/2000/svg"
	 x="0px" y="0px" viewBox="0 0 283.5 283.5" enable-background="new 0 0 283.5 283.5" xml:space="preserve">
<g>
	
		<path fill-rule="evenodd" clip-rule="evenodd" fill="#FFFFFF" stroke="#000000" stroke-width="0.5669" stroke-miterlimit="22.9256" d="
		M141.7,0C220,0,283.5,63.5,283.5,141.7c0,78.3-63.5,141.7-141.7,141.7C63.5,283.5,0,220,0,141.7C0,63.5,63.5,0,141.7,0L141.7,0z"/>
	<path fill-rule="evenodd" clip-rule="evenodd" fill="#B92B1E" d="M141.7,4.3c75.9,0,137.4,61.5,137.4,137.4
		c0,75.9-61.5,137.4-137.4,137.4c-75.9,0-137.4-61.5-137.4-137.4C4.3,65.8,65.8,4.3,141.7,4.3L141.7,4.3z M141.7,28.4
		c62.6,0,113.3,50.7,113.3,113.3c0,62.6-50.7,113.3-113.3,113.3c-62.6,0-113.3-50.7-113.3-113.3C28.4,79.1,79.1,28.4,141.7,28.4
		L141.7,28.4z"/>
	<path fill-rule="evenodd" clip-rule="evenodd" d="M109.2,156.2h119.6V90.7c0-4.8-4-8.8-8.8-8.8H118c-4.8,0-8.8,4-8.8,8.8V156.2
		L109.2,156.2z M155.5,97.5c7,0,12.9,4.2,12.9,11.6c0,4.2-2.2,7.3-5.9,9v0.1c10.5,3.8,9.1,22.2-7.1,22.2c-16.2,0-17.6-18.4-7.1-22.2
		v-0.1C138.3,113.5,141.3,97.5,155.5,97.5L155.5,97.5z M155.5,121.6c2.1,0.5,3.7,1.3,4.8,2.4c1.1,1.2,1.7,2.6,1.7,4.3
		c0,1-0.2,1.8-0.5,2.5c-0.3,0.7-0.8,1.3-1.4,1.8c-0.6,0.5-1.3,0.8-2.1,1.1c-0.8,0.2-1.6,0.4-2.6,0.4c-0.9,0-1.7-0.1-2.5-0.4
		c-0.8-0.2-1.5-0.6-2.1-1.1c-0.6-0.5-1.1-1.1-1.4-1.8c-0.3-0.7-0.5-1.6-0.5-2.5c0-1.7,0.6-3.2,1.7-4.3
		C151.8,122.9,153.4,122.1,155.5,121.6L155.5,121.6z M161.7,109.1c0,1.7-0.5,3.1-1.6,4.2c-1.1,1.1-2.6,1.9-4.7,2.3
		c-2-0.4-3.6-1.2-4.7-2.3c-1.1-1.1-1.6-2.5-1.6-4.2c0-0.9,0.2-1.7,0.5-2.4c0.3-0.7,0.8-1.3,1.3-1.7c0.6-0.5,1.2-0.8,2-1
		c0.8-0.2,1.6-0.3,2.4-0.3c0.9,0,1.7,0.1,2.5,0.3c0.8,0.2,1.4,0.6,2,1c0.6,0.5,1,1,1.3,1.7C161.6,107.3,161.7,108.1,161.7,109.1
		L161.7,109.1z M177.8,109.8h23.4v7.4h-8V140h-7.4v-22.8h-8V109.8L177.8,109.8z M105.1,160.1h82.7c-8.1,1.8-14.2,9-14.3,17.5h-72.6
		c-0.2-10-8.4-18-18.4-18s-18.2,8-18.4,18h-9.4c-5.1,0-9.3-4.2-9.3-9.3v-8.3v-18.7v-3.1c0.2-1.6,0.8-3.1,1.8-4.4l14.2-20.5
		c1.6-2.3,3.4-4,6.5-4h27c5.6,0,10.2,4.6,10.2,10.2v21.9V160.1L105.1,160.1z M195.9,160.1h32.8v17.5h-18.4
		C210.1,169,204,161.9,195.9,160.1L195.9,160.1z M82.5,169.8c4.5,0,8.2,3.7,8.2,8.2c0,4.5-3.7,8.2-8.2,8.2c-4.5,0-8.2-3.7-8.2-8.2
		C74.3,173.5,78,169.8,82.5,169.8L82.5,169.8z M82.5,161.9c8.9,0,16.1,7.2,16.1,16.1c0,8.9-7.2,16.1-16.1,16.1s-16.1-7.2-16.1-16.1
		C66.5,169.1,73.7,161.9,82.5,161.9L82.5,161.9z M191.9,169.8c4.5,0,8.2,3.7,8.2,8.2c0,4.5-3.7,8.2-8.2,8.2c-4.5,0-8.2-3.7-8.2-8.2
		C183.7,173.5,187.3,169.8,191.9,169.8L191.9,169.8z M191.9,161.9c8.9,0,16.1,7.2,16.1,16.1c0,8.9-7.2,16.1-16.1,16.1
		c-8.9,0-16.1-7.2-16.1-16.1C175.8,169.1,183,161.9,191.9,161.9L191.9,161.9z M68.8,114.7h22.1c2.8,0,5.1,2.3,5.1,5.1v12.9
		c0,2.8-2.3,5.1-5.1,5.1H61c-4.6,0-5.9-5.4-4-8.3l8.5-12.8C66.3,115.6,67.2,114.7,68.8,114.7L68.8,114.7z"/>
</g>
</svg>
