<?xml version="1.0" encoding="utf-8"?>
<svg version="1.1"
	 xmlns="http://www.w3.org/2000/svg"
	 x="0px" y="0px" viewBox="0 0 283.5 283.5" enable-background="new 0 0 283.5 283.5" xml:space="preserve">
<g>
	
		<path fill-rule="evenodd" clip-rule="evenodd" fill="#FFFFFF" stroke="#000000" stroke-width="0.5669" stroke-miterlimit="22.9256" d="
		M141.7,0C220,0,283.5,63.5,283.5,141.7c0,78.3-63.5,141.7-141.7,141.7C63.5,283.5,0,220,0,141.7C0,63.5,63.5,0,141.7,0L141.7,0z"/>
	<path fill-rule="evenodd" clip-rule="evenodd" fill="#B92B1E" d="M141.7,4.3c75.9,0,137.4,61.5,137.4,137.4
		c0,75.9-61.5,137.4-137.4,137.4c-75.9,0-137.4-61.5-137.4-137.4C4.3,65.8,65.8,4.3,141.7,4.3L141.7,4.3z M141.7,28.4
		c62.6,0,113.3,50.7,113.3,113.3c0,62.6-50.7,113.3-113.3,113.3c-62.6,0-113.3-50.7-113.3-113.3C28.4,79.1,79.1,28.4,141.7,28.4
		L141.7,28.4z"/>
	<path fill-rule="evenodd" clip-rule="evenodd" d="M186.2,127.9l3.6,9L186.2,127.9l3.6,9c-9.6,5.5-16.1,15.8-16.1,27.6
		c0,17.5,14.2,31.7,31.7,31.7c17.5,0,31.7-14.2,31.7-31.7c0-20.8-19.6-35.8-39.5-30.8l-2.4-5.8h15.4v-4.3c0-5.6-4.6-10.2-10.2-10.2
		h-41.3c-1.5,0-3.3,1.4-3.9,2.8l-5.4,11.7H186.2L186.2,127.9z M77.9,132.7c2.7,0,5.4,0.3,7.9,1l9.3-23.3c-6.2,0-5.3,0.9-5.3-13.7
		c0-4.2,2.8-3.2,7.8-3.2h18.6c4.9,0,4.9,7.9,0,7.9l-6.7,0c-0.8,0.1-4.8,6.5-5.6,7.5h33.7c9.8,0,9.8,15.3,0,15.3h-19.3
		c-6.2,0-4.8,4.1-3.9,7.4h0l3.8,14.1c0.6,2.2,2,4.2,4.3,4.2h11.8c2.3,0,3.2-2.1,4.3-4.2l7.3-14.1h32.7c2.3,0,3.5,2.9,1.7,4.5
		c-10.9,10-15,26.3-10.2,40.6h-44.7c-5.6,0-8.7-4.8-10.2-10.2l-13.7-50.1l-8.1,20.3c9.6,5.5,16.1,15.8,16.1,27.6
		c0,17.5-14.2,31.7-31.7,31.7c-17.5,0-31.7-14.2-31.7-31.7C46.2,146.9,60.4,132.7,77.9,132.7L77.9,132.7z M89.6,146.8l-4.4,11.1
		c5.6,6.2,1.3,16.3-7.2,16.3c-5.4,0-9.7-4.4-9.7-9.7c0-5.2,4.1-9.5,9.3-9.7l4.4-11.1c-13-2.5-25.1,7.5-25.1,20.8
		c0,11.7,9.5,21.2,21.2,21.2C98.9,185.6,107,158.3,89.6,146.8L89.6,146.8z M193.9,146.8l4.5,11.1c-5.7,6.2-1.3,16.3,7.2,16.3
		c5.4,0,9.7-4.4,9.7-9.7c0-5.1-4-9.3-9-9.7l-4.5-11.1c13-2.3,24.9,7.6,24.9,20.8c0,11.7-9.5,21.2-21.2,21.2
		C184.6,185.6,176.5,158.3,193.9,146.8L193.9,146.8z"/>
</g>
</svg>
