<?xml version="1.0" encoding="utf-8"?>
<svg version="1.1"
	 xmlns="http://www.w3.org/2000/svg"
	 x="0px" y="0px" viewBox="0 0 283.5 283.5" enable-background="new 0 0 283.5 283.5" xml:space="preserve">
<g>
	
		<path fill-rule="evenodd" clip-rule="evenodd" fill="#FFFFFF" stroke="#000000" stroke-width="0.5669" stroke-miterlimit="22.9256" d="
		M141.7,0C220,0,283.5,63.5,283.5,141.7c0,78.3-63.5,141.7-141.7,141.7C63.5,283.5,0,220,0,141.7C0,63.5,63.5,0,141.7,0L141.7,0z"/>
	<path fill-rule="evenodd" clip-rule="evenodd" fill="#B92B1E" d="M141.7,4.3c75.9,0,137.4,61.5,137.4,137.4
		c0,75.9-61.5,137.4-137.4,137.4c-75.9,0-137.4-61.5-137.4-137.4C4.3,65.8,65.8,4.3,141.7,4.3L141.7,4.3z M141.7,28.4
		c62.6,0,113.3,50.7,113.3,113.3c0,62.6-50.7,113.3-113.3,113.3c-62.6,0-113.3-50.7-113.3-113.3C28.4,79.1,79.1,28.4,141.7,28.4
		L141.7,28.4z"/>
	<path fill-rule="evenodd" clip-rule="evenodd" d="M196.6,141.4c17.8,0,32.3,14.5,32.3,32.3c0,17.8-14.5,32.3-32.3,32.3
		c-17.8,0-32.3-14.5-32.3-32.3C164.3,155.9,178.8,141.4,196.6,141.4L196.6,141.4z M73.5,171c6.4,0,11.6,5.2,11.6,11.6
		c0,6.4-5.2,11.6-11.6,11.6c-6.4,0-11.6-5.2-11.6-11.6C61.9,176.2,67.1,171,73.5,171L73.5,171z M73.5,159.3
		c12.9,0,23.4,10.5,23.4,23.4c0,12.9-10.5,23.4-23.4,23.4s-23.4-10.5-23.4-23.4C50.2,169.7,60.6,159.3,73.5,159.3L73.5,159.3z
		 M196.6,155.1c10.3,0,18.6,8.3,18.6,18.6s-8.3,18.6-18.6,18.6S178,184,178,173.7S186.3,155.1,196.6,155.1L196.6,155.1z M71.8,118.9
		h32.9V82.1h10.2v36.8h22L151.4,82c1.9-4.7,4.2-9.3,9.3-9.3h40.7c5.1,0,9.3,4.2,9.3,9.3v36.9l4.7,9.1l-5.7,12.2
		c-4-1.6-8.4-2.4-13-2.4c-19.9,0-36,16.1-36,36c0,0.2,0,0.5,0,0.7H99.3c-3.5-11-13.7-18.9-25.8-18.9c-3.4,0-6.6,0.6-9.6,1.8v-30.6
		C63.9,122.4,67.4,118.9,71.8,118.9L71.8,118.9z M163.6,82h29.1c2.3,0,4.2,1.9,4.2,4.2v28.6c0,2.3-1.9,4.2-4.2,4.2h-40.2
		c-2.5,0-4.5-3.4-3.1-6.8l10-25.9C160.2,84,161.3,82,163.6,82L163.6,82z"/>
</g>
</svg>
