<?xml version="1.0" encoding="utf-8"?>
<svg version="1.1"
	 xmlns="http://www.w3.org/2000/svg"
	 x="0px" y="0px" viewBox="0 0 283.5 283.5" enable-background="new 0 0 283.5 283.5" xml:space="preserve">
<g>
	
		<path fill-rule="evenodd" clip-rule="evenodd" fill="#FFFFFF" stroke="#000000" stroke-width="0.5669" stroke-miterlimit="22.9256" d="
		M141.7,0C220,0,283.5,63.5,283.5,141.7c0,78.3-63.5,141.7-141.7,141.7C63.5,283.5,0,220,0,141.7C0,63.5,63.5,0,141.7,0L141.7,0z"/>
	<path fill-rule="evenodd" clip-rule="evenodd" fill="#B92B1E" d="M141.7,4.3c75.9,0,137.4,61.5,137.4,137.4
		c0,75.9-61.5,137.4-137.4,137.4c-75.9,0-137.4-61.5-137.4-137.4C4.3,65.8,65.8,4.3,141.7,4.3L141.7,4.3z M141.7,28.4
		c62.6,0,113.3,50.7,113.3,113.3c0,62.6-50.7,113.3-113.3,113.3c-62.6,0-113.3-50.7-113.3-113.3C28.4,79.1,79.1,28.4,141.7,28.4
		L141.7,28.4z"/>
	<path fill-rule="evenodd" clip-rule="evenodd" d="M99.7,109.4h110.9v55.7h-44.1c-0.9-10.4-9.6-18.6-20.2-18.6
		c-10.6,0-19.3,8.2-20.2,18.6h-18.3h-8.2H45.5v-8.6h54.2V109.4L99.7,109.4z M146.3,158.3c4.7,0,8.5,3.8,8.5,8.5
		c0,4.7-3.8,8.5-8.5,8.5c-4.7,0-8.5-3.8-8.5-8.5C137.9,162.1,141.7,158.3,146.3,158.3L146.3,158.3z M146.3,150.3
		c9.1,0,16.5,7.4,16.5,16.5c0,9.1-7.4,16.5-16.5,16.5c-9.1,0-16.5-7.4-16.5-16.5C129.8,157.7,137.2,150.3,146.3,150.3L146.3,150.3z"
		/>
</g>
</svg>
