<?xml version="1.0" encoding="utf-8"?>
<svg version="1.1"
	 xmlns="http://www.w3.org/2000/svg"
	 x="0px" y="0px" viewBox="0 0 283.5 283.5" enable-background="new 0 0 283.5 283.5" xml:space="preserve">
<g>
	
		<path fill-rule="evenodd" clip-rule="evenodd" fill="#FFFFFF" stroke="#000000" stroke-width="0.5669" stroke-miterlimit="22.9256" d="
		M141.7,0C220,0,283.5,63.5,283.5,141.7c0,78.3-63.5,141.7-141.7,141.7C63.5,283.5,0,220,0,141.7C0,63.5,63.5,0,141.7,0L141.7,0z"/>
	<path fill-rule="evenodd" clip-rule="evenodd" fill="#B92B1E" d="M141.7,4.3c75.9,0,137.4,61.5,137.4,137.4
		c0,75.9-61.5,137.4-137.4,137.4c-75.9,0-137.4-61.5-137.4-137.4C4.3,65.8,65.8,4.3,141.7,4.3L141.7,4.3z M141.7,28.4
		c62.6,0,113.3,50.7,113.3,113.3c0,62.6-50.7,113.3-113.3,113.3c-62.6,0-113.3-50.7-113.3-113.3C28.4,79.1,79.1,28.4,141.7,28.4
		L141.7,28.4z"/>
	<path fill-rule="evenodd" clip-rule="evenodd" d="M169.3,155.8l-13.5,29c-3,6.4-12.7,2-9.8-4.5l11.8-25.9L169.3,155.8L169.3,155.8z
		 M110.7,182.5c0,7.1-10.7,7.1-10.7,0v-37.2l10.7,1.7V182.5L110.7,182.5z M114.9,108.9h50.9c5.6,0,10.2,4.6,10.2,10.2v22.2
		c-4.4,0-8-3.6-8-8L168,119c-0.6-2.1-2.7-2.4-2.8-2.3c0,2.5-0.1,15.2,0.1,16.7c1,6,6.3,10.5,12.1,11.6l34.1,5.1l-7.4,7.7l-20.6-3.1
		v27.7c0,7.1-10.7,7.1-10.7,0v-23.8c0-5.1-2.9-5.7-7.5-6.7l-66.9-10l-14.7,17.1c-1.1,1.2-1.2,2.1-0.1,4.6l5.1,11.9
		c2.8,6.5-7.1,10.7-9.9,4.2l-7.2-16.9c-1.5-4.4-0.1-5.9,2.6-9.2l11.8-13.6l-10.4-1.5l1.3-8.6l10.1,1.5l-11-29.8l-9.8,7.8
		c-3.4,2.7-8.4-0.9-6.6-5c0.9-2.3,8.3-19.6,8.2-20.5c-0.2-1.1-4.5,0-4.5-3.4c0-1.6,1.4-3,3.5-2.5c5,0.9,9.9,1.8,12.6,2.3
		c2.8,0.5,3,0.6,5,2.5c2,1.9,5.9,5.6,9.8,9.3c2.6-3.1,6.1-6.2,9.3-2.9c2.8,3.4-0.9,6.6-3.1,8.6l10.1,9.6
		C112.2,109,113.3,108.9,114.9,108.9L114.9,108.9z M240,170.9c0,9.4-7.6,17-17,17c-9.4,0-17-7.6-17-17c0-9.4,7.6-17,17-17
		C232.4,153.9,240,161.5,240,170.9L240,170.9z M231.4,170.9c0,4.6-3.7,8.4-8.4,8.4c-4.6,0-8.4-3.7-8.4-8.4c0-4.6,3.7-8.4,8.4-8.4
		C227.6,162.5,231.4,166.3,231.4,170.9L231.4,170.9z M250.3,127.3c2.8,13.4,1.2,26.4-1.7,40.3c-0.6,2.8-1.3,2.3-4.9,2.3
		c-0.6-13-12.9-22.2-25.5-19.1v-23.4H250.3L250.3,127.3z"/>
</g>
</svg>
