<?xml version="1.0" encoding="utf-8"?>
<svg version="1.1"
	 xmlns="http://www.w3.org/2000/svg"
	 x="0px" y="0px" viewBox="0 0 283.5 283.5" enable-background="new 0 0 283.5 283.5" xml:space="preserve">
<g>
	
		<path fill-rule="evenodd" clip-rule="evenodd" fill="#FFFFFF" stroke="#000000" stroke-width="0.5669" stroke-miterlimit="22.9256" d="
		M141.7,0C220,0,283.5,63.5,283.5,141.7c0,78.3-63.5,141.7-141.7,141.7C63.5,283.5,0,220,0,141.7C0,63.5,63.5,0,141.7,0L141.7,0z"/>
	<path fill-rule="evenodd" clip-rule="evenodd" fill="#B92B1E" d="M141.7,4.3c75.9,0,137.4,61.5,137.4,137.4
		c0,75.9-61.5,137.4-137.4,137.4c-75.9,0-137.4-61.5-137.4-137.4C4.3,65.8,65.8,4.3,141.7,4.3L141.7,4.3z M141.7,28.4
		c62.6,0,113.3,50.7,113.3,113.3c0,62.6-50.7,113.3-113.3,113.3c-62.6,0-113.3-50.7-113.3-113.3C28.4,79.1,79.1,28.4,141.7,28.4
		L141.7,28.4z"/>
	<path fill-rule="evenodd" clip-rule="evenodd" d="M112.8,118.5h54.5l-15.7,37.8L110,124.4L112.8,118.5L112.8,118.5z M82.6,126.9
		c5.7,0,11,1.5,15.7,4l9.6-20.2c0.3-0.7,0.6-1.4,0.6-2.1c-0.1-1-0.5-1.8-1.3-2.4c-0.8-0.7-2-1-2.9-1.6c-1-0.6-1.8-1.3-2.6-2.1
		c-5.3-5.5-4.6-14.3,2.1-18.3c1.5-0.9,3.2-1.4,5-1.4l16.9,0c5.4,0,4.9,7.2,0.4,7.2h-16.2c-3.4,0-5.1,3.7-3.5,6.4
		c0.1,0.2,0.2,0.4,0.4,0.5c1.4,1.5,3.7,2.2,5.2,3.6c3.3,2.9,4.1,6.2,3.5,10.4l0,0.4l53.8,0l1.7-3.8h-14c-6.4,0-6.4-10,0-10h23.4
		c6.4,0,6.4,10,0,10h-2.6l-0.1,0.2c-0.4,1-0.8,2-1.2,2.9c-0.3,0.7-1.1,2.5-1.2,3.2c-0.1,0.6,0.2,1.2,0.6,1.7
		c3.6,4.9,7.1,9.8,10.6,14.8c4.3-2.1,9.1-3.3,14.3-3.3c18,0,32.6,14.6,32.6,32.6c0,18-14.6,32.6-32.6,32.6
		c-16.1,0-29.6-11.7-32.2-27.1l-17.8,0.1l-44.5-33.9l-2,4.1c6.7,6,10.9,14.6,10.9,24.3c0,18-14.6,32.6-32.6,32.6
		c-18,0-32.6-14.6-32.6-32.6C50,141.5,64.6,126.9,82.6,126.9L82.6,126.9z M197.4,157.8h-23.7c0.5-7.8,4.3-14.7,9.9-19.3L197.4,157.8
		L197.4,157.8z M168.3,157.8h-10.8l14.8-35.4l8.3,11.6C173.4,139.7,168.8,148.2,168.3,157.8L168.3,157.8z M174.2,165l27.2-0.1
		c1.4,0,2.7-0.6,3.6-1.6c1.7-1.9,1.5-4.5,0.2-6.5c-2.1-3.2-4.3-6.4-6.5-9.5c-2.9-4.2-5.9-8.4-8.9-12.6c3.4-1.5,7.1-2.3,11-2.3
		c15,0,27.1,12.2,27.1,27.1c0,15-12.2,27.1-27.1,27.1C187.7,186.7,176.8,177.4,174.2,165L174.2,165z M95.9,135.9L89.7,149
		c-0.5,1.1-1.5,2.9-2.3,3.8l0,0l-4.9,2.9c-1.8,1.1-4.1,3.4-3,5.7c0.1,0.3,0.3,0.5,0.5,0.7c1.1,1.2,3.3,1.3,4.7,0.5l8-4.9
		c1.2-0.8,2.3-2.8,2.9-4.1l6.4-13.2c4.9,4.9,7.9,11.7,7.9,19.1c0,15-12.2,27.1-27.1,27.1c-15,0-27.1-12.2-27.1-27.1
		c0-15,12.2-27.1,27.1-27.1C87.5,132.4,92,133.7,95.9,135.9L95.9,135.9z"/>
</g>
</svg>
