<?xml version="1.0" encoding="utf-8"?>
<svg version="1.1"
	 xmlns="http://www.w3.org/2000/svg"
	 x="0px" y="0px" viewBox="0 0 284 284" enable-background="new 0 0 284 284" xml:space="preserve">
<g>
	
		<path fill-rule="evenodd" clip-rule="evenodd" fill="#FFFFFF" stroke="#000000" stroke-width="0.5669" stroke-miterlimit="22.9256" d="
		M142,0.3c78.3,0,141.7,63.5,141.7,141.7c0,78.3-63.5,141.7-141.7,141.7C63.7,283.7,0.3,220.3,0.3,142C0.3,63.7,63.7,0.3,142,0.3
		L142,0.3z"/>
	<path fill-rule="evenodd" clip-rule="evenodd" fill="#3298DF" d="M142,8.5c73.7,0,133.5,59.8,133.5,133.5
		c0,73.7-59.8,133.5-133.5,133.5c-1.2,0-2.5,0-3.7-0.1V171.8c1-8.6,8.3-15.3,17.1-15.3h26.8v23.5l65.4-37.8l-65.4-37.8v23.4h-27
		c-6,0-11.7,1.2-16.9,3.2V92.6h23.3l-37.8-65.4L86.1,92.6h23.3v178.9C51.4,256.9,8.5,204.5,8.5,142C8.5,68.3,68.3,8.5,142,8.5
		L142,8.5z"/>
</g>
</svg>
