<?xml version="1.0" encoding="utf-8"?>
<svg version="1.1"
	 xmlns="http://www.w3.org/2000/svg"
	 x="0px" y="0px" viewBox="0 0 284 284" enable-background="new 0 0 284 284" xml:space="preserve">
<g>
	
		<path fill-rule="evenodd" clip-rule="evenodd" fill="#FFFFFF" stroke="#000000" stroke-width="0.5669" stroke-miterlimit="22.9256" d="
		M142,0.3c78.3,0,141.7,63.5,141.7,141.7c0,78.3-63.5,141.7-141.7,141.7C63.7,283.7,0.3,220.3,0.3,142C0.3,63.7,63.7,0.3,142,0.3
		L142,0.3z"/>
	<path fill-rule="evenodd" clip-rule="evenodd" fill="#3298DF" d="M142,8.5c73.7,0,133.5,59.8,133.5,133.5
		c0,68.8-52.1,125.5-119,132.7l0-119.3c0-9.5,7.8-17.2,17.2-17.2h17.7v23.5l65.4-37.8l-65.4-37.8v23.4h-17.9
		c-12.2,0-23.2,4.8-31.5,12.6c-8.2-7.8-19.3-12.6-31.5-12.6H92.6V86.1l-65.4,37.8l65.4,37.8v-23.5h17.7c9.5,0,17.2,7.7,17.2,17.3
		c0,39.7,0,79.5,0,119.2c-66.9-7.2-119-63.9-119-132.7C8.5,68.3,68.3,8.5,142,8.5L142,8.5z"/>
</g>
</svg>
