<?xml version="1.0" encoding="utf-8"?>
<svg version="1.1"
	 xmlns="http://www.w3.org/2000/svg"
	 x="0px" y="0px" viewBox="0 0 284 284" enable-background="new 0 0 284 284" xml:space="preserve">
<g>
	
		<path fill-rule="evenodd" clip-rule="evenodd" fill="#FFFFFF" stroke="#000000" stroke-width="0.5669" stroke-miterlimit="22.9256" d="
		M142,0.3c78.3,0,141.7,63.5,141.7,141.7c0,78.3-63.5,141.7-141.7,141.7C63.7,283.7,0.3,220.3,0.3,142C0.3,63.7,63.7,0.3,142,0.3
		L142,0.3z"/>
	<path fill-rule="evenodd" clip-rule="evenodd" fill="#3298DF" d="M142,8.5c73.7,0,133.5,59.8,133.5,133.5
		c0,73.7-59.8,133.5-133.5,133.5C68.3,275.5,8.5,215.7,8.5,142c0-31.7,11-60.7,29.4-83.6l122.3,122.3l-16.5,16.5l73,19.6l-19.6-73
		l-16.5,16.5L58.4,38C81.3,19.5,110.4,8.5,142,8.5L142,8.5z"/>
</g>
</svg>
