<?xml version="1.0" encoding="utf-8"?>
<svg version="1.1"
	 xmlns="http://www.w3.org/2000/svg"
	 x="0px" y="0px" viewBox="0 0 284 284" enable-background="new 0 0 284 284" xml:space="preserve">
<g>
	
		<path fill-rule="evenodd" clip-rule="evenodd" fill="#FFFFFF" stroke="#000000" stroke-width="0.5669" stroke-miterlimit="22.9256" d="
		M142,0.3C63.7,0.3,0.3,63.7,0.3,142c0,78.3,63.5,141.7,141.7,141.7c78.3,0,141.7-63.5,141.7-141.7C283.7,63.7,220.3,0.3,142,0.3
		L142,0.3z"/>
	<path fill-rule="evenodd" clip-rule="evenodd" fill="#3298DF" d="M142,8.5C68.3,8.5,8.5,68.3,8.5,142
		c0,73.7,59.8,133.5,133.5,133.5c73.7,0,133.5-59.8,133.5-133.5c0-31.7-11-60.7-29.4-83.6L123.7,180.7l16.5,16.5l-73,19.6l19.6-73
		l16.5,16.5L225.6,38C202.8,19.5,173.7,8.5,142,8.5L142,8.5z"/>
</g>
</svg>
