<?xml version="1.0" encoding="utf-8"?>
<svg version="1.1"
	 xmlns="http://www.w3.org/2000/svg"
	 x="0px" y="0px" viewBox="0 0 284 284" enable-background="new 0 0 284 284" xml:space="preserve">
<g>
	
		<path fill-rule="evenodd" clip-rule="evenodd" fill="#FFFFFF" stroke="#000000" stroke-width="0.5669" stroke-miterlimit="22.9256" d="
		M142,0.3c78.3,0,141.7,63.5,141.7,141.7c0,78.3-63.5,141.7-141.7,141.7C63.7,283.7,0.3,220.3,0.3,142C0.3,63.7,63.7,0.3,142,0.3
		L142,0.3z"/>
	<path fill-rule="evenodd" clip-rule="evenodd" fill="#3298DF" d="M142,8.5c73.7,0,133.5,59.8,133.5,133.5
		c0,73.7-59.8,133.5-133.5,133.5C68.3,275.5,8.5,215.7,8.5,142C8.5,68.3,68.3,8.5,142,8.5L142,8.5z M88.5,185.8L88.5,185.8
		L88.5,185.8z M68,203.2l20.5-17.4c13.9,17,34.8,26,56,25.3l-13.8-24l85.6,0l-42.8,74.2l-14.3-24.8C125.5,242.6,90.3,230.2,68,203.2
		L68,203.2z M206.7,166.4L206.7,166.4L206.7,166.4z M232.1,175.5l-25.3-9.1c7.8-20.5,5.2-43.2-6.1-61.1l-13.8,24L144,55.1l85.6,0
		l-14.3,24.8C237.5,106,244.3,142.7,232.1,175.5L232.1,175.5z M130.8,73.7L130.8,73.7L130.8,73.7z M126,47.2l4.8,26.5
		c-21.7,3.5-40,17.1-49.9,35.8l27.7,0l-42.8,74.2l-42.8-74.2l28.6,0C63.1,77.3,91.4,53,126,47.2L126,47.2z"/>
</g>
</svg>
