<?xml version="1.0" encoding="utf-8"?>
<svg version="1.1"
	 xmlns="http://www.w3.org/2000/svg"
	 x="0px" y="0px" viewBox="0 0 284 284" enable-background="new 0 0 284 284" xml:space="preserve">
<g>
	
		<path fill-rule="evenodd" clip-rule="evenodd" fill="#FFFFFF" stroke="#000000" stroke-width="0.5669" stroke-miterlimit="22.9256" d="
		M142,0.3c78.3,0,141.7,63.5,141.7,141.7c0,78.3-63.5,141.7-141.7,141.7C63.7,283.7,0.3,220.3,0.3,142C0.3,63.7,63.7,0.3,142,0.3
		L142,0.3z"/>
	<path fill-rule="evenodd" clip-rule="evenodd" fill="#3298DF" d="M142,8.5c73.7,0,133.5,59.8,133.5,133.5
		c0,73.7-59.8,133.5-133.5,133.5C68.3,275.5,8.5,215.7,8.5,142C8.5,68.3,68.3,8.5,142,8.5L142,8.5z M108.9,117.6h62.4l-18,43.2
		l-47.6-36.5L108.9,117.6L108.9,117.6z M74.3,127.2c6.5,0,12.6,1.7,17.9,4.6l11-23.1c0.4-0.8,0.7-1.6,0.7-2.5
		c-0.1-1.1-0.6-2.1-1.4-2.8c-0.9-0.8-2.3-1.2-3.3-1.8c-1.1-0.7-2.1-1.5-3-2.4c-6.1-6.3-5.2-16.4,2.4-21c1.7-1.1,3.7-1.7,5.8-1.7
		l19.3,0c6.2,0,5.6,8.3,0.5,8.3h-18.5c-3.9,0-5.9,4.3-4,7.4c0.1,0.2,0.3,0.4,0.4,0.6c1.6,1.8,4.2,2.6,6,4.2
		c3.7,3.3,4.7,7.2,4.1,11.9l-0.1,0.4l61.6,0l2-4.4h-16.1c-7.3,0-7.3-11.4,0-11.4h26.9c7.3,0,7.3,11.4,0,11.4h-3l-0.1,0.2
		c-0.5,1.1-1,2.2-1.4,3.4c-0.4,0.8-1.2,2.8-1.3,3.7c-0.1,0.7,0.3,1.4,0.7,1.9c4.1,5.6,8.1,11.3,12.2,16.9c4.9-2.4,10.5-3.7,16.3-3.7
		c20.6,0,37.4,16.7,37.4,37.4c0,20.6-16.7,37.4-37.4,37.4c-18.5,0-33.9-13.4-36.8-31.1l-20.4,0.1l-51-38.9l-2.3,4.7
		c7.6,6.8,12.4,16.8,12.4,27.8c0,20.6-16.7,37.4-37.4,37.4c-20.6,0-37.4-16.7-37.4-37.4C36.9,143.9,53.7,127.2,74.3,127.2
		L74.3,127.2z M205.8,162.6h-27.1c0.6-8.9,4.9-16.8,11.4-22.1L205.8,162.6L205.8,162.6z M172.4,162.6h-12.3L177,122l9.5,13.3
		C178.3,141.8,173,151.6,172.4,162.6L172.4,162.6z M179.3,170.8l31.2-0.1c1.6,0,3.1-0.6,4.2-1.8c1.9-2.2,1.7-5.1,0.2-7.4
		c-2.4-3.7-5-7.3-7.5-10.9c-3.4-4.8-6.8-9.6-10.2-14.4c3.9-1.7,8.1-2.7,12.6-2.7c17.2,0,31.1,13.9,31.1,31.1
		c0,17.2-13.9,31.1-31.1,31.1C194.7,195.7,182.2,185,179.3,170.8L179.3,170.8z M89.5,137.5l-7.2,15c-0.6,1.3-1.7,3.3-2.7,4.4l0,0
		l-5.6,3.3c-2.1,1.2-4.7,3.9-3.5,6.5c0.1,0.3,0.3,0.6,0.6,0.8c1.3,1.4,3.8,1.5,5.3,0.6l9.2-5.6c1.4-0.9,2.6-3.2,3.3-4.7l7.3-15.2
		c5.6,5.6,9,13.4,9,21.9c0,17.2-13.9,31.1-31.1,31.1c-17.2,0-31.1-13.9-31.1-31.1c0-17.2,13.9-31.1,31.1-31.1
		C79.8,133.5,85,134.9,89.5,137.5L89.5,137.5z"/>
</g>
</svg>
