<?xml version="1.0" encoding="utf-8"?>
<svg version="1.1"
	 xmlns="http://www.w3.org/2000/svg"
	 x="0px" y="0px" viewBox="0 0 284 284" enable-background="new 0 0 284 284" xml:space="preserve">
<g>
	
		<path fill-rule="evenodd" clip-rule="evenodd" fill="#FFFFFF" stroke="#000000" stroke-width="0.5669" stroke-miterlimit="22.9256" d="
		M142,0.3c78.3,0,141.7,63.5,141.7,141.7c0,78.3-63.5,141.7-141.7,141.7C63.7,283.7,0.3,220.3,0.3,142C0.3,63.7,63.7,0.3,142,0.3
		L142,0.3z"/>
	<path fill-rule="evenodd" clip-rule="evenodd" fill="#3298DF" d="M142,8.5c73.7,0,133.5,59.8,133.5,133.5
		c0,73.7-59.8,133.5-133.5,133.5C68.3,275.5,8.5,215.7,8.5,142C8.5,68.3,68.3,8.5,142,8.5L142,8.5z M140.5,47.1
		c6.9,0.8,15.4,5.9,17.4,12.9c1.7,6.1-0.7,17.5-7.9,18.9c-4.1,0.8-6.5,0.2-10.3-1.5c-7.2-3.3-17-10.3-16-19.3
		C124.7,49.2,132.5,46.2,140.5,47.1L140.5,47.1z M94.7,106.5c1.2-5.4,4.4-6.7,8.7-9.3c2.8-1.7,26-15.3,27.9-15.8
		c5.5-1.4,8,0.7,12.9,3.6c1.8,1.1,3.7,2.2,5.5,3.3c3.7,2.3,3.7,3.3,3.7,7.4c0.1,6.3-0.2,46,0.1,46.5c0.8,1.2,22.6,22.4,23.5,23.8
		c1.1,1.8,2.5,8.5,3,10.5l9.7,41.3c1.4,5.8-3,11.4-9,11.4c-4.3,0-8-2.9-9-7.1c-1.2-4.9-8.9-38.6-9.9-40.5c-1-2-6.7-7.1-8.6-9
		c-7.7-7.7-15.3-15.4-23-23.1c-1.3-1.3-6-5.7-6.7-7.2c-1-2.3-0.7-18-0.7-20.1l0-19.5c-2.2,0.5-12.9,7.7-13.5,8.8
		c-0.6,1.2-0.3,24.8-0.3,28c0,4-3.3,7.3-7.3,7.3c-4,0-7.3-3.3-7.3-7.3V106.5L94.7,106.5z M157.1,111.6l26.9,26.9
		c1.4,1.4,2.1,3.2,2.1,5.1c0,6.4-7.8,9.7-12.3,5.2l-16.7-16.5V111.6L157.1,111.6z M125.9,150.6l13.9,13.7l-35,60.2
		c-4.1,7-14.3,6.2-17.1-1.4c-0.9-2.6-0.7-5.4,0.6-7.8L125.9,150.6L125.9,150.6z"/>
</g>
</svg>
