<?xml version="1.0" encoding="utf-8"?>
<svg version="1.1"
	 xmlns="http://www.w3.org/2000/svg"
	 x="0px" y="0px" viewBox="0 0 284 284" enable-background="new 0 0 284 284" xml:space="preserve">
<g>
	
		<path fill-rule="evenodd" clip-rule="evenodd" fill="#FFFFFF" stroke="#000000" stroke-width="0.5669" stroke-miterlimit="22.9256" d="
		M142,0.3c78.3,0,141.7,63.5,141.7,141.7c0,78.3-63.5,141.7-141.7,141.7C63.7,283.7,0.3,220.3,0.3,142C0.3,63.7,63.7,0.3,142,0.3
		L142,0.3z"/>
	<path fill-rule="evenodd" clip-rule="evenodd" fill="#3298DF" d="M142,8.5c73.7,0,133.5,59.8,133.5,133.5
		c0,73.7-59.8,133.5-133.5,133.5C68.3,275.5,8.5,215.7,8.5,142C8.5,68.3,68.3,8.5,142,8.5L142,8.5z M67,191.6l-3.3-20.6
		c7.3,4.5,15.3,6.2,22.8,6.2c14.1,0,24-9.4,24-18.7c0-8.9-6.7-17.7-16.9-17.4c-4.4,0.1-9.9,1.7-14.8,6.7l-11.5-5.5V91h58.7
		l-4.8,17.8H84.1v20.8c22.6-12.1,46,3.9,45.7,26.3c-0.4,21.5-15.4,38.5-39.3,38.9C83,194.8,75.3,192.9,67,191.6L67,191.6z
		 M188.2,176.5c-8.9,0.1-13.4-9.5-15.2-17.6c-2.4-10.7-3.9-46.1,10.6-50.6c7.9-2.5,14.3,1,17.7,8.8c5.1,11.9,7,49.6-7.1,57.8
		C192.1,176,190.2,176.6,188.2,176.5L188.2,176.5z M188.2,194.8c18.7,0,29.4-16,33.3-33.4c4.8-22.1,1.9-60.4-22.5-70.1
		c-15.6-6.2-30.8,1.6-38.7,16.6c-11.7,22.1-11.2,73.6,17.3,84.8C180.9,194.1,184.5,194.8,188.2,194.8L188.2,194.8z"/>
</g>
</svg>
