<?xml version="1.0" encoding="utf-8"?>
<svg version="1.1"
	 xmlns="http://www.w3.org/2000/svg"
	 x="0px" y="0px" viewBox="0 0 284 284" enable-background="new 0 0 284 284" xml:space="preserve">
<g>
	
		<path fill-rule="evenodd" clip-rule="evenodd" fill="#FFFFFF" stroke="#000000" stroke-width="0.5669" stroke-miterlimit="22.9256" d="
		M142,0.3c78.3,0,141.7,63.5,141.7,141.7c0,78.3-63.5,141.7-141.7,141.7C63.7,283.7,0.3,220.3,0.3,142C0.3,63.7,63.7,0.3,142,0.3
		L142,0.3z"/>
	<path fill-rule="evenodd" clip-rule="evenodd" fill="#3298DF" d="M142,8.5c32,0,61.4,11.3,84.4,30L125.3,139.6
		c-7.8-12.7-24.7-18.8-41.2-10v-20.8h37.2l4.8-17.8H67.4v51.5l11.5,5.5c4.9-5,10.4-6.5,14.8-6.7c8.8-0.3,14.9,6.1,16.5,13.6
		l-22.4,22.4c-0.4,0-0.8,0-1.2,0c-7.5,0-15.5-1.7-22.8-6.2l3.3,20.6c1.8,0.3,3.6,0.6,5.4,0.9l-33.8,33.8c-18.8-23-30-52.4-30-84.4
		C8.5,68.3,68.3,8.5,142,8.5L142,8.5z M245.5,57.6c18.8,23,30.1,52.4,30.1,84.4c0,73.7-59.8,133.5-133.5,133.5
		c-32,0-61.4-11.3-84.4-30.1l95.6-95.6c1.5,18.8,8.7,36.9,24.2,42.9c3.4,1.4,7,2,10.7,2c18.7,0,29.4-16,33.3-33.4
		c4.3-19.4,2.5-51.2-14.5-65.3L245.5,57.6L245.5,57.6z M171.9,131.2l22.3-22.3c3,1.5,5.4,4.3,7,8.2c5.1,11.9,7,49.6-7.1,57.8
		c-2,1.1-4,1.7-5.9,1.7c-8.9,0.1-13.4-9.5-15.2-17.6C171.7,153.5,170.8,141.9,171.9,131.2L171.9,131.2z"/>
	<path fill-rule="evenodd" clip-rule="evenodd" fill="#B92B1E" d="M226.4,38.6c7,5.7,13.4,12.1,19.1,19.1L57.6,245.5
		c-7-5.7-13.4-12.1-19.1-19.1L226.4,38.6L226.4,38.6z"/>
</g>
</svg>
