<?xml version="1.0" encoding="utf-8"?>
<svg version="1.1"
	 xmlns="http://www.w3.org/2000/svg"
	 x="0px" y="0px" viewBox="0 0 284 425.2" enable-background="new 0 0 284 425.2" xml:space="preserve">
<g>
	
		<path fill-rule="evenodd" clip-rule="evenodd" fill="#FFFFFF" stroke="#000000" stroke-width="0.5669" stroke-miterlimit="22.9256" d="
		M21.6,0.3h240.9c11.7,0,21.3,9.6,21.3,21.3v382.1c0,11.7-9.6,21.3-21.3,21.3H21.6c-11.7,0-21.3-9.6-21.3-21.3V21.6
		C0.3,9.9,9.9,0.3,21.6,0.3L21.6,0.3z"/>
	<path fill-rule="evenodd" clip-rule="evenodd" d="M22,4.9h240.1c9.4,0,17.1,7.7,17.1,17.1v381.2c0,9.4-7.7,17.1-17.1,17.1H22
		c-9.4,0-17.1-7.7-17.1-17.1V22C4.9,12.6,12.6,4.9,22,4.9L22,4.9z M21.9,9.6h239.7c6.9,0,12.5,5.6,12.5,12.5v381.2
		c0,6.9-5.6,12.5-12.5,12.5H21.9c-6.9,0-12.5-5.6-12.5-12.5V22C9.5,15.2,15.1,9.6,21.9,9.6L21.9,9.6z M103,189.6H88.3v32.6H103
		v-13.3h30.3c1.3,3.6,4.7,6.6,8.5,6.6c3.9,0,7.2-3,8.5-6.6H181v13.3h14.6v-32.6H181v13.3h-30.7c-1.3-3.6-4.7-6.8-8.5-6.8
		c-3.9,0-7.2,3.2-8.5,6.8H103V189.6L103,189.6z M88.6,186.9h106.9v-5.8H88.6V186.9L88.6,186.9z"/>
	<path fill-rule="evenodd" clip-rule="evenodd" fill="#3298DF" d="M142,254.1c37.1,0,67.3,30.1,67.3,67.3c0,34.7-26.3,63.2-60,66.9
		V301H161l-19-33l-19,33h11.8v87.2c-33.7-3.6-60-32.2-60-66.9C74.8,284.2,104.9,254.1,142,254.1L142,254.1z"/>
	<path fill-rule="evenodd" clip-rule="evenodd" fill="#D39218" d="M99.1,53.1h85.9c6,0,10.9,4.9,10.9,10.9v113.8H88.1V64
		C88.1,58,93.1,53.1,99.1,53.1L99.1,53.1z"/>
</g>
</svg>
