<?xml version="1.0" encoding="utf-8"?>
<svg version="1.1"
	 xmlns="http://www.w3.org/2000/svg"
	 x="0px" y="0px" viewBox="0 0 284 284" enable-background="new 0 0 284 284" xml:space="preserve">
<g>
	
		<path fill-rule="evenodd" clip-rule="evenodd" fill="#FFFFFF" stroke="#000000" stroke-width="0.5669" stroke-miterlimit="22.9256" d="
		M0.3,265.2V18.9C0.3,8.6,8.6,0.3,18.9,0.3h246.3c10.2,0,18.6,8.4,18.6,18.6v246.3c0,10.2-8.4,18.6-18.6,18.6H18.9
		C8.6,283.7,0.3,275.4,0.3,265.2L0.3,265.2z"/>
	<path fill-rule="evenodd" clip-rule="evenodd" fill="#3298DF" d="M8.3,18.9c0-5.9,4.8-10.7,10.7-10.7h246.2
		c5.9,0,10.7,4.8,10.7,10.7v246.2c0,5.9-4.8,10.7-10.7,10.7H18.9c-5.9,0-10.7-4.8-10.7-10.7V18.9L8.3,18.9z M28.9,142l66.9,39.1
		v-24.5h92.5v24.5l66.9-39.1l-66.9-39.1v24.5H95.8v-24.5L28.9,142L28.9,142z"/>
</g>
</svg>
