<?xml version="1.0" encoding="utf-8"?>
<svg version="1.1"
	 xmlns="http://www.w3.org/2000/svg"
	 x="0px" y="0px" viewBox="0 0 284 284" enable-background="new 0 0 284 284" xml:space="preserve">
<g>
	
		<path fill-rule="evenodd" clip-rule="evenodd" fill="#FFFFFF" stroke="#000000" stroke-width="0.5669" stroke-miterlimit="22.9256" d="
		M18.9,0.3h246.3c10.2,0,18.6,8.4,18.6,18.6v246.3c0,10.2-8.4,18.6-18.6,18.6H18.9c-10.2,0-18.6-8.4-18.6-18.6V18.9
		C0.3,8.6,8.6,0.3,18.9,0.3L18.9,0.3z"/>
	<path fill-rule="evenodd" clip-rule="evenodd" fill="#3298DF" d="M18.9,8.3h118.5v267.5H18.9c-5.9,0-10.7-4.8-10.7-10.7V18.9
		C8.3,13.1,13.1,8.3,18.9,8.3L18.9,8.3z M146.6,8.3h118.5c5.9,0,10.7,4.8,10.7,10.7v246.2c0,5.9-4.8,10.7-10.7,10.7h-37.5v-180h23.7
		L212.7,28l-38.6,67.7h23.7v180h-51.1V8.3L146.6,8.3z M42.3,28.4h58c7.7,0,13.9,6.3,13.9,13.9v67.1c0,2.8-2.3,5.1-5.1,5.1H33.4
		c-2.8,0-5.1-2.3-5.1-5.1V42.3C28.3,34.7,34.6,28.4,42.3,28.4L42.3,28.4z M97.7,117.7h13.1v9c0,8.6-13.1,8.6-13.1,0V117.7
		L97.7,117.7z M31.8,117.7h13.1v9c0,8.6-13.1,8.6-13.1,0V117.7L31.8,117.7z M43,87.6c9.3,0,9.3,14.2,0,14.2
		C33.6,101.8,33.6,87.6,43,87.6L43,87.6z M99.6,87.6c9.3,0,9.3,14.2,0,14.2S90.2,87.6,99.6,87.6L99.6,87.6z M39.9,34.2h62.7
		c3.1,0,5.6,2.5,5.6,5.6v21.7c0,3.1-2.5,5.6-5.6,5.6H39.9c-3.1,0-5.6-2.5-5.6-5.6V39.8C34.4,36.7,36.9,34.2,39.9,34.2L39.9,34.2z
		 M56.3,141v47H32.7l38.6,67.7l38.6-67.7H86.2v-47H56.3L56.3,141z"/>
</g>
</svg>
