<?xml version="1.0" encoding="utf-8"?>
<svg version="1.1"
	 xmlns="http://www.w3.org/2000/svg"
	 x="0px" y="0px" viewBox="0 0 284 284" enable-background="new 0 0 284 284" xml:space="preserve">
<g>
	
		<path fill-rule="evenodd" clip-rule="evenodd" fill="#FFFFFF" stroke="#000000" stroke-width="0.5669" stroke-miterlimit="22.9256" d="
		M0.3,265.2V18.9C0.3,8.6,8.6,0.3,18.9,0.3h246.3c10.2,0,18.6,8.4,18.6,18.6v246.3c0,10.2-8.4,18.6-18.6,18.6H18.9
		C8.6,283.7,0.3,275.4,0.3,265.2L0.3,265.2z"/>
	<path fill-rule="evenodd" clip-rule="evenodd" fill="#3298DF" d="M8.3,137.4V18.9c0-5.9,4.8-10.7,10.7-10.7h246.2
		c5.9,0,10.7,4.8,10.7,10.7v40.8h-180V36.1L28,74.7l67.7,38.6V89.7h180v47.7H8.3L8.3,137.4z M8.3,265.1v-16h64.4c0-0.2,0-0.5,0-0.7
		c0-12.7,9.7-23,22.4-23c12.7,0,22.7,10.3,22.7,23c0,0.2,0,0.5,0,0.7h5.6c5.4,0,9.8-4.4,9.8-9.8v-37.3l-15.1-26.1
		c-2.7-4.7-5.8-9.8-13.2-9.8H8.3v-19.4h267.5v118.5c0,5.9-4.8,10.7-10.7,10.7H18.9C13.1,275.8,8.3,271,8.3,265.1L8.3,265.1z
		 M8.3,201v-26.6h22c2,0,3.7,1.7,3.7,3.7v19.2c0,2-1.7,3.7-3.7,3.7H8.3L8.3,201z M95.2,229c-10.7,0-19.3,8.7-19.3,19.3
		c0,10.7,8.7,19.3,19.3,19.3c10.7,0,19.3-8.7,19.3-19.3C114.5,237.6,105.9,229,95.2,229L95.2,229z M95.2,239.6
		c-4.8,0-8.8,3.9-8.8,8.8c0,4.8,3.9,8.8,8.8,8.8c4.8,0,8.8-3.9,8.8-8.8C104,243.5,100,239.6,95.2,239.6L95.2,239.6z M94.8,174.4
		h10.7c2,0,4,1.2,5.4,3.7l9.6,16.7c1.5,2.6-0.1,6.2-4.1,6.2H94.8c-2,0-3.7-1.7-3.7-3.7v-19.2C91.1,176.1,92.8,174.4,94.8,174.4
		L94.8,174.4z M76.7,174.4H48.2c-2,0-3.7,1.7-3.7,3.7v19.2c0,2,1.7,3.7,3.7,3.7h28.5c2,0,3.7-1.7,3.7-3.7v-19.2
		C80.4,176.1,78.8,174.4,76.7,174.4L76.7,174.4z M141,228.6h47v23.7l67.7-38.6L188,175.1v23.7h-47V228.6L141,228.6z"/>
</g>
</svg>
