<?xml version="1.0" encoding="utf-8"?>
<svg version="1.1"
	 xmlns="http://www.w3.org/2000/svg"
	 x="0px" y="0px" viewBox="0 0 284 284" enable-background="new 0 0 284 284" xml:space="preserve">
<g>
	
		<path fill-rule="evenodd" clip-rule="evenodd" fill="#FFFFFF" stroke="#000000" stroke-width="0.5669" stroke-miterlimit="22.9256" d="
		M283.7,18.9v246.3c0,10.2-8.4,18.6-18.6,18.6H18.9c-10.2,0-18.6-8.4-18.6-18.6V18.9C0.3,8.6,8.6,0.3,18.9,0.3h246.3
		C275.4,0.3,283.7,8.6,283.7,18.9L283.7,18.9z"/>
	<path fill-rule="evenodd" clip-rule="evenodd" fill="#3298DF" d="M275.8,146.6v118.5c0,5.9-4.8,10.7-10.7,10.7H18.9
		c-5.9,0-10.7-4.8-10.7-10.7v-37.5h180v23.7l67.7-38.6l-67.7-38.6v23.7H8.3v-51.1H275.8L275.8,146.6z M275.8,18.9v9.4h-96.6
		c-7.4,0-10.5,5.2-13.2,9.8l-15.1,26.1v37.3c0,5.4,4.4,9.8,9.8,9.8h5.6c0-0.2,0-0.5,0-0.7c0-12.7,10-23,22.7-23
		c12.7,0,22.4,10.3,22.4,23c0,0.2,0,0.5,0,0.7h64.4v26H8.3V18.9c0-5.9,4.8-10.7,10.7-10.7h246.2C271,8.3,275.8,13.1,275.8,18.9
		L275.8,18.9z M275.8,36.7v26.6h-22c-2,0-3.7-1.7-3.7-3.7V40.4c0-2,1.7-3.7,3.7-3.7H275.8L275.8,36.7z M188.9,91.3
		c10.7,0,19.3,8.7,19.3,19.3c0,10.7-8.7,19.3-19.3,19.3c-10.7,0-19.3-8.7-19.3-19.3C169.5,100,178.2,91.3,188.9,91.3L188.9,91.3z
		 M188.9,101.9c4.8,0,8.8,3.9,8.8,8.8c0,4.8-3.9,8.8-8.8,8.8c-4.8,0-8.8-3.9-8.8-8.8C180.1,105.8,184,101.9,188.9,101.9L188.9,101.9
		z M189.2,36.7h-10.7c-2,0-4,1.2-5.4,3.7l-9.6,16.7c-1.5,2.6,0.1,6.2,4.1,6.2h21.6c2,0,3.7-1.7,3.7-3.7V40.4
		C192.9,38.4,191.3,36.7,189.2,36.7L189.2,36.7z M207.3,36.7h28.5c2,0,3.7,1.7,3.7,3.7v19.2c0,2-1.7,3.7-3.7,3.7h-28.5
		c-2,0-3.7-1.7-3.7-3.7V40.4C203.6,38.4,205.3,36.7,207.3,36.7L207.3,36.7z M143,61.1H96V37.4L28.3,76L96,114.6V91h47V61.1L143,61.1
		z"/>
</g>
</svg>
