<?xml version="1.0" encoding="utf-8"?>
<svg version="1.1"
	 xmlns="http://www.w3.org/2000/svg"
	 x="0px" y="0px" viewBox="0 0 284 284" enable-background="new 0 0 284 284" xml:space="preserve">
<g>
	
		<path fill-rule="evenodd" clip-rule="evenodd" fill="#FFFFFF" stroke="#000000" stroke-width="0.5669" stroke-miterlimit="22.9256" d="
		M18.9,0.3h246.3c10.2,0,18.6,8.4,18.6,18.6v246.3c0,10.2-8.4,18.6-18.6,18.6H18.9c-10.2,0-18.6-8.4-18.6-18.6V18.9
		C0.3,8.6,8.6,0.3,18.9,0.3L18.9,0.3z"/>
	<path fill-rule="evenodd" clip-rule="evenodd" fill="#3298DF" d="M18.9,8.3h246.2c5.9,0,10.7,4.8,10.7,10.7v246.2
		c0,5.9-4.8,10.7-10.7,10.7c-167.8,0-78.3,0-246.2,0c-5.9,0-10.7-4.8-10.7-10.7V18.9C8.3,13.1,13.1,8.3,18.9,8.3L18.9,8.3z
		 M127.1,142.8v-47h-23.7L142,28l38.6,67.7H157v47H127.1L127.1,142.8z M110.7,156.5h62.7c3.1,0,5.6,2.5,5.6,5.6v21.7
		c0,3.1-2.5,5.6-5.6,5.6h-62.7c-3.1,0-5.6-2.5-5.6-5.6v-21.7C105.1,159.1,107.6,156.5,110.7,156.5L110.7,156.5z M102.5,240h13.1v9
		c0,3.6-2.9,6.5-6.5,6.5H109c-3.6,0-6.5-2.9-6.5-6.5V240L102.5,240z M168.4,240h13.1v9c0,3.6-2.9,6.5-6.5,6.5h-0.1
		c-3.6,0-6.5-2.9-6.5-6.5V240L168.4,240z M113,150.7h58c7.7,0,13.9,6.3,13.9,13.9v67.1c0,2.8-2.3,5.1-5.1,5.1h-75.7
		c-2.8,0-5.1-2.3-5.1-5.1v-67.1C99.1,157,105.3,150.7,113,150.7L113,150.7z"/>
</g>
</svg>
