<?xml version="1.0" encoding="utf-8"?>
<svg version="1.1"
	 xmlns="http://www.w3.org/2000/svg"
	 x="0px" y="0px" viewBox="0 0 284 284" enable-background="new 0 0 284 284" xml:space="preserve">
<g>
	
		<path fill-rule="evenodd" clip-rule="evenodd" fill="#FFFFFF" stroke="#000000" stroke-width="0.5669" stroke-miterlimit="22.9256" d="
		M18.9,0.3h246.3c10.2,0,18.6,8.4,18.6,18.6v246.3c0,10.2-8.4,18.6-18.6,18.6H18.9c-10.2,0-18.6-8.4-18.6-18.6V18.9
		C0.3,8.6,8.6,0.3,18.9,0.3L18.9,0.3z"/>
	<path fill-rule="evenodd" clip-rule="evenodd" fill="#3298DF" d="M18.9,8.3h246.2c5.9,0,10.7,4.8,10.7,10.7v246.2
		c0,5.9-4.8,10.7-10.7,10.7h-47.2l0-137.9c0-11.1-1.9-22.2-7.7-31.9c-5.2-8.8-9.7-12.6-17.1-19.9l-18.3-18.3l0,0l17.3-17.3
		l-75.4-20.1l20.1,75.4l17.3-17.3l22.1,22.1c9.1,9.2,12,13.1,12.4,26.8v138.4h-41.2v-29.6h-10.7v29.6H95.5V95.6H120L80.9,27.8
		L41.7,95.6h24.4v180.2c-78.5,0,28.6,0-47.2,0c-5.9,0-10.7-4.8-10.7-10.7V18.9C8.3,13.1,13.1,8.3,18.9,8.3L18.9,8.3z M136.7,169.9
		h10.7v29.8h-10.7V169.9L136.7,169.9z M136.7,208.1h10.7v29.8h-10.7V208.1L136.7,208.1z"/>
</g>
</svg>
