<?xml version="1.0" encoding="utf-8"?>
<svg version="1.1"
	 xmlns="http://www.w3.org/2000/svg"
	 x="0px" y="0px" viewBox="0 0 510.8 794.3" enable-background="new 0 0 510.8 794.3" xml:space="preserve">
<g>
	
		<path fill-rule="evenodd" clip-rule="evenodd" fill="#FFFFFF" stroke="#000000" stroke-width="0.5669" stroke-miterlimit="22.9256" d="
		M156.9,567.2h197c8.2,0,14.9,6.7,14.9,14.9v197c0,8.2-6.7,14.9-14.9,14.9h-197c-8.2,0-14.9-6.7-14.9-14.9v-197
		C142,573.9,148.7,567.2,156.9,567.2L156.9,567.2z"/>
	<path fill-rule="evenodd" clip-rule="evenodd" fill="#3298DF" d="M285.2,741.2h8.6v16.1h-8.6V741.2L285.2,741.2z M172.2,733.4h8.6
		v23.8h-8.6V733.4L172.2,733.4z M172.2,702.9h8.6v23.8h-8.6V702.9L172.2,702.9z M172.2,672.5h8.6v23.8h-8.6V672.5L172.2,672.5z
		 M156.9,573.6h196.9c4.7,0,8.5,3.8,8.5,8.5v196.9c0,4.7-3.8,8.5-8.5,8.5h-60.2v-23.7h-8.6v23.7h-66.9v-30.7c0-7.8,9.3-19.1,20-19.1
		h62.1c29.4,0,53.4-24,53.4-53.4c0-29.1-23.6-53-52.7-53.4v-19.3l-53.9,31.3l53.9,31.3v-19.3c16.1,0.2,29.2,13.4,29.2,29.6
		c0,16.3-13.3,29.6-29.6,29.6H238c-8,0-13.5,2.1-19.8,5.9v-76.5h19.5l-31.3-54.2l-31.3,54.2h19.6v144.1h-14v-23.7h-8.6v23.7h-15.3
		c-4.7,0-8.5-3.8-8.5-8.5V582.1C148.4,577.4,152.2,573.6,156.9,573.6L156.9,573.6z"/>
	
		<path fill-rule="evenodd" clip-rule="evenodd" fill="#FFFFFF" stroke="#000000" stroke-width="0.5669" stroke-miterlimit="22.9256" d="
		M298.6,0.3h197c8.2,0,14.9,6.7,14.9,14.9v197c0,8.2-6.7,14.9-14.9,14.9h-197c-8.2,0-14.9-6.7-14.9-14.9v-197
		C283.7,7,290.4,0.3,298.6,0.3L298.6,0.3z"/>
	<path fill-rule="evenodd" clip-rule="evenodd" fill="#3298DF" d="M426.9,166.5h8.6v23.8h-8.6V166.5L426.9,166.5z M321.3,166.5h8.6
		v23.8h-8.6V166.5L321.3,166.5z M321.3,136h8.6v23.8h-8.6V136L321.3,136z M321.3,105.5h8.6v23.8h-8.6V105.5L321.3,105.5z M298.7,6.7
		h196.9c4.7,0,8.5,3.8,8.5,8.5v196.9c0,4.7-3.8,8.5-8.5,8.5h-60.2V197h-8.6v23.7h-36.8v-32v-40.2c0-7.8,9.3-19.1,20-19.1h13v19.3
		l53.9-31.3L423,86.1v19.5h-13.2c-8,0-13.5,2.1-19.8,5.9V76.5h19.5l-31.3-54.2L347,76.5h19.6v71.4v40.7v32h-36.7V197h-8.6v23.7
		h-22.6c-4.7,0-8.5-3.8-8.5-8.5V15.2C290.1,10.5,294,6.7,298.7,6.7L298.7,6.7z"/>
	
		<path fill-rule="evenodd" clip-rule="evenodd" fill="#FFFFFF" stroke="#000000" stroke-width="0.5669" stroke-miterlimit="22.9256" d="
		M15.2,0.3h197c8.2,0,14.9,6.7,14.9,14.9v197c0,8.2-6.7,14.9-14.9,14.9h-197c-8.2,0-14.9-6.7-14.9-14.9v-197C0.3,7,7,0.3,15.2,0.3
		L15.2,0.3z"/>
	<path fill-rule="evenodd" clip-rule="evenodd" fill="#3298DF" d="M15.2,6.7h196.9c4.7,0,8.5,3.8,8.5,8.5v196.9
		c0,4.7-3.8,8.5-8.5,8.5h-37.8V197h-8.6v23.7h-40.3V76.5H145l-31.3-54.2L82.4,76.5h19.6v144.1H61.6V197H53v23.7H15.2
		c-4.7,0-8.5-3.8-8.5-8.5V15.2C6.7,10.5,10.5,6.7,15.2,6.7L15.2,6.7z M53,105.5h8.6v23.8H53V105.5L53,105.5z M53,136h8.6v23.8H53
		V136L53,136z M53,166.5h8.6v23.8H53V166.5L53,166.5z M165.7,105.5h8.6v23.8h-8.6V105.5L165.7,105.5z M165.7,136h8.6v23.8h-8.6V136
		L165.7,136z M165.7,166.5h8.6v23.8h-8.6V166.5L165.7,166.5z"/>
	
		<path fill-rule="evenodd" clip-rule="evenodd" fill="#FFFFFF" stroke="#000000" stroke-width="0.5669" stroke-miterlimit="22.9256" d="
		M15.2,283.7h197c8.2,0,14.9,6.7,14.9,14.9v197c0,8.2-6.7,14.9-14.9,14.9h-197c-8.2,0-14.9-6.7-14.9-14.9v-197
		C0.3,290.4,7,283.7,15.2,283.7L15.2,283.7z"/>
	<path fill-rule="evenodd" clip-rule="evenodd" fill="#3298DF" d="M15.2,290.1h196.9c4.7,0,8.5,3.8,8.5,8.5v196.9
		c0,4.7-3.8,8.5-8.5,8.5h-60.4v-23.7h-8.6v23.7H76.6V405v-15.3v-7.4c0-12.3,10-22.3,22.3-22.3h59.4v19.4l54.1-31.3l-54.1-31.3v19.4
		H97.7c-24.5,0-44.6,20.1-44.6,44.6v8.8V405v99.1H39v-23.7h-8.6v23.7H15.2c-4.7,0-8.5-3.8-8.5-8.5V298.7
		C6.7,294,10.5,290.1,15.2,290.1L15.2,290.1z M30.5,389H39v23.8h-8.6V389L30.5,389z M30.5,419.5H39v23.8h-8.6V419.5L30.5,419.5z
		 M30.5,450H39v23.8h-8.6V450L30.5,450z M143.2,389h8.6v23.8h-8.6V389L143.2,389z M143.2,419.5h8.6v23.8h-8.6V419.5L143.2,419.5z
		 M143.2,450h8.6v23.8h-8.6V450L143.2,450z"/>
	
		<path fill-rule="evenodd" clip-rule="evenodd" fill="#FFFFFF" stroke="#000000" stroke-width="0.5669" stroke-miterlimit="22.9256" d="
		M298.6,283.7h197c8.2,0,14.9,6.7,14.9,14.9v197c0,8.2-6.7,14.9-14.9,14.9h-197c-8.2,0-14.9-6.7-14.9-14.9v-197
		C283.7,290.4,290.4,283.7,298.6,283.7L298.6,283.7z"/>
	<path fill-rule="evenodd" clip-rule="evenodd" fill="#3298DF" d="M321.2,389h8.6v23.8h-8.6V389L321.2,389z M321.2,419.5h8.6v23.8
		h-8.6V419.5L321.2,419.5z M321.2,450h8.6v23.8h-8.6V450L321.2,450z M426.6,389h8.6v23.8h-8.6V389L426.6,389z M426.6,419.5h8.6v23.8
		h-8.6V419.5L426.6,419.5z M426.6,450h8.6v23.8h-8.6V450L426.6,450z M298.7,290.1h196.9c4.7,0,8.5,3.8,8.5,8.5v196.9
		c0,4.7-3.8,8.5-8.5,8.5h-60.4v-23.7h-8.6v23.7h-59.3v-57.4c0-1.4,0-2.9,0-4.3c0-10.3,0.6-14.2,8.2-22.2l68-68l13.8,13.8l16.1-60.4
		l-60.4,16.1l13.8,13.8l-67.7,67.7c-1.2,1.2-2.4,2.4-3.5,3.7c-4.4,4.9-8.6,12.4-10.2,18.7c-2,7.9-1.6,12.6-1.6,20.9v57.4h-14.1
		v-23.7h-8.6v23.7h-22.5c-4.7,0-8.5-3.8-8.5-8.5V298.7C290.1,294,294,290.1,298.7,290.1L298.7,290.1z"/>
</g>
</svg>
