<?xml version="1.0" encoding="utf-8"?>
<svg version="1.1"
	 xmlns="http://www.w3.org/2000/svg"
	 x="0px" y="0px" viewBox="0 0 284 638.4" enable-background="new 0 0 284 638.4" xml:space="preserve">
<g>
	
		<path fill-rule="evenodd" clip-rule="evenodd" fill="#FFFFFF" stroke="#000000" stroke-width="0.5669" stroke-miterlimit="22.9256" d="
		M265.2,0.3H18.9C8.6,0.3,0.3,8.6,0.3,18.9v246.3c0,10.2,8.4,18.6,18.6,18.6h246.3c10.2,0,18.6-8.4,18.6-18.6V18.9
		C283.7,8.6,275.4,0.3,265.2,0.3L265.2,0.3z"/>
	<path fill-rule="evenodd" clip-rule="evenodd" fill="#3298DF" d="M147.3,114.1h-10.7V84.3h10.7V114.1L147.3,114.1z M265.1,8.3
		H147.3v29.6h-10.7V8.3H18.9c-5.9,0-10.7,4.8-10.7,10.7v246.2c0,5.9,4.8,10.7,10.7,10.7c75.9,0,81.7,0,160.2,0
		c0-13.6-5-18.6-14.7-28.3l-69.8-69.8c-7.8-7.8-14.4-17.1-17.1-28c-2.5-9.9-2-15.8-2-26.2V95.6H51l39.1-67.8l39.1,67.8h-24.4v33.3
		c0,12.9,0.8,17.7,10.2,27.7l64.1,64.1V95.6h-24.4l39.1-67.8l39.1,67.8h-24.4v180.2c78.5,0-19.2,0,56.6,0c5.9,0,10.7-4.8,10.7-10.7
		V18.9C275.8,13.1,271,8.3,265.1,8.3L265.1,8.3z M147.3,76h-10.7V46.2h10.7V76L147.3,76z"/>
	
		<path fill-rule="evenodd" clip-rule="evenodd" fill="#FFFFFF" stroke="#000000" stroke-width="0.5669" stroke-miterlimit="22.9256" d="
		M265.2,354.6H18.9c-10.2,0-18.6,8.4-18.6,18.6v246.3c0,10.2,8.4,18.6,18.6,18.6h246.3c10.2,0,18.6-8.4,18.6-18.6V373.2
		C283.7,363,275.4,354.6,265.2,354.6L265.2,354.6z"/>
	<path fill-rule="evenodd" clip-rule="evenodd" fill="#3298DF" d="M147.3,430.3h-10.7v-29.8h10.7V430.3L147.3,430.3z M265.1,362.6
		H147.3v29.6h-10.7v-29.6H18.9c-5.9,0-10.7,4.8-10.7,10.7v246.2c0,5.9,4.8,10.7,10.7,10.7c75.9,0,81.7,0,160.2,0
		c0-13.6-5-18.6-14.7-28.3l-55.7-55.7c-5.7,2.6-12,4.1-18.6,4.1c-24.5,0-44.4-19.9-44.4-44.4c0-19.4,12.4-35.9,29.8-41.9v-13.9H51
		l39.1-67.8l39.1,67.8h-24.4v14c17.3,6.1,29.6,22.5,29.6,41.9c0,7.1-1.7,13.9-4.7,19.9l49.3,49.3V449.9h-24.4l39.1-67.8l39.1,67.8
		h-24.4v180.2c78.5,0-19.2,0,56.6,0c5.9,0,10.7-4.8,10.7-10.7V373.3C275.8,367.4,271,362.6,265.1,362.6L265.1,362.6z M147.3,468.4
		h-10.7v-29.8h10.7V468.4L147.3,468.4z"/>
	<path fill-rule="evenodd" clip-rule="evenodd" fill="#B92B1E" d="M90.1,461.4c24.5,0,44.4,19.9,44.4,44.4
		c0,24.5-19.9,44.4-44.4,44.4c-24.5,0-44.4-19.9-44.4-44.4C45.7,481.3,65.6,461.4,90.1,461.4L90.1,461.4z M90.1,469.8
		c19.9,0,36,16.1,36,36c0,19.9-16.1,36-36,36s-36-16.1-36-36C54.1,485.9,70.2,469.8,90.1,469.8L90.1,469.8z"/>
	<path fill-rule="evenodd" clip-rule="evenodd" d="M66.5,497h7.1c0.9,0,1.6,0.7,1.6,1.6v4.2c0,0.9-0.7,1.6-1.6,1.6H64
		c-1.5,0-1.9-1.7-1.3-2.7l2.8-4.1C65.7,497.3,66,497,66.5,497L66.5,497z M106.3,512.3c2.9,0,5.2,2.3,5.2,5.2c0,2.9-2.3,5.2-5.2,5.2
		c-2.9,0-5.2-2.3-5.2-5.2C101.1,514.6,103.4,512.3,106.3,512.3L106.3,512.3z M106.3,514.8c1.5,0,2.7,1.2,2.7,2.7
		c0,1.5-1.2,2.7-2.7,2.7c-1.5,0-2.7-1.2-2.7-2.7C103.6,516,104.8,514.8,106.3,514.8L106.3,514.8z M71,512.3c2.9,0,5.2,2.3,5.2,5.2
		c0,2.9-2.3,5.2-5.2,5.2c-2.9,0-5.2-2.3-5.2-5.2C65.8,514.6,68.1,512.3,71,512.3L71,512.3z M71,514.8c1.5,0,2.7,1.2,2.7,2.7
		c0,1.5-1.2,2.7-2.7,2.7c-1.5,0-2.7-1.2-2.7-2.7C68.3,516,69.5,514.8,71,514.8L71,514.8z M107.6,511.7h10.6v5.7h-6
		C112.2,514.6,110.2,512.3,107.6,511.7L107.6,511.7z M78.3,511.7H105c-2.6,0.6-4.6,2.9-4.6,5.7H76.9c-0.1-3.2-2.7-5.8-5.9-5.8
		c-3.2,0-5.9,2.6-5.9,5.8h-3c-1.6,0-3-1.3-3-3v-2.7v-6v-1c0.1-0.5,0.3-1,0.6-1.4l4.6-6.6c0.5-0.7,1.1-1.3,2.1-1.3H75
		c1.8,0,3.3,1.5,3.3,3.3v7.1V511.7L78.3,511.7z M79.6,510.4h38.6v-21.1c0-1.6-1.3-2.8-2.8-2.8H82.4c-1.6,0-2.8,1.3-2.8,2.8V510.4
		L79.6,510.4z"/>
</g>
</svg>
