<?xml version="1.0" encoding="utf-8"?>
<svg version="1.1"
	 xmlns="http://www.w3.org/2000/svg"
	 x="0px" y="0px" viewBox="0 0 227.3 794.3" enable-background="new 0 0 227.3 794.3" xml:space="preserve">
<g>
	
		<path fill-rule="evenodd" clip-rule="evenodd" fill="#FFFFFF" stroke="#000000" stroke-width="0.5669" stroke-miterlimit="22.9256" d="
		M15.2,0.3h197c8.2,0,14.9,6.7,14.9,14.9v197c0,8.2-6.7,14.9-14.9,14.9h-197c-8.2,0-14.9-6.7-14.9-14.9v-197C0.3,7,7,0.3,15.2,0.3
		L15.2,0.3z"/>
	<path fill-rule="evenodd" clip-rule="evenodd" fill="#3298DF" d="M109.4,91.3h8.6V67.5h-8.6V91.3L109.4,91.3z M15.2,6.7h94.2v23.7
		h8.6V6.7h94.2c4.7,0,8.5,3.8,8.5,8.5v196.9c0,4.7-3.8,8.5-8.5,8.5c-60.7,0-65.3,0-128.1,0c0-10.9,4-14.9,11.8-22.6l55.8-55.8
		c6.3-6.3,11.5-13.7,13.7-22.4c2-7.9,1.6-12.6,1.6-20.9V76.5h19.5l-31.3-54.2l-31.3,54.2h19.6v26.6c0,10.3-0.6,14.2-8.2,22.2
		L84,176.6V76.5h19.5L72.2,22.3L40.9,76.5h19.6v144.1c-62.8,0,15.4,0-45.3,0c-4.7,0-8.5-3.8-8.5-8.5V15.2
		C6.7,10.5,10.5,6.7,15.2,6.7L15.2,6.7z M109.4,60.8h8.6V37h-8.6V60.8L109.4,60.8z"/>
	
		<path fill-rule="evenodd" clip-rule="evenodd" fill="#FFFFFF" stroke="#000000" stroke-width="0.5669" stroke-miterlimit="22.9256" d="
		M15.2,283.7h197c8.2,0,14.9,6.7,14.9,14.9v197c0,8.2-6.7,14.9-14.9,14.9h-197c-8.2,0-14.9-6.7-14.9-14.9v-197
		C0.3,290.4,7,283.7,15.2,283.7L15.2,283.7z"/>
	<path fill-rule="evenodd" clip-rule="evenodd" fill="#3298DF" d="M72.2,375.5c16.2,0,29.3,13.1,29.3,29.3
		c0,16.2-13.1,29.3-29.3,29.3C56.1,434,43,420.9,43,404.7C43,388.6,56.1,375.5,72.2,375.5L72.2,375.5z M83.2,413.2
		c-2.2,0-3.3-2.3-3.7-4.3c-0.6-2.6-1-11.3,2.6-12.4c2-0.6,3.5,0.3,4.3,2.2c1.3,2.9,1.7,12.2-1.8,14.2
		C84.1,413.1,83.7,413.2,83.2,413.2L83.2,413.2z M83.2,417.7c4.6,0,7.2-3.9,8.2-8.2c1.2-5.4,0.5-14.8-5.5-17.2
		c-3.8-1.5-7.6,0.4-9.5,4.1c-2.9,5.4-2.7,18.1,4.3,20.8C81.4,417.5,82.3,417.7,83.2,417.7L83.2,417.7z M64.2,417.4v-4.7H52.3v-4.3
		l12.2-16.3h4.5v16.3h3.4l-1.6,4.3h-1.7v4.7H64.2L64.2,417.4z M64.2,408.4v-9l-6.9,9H64.2L64.2,408.4z M109.4,344.3h8.6v-23.8h-8.6
		V344.3L109.4,344.3z M15.2,290.1h94.2v23.7h8.6v-23.7h94.2c4.7,0,8.5,3.8,8.5,8.5v196.9c0,4.7-3.8,8.5-8.5,8.5
		c-60.7,0-65.3,0-128.1,0c0-10.9,4-14.8,11.8-22.6l55.8-55.8c6.3-6.3,11.5-13.7,13.7-22.4c2-7.9,1.6-12.6,1.6-20.9V360h19.5
		l-31.3-54.2L123.9,360h19.6v26.6c0,10.3-0.6,14.2-8.2,22.2L84,460.1v-24.7c12.3-4.7,21-16.6,21-30.6c0-14-8.7-25.9-21-30.6V360
		h19.5l-31.3-54.2L40.9,360h19.6v14.1c-12.3,4.7-21,16.6-21,30.6c0,14,8.7,25.9,21,30.6v68.8c-62.8,0,15.4,0-45.3,0
		c-4.7,0-8.5-3.8-8.5-8.5V298.7C6.7,294,10.5,290.1,15.2,290.1L15.2,290.1z M109.4,374.8h8.6V351h-8.6V374.8L109.4,374.8z"/>
	
		<path fill-rule="evenodd" clip-rule="evenodd" fill="#FFFFFF" stroke="#000000" stroke-width="0.5669" stroke-miterlimit="22.9256" d="
		M15.2,567.2h197c8.2,0,14.9,6.7,14.9,14.9v197c0,8.2-6.7,14.9-14.9,14.9h-197c-8.2,0-14.9-6.7-14.9-14.9v-197
		C0.3,573.9,7,567.2,15.2,567.2L15.2,567.2z"/>
	<path fill-rule="evenodd" clip-rule="evenodd" fill="#3298DF" d="M113.6,658.9c16.2,0,29.3,13.1,29.3,29.3s-13.1,29.3-29.3,29.3
		c-16.2,0-29.3-13.1-29.3-29.3S97.4,658.9,113.6,658.9L113.6,658.9z M95.8,700.4l-0.8-5.1c1.8,1.1,3.8,1.5,5.6,1.5
		c3.5,0,5.9-2.3,5.9-4.6c0-2.2-1.6-4.3-4.2-4.3c-1.1,0-2.4,0.4-3.6,1.6l-2.8-1.3v-12.6h14.4l-1.2,4.4H100v5.1c5.6-3,11.3,1,11.2,6.5
		c-0.1,5.3-3.8,9.5-9.6,9.6C99.7,701.2,97.8,700.7,95.8,700.4L95.8,700.4z M124.6,696.7c-2.2,0-3.3-2.3-3.7-4.3
		c-0.6-2.6-1-11.3,2.6-12.4c1.9-0.6,3.5,0.3,4.3,2.2c1.3,2.9,1.7,12.2-1.8,14.2C125.6,696.6,125.1,696.7,124.6,696.7L124.6,696.7z
		 M124.6,701.2c4.6,0,7.2-3.9,8.2-8.2c1.2-5.4,0.5-14.8-5.5-17.2c-3.8-1.5-7.6,0.4-9.5,4.1c-2.9,5.4-2.7,18.1,4.3,20.8
		C122.8,701,123.7,701.2,124.6,701.2L124.6,701.2z M42.1,658.9c16.2,0,29.3,13.1,29.3,29.3s-13.1,29.3-29.3,29.3
		c-16.2,0-29.3-13.1-29.3-29.3S26,658.9,42.1,658.9L42.1,658.9z M52.9,701.2c4.6,0,7.2-3.9,8.2-8.2c1.2-5.4,0.5-14.8-5.5-17.2
		c-3.8-1.5-7.6,0.4-9.5,4.1c-2.9,5.4-2.7,18.1,4.3,20.8C51.1,701,51.9,701.2,52.9,701.2L52.9,701.2z M52.9,696.7
		c-2.2,0-3.3-2.3-3.7-4.3c-0.6-2.6-1-11.3,2.6-12.4c1.9-0.6,3.5,0.3,4.3,2.2c1.3,2.9,1.7,12.2-1.8,14.2
		C53.8,696.6,53.3,696.7,52.9,696.7L52.9,696.7z M34.9,682.2c0,1-0.3,1.8-1,2.5c-0.7,0.7-1.6,1.1-2.8,1.4c-1.2-0.3-2.2-0.7-2.8-1.4
		c-0.7-0.7-1-1.5-1-2.5c0-0.6,0.1-1.1,0.3-1.5c0.2-0.4,0.5-0.8,0.8-1c0.3-0.3,0.7-0.5,1.2-0.6c0.5-0.1,1-0.2,1.5-0.2
		c0.5,0,1,0.1,1.5,0.2c0.5,0.1,0.9,0.4,1.2,0.6c0.3,0.3,0.6,0.6,0.8,1C34.8,681.1,34.9,681.6,34.9,682.2L34.9,682.2z M31.1,689.8
		c1.3,0.3,2.2,0.8,2.9,1.5c0.7,0.7,1,1.6,1,2.6c0,0.6-0.1,1.1-0.3,1.5c-0.2,0.4-0.5,0.8-0.8,1.1c-0.4,0.3-0.8,0.5-1.3,0.7
		c-0.5,0.1-1,0.2-1.5,0.2c-0.5,0-1-0.1-1.5-0.2c-0.5-0.1-0.9-0.4-1.3-0.7c-0.4-0.3-0.6-0.7-0.8-1.1c-0.2-0.4-0.3-0.9-0.3-1.5
		c0-1,0.3-1.9,1-2.6C28.9,690.6,29.8,690.1,31.1,689.8L31.1,689.8z M31.1,675.2c4.2,0,7.8,2.5,7.8,7c0,2.5-1.3,4.4-3.5,5.4v0.1
		c6.4,2.3,5.5,13.4-4.3,13.4c-9.8,0-10.6-11.1-4.3-13.4v-0.1C20.8,684.9,22.6,675.2,31.1,675.2L31.1,675.2z M34.4,787.6L34.4,787.6
		L34.4,787.6h-0.2h0h-0.2h-0.1h0h-0.3h-0.2H33h-0.4h-0.2h-0.5h-0.1h0h-0.8h-0.2h-0.3H34.4L34.4,787.6z M15.2,573.6L15.2,573.6h4.5
		h0.6h3.8h1.1h3.1h1.6h2.5h2h2h2.4h1.5h2.7h1h3h0.6h3.2h0.3h3.4h0h3.3h0.2h3h0.4h2.7h0.6h2.5h0.7h2.3h0.8h2.1h0.8h2H77h2h0.8h1.9
		h0.8h1.9h0.7h2h0.6h2H90h2.1h0.3h2.2h0.1h2.3h0.1h2.1h0.4h1.8h0.6h1.5h0.9h1.2h1.1h0.9h1.4h0.6h1.7h0.3h2h0h2h0.3h1.7h0.6h1.5h0.9
		h1.2h1.2h0.9h1.5h0.6h1.8h0.4h2h0.2h2.3h0h2.3h0.2h2.1h0.4h2h0.5h2h0.6h1.9h0.7h1.9h0.8h2h0.8h2.1h0.8h2.2h0.8h2.3h0.7h2.5h0.6h2.8
		h0.4h3h0.2h3.3h0h3.4h0.3h3.2h0.7h3h1h2.7h1.5h2.4h2h2h2.5h1.6h3.1h1.1h3.8h0.6h4.5l0,0l0.2,0l0,0l0.2,0h0l0.2,0l0,0l0.2,0h0l0.2,0
		l0,0l0.2,0l0,0l0.2,0h0l0.2,0h0c0.1,0,0.1,0,0.2,0l0,0l0.2,0.1h0l0.2,0.1h0l0.2,0.1l0,0l0.2,0.1l0,0l0.2,0.1l0,0l0.2,0.1h0l0.2,0.1
		l0,0l0.2,0.1h0l0.2,0.1h0l0.2,0.1h0l0.2,0.1l0,0l0.2,0.1c2.6,1.5,4.3,4.3,4.3,7.4v196.9c0,3.2-1.7,5.9-4.3,7.4l-0.2,0.1l0,0
		l-0.2,0.1h0l-0.2,0.1h0l-0.2,0.1h0l-0.2,0.1l0,0l-0.2,0.1h0c-0.1,0-0.1,0.1-0.2,0.1l0,0c-0.1,0-0.1,0-0.2,0.1l0,0l-0.2,0.1l0,0
		c-0.1,0-0.1,0-0.2,0.1h0l-0.2,0.1h0l-0.2,0.1l0,0l-0.2,0h0l-0.2,0h0l-0.2,0l0,0l-0.2,0l0,0l-0.2,0h0l-0.2,0l0,0l-0.2,0h0l-0.2,0
		l0,0l-0.2,0l0,0h-2.8h-0.1h-2.6h-0.2h-2.3h-0.5h-1.9H201h-1.4h-1.2h-0.9h-1.8h-0.2h-1.9h-0.5h-1.3h-1.3h-0.4h-1.6h-0.5h-1h-1.4
		h-0.2h-1.2H183h-0.1h-1.1h-1.1h-0.3h-0.7h-1h-0.8h-0.2h-0.9h-0.8h-0.6h-0.2h-0.7h-0.7h-0.7H173h-0.5h-0.6h-0.6h-0.6h-0.1h-0.5h-0.6
		h-0.6h-0.6h-0.1h-0.5h-0.6h-0.6h-0.6h-0.1h-0.7h-0.7h-0.8h-0.1h-0.7h-0.9h-0.8H161h-1h-1h-0.2H158h-1.2h-0.3h-0.9h-1.3h0h-1.3h-1
		h-0.5h-1.6h-0.2h-1.5h-0.8h-0.9h-1.3h-0.5h-1.7h-0.3h-2h-0.1h-2.2h0h-2.2H136h-2.2h-0.3h-2h-0.6h-1.6h-1.1H127h-1.7
		c0-10.9,4-14.8,11.8-22.6c15.3-15.3,30.5-30.5,45.9-45.6c10.8-10.6,14.1-22.3,14.1-34.6l0-41.3h19.5l-31.3-54.2l-31.3,54.2h19.6
		v26.6c-0.1,22.2,1.6,23.4-10.4,35.4l-37.9,38v-24.7c12.3-4.7,21-16.6,21-30.6c0-14-8.7-25.9-21-30.6v-14.1h19.5l-31.3-54.2
		l-31.3,54.2h19.6v14.1c-12.3,4.7-21,16.6-21,30.6c0,14,8.7,25.9,21,30.6v68.8h-0.4H99h-0.1h-2.4h-0.4h-2.1h-0.5h-2h-0.5h-2h-0.3
		h-2.2h0h-2.1H84h-1.5h-1.1h-0.8h-1.8h-0.1h-1.6h-1h-0.5h-1.5h-0.7h-0.7h-1.3h-0.7h-0.5h-1.1h-1.1h0h-1h-1h-0.8h-0.1h-0.8h-0.8h-0.8
		h-0.3h-0.4h-0.7h-0.7h-0.6h-0.4h-0.2h-0.6h-0.6h-0.6h-0.6h-0.3h-0.3H56h-0.6h-0.6h-0.6h-0.2v-68.8c12.3-4.7,21-16.6,21-30.6
		c0-14-8.7-25.9-21-30.6v-14.1h19.5l-31.3-54.2l-31.3,54.2h19.6v14.1c-12.3,4.7-21,16.6-21,30.6c0,14,8.7,25.9,21,30.6v68.8h-0.3
		h-0.3h-0.4h-0.3h-0.9h-0.2h-0.4h-0.2h-0.2h-0.8h-0.2h-0.8h-0.2H25h-0.3h-0.5h-1.1h0h-0.4h0H22h-1.1h-0.3h-0.1h-0.1h-0.6h-1.1h-0.1
		H18h-0.1h-0.2H17h-0.2h-1h-0.3h-0.3h0l-0.2,0h0l-0.2,0h0l-0.2,0h0l-0.2,0h0l-0.2,0h0l-0.2,0h0l-0.2,0h0l-0.2,0h0
		c-0.1,0-0.1,0-0.2,0h0l-0.2-0.1h0l-0.2-0.1h0l-0.2-0.1h0l-0.2-0.1h0l-0.2-0.1h0l-0.2-0.1h0l-0.2-0.1h0l-0.2-0.1h0l-0.2-0.1h0
		l-0.2-0.1h0l-0.2-0.1h0l-0.2-0.1c-2.6-1.5-4.3-4.3-4.3-7.4V582.1c0-3.2,1.7-5.9,4.3-7.4c0.1,0,0.1-0.1,0.2-0.1h0l0.2-0.1h0l0.2-0.1
		h0l0.2-0.1h0l0.2-0.1h0l0.2-0.1h0l0.2-0.1h0c0.1,0,0.1,0,0.2-0.1h0l0.2-0.1h0c0.1,0,0.1,0,0.2-0.1h0l0.2-0.1h0l0.2-0.1h0l0.2,0h0
		l0.2,0h0l0.2,0h0l0.2,0h0l0.2,0h0l0.2,0h0l0.2,0h0l0.2,0h0L15.2,573.6L15.2,573.6z"/>
</g>
</svg>
