<?xml version="1.0" encoding="utf-8"?>
<svg version="1.1"
	 xmlns="http://www.w3.org/2000/svg"
	 x="0px" y="0px" viewBox="0 0 340.7 171" enable-background="new 0 0 340.7 171" xml:space="preserve">
<g>
	
		<path fill-rule="evenodd" clip-rule="evenodd" fill="#FFFFFF" stroke="#000000" stroke-width="0.5669" stroke-miterlimit="22.9256" d="
		M11.5,0.3h317.8c6.1,0,11.2,5,11.2,11.2v148.1c0,6.1-5,11.2-11.2,11.2H11.5c-6.1,0-11.2-5-11.2-11.2V11.5C0.3,5.3,5.3,0.3,11.5,0.3
		L11.5,0.3z"/>
	<path fill-rule="evenodd" clip-rule="evenodd" fill="#3298DF" d="M329.2,5.1c3.5,0,6.4,2.9,6.4,6.4v148c0,3.5-2.9,6.4-6.4,6.4
		h-50.7v-44.4c11.4-3.8,19.6-14.5,19.6-27.2c0-12.7-8.2-23.4-19.6-27.2v-9.4H293L269.5,17L246,57.8h14.5v9.4
		c-11.4,3.8-19.6,14.5-19.6,27.2c0,12.7,8.2,23.4,19.6,27.2v44.4c-65.4,0-18.2,0-81.1,0v-44.4c11.4-3.8,19.6-14.5,19.6-27.2
		c0-12.7-8.2-23.4-19.6-27.2v-9.4h14.5L170.4,17l-23.5,40.7h14.5v9.4C150,71,141.7,81.7,141.7,94.4c0,12.7,8.2,23.4,19.6,27.2v44.4
		h-81v-44.4C91.8,117.8,100,107,100,94.4c0-12.7-8.2-23.4-19.6-27.2v-9.4h14.5L71.4,17L47.8,57.8h14.5v9.4
		C51,71,42.7,81.7,42.7,94.4c0,12.7,8.2,23.4,19.6,27.2v44.4H11.5c-3.5,0-6.4-2.9-6.4-6.4v-148C5.1,8,8,5.1,11.5,5.1
		C91.6,5.1,18.9,5.1,329.2,5.1L329.2,5.1z"/>
	<path fill-rule="evenodd" clip-rule="evenodd" fill="#B92B1E" d="M170.4,65.7c15.8,0,28.6,12.8,28.6,28.6
		c0,15.8-12.8,28.6-28.6,28.6c-15.8,0-28.6-12.8-28.6-28.6C141.7,78.6,154.5,65.7,170.4,65.7L170.4,65.7z M170.4,71.1
		c12.8,0,23.2,10.4,23.2,23.2c0,12.8-10.4,23.2-23.2,23.2s-23.2-10.4-23.2-23.2C147.1,81.5,157.5,71.1,170.4,71.1L170.4,71.1z
		 M71.4,65.7c15.8,0,28.6,12.8,28.6,28.6c0,15.8-12.8,28.6-28.6,28.6c-15.8,0-28.6-12.8-28.6-28.6C42.7,78.6,55.6,65.7,71.4,65.7
		L71.4,65.7z M71.4,71.1c12.8,0,23.2,10.4,23.2,23.2s-10.4,23.2-23.2,23.2c-12.8,0-23.2-10.4-23.2-23.2S58.5,71.1,71.4,71.1
		L71.4,71.1z M269.5,65.7c15.8,0,28.6,12.8,28.6,28.6c0,15.8-12.8,28.6-28.6,28.6c-15.8,0-28.6-12.8-28.6-28.6
		C240.8,78.6,253.7,65.7,269.5,65.7L269.5,65.7z M269.5,71.1c12.8,0,23.2,10.4,23.2,23.2c0,12.8-10.4,23.2-23.2,23.2
		c-12.8,0-23.2-10.4-23.2-23.2C246.2,81.5,256.6,71.1,269.5,71.1L269.5,71.1z"/>
	<path fill-rule="evenodd" clip-rule="evenodd" d="M68,104.4c3.7,0,5.8-3.2,6.6-6.6c1-4.4,0.4-12-4.4-13.9c-3.1-1.2-6.1,0.3-7.6,3.3
		c-2.3,4.4-2.2,14.6,3.4,16.9C66.6,104.3,67.3,104.4,68,104.4L68,104.4z M68,100.6c-3.8,0-3.6-8.9-2.5-11.6c1-2.3,3.1-2.2,4.2-1.2
		c1.9,1.9,1.9,8.9,0.4,11.3C69.6,100.1,68.9,100.6,68,100.6L68,100.6z M83.3,104.4c3.7,0,5.8-3.2,6.6-6.6c1-4.4,0.4-12-4.4-13.9
		c-3.1-1.2-6.1,0.3-7.6,3.3c-2.3,4.4-2.2,14.6,3.4,16.9C81.9,104.3,82.6,104.4,83.3,104.4L83.3,104.4z M83.3,100.6
		c-3.8,0-3.6-8.9-2.5-11.6c1-2.3,3.1-2.2,4.2-1.2c1.9,1.9,1.9,8.9,0.4,11.3C84.9,100.1,84.2,100.6,83.3,100.6L83.3,100.6z
		 M58.5,83.8L58.5,104l-3.7,0l0-15.3l-2.7,1.6l-1.4-1.8l4.4-4.7L58.5,83.8L58.5,83.8z M160,81.8c4,0,7.3,2.4,7.3,6.6
		c0,2.4-1.2,4.1-3.3,5.1v0.1c6,2.2,5.2,12.6-4,12.6c-9.2,0-10-10.4-4-12.6v-0.1C150.3,90.8,152,81.8,160,81.8L160,81.8z M160,95.4
		c1.2,0.3,2.1,0.7,2.7,1.4c0.6,0.7,1,1.5,1,2.5c0,0.5-0.1,1-0.3,1.4c-0.2,0.4-0.5,0.7-0.8,1c-0.3,0.3-0.7,0.5-1.2,0.6
		c-0.4,0.1-0.9,0.2-1.4,0.2c-0.5,0-1-0.1-1.4-0.2c-0.5-0.1-0.8-0.3-1.2-0.6c-0.3-0.3-0.6-0.6-0.8-1c-0.2-0.4-0.3-0.9-0.3-1.4
		c0-1,0.3-1.8,1-2.5C157.9,96.1,158.8,95.7,160,95.4L160,95.4z M163.6,88.3c0,0.9-0.3,1.7-0.9,2.4c-0.6,0.6-1.5,1.1-2.6,1.3
		c-1.1-0.2-2-0.7-2.6-1.3c-0.6-0.6-0.9-1.4-0.9-2.4c0-0.5,0.1-1,0.3-1.4c0.2-0.4,0.4-0.7,0.8-1c0.3-0.3,0.7-0.5,1.1-0.6
		c0.4-0.1,0.9-0.2,1.4-0.2c0.5,0,1,0.1,1.4,0.2c0.4,0.1,0.8,0.3,1.1,0.6c0.3,0.3,0.6,0.6,0.8,1C163.5,87.3,163.6,87.8,163.6,88.3
		L163.6,88.3z M180.4,101.9c-2,0-3.1-2.2-3.5-4.1c-0.6-2.5-0.9-10.6,2.5-11.7c1.8-0.6,3.3,0.2,4.1,2c1.2,2.7,1.6,11.4-1.6,13.3
		C181.3,101.7,180.9,101.9,180.4,101.9L180.4,101.9z M180.4,106.1c4.3,0,6.8-3.7,7.7-7.7c1.1-5.1,0.4-13.9-5.2-16.1
		c-3.6-1.4-7.1,0.4-8.9,3.8c-2.7,5.1-2.6,16.9,4,19.5C178.7,105.9,179.6,106.1,180.4,106.1L180.4,106.1z M279.7,106.1
		c4.3,0,6.8-3.7,7.7-7.7c1.1-5.1,0.4-13.9-5.2-16.1c-3.6-1.4-7.1,0.4-8.9,3.8c-2.7,5.1-2.6,16.9,4,19.5
		C278.1,105.9,278.9,106.1,279.7,106.1L279.7,106.1z M279.7,101.9c-2,0-3.1-2.2-3.5-4.1c-0.6-2.5-0.9-10.6,2.5-11.7
		c1.8-0.6,3.3,0.2,4.1,2c1.2,2.7,1.6,11.4-1.6,13.3C280.6,101.7,280.2,101.9,279.7,101.9L279.7,101.9z M252.7,105.3l-0.8-4.7
		c1.7,1,3.5,1.4,5.2,1.4c3.2,0,5.5-2.2,5.5-4.3c0-2-1.5-4.1-3.9-4c-1,0-2.3,0.4-3.4,1.5l-2.6-1.3V82.2h13.5l-1.1,4.1h-8.6v4.8
		c5.2-2.8,10.6,0.9,10.5,6c-0.1,4.9-3.5,8.9-9,9C256.4,106.1,254.6,105.6,252.7,105.3L252.7,105.3z"/>
</g>
</svg>
