<?xml version="1.0" encoding="utf-8"?>
<svg version="1.1"
	 xmlns="http://www.w3.org/2000/svg"
	 x="0px" y="0px" viewBox="0 0 340.7 171" enable-background="new 0 0 340.7 171" xml:space="preserve">
<g>
	
		<path fill-rule="evenodd" clip-rule="evenodd" fill="#FFFFFF" stroke="#000000" stroke-width="0.5669" stroke-miterlimit="22.9256" d="
		M11.5,0.3h317.8c6.1,0,11.2,5,11.2,11.2v148.1c0,6.1-5,11.2-11.2,11.2H11.5c-6.1,0-11.2-5-11.2-11.2V11.5C0.3,5.3,5.3,0.3,11.5,0.3
		L11.5,0.3z"/>
	<path fill-rule="evenodd" clip-rule="evenodd" fill="#3298DF" d="M113.3,79.2h6.4v18.1h-6.4V79.2L113.3,79.2z M11.5,5.1h317.7
		c3.5,0,6.4,2.9,6.4,6.4v148c0,3.5-2.9,6.4-6.4,6.4h-62.3V74c0-5.9,4.8-10.7,10.7-10.7h5.5v14.6l40.7-23.5l-40.7-23.5v14.6h-5.6
		c-15.7,0-28.6,12.9-28.6,28.6v91.9h-21.4v-18.3h-6.4v18.3h-41.8V57.6h14.5l-23.5-40.7l-23.5,40.7h14.5v108.3h-41.7v-18.3h-6.4v18.3
		H91.6V57.6h14.5L82.6,16.9L59.1,57.6h14.5l-0.1,26.8c-3.3-1.3-6.8-2-10.5-2h-5.1V67.7L17.2,91.3l40.7,23.5v-14.6h5
		c5.5,0,10,4.2,10.7,9.5l0.1,56.3H11.5c-3.5,0-6.4-2.9-6.4-6.4v-148C5.1,8,8,5.1,11.5,5.1L11.5,5.1z M113.3,102h6.4v18.1h-6.4V102
		L113.3,102z M113.3,124.9h6.4V143h-6.4V124.9L113.3,124.9z M221.1,79.2h6.4v18.1h-6.4V79.2L221.1,79.2z M221.1,102h6.4v18.1h-6.4
		V102L221.1,102z M221.1,124.9h6.4V143h-6.4V124.9L221.1,124.9z"/>
</g>
</svg>
