<?xml version="1.0" encoding="utf-8"?>
<svg version="1.1"
	 xmlns="http://www.w3.org/2000/svg"
	 x="0px" y="0px" viewBox="0 0 340.7 624.6" enable-background="new 0 0 340.7 624.6" xml:space="preserve">
<g>
	
		<path fill-rule="evenodd" clip-rule="evenodd" fill="#FFFFFF" stroke="#000000" stroke-width="0.5669" stroke-miterlimit="22.9256" d="
		M11.5,0.3h317.8c6.1,0,11.2,5,11.2,11.2v148.1c0,6.1-5,11.2-11.2,11.2H11.5c-6.1,0-11.2-5-11.2-11.2V11.5C0.3,5.3,5.3,0.3,11.5,0.3
		L11.5,0.3z"/>
	<path fill-rule="evenodd" clip-rule="evenodd" fill="#3298DF" d="M11.5,165.9h101.8v-21.4h6.4v21.4h101.1V5.1h-41.5v108.3h14.5
		l-23.5,40.7l-23.5-40.7h14.5V5.1h-41.7v21.6h-6.4V5.1H68.9v108.3h14.5l-23.5,40.7l-23.5-40.7h14.5V5.1H11.5C8,5.1,5.1,8,5.1,11.5
		v148C5.1,163,8,165.9,11.5,165.9L11.5,165.9z M227.3,165.9h44.6V57.8h-14.5L280.9,17l23.5,40.7h-14.5v108.2h39.3
		c3.5,0,6.4-2.9,6.4-6.4v-148c0-3.5-2.9-6.4-6.4-6.4h-102V165.9L227.3,165.9z M113.3,49.3h6.4V31.2h-6.4V49.3L113.3,49.3z M113.3,72
		h6.4V53.9h-6.4V72L113.3,72z M113.3,94.7h6.4V76.6h-6.4V94.7L113.3,94.7z M113.3,117.3h6.4V99.2h-6.4V117.3L113.3,117.3z
		 M113.3,140h6.4v-18.1h-6.4V140L113.3,140z"/>
	
		<path fill-rule="evenodd" clip-rule="evenodd" fill="#FFFFFF" stroke="#000000" stroke-width="0.5669" stroke-miterlimit="22.9256" d="
		M11.5,227.1h317.8c6.1,0,11.2,5,11.2,11.2v148.1c0,6.1-5,11.2-11.2,11.2H11.5c-6.1,0-11.2-5-11.2-11.2V238.2
		C0.3,232.1,5.3,227.1,11.5,227.1L11.5,227.1z"/>
	<path fill-rule="evenodd" clip-rule="evenodd" fill="#3298DF" d="M113.3,366.7h6.4v-18.1h-6.4V366.7L113.3,366.7z M220.8,231.8
		v21.6h6.4v-21.6h102c3.5,0,6.4,2.9,6.4,6.4v148c0,3.5-2.9,6.4-6.4,6.4h-39.3V284.5h14.5l-23.5-40.7l-23.5,40.7h14.5v108.2h-44.6
		v-21.4h-6.4v21.4h-41.5v-44.4c11.4-3.8,19.6-14.5,19.6-27.2c0-12.7-8.2-23.4-19.6-27.2v-9.4h14.5l-23.5-40.7l-23.5,40.7h14.5v9.4
		c-11.4,3.8-19.6,14.5-19.6,27.2c0,12.7,8.2,23.4,19.6,27.2v44.4h-41.7v-21.4h-6.4v21.4H11.5c-3.5,0-6.4-2.9-6.4-6.4v-148
		c0-3.5,2.9-6.4,6.4-6.4h39.4v108.3H36.4l23.5,40.7l23.5-40.7H68.9V231.8h44.4v21.6h6.4v-21.6H220.8L220.8,231.8z M220.8,366.7h6.4
		v-18.1h-6.4V366.7L220.8,366.7z M220.8,344.1h6.4V326h-6.4V344.1L220.8,344.1z M220.8,321.4h6.4v-18.1h-6.4V321.4L220.8,321.4z
		 M220.8,298.8h6.4v-18.1h-6.4V298.8L220.8,298.8z M220.8,276.1h6.4V258h-6.4V276.1L220.8,276.1z M113.3,344.1h6.4V326h-6.4V344.1
		L113.3,344.1z M113.3,321.4h6.4v-18.1h-6.4V321.4L113.3,321.4z M113.3,298.8h6.4v-18.1h-6.4V298.8L113.3,298.8z M113.3,276.1h6.4
		V258h-6.4V276.1L113.3,276.1z"/>
	<path fill-rule="evenodd" clip-rule="evenodd" fill="#B92B1E" d="M170.4,292.5c15.8,0,28.6,12.8,28.6,28.6
		c0,15.8-12.8,28.6-28.6,28.6c-15.8,0-28.6-12.8-28.6-28.6C141.7,305.3,154.5,292.5,170.4,292.5L170.4,292.5z M170.4,297.9
		c12.8,0,23.2,10.4,23.2,23.2c0,12.8-10.4,23.2-23.2,23.2c-12.8,0-23.2-10.4-23.2-23.2C147.1,308.3,157.5,297.9,170.4,297.9
		L170.4,297.9z"/>
	<path fill-rule="evenodd" clip-rule="evenodd" d="M155.2,315.5h4.6c0.6,0,1.1,0.5,1.1,1.1v2.7c0,0.6-0.5,1.1-1.1,1.1h-6.2
		c-1,0-1.2-1.1-0.8-1.7l1.8-2.7C154.7,315.7,154.8,315.5,155.2,315.5L155.2,315.5z M180.8,325.4c1.8,0,3.3,1.5,3.3,3.3
		c0,1.8-1.5,3.3-3.3,3.3c-1.8,0-3.3-1.5-3.3-3.3C177.5,326.9,179,325.4,180.8,325.4L180.8,325.4z M180.8,327c0.9,0,1.7,0.8,1.7,1.7
		c0,0.9-0.8,1.7-1.7,1.7c-0.9,0-1.7-0.8-1.7-1.7C179.1,327.8,179.9,327,180.8,327L180.8,327z M158,325.4c1.8,0,3.3,1.5,3.3,3.3
		c0,1.8-1.5,3.3-3.3,3.3c-1.8,0-3.3-1.5-3.3-3.3C154.7,326.9,156.2,325.4,158,325.4L158,325.4z M158,327c0.9,0,1.7,0.8,1.7,1.7
		c0,0.9-0.8,1.7-1.7,1.7c-0.9,0-1.7-0.8-1.7-1.7C156.3,327.8,157.1,327,158,327L158,327z M181.7,325h6.8v3.7h-3.8
		C184.6,326.8,183.3,325.3,181.7,325L181.7,325z M162.7,325H180c-1.7,0.4-3,1.9-3,3.7h-15.1c0-2.1-1.7-3.7-3.8-3.7
		c-2.1,0-3.8,1.7-3.8,3.7h-2c-1.1,0-1.9-0.9-1.9-1.9V325v-3.9v-0.6c0-0.3,0.2-0.6,0.4-0.9l2.9-4.3c0.3-0.5,0.7-0.8,1.3-0.8h5.6
		c1.2,0,2.1,1,2.1,2.1v4.6V325L162.7,325z M163.6,324.2h24.9v-13.6c0-1-0.8-1.8-1.8-1.8h-21.2c-1,0-1.8,0.8-1.8,1.8V324.2
		L163.6,324.2z"/>
	
		<path fill-rule="evenodd" clip-rule="evenodd" fill="#FFFFFF" stroke="#000000" stroke-width="0.5669" stroke-miterlimit="22.9256" d="
		M68.2,453.8h204.3c6.1,0,11.2,5,11.2,11.2v148.1c0,6.1-5,11.2-11.2,11.2H68.2c-6.1,0-11.2-5-11.2-11.2V465
		C57,458.9,62,453.8,68.2,453.8L68.2,453.8z"/>
	<path fill-rule="evenodd" clip-rule="evenodd" fill="#3298DF" d="M68.2,458.6h37.2v108.2H91l23.5,40.7l23.5-40.7h-14.5V458.6h43.7
		v160.9H68.2c-3.5,0-6.4-2.9-6.4-6.4V465C61.8,461.5,64.7,458.6,68.2,458.6L68.2,458.6z M173.6,458.6h98.9c3.5,0,6.4,2.9,6.4,6.4
		v148c0,3.5-2.9,6.4-6.4,6.4h-37.2V511.2h14.5l-23.5-40.7l-23.5,40.7h14.5v108.2h-43.7V458.6L173.6,458.6z"/>
</g>
</svg>
