<?xml version="1.0" encoding="utf-8"?>
<svg version="1.1"
	 xmlns="http://www.w3.org/2000/svg"
	 x="0px" y="0px" viewBox="0 0 284 284" enable-background="new 0 0 284 284" xml:space="preserve">
<g>
	
		<path fill-rule="evenodd" clip-rule="evenodd" fill="#FFFFFF" stroke="#000000" stroke-width="0.5669" stroke-miterlimit="22.9256" d="
		M265.2,0.3H18.9C8.6,0.3,0.3,8.6,0.3,18.9v246.3c0,10.2,8.4,18.6,18.6,18.6h246.3c10.2,0,18.6-8.4,18.6-18.6V18.9
		C283.7,8.6,275.4,0.3,265.2,0.3L265.2,0.3z"/>
	<path fill-rule="evenodd" clip-rule="evenodd" fill="#3298DF" d="M265.1,8.3H18.9c-5.9,0-10.7,4.8-10.7,10.7v246.2
		c0,5.9,4.8,10.7,10.7,10.7h47.2l0-137.9c0-11.1,1.9-22.2,7.7-31.9c5.2-8.8,9.7-12.6,17.1-19.9l18.3-18.3l0,0L91.9,50.4l75.4-20.1
		l-20.1,75.4L130,88.5l-22.1,22.1c-9.1,9.2-12,13.1-12.4,26.8v138.4h41.2v-29.6h10.7v29.6h41.1V95.6h-24.4l39.1-67.8l39.1,67.8
		h-24.4v180.2c78.5,0-28.6,0,47.2,0c5.9,0,10.7-4.8,10.7-10.7V18.9C275.8,13.1,271,8.3,265.1,8.3L265.1,8.3z M147.4,169.9h-10.7
		v29.8h10.7V169.9L147.4,169.9z M147.4,208.1h-10.7v29.8h10.7V208.1L147.4,208.1z"/>
</g>
</svg>
