<?xml version="1.0" encoding="utf-8"?>
<svg version="1.1"
	 xmlns="http://www.w3.org/2000/svg"
	 x="0px" y="0px" viewBox="0 0 189.8 284" enable-background="new 0 0 189.8 284" xml:space="preserve">
<g>
	
		<path fill-rule="evenodd" clip-rule="evenodd" fill="#FFFFFF" stroke="#000000" stroke-width="0.5669" stroke-miterlimit="22.9256" d="
		M14.8,0.3H175c8,0,14.5,6.5,14.5,14.5v254.5c0,8-6.5,14.5-14.5,14.5H14.8c-8,0-14.5-6.5-14.5-14.5V14.8C0.3,6.8,6.8,0.3,14.8,0.3
		L14.8,0.3z"/>
	<path fill-rule="evenodd" clip-rule="evenodd" fill="#3298DF" d="M14.9,6.5h160c4.6,0,8.3,3.8,8.3,8.3v254.4c0,4.6-3.8,8.3-8.3,8.3
		h-160c-4.6,0-8.3-3.8-8.3-8.3V14.8C6.6,10.2,10.3,6.5,14.9,6.5L14.9,6.5z M29.2,47.7h131.5c6.1,0,11.1,5,11.1,11.1v131.5
		c0,6.1-5,11.1-11.1,11.1H29.2c-6.1,0-11.1-5-11.1-11.1V58.8C18.1,52.7,23.1,47.7,29.2,47.7L29.2,47.7z"/>
	<path fill-rule="evenodd" clip-rule="evenodd" d="M130.3,129.6c6.7,0,12.2,5.5,12.2,12.2c0,6.7-5.5,12.2-12.2,12.2
		c-6.7,0-12.2-5.5-12.2-12.2C118.1,135.1,123.5,129.6,130.3,129.6L130.3,129.6z M130.3,136.3c3.1,0,5.5,2.5,5.5,5.5
		c0,3.1-2.5,5.5-5.5,5.5c-3.1,0-5.5-2.5-5.5-5.5C124.7,138.7,127.2,136.3,130.3,136.3L130.3,136.3z M53.8,129.6
		c6.7,0,12.2,5.5,12.2,12.2c0,6.7-5.5,12.2-12.2,12.2s-12.2-5.5-12.2-12.2C41.6,135.1,47,129.6,53.8,129.6L53.8,129.6z M53.8,136.3
		c3.1,0,5.5,2.5,5.5,5.5c0,3.1-2.5,5.5-5.5,5.5s-5.5-2.5-5.5-5.5C48.2,138.7,50.7,136.3,53.8,136.3L53.8,136.3z M47.7,89.8H147
		c4.8,0,6.5,2.7,7.6,6.1c1.8,5.3,3.5,10.5,5.4,15.8v24.3c0,3.4-2.8,6.2-6.2,6.2h-9.2c0-0.2,0-0.3,0-0.5c0-8-6.3-14.5-14.3-14.5
		c-8,0-14.2,6.5-14.2,14.5c0,0.2,0,0.3,0,0.5H68c0-0.2,0-0.3,0-0.5c0-8-6.1-14.5-14.2-14.5c-8,0-14.3,6.5-14.3,14.5
		c0,0.2,0,0.3,0,0.5H36c-3.4,0-6.2-2.8-6.2-6.2v-23.5L39.3,96C41.1,93.1,43,89.8,47.7,89.8L47.7,89.8z M94.8,95.1h18
		c1.3,0,2.3,1,2.3,2.3v12.1c0,1.3-1,2.3-2.3,2.3h-18c-1.3,0-2.3-1-2.3-2.3V97.5C92.4,96.2,93.5,95.1,94.8,95.1L94.8,95.1z
		 M124.2,95.1h16.6c1.3,0,2.6,0.6,3.1,2.3l3,10.6c0.5,1.8-0.1,3.9-2.6,3.9h-20.1c-1.3,0-2.3-1-2.3-2.3V97.5
		C121.9,96.2,122.9,95.1,124.2,95.1L124.2,95.1z M54,95.1h-6.7c-1.3,0-2.5,0.7-3.4,2.3L37.8,108c-0.9,1.6,0.1,3.9,2.6,3.9H54
		c1.3,0,2.3-1,2.3-2.3V97.5C56.4,96.2,55.3,95.1,54,95.1L54,95.1z M65.4,95.1h18c1.3,0,2.3,1,2.3,2.3v12.1c0,1.3-1,2.3-2.3,2.3h-18
		c-1.3,0-2.3-1-2.3-2.3V97.5C63.1,96.2,64.1,95.1,65.4,95.1L65.4,95.1z"/>
</g>
</svg>
