<?xml version="1.0" encoding="utf-8"?>
<svg version="1.1"
	 xmlns="http://www.w3.org/2000/svg"
	 x="0px" y="0px" viewBox="0 0 189.8 284" enable-background="new 0 0 189.8 284" xml:space="preserve">
<g>
	
		<path fill-rule="evenodd" clip-rule="evenodd" fill="#FFFFFF" stroke="#000000" stroke-width="0.5669" stroke-miterlimit="22.9256" d="
		M14.8,0.3H175c8,0,14.5,6.5,14.5,14.5v254.5c0,8-6.5,14.5-14.5,14.5H14.8c-8,0-14.5-6.5-14.5-14.5V14.8C0.3,6.8,6.8,0.3,14.8,0.3
		L14.8,0.3z"/>
	<path fill-rule="evenodd" clip-rule="evenodd" fill="#3298DF" d="M14.9,6.5h160c4.6,0,8.3,3.8,8.3,8.3v254.4c0,4.6-3.8,8.3-8.3,8.3
		h-160c-4.6,0-8.3-3.8-8.3-8.3V14.8C6.6,10.2,10.3,6.5,14.9,6.5L14.9,6.5z M29.2,47.7h131.5c6.1,0,11.1,5,11.1,11.1v131.5
		c0,6.1-5,11.1-11.1,11.1H29.2c-6.1,0-11.1-5-11.1-11.1V58.8C18.1,52.7,23.1,47.7,29.2,47.7L29.2,47.7z"/>
	<path fill-rule="evenodd" clip-rule="evenodd" d="M94.9,102.8H84.5l-6.4-7.6l16.8-15.3v0v0l16.8,15.3l-6.4,7.6H94.9L94.9,102.8z
		 M83,105.6h11.9h11.9l8.8-10.4L96,77.3l0-5.8h-1.2h-1.2l0,5.8L74.2,95.1L83,105.6L83,105.6z M129,159.8c-0.9,3.4-4,5.9-7.7,5.9
		c-4.4,0-7.9-3.6-7.9-7.9c0-4.4,3.6-7.9,7.9-7.9c3.7,0,6.8,2.5,7.7,6c0.9-3.4,4-6,7.7-6c4.4,0,7.9,3.6,7.9,7.9
		c0,4.4-3.6,7.9-7.9,7.9C133,165.7,129.9,163.2,129,159.8L129,159.8z M60.8,159.8c-0.9,3.4-4,5.9-7.7,5.9c-4.4,0-7.9-3.6-7.9-7.9
		c0-4.4,3.6-7.9,7.9-7.9c3.7,0,6.8,2.5,7.7,6c0.9-3.4,4-6,7.7-6c4.4,0,7.9,3.6,7.9,7.9c0,4.4-3.6,7.9-7.9,7.9
		C64.7,165.7,61.6,163.2,60.8,159.8L60.8,159.8z M92.8,158.3H103h8.7c-0.4-4.8,2.9-8.5,5.4-9.2l-10.2,0l0,0l-9,0l-9,0l0,0l-16.3,0
		c2.5,0.7,5.8,4.4,5.4,9.2H92.8L92.8,158.3z M47.3,108.3h44.3h6.6h44.3c4.4,0,6.3,2.5,7.9,5.6c1.2,2.3,2.5,4.4,3.7,6.6
		c1.2,2.1,2.4,4.3,3.7,6.4c1.7,2.8,2,4.4,2,7.5v12.8c0,5.7-4.7,10.4-10.4,10.4h-3.2c0-5.2-4.2-9.5-9.5-9.5c-27.9,0-55.7,0-83.6,0
		c-5.2,0-9.5,4.2-9.5,9.5h-3.2c-5.7,0-10.4-4.7-10.4-10.4v-12.8c0-3.2,0.3-4.7,2-7.5c1.3-2.2,2.5-4.3,3.7-6.4
		c1.2-2.2,2.5-4.3,3.7-6.6C41.1,110.8,42.9,108.3,47.3,108.3L47.3,108.3z M145.2,112.7h-6.7c-1.8,0-3.3,1.5-3.3,3.3v11.2
		c0,1.8,1.5,3.3,3.3,3.3h12.9c3.7,0,3.9-3.1,2.6-5.2l-5.5-9.2C147.6,114.5,147,112.7,145.2,112.7L145.2,112.7z M44.6,112.7h6.7
		c1.8,0,3.3,1.5,3.3,3.3v11.2c0,1.8-1.5,3.3-3.3,3.3H38.5c-3.7,0-3.9-3.1-2.6-5.2l5.5-9.2C42.2,114.5,42.8,112.7,44.6,112.7
		L44.6,112.7z M60.4,112.7h16.9c1.8,0,3.3,1.5,3.3,3.3v11.2c0,1.8-1.5,3.3-3.3,3.3H60.4c-1.8,0-3.3-1.5-3.3-3.3V116
		C57.2,114.2,58.6,112.7,60.4,112.7L60.4,112.7z M112.5,112.7h16.9c1.8,0,3.3,1.5,3.3,3.3v11.2c0,1.8-1.5,3.3-3.3,3.3h-16.9
		c-1.8,0-3.3-1.5-3.3-3.3V116C109.2,114.2,110.7,112.7,112.5,112.7L112.5,112.7z M86.5,112.7h16.9c1.8,0,3.3,1.5,3.3,3.3v11.2
		c0,1.8-1.5,3.3-3.3,3.3H86.5c-1.8,0-3.3-1.5-3.3-3.3V116C83.2,114.2,84.7,112.7,86.5,112.7L86.5,112.7z"/>
</g>
</svg>
