<?xml version="1.0" encoding="utf-8"?>
<svg version="1.1"
	 xmlns="http://www.w3.org/2000/svg"
	 x="0px" y="0px" viewBox="0 0 189.8 284" enable-background="new 0 0 189.8 284" xml:space="preserve">
<g>
	
		<path fill-rule="evenodd" clip-rule="evenodd" fill="#FFFFFF" stroke="#000000" stroke-width="0.5669" stroke-miterlimit="22.9256" d="
		M14.8,0.3H175c8,0,14.5,6.5,14.5,14.5v254.5c0,8-6.5,14.5-14.5,14.5H14.8c-8,0-14.5-6.5-14.5-14.5V14.8C0.3,6.8,6.8,0.3,14.8,0.3
		L14.8,0.3z"/>
	<path fill-rule="evenodd" clip-rule="evenodd" fill="#3298DF" d="M14.9,6.5h160c4.6,0,8.3,3.8,8.3,8.3v254.4c0,4.6-3.8,8.3-8.3,8.3
		h-160c-4.6,0-8.3-3.8-8.3-8.3V14.8C6.6,10.2,10.3,6.5,14.9,6.5L14.9,6.5z M29.2,47.7h131.5c6.1,0,11.1,5,11.1,11.1v131.5
		c0,6.1-5,11.1-11.1,11.1H29.2c-6.1,0-11.1-5-11.1-11.1V58.8C18.1,52.7,23.1,47.7,29.2,47.7L29.2,47.7z"/>
	<path fill-rule="evenodd" clip-rule="evenodd" d="M127.5,145.3c2.7,0,4.9,2.2,4.9,4.9v17.2c0,2.7-2.2,4.9-4.9,4.9H62.3
		c-2.7,0-4.9-2.2-4.9-4.9v-17.2c0-2.7,2.2-4.9,4.9-4.9l6.4-19.6c0.7-2.3,1.9-4.3,4.3-4.3h9.9l3.3-6.1h17.4l3.3,6.1h9.9
		c2.4,0,3.6,2.1,4.3,4.3L127.5,145.3L127.5,145.3z M75.4,125.8h39c1.9,0,2.9,1.7,3.5,3.5l5.2,16H66.6l4.9-16
		C72.1,127.5,73.4,125.8,75.4,125.8L75.4,125.8z M127.9,182.8L127.9,182.8v-9.2h-13.5v9.2l0,0c0,3.7,3,6.8,6.8,6.8
		C124.8,189.6,127.9,186.5,127.9,182.8L127.9,182.8z M75.5,182.8c0,3.7-3,6.8-6.8,6.8c-3.7,0-6.8-3-6.8-6.8l0,0v-9.2h13.5V182.8
		L75.5,182.8L75.5,182.8z M68.8,149.9c3.7,0,6.8,3,6.8,6.8c0,3.7-3,6.8-6.8,6.8c-3.7,0-6.8-3-6.8-6.8C62,152.9,65,149.9,68.8,149.9
		L68.8,149.9z M121.1,149.9c3.7,0,6.8,3,6.8,6.8c0,3.7-3,6.8-6.8,6.8c-3.7,0-6.8-3-6.8-6.8C114.3,152.9,117.4,149.9,121.1,149.9
		L121.1,149.9z M47.9,76.7h14.4v3.7h-5v14.9h-4.5V80.4h-5V76.7L47.9,76.7z M122.8,89.8c-0.6,3.6-4.2,6.2-8.2,6.3
		c-5.8,0.1-8.8-4.4-8.8-9.9c0-3.2,0.8-5.7,2.5-7.5c1.7-1.8,3.8-2.7,6.6-2.7c4.1,0.1,6.7,2.2,7.8,6.1c-1.2,0.3-2.5,0.7-3.7,1
		c0,0-1-3.4-4.3-3.4c-3.4,0-4.5,3.1-4.5,6.5c0,3,0.9,6.3,4.5,6.3c2.3,0,3.8-1.6,4.3-3.6L122.8,89.8L122.8,89.8z M86.1,76.7h4.5v6.6
		c3.6-0.5,4.9-6.8,10.1-7l0.8,3.8c-2.9-0.1-4.2,4.3-6.5,4.9c4,0.5,4,4.8,8.3,10.3h-5.2c-4.8-7.8-3.7-8.3-7.6-8.3v8.3h-4.5V76.7
		L86.1,76.7z M67.5,82l-2.1-3.4c4.6-3.8,15.1-4,15.1,4.3l0,8.4c0,0.4,0.4,0.9,0.8,0.9h1l-1.5,3.4c-2.2,0.2-3.9-0.4-4.7-2.3
		c-1.3,1.7-3.1,2.5-4.9,2.5c-2.9,0-5.7-2.1-5.8-5.7c-0.3-6.5,8.1-6.8,10.6-7.1C76.3,77.9,69.4,79.8,67.5,82L67.5,82z M76.1,86.4
		c-2.1,0.8-6.4,0.6-6.3,3.4c0.1,3.4,4.7,2.7,6.3-0.4L76.1,86.4L76.1,86.4z M126.6,76.7h4.4v11.4l6.5-11.4h4.5v18.6h-4.5V84.2
		l-6.5,11.2h-4.4V76.7L126.6,76.7z"/>
</g>
</svg>
