<?xml version="1.0" encoding="utf-8"?>
<svg version="1.1"
	 xmlns="http://www.w3.org/2000/svg"
	 x="0px" y="0px" viewBox="0 0 283.5 283.5" enable-background="new 0 0 283.5 283.5" xml:space="preserve">
<g>
	<path fill-rule="evenodd" clip-rule="evenodd" fill="#FFFFFF" stroke="#000000" stroke-width="0.5669" stroke-miterlimit="22.9256" d="
		M264.9,0H18.6C8.4,0,0,8.4,0,18.6v246.3c0,10.2,8.4,18.6,18.6,18.6h246.3c10.2,0,18.6-8.4,18.6-18.6V18.6
		C283.5,8.4,275.1,0,264.9,0L264.9,0z"/>
	<path fill-rule="evenodd" clip-rule="evenodd" fill="#3298DF" d="M264.8,8H18.7C12.8,8,8,12.8,8,18.7v246.2
		c0,5.9,4.8,10.7,10.7,10.7c167.8,0,78.3,0,246.2,0c5.9,0,10.7-4.8,10.7-10.7V18.7C275.5,12.8,270.7,8,264.8,8L264.8,8z M149,231.1
		H24.5c-4.9,0-5.2-4.3-3.9-6.4c6.3-10.5,13.3-23,19.5-33.7l96.8-168.5c3.1-5.4,6.6-5.4,9.7,0l110.2,191.6c2,3.5,4,7.1,6.2,10.6
		c1.3,2.1,0.5,6.4-3.9,6.4C222.3,231.1,185.6,231.1,149,231.1L149,231.1z"/>
	<path d="M159.3,68.3c2.8,10.8-6.1,20.6-16.9,15.2c-5.9-3-11.8-7.2-11.7-15.1C131,52.4,155.6,53.8,159.3,68.3L159.3,68.3z
		 M98.6,106.2c1.1-4.9,3.9-6,7.7-8.3c2.5-1.5,23.2-13.7,24.9-14.1c4.9-1.2,7.1,0.7,11.5,3.2c1.6,1,3.3,1.9,4.9,2.9
		c3.3,2,3.3,3,3.3,6.6c0.1,5.6-0.2,41,0.1,41.4c0.7,1,20.2,19.9,21,21.2c0.9,1.6,2.2,7.5,2.6,9.4l8.7,36.8c1.2,5.2-2.7,10.2-8,10.2
		c-3.8,0-7.1-2.6-8-6.3c-1-4.4-7.9-34.4-8.8-36.1c-0.9-1.8-5.9-6.3-7.6-8c-6.8-6.8-13.7-13.7-20.5-20.6c-1.2-1.2-5.4-5-6-6.4
		c-0.9-2-0.6-16-0.6-18l0-17.3c-2,0.5-11.5,6.8-12,7.8c-0.5,1.1-0.3,22.1-0.3,25c0,3.6-2.9,6.5-6.5,6.5c-3.6,0-6.5-2.9-6.5-6.5
		V106.2L98.6,106.2z M154.2,110.5l24,24c1.2,1.2,1.9,2.9,1.9,4.6c0,5.7-6.9,8.7-11,4.6L154.2,129V110.5L154.2,110.5z M126.4,145.5
		l12.4,12.2l-31.2,53.6c-3.7,6.3-12.8,5.5-15.2-1.3c-0.8-2.3-0.7-4.8,0.6-7L126.4,145.5L126.4,145.5z M211.2,197.6h-19l10.5,27.3
		H229L211.2,197.6L211.2,197.6z M71.8,197.6h19l-10.5,27.3H54.1L71.8,197.6L71.8,197.6z M149.9,197.6h-16.8l-3.6,27.3h24.1
		L149.9,197.6L149.9,197.6z"/>
</g>
</svg>
