<?xml version="1.0" encoding="utf-8"?>
<svg version="1.1"
	 xmlns="http://www.w3.org/2000/svg"
	 x="0px" y="0px" viewBox="0 0 283.5 283.5" enable-background="new 0 0 283.5 283.5" xml:space="preserve">
<g>
	<path fill-rule="evenodd" clip-rule="evenodd" fill="#FFFFFF" stroke="#000000" stroke-width="0.5669" stroke-miterlimit="22.9256" d="
		M18.6,0h246.3c10.2,0,18.6,8.4,18.6,18.6v246.3c0,10.2-8.4,18.6-18.6,18.6H18.6C8.4,283.5,0,275.1,0,264.9V18.6C0,8.4,8.4,0,18.6,0
		L18.6,0z"/>
	<path fill-rule="evenodd" clip-rule="evenodd" fill="#3298DF" d="M18.7,8h246.2c5.9,0,10.7,4.8,10.7,10.7v246.2
		c0,5.9-4.8,10.7-10.7,10.7c-167.8,0-78.3,0-246.2,0c-5.9,0-10.7-4.8-10.7-10.7V18.7C8,12.8,12.8,8,18.7,8L18.7,8z M134.5,231.1H259
		c4.9,0,5.2-4.3,3.9-6.4c-6.3-10.5-13.3-23-19.5-33.7L146.6,22.5c-3.1-5.4-6.6-5.4-9.7,0L26.7,214.1c-2,3.5-4,7.1-6.2,10.6
		c-1.3,2.1-0.5,6.4,3.9,6.4C61.2,231.1,97.8,231.1,134.5,231.1L134.5,231.1z"/>
	<path d="M124.1,68.3c-2.8,10.8,6.1,20.6,16.9,15.2c5.9-3,11.8-7.2,11.7-15.1C152.4,52.4,127.9,53.8,124.1,68.3L124.1,68.3z
		 M184.9,106.2c-1.1-4.9-3.9-6-7.7-8.3c-2.5-1.5-23.2-13.7-24.9-14.1c-4.9-1.2-7.1,0.7-11.5,3.2c-1.6,1-3.3,1.9-4.9,2.9
		c-3.3,2-3.3,3-3.3,6.6c-0.1,5.6,0.2,41-0.1,41.4c-0.7,1-20.2,19.9-21,21.2c-0.9,1.6-2.2,7.5-2.6,9.4l-8.7,36.8
		c-1.2,5.2,2.7,10.2,8,10.2c3.8,0,7.1-2.6,8-6.3c1-4.4,7.9-34.4,8.8-36.1c0.9-1.8,5.9-6.3,7.6-8c6.8-6.8,13.7-13.7,20.5-20.6
		c1.2-1.2,5.4-5,6-6.4c0.9-2,0.6-16,0.6-18l0-17.3c2,0.5,11.5,6.8,12,7.8c0.5,1.1,0.3,22.1,0.3,25c0,3.6,2.9,6.5,6.5,6.5
		c3.6,0,6.5-2.9,6.5-6.5V106.2L184.9,106.2z M129.3,110.5l-24,24c-1.2,1.2-1.9,2.9-1.9,4.6c0,5.7,6.9,8.7,11,4.6l14.9-14.7V110.5
		L129.3,110.5z M157.1,145.5l-12.4,12.2l31.2,53.6c3.7,6.3,12.8,5.5,15.2-1.3c0.8-2.3,0.7-4.8-0.6-7L157.1,145.5L157.1,145.5z
		 M72.3,197.6h19l-10.5,27.3H54.5L72.3,197.6L72.3,197.6z M211.6,197.6h-19l10.5,27.3h26.2L211.6,197.6L211.6,197.6z M133.5,197.6
		h16.8l3.6,27.3h-24.1L133.5,197.6L133.5,197.6z"/>
</g>
</svg>
