<?xml version="1.0" encoding="utf-8"?>
<svg version="1.1"
	 xmlns="http://www.w3.org/2000/svg"
	 x="0px" y="0px" viewBox="0 0 284 425.2" enable-background="new 0 0 284 425.2" xml:space="preserve">
<g>
	
		<path fill-rule="evenodd" clip-rule="evenodd" fill="#FFFFFF" stroke="#000000" stroke-width="0.5669" stroke-miterlimit="22.9256" d="
		M14.4,0.3h255.2c7.8,0,14.1,6.4,14.1,14.1v396.3c0,7.8-6.4,14.1-14.1,14.1H14.4c-7.8,0-14.1-6.4-14.1-14.1V14.4
		C0.3,6.6,6.6,0.3,14.4,0.3L14.4,0.3z"/>
	<path fill-rule="evenodd" clip-rule="evenodd" fill="#168C30" d="M15.4,6.3h110.5L99.6,107.5h34.3l3.3-101.3h9.7l3.3,101.3h33.5
		l-8.4,13.3H6.5V15.1C6.5,10.2,10.5,6.3,15.4,6.3L15.4,6.3z M184.2,106.7L158.1,6.3h89.5L184.2,106.7L184.2,106.7z M277.5,36.4v84.4
		h-53.3L277.5,36.4L277.5,36.4z M277.5,136.8v273.3c0,4.9-4,8.8-8.8,8.8h-3.1l-67-257.5l14.9-23.6l8.7,29.9h16.1v-31.1H277.5
		L277.5,136.8z M156.9,150h-5.3l0.3,8l-20.7,32.8l1.3-40.8H88.5l-48,184.3l-34,53.9V136.8h39.3v31.1h16.1l9.1-31.1h94.3L156.9,150
		L156.9,150z M154.3,231.5l6.2,187.4h-36.8l4.8-146.5L154.3,231.5L154.3,231.5z"/>
	<path fill-rule="evenodd" clip-rule="evenodd" fill="#B92B1E" d="M247.6,6.4l0-0.1h21.1c4.9,0,8.8,4,8.8,8.8v21.3L36,418.9H15.4
		c-4.9,0-8.8-4-8.8-8.8v-22L247.6,6.4L247.6,6.4z"/>
</g>
</svg>
