<?xml version="1.0" encoding="utf-8"?>
<svg version="1.1"
	 xmlns="http://www.w3.org/2000/svg"
	 x="0px" y="0px" viewBox="0 0 284 284" enable-background="new 0 0 284 284" xml:space="preserve">
<g>
	
		<path fill-rule="evenodd" clip-rule="evenodd" fill="#FFFFFF" stroke="#000000" stroke-width="0.5669" stroke-miterlimit="22.9256" d="
		M18.9,0.3h246.3c10.2,0,18.6,8.4,18.6,18.6v246.3c0,10.2-8.4,18.6-18.6,18.6H18.9c-10.2,0-18.6-8.4-18.6-18.6V18.9
		C0.3,8.6,8.6,0.3,18.9,0.3L18.9,0.3z"/>
	<path fill-rule="evenodd" clip-rule="evenodd" fill="#3298DF" d="M18.9,8.3h246.2c5.9,0,10.7,4.8,10.7,10.7v246.2
		c0,5.9-4.8,10.7-10.7,10.7c-167.8,0-78.3,0-246.2,0c-5.9,0-10.7-4.8-10.7-10.7V18.9C8.3,13.1,13.1,8.3,18.9,8.3L18.9,8.3z
		 M134.8,231.4h124.5c4.9,0,5.2-4.3,3.9-6.4c-6.3-10.5-13.3-23-19.5-33.7L146.9,22.8c-3.1-5.4-6.6-5.4-9.7,0L27,214.4
		c-2,3.5-4,7.1-6.2,10.6c-1.3,2.1-0.5,6.4,3.9,6.4C61.5,231.4,98.1,231.4,134.8,231.4L134.8,231.4z"/>
	<path fill-rule="evenodd" clip-rule="evenodd" d="M142,164.7c10.5,0,21.8,2.4,31.5,6.3c17.1,7,23.6,21.3,39.1,21.3h22v9.9H49.3
		v-9.9h22c15.6,0,22.1-14.3,39.1-21.3C120.2,167,131.5,164.7,142,164.7L142,164.7z"/>
</g>
</svg>
