<?xml version="1.0" encoding="utf-8"?>
<svg version="1.1"
	 xmlns="http://www.w3.org/2000/svg"
	 x="0px" y="0px" viewBox="0 0 189.8 284" enable-background="new 0 0 189.8 284" xml:space="preserve">
<g>
	
		<path fill-rule="evenodd" clip-rule="evenodd" fill="#FFFFFF" stroke="#000000" stroke-width="0.5669" stroke-miterlimit="22.9256" d="
		M14.8,0.3H175c8,0,14.5,6.5,14.5,14.5v254.5c0,8-6.5,14.5-14.5,14.5H14.8c-8,0-14.5-6.5-14.5-14.5V14.8C0.3,6.8,6.8,0.3,14.8,0.3
		L14.8,0.3z"/>
	<path fill-rule="evenodd" clip-rule="evenodd" fill="#3298DF" d="M14.9,6.5h109.5v111.8h58.9v150.9c0,4.6-3.8,8.3-8.3,8.3h-160
		c-4.6,0-8.3-3.8-8.3-8.3V14.8C6.6,10.2,10.3,6.5,14.9,6.5L14.9,6.5z M130.3,6.5H142v17.6h17.6V6.5h14.7v17.6h8.9V36h-8.9v23.5h8.9
		v11.9h-8.9v23.5h8.9v17.7h-52.9V6.5L130.3,6.5z M56.2,120.2c4.2,0.5,9.4,3.6,10.6,7.9c1,3.7-0.4,10.7-4.8,11.5
		c-2.5,0.5-4,0.1-6.3-0.9c-4.4-2-10.3-6.3-9.7-11.7C46.6,121.5,51.3,119.6,56.2,120.2L56.2,120.2z M28.3,156.3
		c0.7-3.3,2.7-4.1,5.3-5.7c1.7-1,15.9-9.3,17-9.6c3.4-0.8,4.9,0.4,7.9,2.2c1.1,0.7,2.2,1.3,3.4,2c2.2,1.4,2.2,2,2.3,4.5
		c0.1,3.8-0.1,28,0.1,28.3c0.5,0.7,13.8,13.6,14.3,14.5c0.6,1.1,1.5,5.2,1.8,6.4l5.9,25.2c0.8,3.5-1.8,7-5.5,7
		c-2.6,0-4.9-1.8-5.5-4.3c-0.7-3-5.4-23.5-6-24.7c-0.6-1.2-4.1-4.3-5.2-5.5c-4.7-4.7-9.3-9.4-14-14.1c-0.8-0.8-3.7-3.4-4.1-4.4
		c-0.6-1.4-0.4-10.9-0.4-12.3l0-11.9c-1.3,0.3-7.9,4.7-8.2,5.4c-0.4,0.7-0.2,15.1-0.2,17.1c0,2.4-2,4.4-4.4,4.4
		c-2.4,0-4.4-2-4.4-4.4V156.3L28.3,156.3z M66.3,159.5l16.4,16.4c0.8,0.8,1.3,2,1.3,3.1c0,3.9-4.7,5.9-7.5,3.2l-10.2-10V159.5
		L66.3,159.5z M47.3,183.2l8.4,8.3l-21.3,36.6c-2.5,4.3-8.7,3.8-10.4-0.9c-0.6-1.6-0.5-3.3,0.4-4.8L47.3,183.2L47.3,183.2z
		 M142,71.3h17.6v23.5H142V71.3L142,71.3z M142,36h17.6v23.5H142V36L142,36z M156.1,186.4c-1.5,0-2.8,0.8-3.6,2.1l-16.7,28.8
		c-0.9,1.5-1,2.2-0.1,3.8c0.7,1.2,5.6,9.5,5.6,10.2c-0.1,0.9-3.6,3.1-4.6,3.8c-1.8,1.3-1.7,1.5-2.7,3.3L122,258.8
		c-0.4,0.7-0.6,1.6-0.6,2.4c0,4.8,6.4,6.6,8.9,2.4l9.2-15.7c1.2-2,2.2-4.5,4.2-5.8l11.8-7.4c2.2-1.4,1.9-3.3,0.6-5.3l-7.7-13.2
		c-1.3-2.2-0.8-2.6,0.4-4.7l10.9-19C161.3,189.9,159.3,186.4,156.1,186.4L156.1,186.4z M169.8,247.9c6.2,0,6.2,9.5,0,9.5
		c-1.8,0-11.4,0.1-12.2-0.1c-1.7-0.5-3.1-3.5-3.9-4.9l-5.9-10.2l8.1-5.1l5.9,10.3c0.4,0.7,0.5,0.6,1.6,0.6H169.8L169.8,247.9z
		 M137.9,228.9l-4.1-7.2l-5.7,3.3c-0.8,0.4-0.9,0.3-1.3-0.4l-3.7-6.4c-2.8-4.8-9.7-0.6-6.9,4.2l6.6,11.4c0.8,1.4,2.4,2.4,3.9,1.5
		L137.9,228.9L137.9,228.9z M130.1,195.7c-2.9,2.3-5.4,7-4.3,10.7c1.2,4.1,7.7,10.8,13,2.8C146.9,197,137.9,189.6,130.1,195.7
		L130.1,195.7z M100.7,247.5c5.1,0,9.2,4.1,9.2,9.2c0,5.1-4.1,9.2-9.2,9.2c-5.1,0-9.2-4.1-9.2-9.2
		C91.5,251.6,95.6,247.5,100.7,247.5L100.7,247.5z M89.8,56.4c3,0,5.5,2.5,5.5,5.5s-2.5,5.5-5.5,5.5c-3,0-5.5-2.5-5.5-5.5
		S86.8,56.4,89.8,56.4L89.8,56.4z M47.3,56.4c3,0,5.5,2.5,5.5,5.5s-2.5,5.5-5.5,5.5c-3,0-5.5-2.5-5.5-5.5S44.3,56.4,47.3,56.4
		L47.3,56.4z M52.8,83.2c0,3-2.5,5.5-5.5,5.5c-3,0-5.5-2.5-5.5-5.5l0,0v-7.5h11V83.2L52.8,83.2L52.8,83.2z M95.3,83.2L95.3,83.2
		v-7.5h-11v7.5l0,0c0,3,2.5,5.5,5.5,5.5C92.9,88.7,95.3,86.2,95.3,83.2L95.3,83.2z M52.7,36.9h31.7c1.6,0,2.4,1.4,2.9,2.9l4.2,13
		H45.6l4-13C50.1,38.3,51.1,36.9,52.7,36.9L52.7,36.9z M95,52.7c2.2,0,4,1.8,4,4v14c0,2.2-1.8,4-4,4H42.1c-2.2,0-4-1.8-4-4v-14
		c0-2.2,1.8-4,4-4l5.2-15.9c0.6-1.8,1.6-3.5,3.5-3.5h35.6c1.9,0,2.9,1.7,3.5,3.5L95,52.7L95,52.7z"/>
</g>
</svg>
