<?xml version="1.0" encoding="utf-8"?>
<svg version="1.1"
	 xmlns="http://www.w3.org/2000/svg"
	 x="0px" y="0px" viewBox="0 0 189.8 284" enable-background="new 0 0 189.8 284" xml:space="preserve">
<g>
	
		<path fill-rule="evenodd" clip-rule="evenodd" fill="#FFFFFF" stroke="#000000" stroke-width="0.5669" stroke-miterlimit="22.9256" d="
		M14.8,0.3H175c8,0,14.5,6.5,14.5,14.5v254.5c0,8-6.5,14.5-14.5,14.5H14.8c-8,0-14.5-6.5-14.5-14.5V14.8C0.3,6.8,6.8,0.3,14.8,0.3
		L14.8,0.3z"/>
	<path fill-rule="evenodd" clip-rule="evenodd" fill="#3298DF" d="M14.9,6.5h109.5v65.8l-55.9,89.3l-2-2.1v5.3l-2.2,3.5
		c0-7.3,0.1-16.3,0-18.6c0-2.5,0-3.1-2.3-4.5c-1.1-0.7-2.2-1.3-3.4-2c-3-1.8-4.5-3-7.9-2.2c-1.2,0.3-15.3,8.6-17,9.6
		c-2.6,1.6-4.6,2.4-5.3,5.7v20.1c0,2.4,2,4.4,4.4,4.4c2.4,0,4.4-2,4.4-4.4c0-2-0.2-16.3,0.2-17.1c0.3-0.7,6.9-5,8.2-5.4l0,11.9
		c0,1.3-0.2,10.9,0.4,12.3c0.4,0.9,3.3,3.6,4.1,4.4l3.2,3.2l-1.3,2.1l-4.6-4.6l-22.9,39.3c-0.8,1.5-1,3.2-0.4,4.8
		c0.4,1,0.9,1.8,1.7,2.4L6.6,260.2V14.8C6.6,10.2,10.3,6.5,14.9,6.5L14.9,6.5z M124.3,117.9v0.4h58.9v150.9c0,4.6-3.8,8.3-8.3,8.3
		H24.3l45.7-73c1.5,5.8,4.7,19.8,5.3,22.2c0.6,2.5,2.9,4.3,5.5,4.3c3.7,0,6.3-3.4,5.5-7L80.3,199c-0.3-1.3-1.2-5.3-1.8-6.4
		c-0.1-0.1-0.3-0.3-0.6-0.7L124.3,117.9L124.3,117.9z M130.3,6.5H142v17.6h12.5L147.1,36h-5v8.1l-11.7,18.7V6.5L130.3,6.5z
		 M159.6,15.9V6.5h5.9L159.6,15.9L159.6,15.9z M183.1,24.1h0.1V36h-7.6L183.1,24.1L183.1,24.1z M174.3,38.1v21.4h8.9v11.9h-8.9v23.5
		h8.9v17.7h-52.9v-4.1L142,89.7v5.1h17.6V71.3h-6.1L174.3,38.1L174.3,38.1z M56.2,120.2c4.2,0.5,9.4,3.6,10.6,7.9
		c1,3.7-0.4,10.7-4.8,11.5c-2.5,0.5-4,0.1-6.3-0.9c-4.4-2-10.3-6.3-9.7-11.7C46.6,121.5,51.3,119.6,56.2,120.2L56.2,120.2z
		 M156.1,186.4c-1.5,0-2.8,0.8-3.6,2.1l-16.7,28.8c-0.9,1.5-1,2.2-0.1,3.8c0.7,1.2,5.6,9.5,5.6,10.2c-0.1,0.9-3.6,3.1-4.6,3.8
		c-1.8,1.3-1.7,1.5-2.7,3.3L122,258.8c-0.4,0.7-0.6,1.6-0.6,2.4c0,4.8,6.4,6.6,8.9,2.4l9.2-15.7c1.2-2,2.2-4.5,4.2-5.8l11.8-7.4
		c2.2-1.4,1.9-3.3,0.6-5.3l-7.7-13.2c-1.3-2.2-0.8-2.6,0.4-4.7l10.9-19C161.3,189.9,159.3,186.4,156.1,186.4L156.1,186.4z
		 M169.8,247.9c6.2,0,6.2,9.5,0,9.5c-1.8,0-11.4,0.1-12.2-0.1c-1.7-0.5-3.1-3.5-3.9-4.9l-5.9-10.2l8.1-5.1l5.9,10.3
		c0.4,0.7,0.5,0.6,1.6,0.6H169.8L169.8,247.9z M137.9,228.9l-4.1-7.2l-5.7,3.3c-0.8,0.4-0.9,0.3-1.3-0.4l-3.7-6.4
		c-2.8-4.8-9.7-0.6-6.9,4.2l6.6,11.4c0.8,1.4,2.4,2.4,3.9,1.5L137.9,228.9L137.9,228.9z M130.1,195.7c-2.9,2.3-5.4,7-4.3,10.7
		c1.2,4.1,7.7,10.8,13,2.8C146.9,197,137.9,189.6,130.1,195.7L130.1,195.7z M100.7,247.5c5.1,0,9.2,4.1,9.2,9.2
		c0,5.1-4.1,9.2-9.2,9.2c-5.1,0-9.2-4.1-9.2-9.2C91.5,251.6,95.6,247.5,100.7,247.5L100.7,247.5z M89.8,56.4c3,0,5.5,2.5,5.5,5.5
		s-2.5,5.5-5.5,5.5c-3,0-5.5-2.5-5.5-5.5S86.8,56.4,89.8,56.4L89.8,56.4z M47.3,56.4c3,0,5.5,2.5,5.5,5.5s-2.5,5.5-5.5,5.5
		c-3,0-5.5-2.5-5.5-5.5S44.3,56.4,47.3,56.4L47.3,56.4z M52.8,83.2c0,3-2.5,5.5-5.5,5.5c-3,0-5.5-2.5-5.5-5.5l0,0v-7.5h11V83.2
		L52.8,83.2L52.8,83.2z M95.3,83.2L95.3,83.2v-7.5h-11v7.5l0,0c0,3,2.5,5.5,5.5,5.5C92.9,88.7,95.3,86.2,95.3,83.2L95.3,83.2z
		 M52.7,36.9h31.7c1.6,0,2.4,1.4,2.9,2.9l4.2,13H45.6l4-13C50.1,38.3,51.1,36.9,52.7,36.9L52.7,36.9z M95,52.7c2.2,0,4,1.8,4,4v14
		c0,2.2-1.8,4-4,4H42.1c-2.2,0-4-1.8-4-4v-14c0-2.2,1.8-4,4-4l5.2-15.9c0.6-1.8,1.6-3.5,3.5-3.5h35.6c1.9,0,2.9,1.7,3.5,3.5L95,52.7
		L95,52.7z"/>
	<path fill-rule="evenodd" clip-rule="evenodd" fill="#B92B1E" d="M174.9,6.5h-9.4L6.6,260.2v9c0,4.6,3.8,8.3,8.3,8.3h9.4
		L183.2,23.9v-9.1C183.2,10.2,179.5,6.5,174.9,6.5L174.9,6.5z"/>
</g>
</svg>
