<?xml version="1.0" encoding="utf-8"?>
<svg version="1.1"
	 xmlns="http://www.w3.org/2000/svg"
	 x="0px" y="0px" viewBox="0 0 340.7 114.6" enable-background="new 0 0 340.7 114.6" xml:space="preserve">
<g>
	
		<path fill-rule="evenodd" clip-rule="evenodd" fill="#FFFFFF" stroke="#000000" stroke-width="0.5669" stroke-miterlimit="22.9256" d="
		M15.4,0.3h309.9c8.3,0,15.1,6.8,15.1,15.1v83.8c0,8.3-6.8,15.1-15.1,15.1H15.4c-8.3,0-15.1-6.8-15.1-15.1V15.4
		C0.3,7.1,7.1,0.3,15.4,0.3L15.4,0.3z"/>
	<path fill-rule="evenodd" clip-rule="evenodd" d="M16.4,6.3h308c5.4,0,9.8,4.4,9.8,9.8v82.3c0,5.4-4.4,9.8-9.8,9.8h-308
		c-5.4,0-9.8-4.4-9.8-9.8V16.2C6.6,10.8,11,6.3,16.4,6.3L16.4,6.3z M15.4,3.6h309.9c6.3,0,11.5,5.2,11.5,11.5v84.5
		c0,6.3-5.2,11.5-11.5,11.5H15.4c-6.3,0-11.5-5.2-11.5-11.5V15.1C3.9,8.7,9.1,3.6,15.4,3.6L15.4,3.6z M23.3,97.4h294.2V34.2
		l-20.4-5.9l-20.4,5.9v39.5h-4.2V61.9l-28.7-13.7L215,61.9v11.8h-4.7v-5.6l-14.1-11.3h-16.8v-2.8h-18.2v2.8h-16.8l-14.1,11.3v5.6
		h-4.7v-9.1l-23-47.8l-23,47.8v9.3H75V62.4l-25.9-8.8l-25.9,8.8V97.4L23.3,97.4z"/>
</g>
</svg>
