<?xml version="1.0" encoding="utf-8"?>
<svg version="1.1"
	 xmlns="http://www.w3.org/2000/svg"
	 x="0px" y="0px" viewBox="0 0 344.4 115.9" enable-background="new 0 0 344.4 115.9" xml:space="preserve">
<g>
	
		<path fill-rule="evenodd" clip-rule="evenodd" fill="#FFFFFF" stroke="#000000" stroke-width="0.5669" stroke-miterlimit="22.9256" d="
		M15.6,0.3h313.3c8.4,0,15.3,6.9,15.3,15.3v84.7c0,8.4-6.9,15.3-15.3,15.3H15.6c-8.4,0-15.3-6.9-15.3-15.3V15.6
		C0.3,7.2,7.2,0.3,15.6,0.3L15.6,0.3z"/>
	<path fill-rule="evenodd" clip-rule="evenodd" d="M16.5,6.4h311.4c5.5,0,9.9,4.5,9.9,9.9v83.2c0,5.5-4.5,9.9-9.9,9.9H16.5
		c-5.5,0-9.9-4.5-9.9-9.9V16.3C6.6,10.9,11.1,6.4,16.5,6.4L16.5,6.4z M15.6,3.6h313.3c6.4,0,11.6,5.2,11.6,11.6v85.4
		c0,6.4-5.2,11.6-11.6,11.6H15.6C9.2,112.2,4,107,4,100.6V15.2C4,8.8,9.2,3.6,15.6,3.6L15.6,3.6z M60.9,98.4h260V34.6l-11.5-3.4
		l-29.7,8v35.2h-4.2V62.6l-29.1-13.9l-29.1,13.9v11.9h-4.8v-5.7L202,60.3L60.9,98.4L60.9,98.4z M124.6,60.3L103.7,17L80.5,65.3v7
		L124.6,60.3L124.6,60.3z M75.9,73.5V63.1l-26.2-8.9l-26.2,8.9v24.5L75.9,73.5L75.9,73.5z"/>
	<path fill-rule="evenodd" clip-rule="evenodd" fill="#B92B1E" d="M10.3,94.2l310.9-84.1h7.3c3.1,0,5.7,2.6,5.7,5.7v5.8L22.9,105.8
		H16c-3.1,0-5.7-2.6-5.7-5.7V94.2L10.3,94.2z"/>
</g>
</svg>
