<?xml version="1.0" encoding="utf-8"?>
<svg version="1.1"
	 xmlns="http://www.w3.org/2000/svg"
	 x="0px" y="0px" viewBox="0 0 284 425.1" enable-background="new 0 0 284 425.1" xml:space="preserve">
<g>
	
		<path fill-rule="evenodd" clip-rule="evenodd" fill="#FFFFFF" stroke="#000000" stroke-width="0.5669" stroke-miterlimit="22.9256" d="
		M18.4,0.3h247.2c10,0,18.1,8.2,18.1,18.1v388.3c0,10-8.2,18.1-18.1,18.1H18.4c-10,0-18.1-8.2-18.1-18.1V18.4
		C0.3,8.4,8.4,0.3,18.4,0.3L18.4,0.3z"/>
	<path fill-rule="evenodd" clip-rule="evenodd" d="M19.1,8.2H265c5.8,0,10.6,4.8,10.6,10.6v387.5c0,5.8-4.8,10.6-10.6,10.6H19.1
		c-5.8,0-10.6-4.8-10.6-10.6V18.8C8.5,13,13.2,8.2,19.1,8.2L19.1,8.2z M19.7,12.2h244.6c4.1,0,7.5,3.4,7.5,7.5v385.7
		c0,4.1-3.4,7.5-7.5,7.5H19.7c-4.1,0-7.5-3.4-7.5-7.5V19.7C12.2,15.6,15.6,12.2,19.7,12.2L19.7,12.2z"/>
	<path fill-rule="evenodd" clip-rule="evenodd" fill="#B92B1E" d="M197,286.3L76.9,166.2c-12.6,14.8-20.1,34-20.1,55
		c0,47.1,38.2,85.2,85.2,85.2C163,306.5,182.2,298.9,197,286.3L197,286.3z M87.1,156.1l120.1,120.1c12.5-14.8,20.1-34,20.1-55
		c0-47.1-38.2-85.2-85.2-85.2C121.1,136,101.9,143.6,87.1,156.1L87.1,156.1z M142,117.9c57.1,0,103.4,46.3,103.4,103.4
		c0,57.1-46.3,103.4-103.4,103.4c-57.1,0-103.4-46.3-103.4-103.4C38.7,164.1,84.9,117.9,142,117.9L142,117.9z"/>
	<path fill-rule="evenodd" clip-rule="evenodd" fill="#3298DF" d="M192.3,286.1L77.1,170.9c-11.2,14.4-17.2,32-17.2,50.3
		c0,45.3,36.8,82.1,82.1,82.1C160.3,303.3,177.9,297.3,192.3,286.1L192.3,286.1z M91.7,156.3l115.2,115.2
		c11.2-14.4,17.2-32,17.2-50.3c0-45.3-36.8-82.1-82.1-82.1C123.7,139.1,106.1,145.2,91.7,156.3L91.7,156.3z"/>
	<path fill-rule="evenodd" clip-rule="evenodd" d="M148.7,33.3h7.5v16.1h15.1V33.3h7.5v41.8h-7.5V56.5h-15.1v18.6h-7.5V33.3
		L148.7,33.3z M69.8,36.9c3.6-2.7,9.3-4.6,14.7-4.6c6.5,0,13.9,3.5,13.9,11c0,4.7-2.7,7.8-6.5,9.9c12.9,4.5,8.5,23.1-7.6,22.8
		C78.2,76,71.8,74,68.1,70.5l4.7-6.5c2.7,3.6,7.3,5,10.9,5c11,0.1,9.6-12.7,0.7-12.7h-4.2l0-6.4l4.2,0c1.4,0,2.5-0.2,3.2-0.6
		c5-3.1,3.4-10.2-4.2-10.1c-3.5,0.1-6.4,1.5-9.6,4.3L69.8,36.9L69.8,36.9z M204.7,33.3h4.1l14,41.8h-8.6l-2.5-8.4h-7h-7l-2.5,8.4
		h-8.6l14-41.8H204.7L204.7,33.3z M121.8,32.3c9.2,0,16.7,9.8,16.7,21.9c0,12.1-7.5,21.9-16.7,21.9c-9.2,0-16.7-9.8-16.7-21.9
		C105.2,42.1,112.6,32.3,121.8,32.3L121.8,32.3z M204.7,43.4l5,16.4h-5h-5L204.7,43.4L204.7,43.4z M121.8,38.7
		c5.1,0,9.3,6.9,9.3,15.5c0,8.6-4.1,15.5-9.3,15.5c-5.1,0-9.3-6.9-9.3-15.5C112.6,45.7,116.7,38.7,121.8,38.7L121.8,38.7z"/>
	<path d="M173.6,364.7c0,1.4,0,2.4,0.7,3.2c0.6,0.8,1.8,1.2,2.8,1.2c1,0,1.9-0.3,2.7-0.9c0.8-0.6,1.7-1.2,2.1-2
		c-0.1-1.5-0.4-2.9-1.1-4c-0.8-1.3-1.9-2.5-3.2-2.5C175.5,359.7,173.6,362.7,173.6,364.7L173.6,364.7z M177.3,355.2
		c3.5,0,6.4,1.7,8.2,5.1c1.3,2.6,1.6,5.6,1.6,9.3c0,7.2-3.5,14.4-11.3,14.2c-2.1-0.1-4.2-0.6-5.9-1.5l-0.2-5
		c6.3,4.3,12.3,1.7,12.3-6.3c-5.8,5.7-13.3,0.8-13.5-5.8C168.3,360.2,172.7,355.2,177.3,355.2L177.3,355.2z M208,383.7
		c9.1,0,9.9-16.9,4.6-22c-4.5-4.2-12.4-1.6-12.4,10.1C200.1,377,202.1,383.7,208,383.7L208,383.7z M208,379.4
		c-4.6,0-4.3-12.1-2-14.4c1.2-1.2,3.7-1.3,4.8,1.3C212.1,369.3,212.3,379.5,208,379.4L208,379.4z M49.2,360.8l1.4-4.9h17.1v4.9
		c-3.8,4.9-7.6,14.7-9.1,22.4l-6-0.1c1.9-7.7,5.6-15.7,9.4-22.2H49.2L49.2,360.8z M226.5,383.7c9.1,0,9.9-16.9,4.6-22
		c-4.5-4.2-12.4-1.6-12.4,10.1C218.7,377,220.6,383.7,226.5,383.7L226.5,383.7z M226.5,379.4c-4.6,0-4.3-12.1-2-14.4
		c1.2-1.2,3.7-1.3,4.8,1.3C230.6,369.3,230.9,379.5,226.5,379.4L226.5,379.4z M87.9,383.7c9.1,0,9.9-16.9,4.6-22
		C88,357.6,80,360.2,80,371.8C80,377,82,383.7,87.9,383.7L87.9,383.7z M87.9,379.4c-4.6,0-4.3-12.1-2-14.4c1.2-1.2,3.7-1.3,4.8,1.3
		C92,369.3,92.2,379.5,87.9,379.4L87.9,379.4z M106.4,383.7c9.1,0,9.9-16.9,4.6-22c-4.5-4.2-12.4-1.6-12.4,10.1
		C98.6,377,100.5,383.7,106.4,383.7L106.4,383.7z M106.4,379.4c-4.6,0-4.3-12.1-2-14.4c1.2-1.2,3.7-1.3,4.8,1.3
		C110.5,369.3,110.8,379.5,106.4,379.4L106.4,379.4z M164.1,355.9l-0.1,27.2h-5.3l0-20.6l-3.8,2.2l-2-2.4l6.3-6.4L164.1,355.9
		L164.1,355.9z M71.9,376.5c1.8,0,3.2,1.4,3.2,3.2c0,1.8-1.4,3.2-3.2,3.2c-1.8,0-3.2-1.4-3.2-3.2C68.7,378,70.2,376.5,71.9,376.5
		L71.9,376.5z M193.5,376.5c1.8,0,3.2,1.4,3.2,3.2c0,1.8-1.4,3.2-3.2,3.2c-1.8,0-3.2-1.4-3.2-3.2C190.3,378,191.7,376.5,193.5,376.5
		L193.5,376.5z M124.1,369.1h18.3v6h-18.3V369.1L124.1,369.1z"/>
</g>
</svg>
