<?xml version="1.0" encoding="utf-8"?>
<svg version="1.1"
	 xmlns="http://www.w3.org/2000/svg"
	 x="0px" y="0px" viewBox="0 0 284 425.1" enable-background="new 0 0 284 425.1" xml:space="preserve">
<g>
	
		<path fill-rule="evenodd" clip-rule="evenodd" fill="#FFFFFF" stroke="#000000" stroke-width="0.5669" stroke-miterlimit="22.9256" d="
		M18.4,0.3h247.2c10,0,18.1,8.2,18.1,18.1v388.3c0,10-8.2,18.1-18.1,18.1H18.4c-10,0-18.1-8.2-18.1-18.1V18.4
		C0.3,8.4,8.4,0.3,18.4,0.3L18.4,0.3z"/>
	<path fill-rule="evenodd" clip-rule="evenodd" d="M19.1,8.2H265c5.8,0,10.6,4.8,10.6,10.6v387.5c0,5.8-4.8,10.6-10.6,10.6H19.1
		c-5.8,0-10.6-4.8-10.6-10.6V18.8C8.5,13,13.2,8.2,19.1,8.2L19.1,8.2z M148.7,33.3h7.5v16.1h15.1V33.3h7.5v41.8h-7.5V56.5h-15.1
		v18.6h-7.5V33.3L148.7,33.3z M69.8,36.9c3.6-2.7,9.3-4.6,14.7-4.6c6.5,0,13.9,3.5,13.9,11c0,4.7-2.7,7.8-6.5,9.9
		c12.9,4.5,8.5,23.1-7.6,22.8C78.2,76,71.8,74,68.1,70.5l4.7-6.5c2.7,3.6,7.3,5,10.9,5c11,0.1,9.6-12.7,0.7-12.7h-4.2l0-6.4l4.2,0
		c1.4,0,2.5-0.2,3.2-0.6c5-3.1,3.4-10.2-4.2-10.1c-3.5,0.1-6.4,1.5-9.6,4.3L69.8,36.9L69.8,36.9z M204.7,33.3h4.1l13.5,40.1
		l49.4-55.2c-0.7-3.4-3.7-6-7.4-6H19.7c-4.1,0-7.5,3.4-7.5,7.5V308L220.8,75.1h-6.5l-2.5-8.4h-7h-7l-2.5,8.4h-8.6l14-41.8H204.7
		L204.7,33.3z M121.8,32.3c9.2,0,16.7,9.8,16.7,21.9c0,12.1-7.5,21.9-16.7,21.9c-9.2,0-16.7-9.8-16.7-21.9
		C105.2,42.1,112.6,32.3,121.8,32.3L121.8,32.3z M204.7,43.4l5,16.4h-5h-5L204.7,43.4L204.7,43.4z M121.8,38.7
		c5.1,0,9.3,6.9,9.3,15.5c0,8.6-4.1,15.5-9.3,15.5c-5.1,0-9.3-6.9-9.3-15.5C112.6,45.7,116.7,38.7,121.8,38.7L121.8,38.7z
		 M271.8,28.3L12.2,318.2v12.1L271.8,40.3V28.3L271.8,28.3z M271.8,50.5L12.2,340.5v12.1L271.8,62.6V50.5L271.8,50.5z M271.8,72.8
		L12.2,362.7v12.1L271.8,84.9V72.8L271.8,72.8z M271.8,95.1L12.2,385v12.1l259.7-289.9V95.1L271.8,95.1z M271.8,117.3L12.4,407.1
		c0.8,3.3,3.8,5.9,7.3,5.9h244.6c4.1,0,7.5-3.4,7.5-7.5V117.3L271.8,117.3z M124.1,369.1h18.3v6h-18.3V369.1L124.1,369.1z
		 M189,376.5c1.8,0,3.2,1.4,3.2,3.2s-1.4,3.2-3.2,3.2c-1.8,0-3.2-1.4-3.2-3.2S187.2,376.5,189,376.5L189,376.5z M77.3,376.5
		c1.8,0,3.2,1.4,3.2,3.2s-1.4,3.2-3.2,3.2c-1.8,0-3.2-1.4-3.2-3.2S75.6,376.5,77.3,376.5L77.3,376.5z M160.5,355.9l-0.1,27.2h-5.3
		l0-20.6l-3.8,2.2l-2-2.4l6.3-6.4L160.5,355.9L160.5,355.9z M108.3,383.7c9.1,0,9.9-16.9,4.6-22c-4.5-4.2-12.4-1.6-12.4,10.1
		C100.4,377,102.4,383.7,108.3,383.7L108.3,383.7z M108.3,379.4c-4.6,0-4.3-12.1-2-14.4c1.2-1.2,3.7-1.3,4.8,1.3
		C112.3,369.3,112.6,379.5,108.3,379.4L108.3,379.4z M90.3,383.7c9.1,0,9.9-16.9,4.6-22c-4.5-4.2-12.4-1.6-12.4,10.1
		C82.4,377,84.4,383.7,90.3,383.7L90.3,383.7z M90.3,379.4c-4.6,0-4.3-12.1-2-14.4c1.2-1.2,3.7-1.3,4.8,1.3
		C94.4,369.3,94.6,379.5,90.3,379.4L90.3,379.4z M221.5,383.7c9.1,0,9.9-16.9,4.6-22c-4.5-4.2-12.4-1.6-12.4,10.1
		C213.6,377,215.6,383.7,221.5,383.7L221.5,383.7z M221.5,379.4c-4.6,0-4.3-12.1-2-14.4c1.2-1.2,3.7-1.3,4.8,1.3
		C225.6,369.3,225.8,379.5,221.5,379.4L221.5,379.4z M58.3,360.8l1.4-4.9h17.1v4.9c-3.8,4.9-7.6,14.7-9.1,22.4l-6-0.1
		c1.9-7.7,5.6-15.7,9.4-22.2H58.3L58.3,360.8z M203.4,383.7c9.1,0,9.9-16.9,4.6-22c-4.5-4.2-12.4-1.6-12.4,10.1
		C195.5,377,197.5,383.7,203.4,383.7L203.4,383.7z M203.4,379.4c-4.6,0-4.3-12.1-2-14.4c1.2-1.2,3.7-1.3,4.8,1.3
		C207.5,369.3,207.7,379.5,203.4,379.4L203.4,379.4z M174,355.2c3.5,0,6.4,1.7,8.2,5.1c1.3,2.6,1.6,5.6,1.6,9.3
		c0,7.2-3.5,14.4-11.3,14.2c-2.1-0.1-4.2-0.6-5.9-1.5l-0.2-5c6.3,4.3,12.3,1.7,12.3-6.3c-5.8,5.7-13.3,0.8-13.5-5.8
		C165,360.2,169.4,355.2,174,355.2L174,355.2z M170.3,364.7c0,1.4,0,2.4,0.7,3.2c0.6,0.8,1.8,1.2,2.8,1.2c1,0,1.9-0.3,2.7-0.9
		c0.8-0.6,1.7-1.2,2.1-2c-0.1-1.5-0.4-2.9-1.1-4c-0.8-1.3-1.9-2.5-3.2-2.5C172.2,359.7,170.3,362.7,170.3,364.7L170.3,364.7z"/>
	<path fill-rule="evenodd" clip-rule="evenodd" fill="#C7C7C7" d="M197,286.3L156.6,246l9.6-10.7l40.9,40.9
		c22.9-27.1,26.7-65.8,9.1-96.8l12.6-14.1c10.4,16.1,16.4,35.3,16.4,56c0,57.1-46.3,103.4-103.4,103.4c-16.6,0-32.2-3.9-46.1-10.8
		l12.6-14.1C138.3,312.4,172.6,307,197,286.3L197,286.3z M151.8,241.1l-5.7-5.7l9.6-10.7l5.7,5.7L151.8,241.1L151.8,241.1z
		 M141.3,230.6l-5.7-5.7l9.6-10.7l5.7,5.7L141.3,230.6L141.3,230.6z M130.8,220.1l-5.7-5.7l9.6-10.7l5.7,5.7L130.8,220.1
		L130.8,220.1z M120.2,209.6l-5.7-5.7l9.6-10.7l5.7,5.7L120.2,209.6L120.2,209.6z M109.7,199.1l-32.8-32.8
		c-19.9,23.6-25.7,56.4-14.5,85.6l-13.3,14.8c-6.7-13.7-10.5-29.1-10.5-45.4c0-72.1,71.7-121.3,138.3-97.3l-13.3,14.8
		c-27.2-7.1-55.7-0.4-76.7,17.3l32.3,32.3L109.7,199.1L109.7,199.1z M65.4,258.7c1.3,2.6,2.6,5,4.1,7.4l-12.5,14
		c-1.6-2.3-3.1-4.6-4.5-7L65.4,258.7L65.4,258.7z M73.5,272c1.6,2.2,3.3,4.3,5.2,6.3l-12.1,13.6c-1.8-2-3.6-4-5.3-6.1L73.5,272
		L73.5,272z M83.5,283.2c1.9,1.8,4,3.6,6.1,5.2l-12.1,13.5c-2.1-1.7-4.1-3.4-6.1-5.3L83.5,283.2L83.5,283.2z M95.1,292.4
		c2.3,1.5,4.6,2.9,7,4.2l-12.4,13.8c-2.3-1.4-4.6-2.8-6.9-4.4L95.1,292.4L95.1,292.4z M212.5,173.4c-1.5-2.3-3.2-4.4-4.9-6.5
		l12.2-13.6c1.8,2,3.5,4.2,5.1,6.3L212.5,173.4L212.5,173.4z M203,161.7c-1.9-1.9-3.8-3.8-5.9-5.5l12.1-13.5c2,1.7,4,3.6,5.9,5.5
		L203,161.7L203,161.7z M191.8,152c-2.2-1.6-4.5-3.1-6.8-4.4l12.3-13.7c2.3,1.4,4.5,3,6.7,4.6L191.8,152L191.8,152z M178.7,144.3
		c-2.6-1.2-5.2-2.3-7.9-3.3l12.9-14.4c2.6,1.1,5.1,2.4,7.5,3.7L178.7,144.3L178.7,144.3z M192.3,286.1l-37.8-37.8l-43.8,48.9
		C137.8,308.3,169,304.2,192.3,286.1L192.3,286.1z M149.7,243.5l-5.7-5.7L97.2,290c2.3,1.5,4.7,2.9,7.1,4.1L149.7,243.5L149.7,243.5
		z M139.2,233l-5.7-5.7l-48,53.5c1.9,1.8,4,3.6,6.1,5.2L139.2,233L139.2,233z M128.7,222.4l-5.7-5.7l-47.3,52.8
		c1.6,2.2,3.3,4.3,5.1,6.3L128.7,222.4L128.7,222.4z M118.2,211.9l-5.7-5.7l-44.7,50c1.2,2.6,2.6,5.1,4,7.5L118.2,211.9L118.2,211.9
		z M107.6,201.4l-30.5-30.5c-17.4,22.3-21.9,52-12.3,78.3L107.6,201.4L107.6,201.4z M91.7,156.3l29.7,29.7l39.9-44.6
		C137.1,135.6,111.5,141,91.7,156.3L91.7,156.3z M126.2,190.8l5.7,5.7l44.6-49.8c-2.6-1.2-5.2-2.3-7.9-3.2L126.2,190.8L126.2,190.8z
		 M136.8,201.4l5.7,5.7l47.2-52.7c-2.2-1.6-4.5-3-6.9-4.4L136.8,201.4L136.8,201.4z M147.3,211.9l5.7,5.7l47.9-53.5
		c-1.9-1.9-3.8-3.8-5.9-5.5L147.3,211.9L147.3,211.9z M157.8,222.4l5.7,5.7l46.9-52.3c-1.5-2.3-3.2-4.5-4.9-6.6L157.8,222.4
		L157.8,222.4z M168.3,232.9l38.6,38.6c20.1-25.9,22.7-61.3,7.2-89.7L168.3,232.9L168.3,232.9z"/>
</g>
</svg>
