<?xml version="1.0" encoding="utf-8"?>
<svg version="1.1"
	 xmlns="http://www.w3.org/2000/svg"
	 x="0px" y="0px" viewBox="0 0 595.3 841.9" enable-background="new 0 0 595.3 841.9" xml:space="preserve">
<g>
	
		<path fill-rule="evenodd" clip-rule="evenodd" fill="#FFFFFF" stroke="#000000" stroke-width="0.5669" stroke-miterlimit="22.9256" d="
		M173.4,209.2h247.2c10,0,18.1,8.2,18.1,18.1v388.3c0,10-8.2,18.1-18.1,18.1H173.4c-10,0-18.1-8.2-18.1-18.1V227.3
		C155.3,217.3,163.4,209.2,173.4,209.2L173.4,209.2z"/>
	<path fill-rule="evenodd" clip-rule="evenodd" d="M174.1,217.1H420c5.8,0,10.6,4.8,10.6,10.6v387.5c0,5.8-4.8,10.6-10.6,10.6H174.1
		c-5.8,0-10.6-4.8-10.6-10.6V227.7C163.5,221.9,168.2,217.1,174.1,217.1L174.1,217.1z M174.7,221.1h244.6c4.1,0,7.5,3.4,7.5,7.5
		v385.7c0,4.1-3.4,7.5-7.5,7.5H174.7c-4.1,0-7.5-3.4-7.5-7.5V228.6C167.2,224.5,170.6,221.1,174.7,221.1L174.7,221.1z M303.7,242.2
		h7.5v16.1h15.1v-16.1h7.5V284h-7.5v-18.6h-15.1V284h-7.5V242.2L303.7,242.2z M224.8,245.8c3.6-2.7,9.3-4.6,14.7-4.6
		c6.5,0,13.9,3.5,13.9,11c0,4.7-2.7,7.8-6.5,9.9c12.9,4.5,8.5,23.1-7.6,22.8c-6.1-0.1-12.5-2.1-16.2-5.6l4.7-6.5
		c2.7,3.6,7.3,5,10.9,5c11,0.1,9.6-12.7,0.7-12.7h-4.2l0-6.4l4.2,0c1.4,0,2.5-0.2,3.2-0.6c5-3.1,3.4-10.2-4.2-10.1
		c-3.5,0.1-6.4,1.5-9.6,4.3L224.8,245.8L224.8,245.8z M359.7,242.2h4.1l14,41.8h-8.6l-2.5-8.4h-7h-7l-2.5,8.4h-8.6l14-41.8H359.7
		L359.7,242.2z M276.8,241.2c9.2,0,16.7,9.8,16.7,21.9c0,12.1-7.5,21.9-16.7,21.9c-9.2,0-16.7-9.8-16.7-21.9
		C260.2,251,267.6,241.2,276.8,241.2L276.8,241.2z M359.7,252.3l5,16.4h-5h-5L359.7,252.3L359.7,252.3z M276.8,247.6
		c5.1,0,9.3,6.9,9.3,15.5c0,8.6-4.1,15.5-9.3,15.5c-5.1,0-9.3-6.9-9.3-15.5C267.6,254.5,271.7,247.6,276.8,247.6L276.8,247.6z"/>
	<path fill-rule="evenodd" clip-rule="evenodd" fill="#3298DF" d="M204.6,306.9h184.8c4.4,0,8,3.6,8,8v184.8c0,4.4-3.6,8-8,8
		c-126,0-58.8,0-184.8,0c-4.4,0-8-3.6-8-8V314.9C196.6,310.5,200.2,306.9,204.6,306.9L204.6,306.9z M314.5,329.7
		c19.6,0,46.8,18.4,46.8,49.9s-27.2,49.9-46.8,49.9h-37.9V486H254v-56.4V419v-39.4v-49.9H314.5L314.5,329.7z M314.9,352.2
		c11.4,0,23.9,13.3,23.9,27.4c0,14.1-12.6,27.4-23.9,27.4h-38.3v-27.4v-27.4H314.9L314.9,352.2z"/>
</g>
</svg>
