<?xml version="1.0" encoding="utf-8"?>
<svg version="1.1"
	 xmlns="http://www.w3.org/2000/svg"
	 x="0px" y="0px" viewBox="0 0 284 425.2" enable-background="new 0 0 284 425.2" xml:space="preserve">
<g>
	
		<path fill-rule="evenodd" clip-rule="evenodd" fill="#FFFFFF" stroke="#000000" stroke-width="0.5669" stroke-miterlimit="22.9256" d="
		M14.4,0.3h255.2c7.8,0,14.1,6.4,14.1,14.1v396.3c0,7.8-6.4,14.1-14.1,14.1H14.4c-7.8,0-14.1-6.4-14.1-14.1V14.4
		C0.3,6.6,6.6,0.3,14.4,0.3L14.4,0.3z"/>
	<path fill-rule="evenodd" clip-rule="evenodd" fill="#3298DF" d="M15.4,6.3h253.3c4.9,0,8.8,4,8.8,8.8v395c0,4.9-4,8.8-8.8,8.8
		H15.4c-4.9,0-8.8-4-8.8-8.8v-395C6.5,10.2,10.5,6.3,15.4,6.3L15.4,6.3z M210.7,200.3c5.7,0,10.3,4.6,10.3,10.3v36.3
		c0,5.7-4.6,10.3-10.3,10.3H73.3c-5.7,0-10.3-4.6-10.3-10.3v-36.3c0-5.7,4.6-10.3,10.3-10.3L86.7,159c1.6-4.8,4.1-9.1,9.1-9.1h92.3
		c5,0,7.6,4.4,9.1,9.1L210.7,200.3L210.7,200.3z M100.9,159.3h82.3c4.1,0,6.2,3.6,7.5,7.5l11,33.8H82.4l10.4-33.8
		C94,162.9,96.8,159.3,100.9,159.3L100.9,159.3z M211.5,279.4L211.5,279.4V260H183v19.5v0c0,7.9,6.4,14.3,14.3,14.3
		C205.1,293.7,211.5,287.3,211.5,279.4L211.5,279.4z M101.2,279.4c0,7.9-6.4,14.3-14.3,14.3c-7.9,0-14.3-6.4-14.3-14.3v0V260h28.5
		V279.4L101.2,279.4L101.2,279.4z M86.9,210c7.9,0,14.3,6.4,14.3,14.3c0,7.9-6.4,14.3-14.3,14.3c-7.9,0-14.3-6.4-14.3-14.3
		C72.7,216.4,79,210,86.9,210L86.9,210z M197.3,210c7.9,0,14.3,6.4,14.3,14.3c0,7.9-6.4,14.3-14.3,14.3c-7.9,0-14.3-6.4-14.3-14.3
		C183,216.4,189.4,210,197.3,210L197.3,210z"/>
</g>
</svg>
