<?xml version="1.0" encoding="utf-8"?>
<svg version="1.1"
	 xmlns="http://www.w3.org/2000/svg"
	 x="0px" y="0px" viewBox="0 0 284 425.1" enable-background="new 0 0 284 425.1" xml:space="preserve">
<g>
	
		<path fill-rule="evenodd" clip-rule="evenodd" fill="#FFFFFF" stroke="#000000" stroke-width="0.5669" stroke-miterlimit="22.9256" d="
		M18.4,0.3h247.2c10,0,18.1,8.2,18.1,18.1v388.3c0,10-8.2,18.1-18.1,18.1H18.4c-10,0-18.1-8.2-18.1-18.1V18.4
		C0.3,8.4,8.4,0.3,18.4,0.3L18.4,0.3z"/>
	<path fill-rule="evenodd" clip-rule="evenodd" fill="#3298DF" d="M49.6,107.1h142.4l-21.9,24.4c-3.7-1.1-7.3-1.6-10.7-1.6H99v49.9
		V211l-57.4,64.1v-160C41.6,110.7,45.2,107.1,49.6,107.1L49.6,107.1z M201.2,107.1H212l-27.9,31.1c-2.3-1.6-4.7-2.9-7.1-4.1
		L201.2,107.1L201.2,107.1z M221.2,107.1H232l-36.8,41.1c-1.7-2.1-3.6-4-5.6-5.8L221.2,107.1L221.2,107.1z M239.5,108.9
		c1.8,1.5,2.9,3.7,2.9,6.2v2.6l-39.4,44c-1.1-2.8-2.4-5.4-3.8-7.8L239.5,108.9L239.5,108.9z M242.4,127.9V140l-36.1,40.3
		c0-0.2,0-0.3,0-0.5c0-3.7-0.4-7.1-1-10.4L242.4,127.9L242.4,127.9z M242.4,150.2v149.7c0,4.4-3.6,8-8,8H101.2l19.5-21.7h1v-1.1
		l52.1-58.2c13.5-5.1,26.8-17.2,31.1-34.8L242.4,150.2L242.4,150.2z M92,307.9H81.2l19.5-21.7h10.8L92,307.9L92,307.9z M72.1,307.9
		H61.3L99,265.8v12.1L72.1,307.9L72.1,307.9z M52.1,307.9h-2.5c-2.4,0-4.5-1-5.9-2.6L99,243.5v12.1L52.1,307.9L52.1,307.9z
		 M41.6,297.4v-12.1L99,221.2v8.5v3.5L41.6,297.4L41.6,297.4z M162.1,229.6c-0.9,0.1-1.8,0.1-2.6,0.1h-8.3l-29.6,33.1v12.1
		L162.1,229.6L162.1,229.6z M142.1,229.7h-10.8l-9.7,10.8v12.1L142.1,229.7L142.1,229.7z M122.1,229.7h-0.5v0.6L122.1,229.7
		L122.1,229.7z M160.6,152.4c2.8,0.1,5.7,1.1,8.4,2.6l-46.7,52.2h-0.7V196L160.6,152.4L160.6,152.4z M174.5,159.2
		c1.9,1.9,3.7,4,5.1,6.4l-37.3,41.7h-10.8L174.5,159.2L174.5,159.2z M182.7,172.4c0.7,2.4,1.1,4.9,1.1,7.5c0,1.2-0.1,2.4-0.3,3.6
		L162.4,207c-0.9,0.1-1.7,0.2-2.6,0.2h-8.4L182.7,172.4L182.7,172.4z M121.6,185.8v-6v-27.4h29.9L121.6,185.8L121.6,185.8z"/>
	<path fill-rule="evenodd" clip-rule="evenodd" d="M148.7,33.3h7.5v16.1h15.1V33.3h7.5v41.8h-7.5V56.5h-15.1v18.6h-7.5V33.3
		L148.7,33.3z M19.1,8.2H265c5.8,0,10.6,4.8,10.6,10.6v387.5c0,5.8-4.8,10.6-10.6,10.6H19.1c-5.8,0-10.6-4.8-10.6-10.6V18.8
		C8.5,13,13.2,8.2,19.1,8.2L19.1,8.2z M271.8,28.3L12.2,318.2v12.1L271.8,40.3V28.3L271.8,28.3z M12.2,308L220.8,75.1h-6.5l-2.5-8.4
		h-7h-7l-2.5,8.4h-8.6l14-41.8h4.1h4.1l13.5,40.1l49.4-55.2c-0.7-3.4-3.7-6-7.4-6H19.7c-4.1,0-7.5,3.4-7.5,7.5V308L12.2,308z
		 M271.8,50.5L12.2,340.5v12.1L271.8,62.6V50.5L271.8,50.5z M271.8,72.8L12.2,362.7v12.1L271.8,84.9V72.8L271.8,72.8z M271.8,95.1
		L12.2,385v12.1l259.7-289.9V95.1L271.8,95.1z M271.8,117.3L12.4,407.1c0.8,3.3,3.8,5.9,7.3,5.9h244.6c4.1,0,7.5-3.4,7.5-7.5V117.3
		L271.8,117.3z M69.8,36.9c3.6-2.7,9.3-4.6,14.7-4.6c6.5,0,13.9,3.5,13.9,11c0,4.7-2.7,7.8-6.5,9.9c12.9,4.5,8.5,23.1-7.6,22.8
		C78.2,76,71.8,74,68.1,70.5l4.7-6.5c2.7,3.6,7.3,5,10.9,5c11,0.1,9.6-12.7,0.7-12.7h-4.2l0-6.4l4.2,0c1.4,0,2.5-0.2,3.2-0.6
		c5-3.1,3.4-10.2-4.2-10.1c-3.5,0.1-6.4,1.5-9.6,4.3L69.8,36.9L69.8,36.9z M121.8,32.3c9.2,0,16.7,9.8,16.7,21.9
		c0,12.1-7.5,21.9-16.7,21.9c-9.2,0-16.7-9.8-16.7-21.9C105.2,42.1,112.6,32.3,121.8,32.3L121.8,32.3z M204.7,43.4l5,16.4h-5h-5
		L204.7,43.4L204.7,43.4z M121.8,38.7c5.1,0,9.3,6.9,9.3,15.5c0,8.6-4.1,15.5-9.3,15.5c-5.1,0-9.3-6.9-9.3-15.5
		C112.6,45.7,116.7,38.7,121.8,38.7L121.8,38.7z"/>
</g>
</svg>
