<?xml version="1.0" encoding="utf-8"?>
<svg version="1.1"
	 xmlns="http://www.w3.org/2000/svg"
	 x="0px" y="0px" viewBox="0 0 284 425.1" enable-background="new 0 0 284 425.1" xml:space="preserve">
<g>
	
		<path fill-rule="evenodd" clip-rule="evenodd" fill="#FFFFFF" stroke="#000000" stroke-width="0.5669" stroke-miterlimit="22.9256" d="
		M18.4,0.3h247.2c10,0,18.1,8.2,18.1,18.1v388.3c0,10-8.2,18.1-18.1,18.1H18.4c-10,0-18.1-8.2-18.1-18.1V18.4
		C0.3,8.4,8.4,0.3,18.4,0.3L18.4,0.3z"/>
	<path fill-rule="evenodd" clip-rule="evenodd" d="M19.1,8.2H265c5.8,0,10.6,4.8,10.6,10.6v387.5c0,5.8-4.8,10.6-10.6,10.6H19.1
		c-5.8,0-10.6-4.8-10.6-10.6V18.8C8.5,13,13.2,8.2,19.1,8.2L19.1,8.2z M19.7,12.2h244.6c4.1,0,7.5,3.4,7.5,7.5v385.7
		c0,4.1-3.4,7.5-7.5,7.5H19.7c-4.1,0-7.5-3.4-7.5-7.5V19.7C12.2,15.6,15.6,12.2,19.7,12.2L19.7,12.2z M148.7,33.3h7.5v16.1h15.1
		V33.3h7.5v41.8h-7.5V56.5h-15.1v18.6h-7.5V33.3L148.7,33.3z M69.8,36.9c10.2-7.7,28.6-5.7,28.6,6.5c0,4.7-2.7,7.8-6.5,9.9
		c12.9,4.5,8.5,23.1-7.6,22.8C78.2,76,71.8,74,68.1,70.5l4.7-6.5c2.7,3.6,7.3,5,10.9,5c11,0.1,9.6-12.7,0.7-12.7h-4.2l0-6.4
		c2,0,6.1,0.3,7.5-0.6c5-3.1,3.4-10.2-4.2-10.1c-3.5,0.1-6.4,1.5-9.6,4.3L69.8,36.9L69.8,36.9z M204.7,33.3h4.1l14,41.8h-8.6
		l-2.5-8.4h-14.1l-2.5,8.4h-8.6l14-41.8H204.7L204.7,33.3z M121.8,32.3c9.2,0,16.7,9.8,16.7,21.9c0,12.1-7.5,21.9-16.7,21.9
		s-16.7-9.8-16.7-21.9C105.2,42.1,112.6,32.3,121.8,32.3L121.8,32.3z M204.7,43.4l5,16.4h-9.9L204.7,43.4L204.7,43.4z M121.8,38.7
		c5.1,0,9.3,6.9,9.3,15.5c0,8.6-4.1,15.5-9.3,15.5c-5.1,0-9.3-6.9-9.3-15.5C112.6,45.7,116.7,38.7,121.8,38.7L121.8,38.7z
		 M86.8,258.1l-1.3-15.2c8,6.1,34.3,9.8,35.1-5.8c0.7-11.6-12.8-12.5-19.7-10.1v-12.8c20.5-2.5,20.3-19.9,8.3-20.3
		c-5.1-0.2-12.9,3.4-17.4,7l-4.7-13.2c5.5-3.7,16.3-6,23.4-6.1c11.5,0,22.1,6,22.1,18.7c0,7.2-5.4,13.3-13.6,17.3v0.2
		c10.5,1.6,17.3,10.8,17.3,21.2c0,16.5-15.7,22-28.3,22C100.3,261,91.3,260.8,86.8,258.1L86.8,258.1z M171.5,247.3
		c-6.7,0.1-10.1-7.1-11.5-13.3c-1.8-8.1-2.9-34.7,8-38.1c6-1.9,10.8,0.8,13.3,6.6C185.8,212.8,186.6,247.5,171.5,247.3L171.5,247.3z
		 M171.5,261c14.1,0,22.1-12,25-25.1c3.6-16.6,1.5-45.4-16.9-52.7c-11.7-4.6-23.2,1.2-29.1,12.5C140.1,215.3,143.4,261,171.5,261
		L171.5,261z"/>
	<path fill-rule="evenodd" clip-rule="evenodd" fill="#B92B1E" d="M142,117.6c57.1,0,103.4,46.3,103.4,103.4
		c0,57.1-46.3,103.4-103.4,103.4c-57.1,0-103.4-46.3-103.4-103.4C38.7,163.9,84.9,117.6,142,117.6L142,117.6z M142,135.7
		c47.1,0,85.2,38.2,85.2,85.2c0,47.1-38.2,85.2-85.2,85.2c-47.1,0-85.2-38.2-85.2-85.2C56.8,173.9,94.9,135.7,142,135.7L142,135.7z"
		/>
</g>
</svg>
