<?xml version="1.0" encoding="utf-8"?>
<svg version="1.1"
	 xmlns="http://www.w3.org/2000/svg"
	 x="0px" y="0px" viewBox="0 0 284 425.1" enable-background="new 0 0 284 425.1" xml:space="preserve">
<g>
	
		<path fill-rule="evenodd" clip-rule="evenodd" fill="#FFFFFF" stroke="#000000" stroke-width="0.5669" stroke-miterlimit="22.9256" d="
		M18.4,0.3h247.2c10,0,18.1,8.2,18.1,18.1v388.3c0,10-8.2,18.1-18.1,18.1H18.4c-10,0-18.1-8.2-18.1-18.1V18.4
		C0.3,8.4,8.4,0.3,18.4,0.3L18.4,0.3z"/>
	<path fill-rule="evenodd" clip-rule="evenodd" fill="#C7C7C7" d="M171.5,261c14.1,0,22.1-12,25-25.1c2-9.2,2.3-22.2-1.1-33.2
		l-11.4,12.8c0.9,11.7-0.7,26.3-8,30.6c-1.5,0.9-3,1.3-4.5,1.2c-4.5,0-7.6-3.3-9.5-7.3l-9.5,10.6c2.8,4,6.4,7.2,10.9,8.9
		C166.1,260.5,168.7,261,171.5,261L171.5,261z M192.6,195.7c-1.3-2.5-2.9-4.8-4.7-6.8l-8.8,9.9c0.9,1,1.7,2.3,2.3,3.8
		c0.5,1.1,0.9,2.5,1.3,4.2L192.6,195.7L192.6,195.7z M182.5,184.6c-0.9-0.5-1.9-1-2.9-1.4c-1.8-0.7-3.6-1.2-5.4-1.4l-28.8,32.1
		c-0.4,4-0.5,8.2-0.3,12.3l14.5-16.2c1.1-6.8,3.6-12.6,8.4-14.1c1.7-0.5,3.3-0.7,4.8-0.5L182.5,184.6L182.5,184.6z M164,183
		c-5.5,2.1-10.3,6.6-13.5,12.7c-0.7,1.4-1.4,3-2,4.7L164,183L164,183z M146.4,235.2c0.7,3.1,1.6,6.2,2.7,9l10.6-11.8
		c-0.5-2.8-0.8-6.8-0.8-11.1L146.4,235.2L146.4,235.2z M86.8,258.1l-0.1-0.8l9-10.1c3.2,0.7,6.6,1.1,9.9,1l-11,12.2
		C91.5,260,88.7,259.3,86.8,258.1L86.8,258.1z M85.9,247.9l-0.4-5c0.9,0.7,2,1.3,3.2,1.9L85.9,247.9L85.9,247.9z M119.9,232.2
		c-1.1-2.7-3.3-4.4-6-5.3l7.6-8.5c2.8,0.8,5.2,2.1,7.3,3.9L119.9,232.2L119.9,232.2z M105.4,226.1c-1.5,0.1-3,0.4-4.6,0.9v-7.9
		l5.4-6c7.1-2.1,10.8-6.3,11.1-11.7c0-0.2,0-0.4,0-0.7l11-12.2c1.9,2.1,3.2,4.7,3.8,7.8L105.4,226.1L105.4,226.1z M113.5,194.9
		c-1.2-0.6-2.6-1-4.3-1c-5.1-0.2-12.9,3.4-17.4,7l-4.7-13.2c5.5-3.7,16.3-6,23.4-6.1c4.5,0,8.8,0.9,12.4,2.7L113.5,194.9
		L113.5,194.9z M133.2,227.6c1.5,2.6,2.5,5.7,2.9,8.8l-21.6,24.1c-2.2,0.3-4.5,0.5-6.6,0.5c-1.5,0-3,0-4.6,0L133.2,227.6
		L133.2,227.6z M133.5,249.5c-1.2,2.1-2.9,3.8-4.7,5.3L133.5,249.5L133.5,249.5z M142,117.6c12.3,0,24.2,2.2,35.2,6.1l-13.3,14.8
		c-7-1.8-14.3-2.8-21.9-2.8c-47.1,0-85.2,38.2-85.2,85.2c0,10.9,2,21.2,5.7,30.8l-13.3,14.8c-6.8-13.8-10.6-29.2-10.6-45.6
		C38.7,163.9,84.9,117.6,142,117.6L142,117.6z M183.9,126.5c2.6,1.1,5.1,2.4,7.5,3.7l-12.5,14c-2.5-1.2-5.2-2.3-7.8-3.3L183.9,126.5
		L183.9,126.5z M197.4,133.7c2.3,1.5,4.5,3,6.7,4.6l-12.2,13.6c-2.2-1.6-4.5-3.1-6.8-4.4L197.4,133.7L197.4,133.7z M209.4,142.6
		c2,1.7,4,3.6,5.9,5.5l-12.1,13.5c-1.9-1.9-3.8-3.8-5.9-5.5L209.4,142.6L209.4,142.6z M219.9,153.1c1.8,2,3.5,4.2,5.1,6.3
		l-12.4,13.8c-1.5-2.3-3.2-4.5-4.9-6.6L219.9,153.1L219.9,153.1z M229,165.2c10.4,16.1,16.4,35.3,16.4,55.8
		c0,57.1-46.3,103.4-103.4,103.4c-16.5,0-32.1-3.9-45.9-10.7l12.6-14.1c10.2,4.3,21.5,6.7,33.3,6.7c47.1,0,85.2-38.2,85.2-85.2
		c0-15.1-4-29.4-10.9-41.7L229,165.2L229,165.2z M89.9,310.3c-2.3-1.4-4.6-2.8-6.9-4.4l12.2-13.6c2.3,1.5,4.6,2.9,7.1,4.2
		L89.9,310.3L89.9,310.3z M77.6,301.8c-2.1-1.7-4.1-3.4-6.1-5.3L83.6,283c2,1.8,4,3.6,6.1,5.2L77.6,301.8L77.6,301.8z M66.6,291.7
		c-1.8-2-3.6-4-5.3-6.1l12.3-13.7c1.6,2.2,3.3,4.3,5.2,6.3L66.6,291.7L66.6,291.7z M57.2,280c-1.6-2.3-3.1-4.6-4.5-7l12.9-14.4
		c1.3,2.6,2.6,5,4.1,7.4L57.2,280L57.2,280z"/>
	<path fill-rule="evenodd" clip-rule="evenodd" d="M121.8,38.7c5.1,0,9.3,6.9,9.3,15.5c0,8.6-4.1,15.5-9.3,15.5
		c-5.1,0-9.3-6.9-9.3-15.5C112.6,45.7,116.7,38.7,121.8,38.7L121.8,38.7z M19.1,8.2H265c5.8,0,10.6,4.8,10.6,10.6v387.5
		c0,5.8-4.8,10.6-10.6,10.6H19.1c-5.8,0-10.6-4.8-10.6-10.6V18.8C8.5,13,13.2,8.2,19.1,8.2L19.1,8.2z M271.8,28.3L12.2,318.2v12.1
		L271.8,40.3V28.3L271.8,28.3z M12.2,308L220.8,75.1h-6.5l-2.5-8.4h-7h-7l-2.5,8.4h-8.6l14-41.8h4.1h4.1l13.5,40.1l49.4-55.2
		c-0.7-3.4-3.7-6-7.4-6H19.7c-4.1,0-7.5,3.4-7.5,7.5V308L12.2,308z M271.8,50.5L12.2,340.5v12.1L271.8,62.6V50.5L271.8,50.5z
		 M271.8,72.8L12.2,362.7v12.1L271.8,84.9V72.8L271.8,72.8z M271.8,95.1L12.2,385v12.1l259.7-289.9V95.1L271.8,95.1z M271.8,117.3
		L12.4,407.1c0.8,3.3,3.8,5.9,7.3,5.9h244.6c4.1,0,7.5-3.4,7.5-7.5V117.3L271.8,117.3z M204.7,43.4l5,16.4h-5h-5L204.7,43.4
		L204.7,43.4z M121.8,32.3c9.2,0,16.7,9.8,16.7,21.9c0,12.1-7.5,21.9-16.7,21.9s-16.7-9.8-16.7-21.9
		C105.2,42.1,112.6,32.3,121.8,32.3L121.8,32.3z M69.8,36.9c3.6-2.7,9.3-4.6,14.7-4.6c6.5,0,13.9,3.5,13.9,11c0,4.7-2.7,7.8-6.5,9.9
		c12.9,4.5,8.5,23.1-7.6,22.8C78.2,76,71.8,74,68.1,70.5l4.7-6.5c2.7,3.6,7.3,5,10.9,5c11,0.1,9.6-12.7,0.7-12.7h-4.2l0-6.4l4.2,0
		c1.4,0,2.5-0.2,3.2-0.6c5-3.1,3.4-10.2-4.2-10.1c-3.5,0.1-6.4,1.5-9.6,4.3L69.8,36.9L69.8,36.9z M148.7,33.3h7.5v16.1h15.1V33.3
		h7.5v41.8h-7.5V56.5h-15.1v18.6h-7.5V33.3L148.7,33.3z"/>
</g>
</svg>
