<?xml version="1.0" encoding="utf-8"?>
<svg version="1.1"
	 xmlns="http://www.w3.org/2000/svg"
	 x="0px" y="0px" viewBox="0 0 284 425.1" enable-background="new 0 0 284 425.1" xml:space="preserve">
<g>
	
		<path fill-rule="evenodd" clip-rule="evenodd" fill="#FFFFFF" stroke="#080808" stroke-width="0.5669" stroke-miterlimit="22.9256" d="
		M18.4,0.3h247.2c10,0,18.1,8.2,18.1,18.1v388.3c0,10-8.2,18.1-18.1,18.1H18.4c-10,0-18.1-8.2-18.1-18.1V18.4
		C0.3,8.4,8.4,0.3,18.4,0.3L18.4,0.3z"/>
	<path fill-rule="evenodd" clip-rule="evenodd" fill="#080808" d="M148.7,33.3h7.5v16.1h15.1V33.3h7.5v41.8h-7.5V56.5h-15.1v18.6
		h-7.5V33.3L148.7,33.3z M69.8,36.9c3.6-2.7,9.3-4.6,14.7-4.6c6.5,0,13.9,3.5,13.9,11c0,4.7-2.7,7.8-6.5,9.9
		c12.9,4.5,8.5,23.1-7.6,22.8C78.2,76,71.8,74,68.1,70.5l4.7-6.5c2.7,3.6,7.3,5,10.9,5c11,0.1,9.6-12.7,0.7-12.7h-4.2l0-6.4l4.2,0
		c1.4,0,2.5-0.2,3.2-0.6c5-3.1,3.4-10.2-4.2-10.1c-3.5,0.1-6.4,1.5-9.6,4.3L69.8,36.9L69.8,36.9z M204.7,33.3h4.1l14,41.8h-8.6
		l-2.5-8.4h-7h-7l-2.5,8.4h-8.6l14-41.8H204.7L204.7,33.3z M121.8,32.3c9.2,0,16.7,9.8,16.7,21.9c0,12.1-7.5,21.9-16.7,21.9
		c-9.2,0-16.7-9.8-16.7-21.9C105.2,42.1,112.6,32.3,121.8,32.3L121.8,32.3z M204.7,43.4l5,16.4h-5h-5L204.7,43.4L204.7,43.4z
		 M121.8,38.7c5.1,0,9.3,6.9,9.3,15.5c0,8.6-4.1,15.5-9.3,15.5c-5.1,0-9.3-6.9-9.3-15.5C112.6,45.7,116.7,38.7,121.8,38.7
		L121.8,38.7z M19.1,8.2H265c5.8,0,10.6,4.8,10.6,10.6v387.5c0,5.8-4.8,10.6-10.6,10.6H19.1c-5.8,0-10.6-4.8-10.6-10.6V18.8
		C8.5,13,13.2,8.2,19.1,8.2L19.1,8.2z M19.7,12.2h244.6c4.1,0,7.5,3.4,7.5,7.5v385.7c0,4.1-3.4,7.5-7.5,7.5H19.7
		c-4.1,0-7.5-3.4-7.5-7.5V19.7C12.2,15.6,15.6,12.2,19.7,12.2L19.7,12.2z"/>
	<path fill="#080808" d="M142,118.4c28.4,0,54.1,11.5,72.7,30.1c18.6,18.6,30.1,44.3,30.1,72.7c0,28.4-11.5,54.1-30.1,72.7
		c-18.6,18.6-44.3,30.1-72.7,30.1c-28.4,0-54.1-11.5-72.7-30.1c-18.6-18.6-30.1-44.3-30.1-72.7c0-28.4,11.5-54.1,30.1-72.7
		C87.9,129.9,113.6,118.4,142,118.4L142,118.4z M214.4,148.9c-18.5-18.5-44.1-30-72.3-30c-28.3,0-53.8,11.5-72.3,30
		c-18.5,18.5-30,44.1-30,72.3c0,28.3,11.5,53.8,30,72.3s44.1,30,72.3,30c28.2,0,53.8-11.5,72.3-30c18.5-18.5,30-44.1,30-72.3
		C244.3,193,232.9,167.4,214.4,148.9L214.4,148.9z"/>
	<path fill-rule="evenodd" clip-rule="evenodd" fill="#3996D9" d="M142,124.6c53.4,0,96.6,43.3,96.6,96.6
		c0,53.4-43.3,96.6-96.6,96.6c-53.4,0-96.6-43.3-96.6-96.6C45.4,167.9,88.7,124.6,142,124.6L142,124.6z M140.9,152.6
		c5,0.6,11.1,4.3,12.6,9.4c1.2,4.4-0.5,12.7-5.7,13.7c-3,0.6-4.7,0.2-7.4-1.1c-5.2-2.4-12.3-7.5-11.6-13.9
		C129.5,154.1,135.1,151.9,140.9,152.6L140.9,152.6z M107.8,195.6c0.9-3.9,3.2-4.9,6.3-6.8c2-1.2,18.8-11.1,20.2-11.5
		c4-1,5.8,0.5,9.3,2.6c1.3,0.8,2.7,1.6,4,2.4c2.7,1.6,2.7,2.4,2.7,5.4c0.1,4.6-0.1,33.3,0.1,33.6c0.6,0.8,16.4,16.2,17,17.2
		c0.8,1.3,1.8,6.1,2.1,7.6l7.1,29.9c1,4.2-2.2,8.3-6.5,8.3c-3.1,0-5.8-2.1-6.5-5.1c-0.8-3.6-6.4-27.9-7.2-29.3
		c-0.7-1.4-4.8-5.1-6.2-6.5c-5.6-5.6-11.1-11.1-16.6-16.7c-0.9-1-4.4-4.1-4.8-5.2c-0.7-1.6-0.5-13-0.5-14.6l0-14.1
		c-1.6,0.4-9.3,5.5-9.7,6.4c-0.4,0.9-0.2,18-0.2,20.3c0,2.9-2.4,5.3-5.3,5.3c-2.9,0-5.3-2.4-5.3-5.3V195.6L107.8,195.6z M153,199.3
		l19.5,19.5c1,1,1.5,2.3,1.5,3.7c0,4.6-5.6,7-8.9,3.8L153,214.3V199.3L153,199.3z M130.3,227.5l10,9.9L115,280.9
		c-3,5.1-10.4,4.5-12.4-1c-0.7-1.9-0.5-3.9,0.5-5.7L130.3,227.5L130.3,227.5z"/>
</g>
</svg>
