<?xml version="1.0" encoding="utf-8"?>
<svg version="1.1"
	 xmlns="http://www.w3.org/2000/svg"
	 x="0px" y="0px" viewBox="0 0 284 425.1" enable-background="new 0 0 284 425.1" xml:space="preserve">
<g>
	
		<path fill-rule="evenodd" clip-rule="evenodd" fill="#FFFFFF" stroke="#000000" stroke-width="0.5669" stroke-miterlimit="22.9256" d="
		M18.4,0.3h247.2c10,0,18.1,8.2,18.1,18.1v388.3c0,10-8.2,18.1-18.1,18.1H18.4c-10,0-18.1-8.2-18.1-18.1V18.4
		C0.3,8.4,8.4,0.3,18.4,0.3L18.4,0.3z"/>
	<path fill-rule="evenodd" clip-rule="evenodd" fill="#C7C7C7" d="M142,124.6c10.5,0,20.6,1.7,30.1,4.8l-23.5,26.2
		c-2.4-1.7-5.2-2.8-7.7-3c-5.8-0.7-11.5,1.6-12.2,8c-0.5,4.3,2.4,7.9,6,10.6l-10.5,11.8c-4.5,2.6-9.1,5.3-10.1,5.9
		c-3.1,1.9-5.4,2.8-6.3,6.8v5.6l-53.8,60c-5.5-12.2-8.6-25.7-8.6-40C45.4,167.9,88.7,124.6,142,124.6L142,124.6z M179,132
		c2.6,1.1,5.1,2.3,7.6,3.6l-40.9,45.7c-0.7-0.4-1.3-0.8-2-1.2c-2.1-1.2-3.6-2.3-5.3-2.7l2.3-2.6c2.5,1.1,4.2,1.5,7,0.9
		c5.3-1,7-9.3,5.7-13.7c-0.1-0.4-0.2-0.7-0.4-1.1L179,132L179,132z M192.6,139c2.3,1.4,4.6,2.9,6.7,4.5l-49,54.7c0-4.9,0-9,0-10.5
		c0-0.6,0-1.1,0-1.5L192.6,139L192.6,139z M204.7,147.8c2,1.7,4,3.6,5.9,5.5l-49,54.7l-5.7-5.7L204.7,147.8L204.7,147.8z
		 M215.3,158.3c1.8,2.1,3.5,4.2,5.1,6.4l-48.2,53.8l-5.7-5.7L215.3,158.3L215.3,158.3z M224.2,170.5c9.1,14.8,14.4,32.1,14.4,50.8
		c0,53.4-43.3,96.6-96.6,96.6c-14.8,0-28.9-3.3-41.4-9.3l54.3-60.6c0.8,0.8,1.4,1.5,1.6,2c0.7,1.4,6.3,25.8,7.2,29.3
		c0.7,3,3.4,5.1,6.5,5.1c4.3,0,7.5-4.1,6.5-8.3l-7.1-29.9c-0.4-1.5-1.4-6.3-2.1-7.6c-0.1-0.2-0.9-1.1-2.2-2.3L224.2,170.5
		L224.2,170.5z M94.3,305.3c-2.4-1.3-4.7-2.8-6.9-4.3l16.7-18.7c3,3.1,8.4,2.8,10.9-1.4l17.9-30.7l11.5-12.8
		c1.9,1.9,3.8,3.8,5.7,5.7L94.3,305.3L94.3,305.3z M81.9,296.9c-2.1-1.7-4.1-3.4-6.1-5.3l48.9-54.7l-20.1,34.5L81.9,296.9
		L81.9,296.9z M71,286.8c-1.8-2-3.6-4-5.3-6.2l62.5-69.8c0,4,0.1,9.6,0.5,10.7c0.1,0.1,0.2,0.3,0.3,0.5L71,286.8L71,286.8z
		 M61.7,275c-1.6-2.3-3-4.7-4.4-7.2l50.5-56.4v8.1c0,1.1,0.3,2.1,0.9,3L61.7,275L61.7,275z M150.3,208.5c0,5.3,0,10.1,0.1,12
		l4.1-4.6l-1.5-1.5v-8.8L150.3,208.5L150.3,208.5z M154.8,225.8c1.7,1.7,3.8,3.7,5.7,5.7l4.6-5.1l-0.1-0.1l-5.7-5.6L154.8,225.8
		L154.8,225.8z M139.5,232.6l-5.7-5.7l-1.9,2.1l5.7,5.7L139.5,232.6L139.5,232.6z M128.3,200.6l0-7.7c-1.3,0.3-6.6,3.7-8.8,5.5
		l-1,1.1c-0.2,1.3-0.2,7.2-0.2,12.3L128.3,200.6L128.3,200.6z M142,118.4c12.1,0,23.8,2.1,34.6,6l-0.4,0.5
		C165.5,121,154,119,142,119c-28.3,0-53.8,11.5-72.3,30c-18.5,18.5-30,44.1-30,72.3c0,16,3.7,31.1,10.2,44.6l-0.4,0.5
		c-6.6-13.6-10.4-28.9-10.4-45c0-28.4,11.5-54.1,30.1-72.7C87.9,129.9,113.6,118.4,142,118.4L142,118.4z M183.4,127.1
		c2.6,1.1,5.1,2.3,7.5,3.7l-0.4,0.4c-2.4-1.3-5-2.5-7.5-3.7L183.4,127.1L183.4,127.1z M196.9,134.2c2.3,1.4,4.5,3,6.7,4.6l-0.4,0.4
		c-2.2-1.6-4.4-3.1-6.7-4.6L196.9,134.2L196.9,134.2z M208.9,143.1c2,1.7,4,3.5,5.9,5.4l0,0l-0.4,0.4l-0.1-0.1
		c-1.9-1.9-3.8-3.7-5.8-5.4L208.9,143.1L208.9,143.1z M219.5,153.6c1.8,2,3.5,4.2,5.1,6.3l-0.4,0.4c-1.6-2.2-3.3-4.3-5.1-6.3
		L219.5,153.6L219.5,153.6z M228.6,165.7c10.3,16,16.3,35.1,16.3,55.6c0,28.4-11.5,54.1-30.1,72.7c-18.6,18.6-44.3,30.1-72.7,30.1
		c-16.4,0-32-3.9-45.8-10.7l0.4-0.4c13.7,6.8,29.1,10.6,45.4,10.6c28.2,0,53.8-11.5,72.3-30s30-44.1,30-72.3
		c0-20.3-5.9-39.3-16.1-55.2L228.6,165.7L228.6,165.7z M90.1,310.1c-2.3-1.4-4.6-2.8-6.9-4.4l0.4-0.4c2.2,1.6,4.5,3,6.9,4.4
		L90.1,310.1L90.1,310.1z M77.7,301.6c-2.1-1.7-4.1-3.4-6.1-5.3l0.4-0.4c2,1.8,4,3.6,6.1,5.3L77.7,301.6L77.7,301.6z M66.8,291.5
		c-1.8-2-3.6-4-5.3-6.1l0.4-0.4c1.7,2.1,3.5,4.2,5.3,6.1L66.8,291.5L66.8,291.5z M57.4,279.8c-1.6-2.3-3.1-4.6-4.5-7.1l0.4-0.4
		c1.4,2.4,2.9,4.8,4.5,7.1L57.4,279.8L57.4,279.8z"/>
	<path fill-rule="evenodd" clip-rule="evenodd" d="M148.7,33.3h7.5v16.1h15.1V33.3h7.5v41.8h-7.5V56.5h-15.1v18.6h-7.5V33.3
		L148.7,33.3z M19.1,8.2H265c5.8,0,10.6,4.8,10.6,10.6v387.5c0,5.8-4.8,10.6-10.6,10.6H19.1c-5.8,0-10.6-4.8-10.6-10.6V18.8
		C8.5,13,13.2,8.2,19.1,8.2L19.1,8.2z M271.8,28.3L12.2,318.2v12.1L271.8,40.3V28.3L271.8,28.3z M12.2,308L220.8,75.1h-6.5l-2.5-8.4
		h-7h-7l-2.5,8.4h-8.6l14-41.8h4.1h4.1l13.5,40.1l49.4-55.2c-0.7-3.4-3.7-6-7.4-6H19.7c-4.1,0-7.5,3.4-7.5,7.5V308L12.2,308z
		 M271.8,50.5L12.2,340.5v12.1L271.8,62.6V50.5L271.8,50.5z M271.8,72.8L12.2,362.7v12.1L271.8,84.9V72.8L271.8,72.8z M271.8,95.1
		L12.2,385v12.1l259.7-289.9V95.1L271.8,95.1z M271.8,117.3L12.4,407.1c0.8,3.3,3.8,5.9,7.3,5.9h244.6c4.1,0,7.5-3.4,7.5-7.5V117.3
		L271.8,117.3z M69.8,36.9c3.6-2.7,9.3-4.6,14.7-4.6c6.5,0,13.9,3.5,13.9,11c0,4.7-2.7,7.8-6.5,9.9c12.9,4.5,8.5,23.1-7.6,22.8
		C78.2,76,71.8,74,68.1,70.5l4.7-6.5c2.7,3.6,7.3,5,10.9,5c11,0.1,9.6-12.7,0.7-12.7h-4.2l0-6.4l4.2,0c1.4,0,2.5-0.2,3.2-0.6
		c5-3.1,3.4-10.2-4.2-10.1c-3.5,0.1-6.4,1.5-9.6,4.3L69.8,36.9L69.8,36.9z M121.8,32.3c9.2,0,16.7,9.8,16.7,21.9
		c0,12.1-7.5,21.9-16.7,21.9c-9.2,0-16.7-9.8-16.7-21.9C105.2,42.1,112.6,32.3,121.8,32.3L121.8,32.3z M204.7,43.4l5,16.4h-5h-5
		L204.7,43.4L204.7,43.4z M121.8,38.7c5.1,0,9.3,6.9,9.3,15.5c0,8.6-4.1,15.5-9.3,15.5c-5.1,0-9.3-6.9-9.3-15.5
		C112.6,45.7,116.7,38.7,121.8,38.7L121.8,38.7z"/>
</g>
</svg>
