<?xml version="1.0" encoding="utf-8"?>
<svg version="1.1"
	 xmlns="http://www.w3.org/2000/svg"
	 x="0px" y="0px" viewBox="0 0 284 425.2" enable-background="new 0 0 284 425.2" xml:space="preserve">
<g>
	
		<path fill-rule="evenodd" clip-rule="evenodd" fill="#FFFFFF" stroke="#000000" stroke-width="0.5669" stroke-miterlimit="22.9256" d="
		M14.4,0.3h255.2c7.8,0,14.1,6.4,14.1,14.1v396.3c0,7.8-6.4,14.1-14.1,14.1H14.4c-7.8,0-14.1-6.4-14.1-14.1V14.4
		C0.3,6.6,6.6,0.3,14.4,0.3L14.4,0.3z"/>
	<path fill-rule="evenodd" clip-rule="evenodd" fill="#B92B1E" d="M247.6,6.4l0-0.1h21.1c4.9,0,8.8,4,8.8,8.8v21.3L36,418.9H15.4
		c-4.9,0-8.8-4-8.8-8.8v-22L247.6,6.4L247.6,6.4z"/>
	<path fill-rule="evenodd" clip-rule="evenodd" fill="#3298DF" d="M15.4,6.3h232.2l0,0.1l-90.6,143.5H95.8c-5,0-7.6,4.4-9.1,9.1
		l-13.4,41.3c-5.7,0-10.3,4.6-10.3,10.3v36.3c0,5.7,4.6,10.3,10.3,10.3h15.9l-1.8,2.8H72.7v19.5v0c0,1.2,0.1,2.3,0.4,3.4L6.5,388.1
		v-373C6.5,10.2,10.5,6.3,15.4,6.3L15.4,6.3z M277.5,36.4v373.7c0,4.9-4,8.8-8.8,8.8H36l102.1-161.8h72.6c5.7,0,10.3-4.6,10.3-10.3
		v-36.3c0-5.7-4.6-10.3-10.3-10.3l-12.5-38.4L277.5,36.4L277.5,36.4z M100.9,159.3H151l-26,41.2H82.4l10.4-33.8
		C94,162.9,96.8,159.3,100.9,159.3L100.9,159.3z M192.2,171.5l9.4,29.1h-27.8L192.2,171.5L192.2,171.5z M211.5,279.4L211.5,279.4
		V260H183v19.5v0c0,7.9,6.4,14.3,14.3,14.3C205.1,293.7,211.5,287.3,211.5,279.4L211.5,279.4z M86.9,210c7.9,0,14.3,6.4,14.3,14.3
		c0,7.9-6.4,14.3-14.3,14.3c-7.9,0-14.3-6.4-14.3-14.3C72.7,216.4,79,210,86.9,210L86.9,210z M197.3,210c7.9,0,14.3,6.4,14.3,14.3
		c0,7.9-6.4,14.3-14.3,14.3c-7.9,0-14.3-6.4-14.3-14.3C183,216.4,189.4,210,197.3,210L197.3,210z"/>
</g>
</svg>
