<?xml version="1.0" encoding="utf-8"?>
<svg version="1.1"
	 xmlns="http://www.w3.org/2000/svg"
	 x="0px" y="0px" viewBox="0 0 284 284" enable-background="new 0 0 284 284" xml:space="preserve">
<g>
	
		<path fill-rule="evenodd" clip-rule="evenodd" fill="#FFFFFF" stroke="#000000" stroke-width="0.5669" stroke-miterlimit="22.9256" d="
		M18.9,0.3h246.3c10.2,0,18.6,8.4,18.6,18.6v246.3c0,10.2-8.4,18.6-18.6,18.6H18.9c-10.2,0-18.6-8.4-18.6-18.6V18.9
		C0.3,8.6,8.6,0.3,18.9,0.3L18.9,0.3z"/>
	<path fill-rule="evenodd" clip-rule="evenodd" fill="#3298DF" d="M18.9,8.3h246.2c5.9,0,10.7,4.8,10.7,10.7v246.2
		c0,5.9-4.8,10.7-10.7,10.7h-94.2V161.5h47.4L142,29.3L65.7,161.5h47.4v114.3H18.9c-5.9,0-10.7-4.8-10.7-10.7V18.9
		C8.3,13.1,13.1,8.3,18.9,8.3L18.9,8.3z"/>
</g>
</svg>
