<?xml version="1.0" encoding="utf-8"?>
<svg version="1.1"
	 xmlns="http://www.w3.org/2000/svg"
	 x="0px" y="0px" viewBox="0 0 423.3 142.3" enable-background="new 0 0 423.3 142.3" xml:space="preserve">
<g>
	
		<path fill-rule="evenodd" clip-rule="evenodd" fill="#FFFFFF" stroke="#000000" stroke-width="0.5669" stroke-miterlimit="22.9256" d="
		M19.1,0.3h385.1c10.4,0,18.8,8.5,18.8,18.8v104.1c0,10.4-8.5,18.8-18.8,18.8H19.1c-10.4,0-18.8-8.5-18.8-18.8V19.1
		C0.3,8.8,8.8,0.3,19.1,0.3L19.1,0.3z"/>
	<path fill-rule="evenodd" clip-rule="evenodd" fill="#3298DF" d="M20.1,7.8H403c6.7,0,12.2,5.5,12.2,12.2v102.2
		c0,6.7-5.5,12.2-12.2,12.2H20.1c-6.7,0-12.2-5.5-12.2-12.2V85.7h321.9v21.8L393,71l-63.2-36.5v21.8H7.9V20
		C7.9,13.3,13.4,7.8,20.1,7.8L20.1,7.8z"/>
</g>
</svg>
