<?xml version="1.0" encoding="utf-8"?>
<svg version="1.1"
	 xmlns="http://www.w3.org/2000/svg"
	 x="0px" y="0px" viewBox="0 0 423.3 142.3" enable-background="new 0 0 423.3 142.3" xml:space="preserve">
<g>
	
		<path fill-rule="evenodd" clip-rule="evenodd" fill="#FFFFFF" stroke="#000000" stroke-width="0.5669" stroke-miterlimit="22.9256" d="
		M404.2,0.3H19.1C8.8,0.3,0.3,8.8,0.3,19.1v104.1c0,10.4,8.5,18.8,18.8,18.8h385.1c10.4,0,18.8-8.5,18.8-18.8V19.1
		C423,8.8,414.5,0.3,404.2,0.3L404.2,0.3z"/>
	<path fill-rule="evenodd" clip-rule="evenodd" fill="#3298DF" d="M403.1,7.8H20.3C13.6,7.8,8.1,13.3,8.1,20v102.2
		c0,6.7,5.5,12.2,12.2,12.2h382.8c6.7,0,12.2-5.5,12.2-12.2V85.7H93.4v21.8L30.2,71l63.2-36.5v21.8h321.9V20
		C415.3,13.3,409.8,7.8,403.1,7.8L403.1,7.8z"/>
</g>
</svg>
