<?xml version="1.0" encoding="utf-8"?>
<svg version="1.1"
	 xmlns="http://www.w3.org/2000/svg"
	 x="0px" y="0px" viewBox="0 0 284 425.2" enable-background="new 0 0 284 425.2" xml:space="preserve">
<g>
	
		<path fill-rule="evenodd" clip-rule="evenodd" fill="#FFFFFF" stroke="#000000" stroke-width="0.5669" stroke-miterlimit="22.9256" d="
		M18.8,0.3h246.3c10.2,0,18.6,8.4,18.6,18.6v387.5c0,10.2-8.4,18.6-18.6,18.6H18.8c-10.2,0-18.6-8.4-18.6-18.6V18.8
		C0.3,8.6,8.6,0.3,18.8,0.3L18.8,0.3z"/>
	<path fill-rule="evenodd" clip-rule="evenodd" fill="#3298DF" d="M26.5,304.3H257v102.7H26.5V304.3L26.5,304.3z M26.5,198.6H257
		v102.7H26.5V198.6L26.5,198.6z M26.5,93H257v102.7H26.5V93L26.5,93z M150.1,78.8l3.8-3.3c2.6,2.2,5.3,3.6,7.6,3.6
		c3.3-0.1,5.1-2.3,5.3-4.1c0.2-2.7-4.3-3.7-6.7-4.1c-5.5-1-8-3.2-8.2-8.1c-0.2-4.7,4.6-8.5,10.1-8.4c4,0.1,7,1.4,9.9,3.8l-3.5,3.6
		c-1.5-1.1-2.5-2.5-6.4-2.6c-3-0.1-4.8,1.5-4.8,3.5c0.1,2.6,2,2.9,7.1,4c5,1.1,8.1,3.8,7.9,8.2c-0.1,2.5-1.4,4.9-3.6,6.4
		c-2.1,1.5-3.9,2.3-7.4,2.3C157.3,83.8,152.5,81.8,150.1,78.8L150.1,78.8z M178.9,55.2h5.8v27.9h-5.8V55.2L178.9,55.2z M73.3,67.3
		h4.1c2.2,0,4-1.2,3.9-3.8c-0.1-2.6-1.7-3.7-3.9-3.7h-4.1V67.3L73.3,67.3z M68.3,83.1V55.2h9.6c6.9,0,8.8,4.4,8.9,7.8
		c0.1,3.5-2.2,5.7-4.7,7c4,2.6,4.9,7.7,8.1,13h-5.9L80,74.6c-0.9-1.8-2-2.7-3.7-2.7h-3v11.2H68.3L68.3,83.1z M122.8,78.8l3.8-3.3
		c2.6,2.2,5.3,3.6,7.6,3.6c3.3-0.1,5.1-2.3,5.3-4.1c0.2-2.7-4.3-3.7-6.7-4.1c-5.5-1-8-3.2-8.2-8.1c-0.2-4.7,4.6-8.5,10.1-8.4
		c4,0.1,7,1.4,9.9,3.8L141,62c-1.5-1.1-2.5-2.5-6.4-2.6c-3-0.1-4.8,1.5-4.8,3.5c0.1,2.6,2,2.9,7.1,4c5,1.1,8.1,3.8,7.9,8.2
		c-0.1,2.5-1.4,4.9-3.6,6.4c-2.1,1.5-3.9,2.3-7.4,2.3C130.1,83.8,125.2,81.8,122.8,78.8L122.8,78.8z M95.8,55.2h5.2v15.5
		c0,2.5,0.1,4,0.2,4.8c0.5,2.6,2.5,4.4,5.1,4.4c2.6,0,4.5-1.6,4.9-4.4c0.1-1,0.2-2.5,0.2-4.4V55.2l5.2,0v17.8
		c0,8.2-5.5,11.2-10.3,11.2c-4.8,0-10.4-2.8-10.4-11V55.2L95.8,55.2z M203.4,55.2h2.7l9.2,27.9h-5.6l-1.7-5.6h-4.6h-4.6l-1.7,5.6
		h-5.6l9.2-27.9H203.4L203.4,55.2z M206.7,72.9l-3.3-11l-3.3,11h3.3H206.7L206.7,72.9z M165.1,39c-0.8,2.4-1.9,4.2-3.4,5.5
		c-1.8,1.5-4,2.3-6.7,2.3c-3.4,0-6.1-1.3-8.3-3.9c-2.2-2.6-3.3-6.1-3.3-10.6c0-4.7,1.1-8.4,3.3-11c2.2-2.6,5.1-3.9,8.6-3.9
		c3.1,0,5.5,1.1,7.4,3.2c1,1,1.7,2.5,2.3,4.3l-4.6,2.2c-0.3-1.5-0.9-2.6-1.9-3.5c-1-0.9-2.1-1.5-3.5-1.5c-1.9,0-3.4,1-4.6,2.5
		c-1.2,1.5-1.8,4-1.8,7.3c0,3.6,0.6,6.2,1.7,7.7c1.2,1.5,2.7,2.6,4.5,2.6c1.4,0,2.5-0.8,3.5-1.7c0.7-0.7,1.3-1.8,1.8-3.2L165.1,39
		L165.1,39z M171.8,18.1h5.5v17.1l9.4-17.1h5.5V46h-5.5V29.3L177.3,46h-5.5V18.1L171.8,18.1z M68.5,22.9H73c2.1,0,4.1,1.4,4.1,4.5
		c0,3.1-2.1,4.4-4.1,4.4h-4.5V22.9L68.5,22.9z M63.1,46h5.3v-9.8h5c5.2,0,9.4-4.5,9.5-9.1c0.1-4.6-3.7-8.9-9-8.9H63.1v19.1V46
		L63.1,46z M137.8,39c-0.8,2.4-1.9,4.2-3.4,5.5c-1.8,1.5-4,2.3-6.7,2.3c-3.4,0-6.1-1.3-8.3-3.9c-2.2-2.6-3.3-6.1-3.3-10.6
		c0-4.7,1.1-8.4,3.3-11c2.2-2.6,5-3.9,8.6-3.9c3.1,0,5.5,1.1,7.4,3.2c1,1,1.7,2.5,2.3,4.3l-4.6,2.2c-0.3-1.5-0.9-2.6-1.9-3.5
		c-1-0.9-2.1-1.5-3.5-1.5c-1.9,0-3.4,1-4.6,2.5c-1.2,1.5-1.8,4-1.8,7.3c0,3.6,0.6,6.2,1.7,7.7c1.2,1.5,2.7,2.6,4.5,2.6
		c1.4,0,2.5-0.8,3.5-1.7c0.7-0.7,1.3-1.8,1.8-3.2L137.8,39L137.8,39z M88,32.3c0-2.9,0.4-5.3,1.1-7.3c0.5-1.4,1.3-2.7,2.2-3.9
		c0.9-1.1,1.9-2,3-2.6c1.5-0.8,3.1-1.1,5.1-1.1c3.5,0,6.2,1.3,8.3,3.9c2.1,2.6,3.1,6.2,3.1,10.8c0,4.6-1,8.2-3.1,10.8
		c-2.1,2.6-4.8,3.9-8.3,3.9c-3.5,0-6.3-1.3-8.3-3.9C89,40.3,88,36.8,88,32.3L88,32.3z M92.9,32.1c0,3.2,0.6,5.7,1.8,7.3
		c1.2,1.7,2.8,2.5,4.7,2.5c1.9,0,3.4-0.8,4.7-2.5c1.2-1.6,1.8-4.1,1.8-7.4c0-3.3-0.6-5.7-1.8-7.3c-1.2-1.6-2.7-2.4-4.7-2.4
		c-2,0-3.5,0.8-4.7,2.4C93.5,26.4,92.9,28.8,92.9,32.1L92.9,32.1z M215.5,46V34.8h-1.1c-4.8,0-4.8,1.3-6.8,4.2l-3.6,7h-6.2
		c1.1-1.3,4.6-7.8,5.7-10.3c0.8-1.6,1.6-2.2,3.4-2.7c-3.8-0.9-5.8-3.3-5.8-7.1c0-1.7,0.4-3.2,1.3-4.5c0.9-1.3,2-2.2,3.4-2.6
		c1.4-0.4,3.5-0.7,6.3-0.7h8.5V46H215.5L215.5,46z M215.5,22.7h-3.6c-3,0-5.2,0.7-5.2,3.8c0,3.1,2.6,3.8,5.2,3.8h3.6V22.7
		L215.5,22.7z M19.3,8.2h245.1c6.1,0,11,5,11,11v386.6c0,6.1-5,11-11,11H19.3c-6.1,0-11-5-11-11V19.3C8.2,13.2,13.2,8.2,19.3,8.2
		L19.3,8.2z"/>
	<path fill-rule="evenodd" clip-rule="evenodd" fill="#B92B1E" d="M68.7,322.7c18.2,0,32.9,14.7,32.9,32.9
		c0,18.2-14.7,32.9-32.9,32.9s-32.9-14.7-32.9-32.9C35.8,337.4,50.6,322.7,68.7,322.7L68.7,322.7z M68.7,328.9
		c14.8,0,26.7,12,26.7,26.7s-12,26.7-26.7,26.7c-14.8,0-26.7-12-26.7-26.7S54,328.9,68.7,328.9L68.7,328.9z M68.7,111.5
		c18.2,0,32.9,14.7,32.9,32.9c0,18.2-14.7,32.9-32.9,32.9s-32.9-14.7-32.9-32.9C35.8,126.2,50.6,111.5,68.7,111.5L68.7,111.5z
		 M68.7,117.7c14.8,0,26.7,12,26.7,26.7c0,14.8-12,26.7-26.7,26.7c-14.8,0-26.7-12-26.7-26.7C42,129.6,54,117.7,68.7,117.7
		L68.7,117.7z M68.7,217.1c18.2,0,32.9,14.7,32.9,32.9c0,18.2-14.7,32.9-32.9,32.9S35.8,268.2,35.8,250
		C35.8,231.8,50.6,217.1,68.7,217.1L68.7,217.1z M68.7,223.3c14.8,0,26.7,12,26.7,26.7c0,14.8-12,26.7-26.7,26.7
		C54,276.7,42,264.7,42,250C42,235.2,54,223.3,68.7,223.3L68.7,223.3z M197.5,214.9L128,284.5h17.7l69.5-69.5H197.5L197.5,214.9z"/>
	<path fill-rule="evenodd" clip-rule="evenodd" d="M81.3,368.4c4.5,0,7.1-3.9,8-8.1c1.2-5.3,0.5-14.6-5.4-17c-3.8-1.5-7.4,0.4-9.3,4
		c-2.8,5.4-2.7,17.8,4.2,20.5C79.5,368.2,80.4,368.4,81.3,368.4L81.3,368.4z M68.5,343.3l-0.1,24.6h-4.5l0-18.6l-3.2,2l-1.7-2.2
		l5.4-5.8H68.5L68.5,343.3z M56.2,343.3L56,367.9h-4.5l0-18.6l-3.2,2l-1.7-2.2l5.4-5.8H56.2L56.2,343.3z M81.3,363.8
		c-4.6,0-4.4-10.8-3-14.1c1.2-2.8,3.8-2.7,5.1-1.4c2.3,2.3,2.3,10.9,0.5,13.8C83.3,363.1,82.4,363.8,81.3,363.8L81.3,363.8z
		 M78.6,258.2c-4.6,0.1-4.4-10.8-3-14.1c1.2-2.7,3.8-2.7,5.1-1.4c2.3,2.3,2.3,10.9,0.5,13.8C80.6,257.5,79.7,258.2,78.6,258.2
		L78.6,258.2z M78.6,262.8c4.5,0,7.1-3.9,8-8.1c1.2-5.3,0.5-14.6-5.4-17c-3.8-1.5-7.4,0.4-9.3,4c-2.8,5.4-2.7,17.8,4.2,20.5
		C76.8,262.6,77.7,262.8,78.6,262.8L78.6,262.8z M55,245.7c0,1.2,0,2.1,0.6,2.8c0.6,0.7,1.6,1.1,2.6,1.1c0.9,0,1.7-0.3,2.5-0.8
		c0.7-0.5,1.6-1,1.9-1.8c-0.1-1.4-0.4-2.6-1-3.6c-0.8-1.2-1.7-2.2-3-2.2C56.7,241.3,55,243.9,55,245.7L55,245.7z M58.4,237.2
		c3.2,0,5.9,1.6,7.5,4.6c1.2,2.3,1.5,5,1.5,8.3c0,6.4-3.2,12.9-10.5,12.7c-1.9-0.1-3.9-0.5-5.4-1.3l-0.2-4.4
		c5.8,3.8,11.4,1.5,11.4-5.6c-5.3,5.1-12.3,0.7-12.4-5.2C50.1,241.7,54.1,237.2,58.4,237.2L58.4,237.2z M78.6,157.2
		c4.5,0,7.1-3.9,8-8.1c1.2-5.3,0.5-14.6-5.4-17c-3.8-1.5-7.4,0.4-9.3,4c-2.8,5.4-2.7,17.8,4.2,20.5C76.8,157,77.7,157.2,78.6,157.2
		L78.6,157.2z M59.9,157.2c-3.2,0-5.9-1.6-7.5-4.6c-1.2-2.3-1.5-5-1.5-8.3c0-6.4,3.2-12.9,10.5-12.7c1.9,0.1,3.9,0.5,5.4,1.3
		l0.2,4.4c-5.8-3.8-11.4-1.5-11.4,5.6c5.3-5.1,12.3-0.7,12.4,5.2C68.2,152.6,64.2,157.2,59.9,157.2L59.9,157.2z M63.3,148.7
		c0-1.2,0-2.1-0.6-2.8c-0.6-0.7-1.6-1.1-2.6-1.1c-0.9,0-1.7,0.3-2.5,0.8c-0.7,0.5-1.6,1-1.9,1.8c0.1,1.4,0.4,2.6,1,3.6
		c0.8,1.2,1.7,2.2,3,2.2C61.6,153.1,63.3,150.4,63.3,148.7L63.3,148.7z M78.6,152.5c-4.6,0-4.4-10.8-3-14.1c1.2-2.8,3.8-2.7,5.1-1.4
		c2.3,2.3,2.3,10.9,0.5,13.8C80.6,151.8,79.7,152.6,78.6,152.5L78.6,152.5z M110.1,160.6h138v-36.9l-9.6-3.5l-9.6,3.5v23.1h-1.9
		v-6.9l-13.5-8l-13.5,8v6.9h-2.2v-3.3l-6.6-6.6h-7.9v-1.6h-8.5v1.6H167l-6.6,6.6v3.3h-2.2v-5.3l-10.8-27.9l-10.8,27.9v5.4h-2.2v-6.7
		l-12.1-5.1l-12.1,5.1V160.6L110.1,160.6z M166.5,265.9h81.6v-36.9l-9.6-3.5l-9.6,3.5V252h-1.9v-6.9l-13.5-8l-13.5,8v6.9h-2.2v-3.3
		l-6.6-6.6h-1L166.5,265.9L166.5,265.9z M110.1,265.9h34.2l13.9-13.9v-5.3l-10.8-27.9l-10.8,27.9v5.4h-2.2v-6.7l-12.1-5.1l-12.1,5.1
		V265.9L110.1,265.9z"/>
	<path fill-rule="evenodd" clip-rule="evenodd" fill="#168C30" d="M148.8,312.9h22.9l-5.5,20.9h7.1l0.7-20.9h2l0.7,20.9h7.1
		l-5.5-20.9h22.9c1,0,1.8,0.8,1.8,1.8v21.9h-56v-21.9C147,313.7,147.8,312.9,148.8,312.9L148.8,312.9z M203,339.9v56.5
		c0,1-0.8,1.8-1.8,1.8h-0.6l-14.5-55.6H177l1.8,55.6h-7.6l1.8-55.6h-9.1l-14.5,55.6h-0.6c-1,0-1.8-0.8-1.8-1.8v-56.5h8.1v6.4h3.3
		l1.9-6.4h29.4l1.9,6.4h3.3v-6.4H203L203,339.9z"/>
</g>
</svg>
