<?xml version="1.0" encoding="utf-8"?>
<svg version="1.1"
	 xmlns="http://www.w3.org/2000/svg"
	 x="0px" y="0px" viewBox="0 0 142.3 95.4" enable-background="new 0 0 142.3 95.4" xml:space="preserve">
<g>
	
		<path fill-rule="evenodd" clip-rule="evenodd" fill="#FFFFFF" stroke="#000000" stroke-width="0.5669" stroke-miterlimit="22.9256" d="
		M21.9,0.3h98.4c11.9,0,21.7,9.7,21.7,21.7v51.5c0,11.9-9.7,21.7-21.7,21.7H21.9C10,95.1,0.3,85.3,0.3,73.4V21.9
		C0.3,10,10,0.3,21.9,0.3L21.9,0.3z"/>
	<path fill-rule="evenodd" clip-rule="evenodd" fill="#3298DF" d="M22,4.9h98.3c9.4,0,17,7.7,17,17v51.4c0,9.4-7.7,17-17,17H22
		c-9.4,0-17-7.7-17-17V22C5,12.6,12.6,4.9,22,4.9L22,4.9z M35.5,32.7l-0.1,30h-5.5l0-22.7l-4,2.4l-2.1-2.7l6.5-7L35.5,32.7
		L35.5,32.7z M80.1,57.6c-6,0.1-5.7-15.8-2.6-18.9c1.8-1.8,6-2,7,4.7C85.1,47,85.3,57.7,80.1,57.6L80.1,57.6z M80.1,63.2
		c11.9,0,13-22.1,6-28.7c-5.8-5.5-16.2-2.1-16.2,13.2C69.8,54.5,72.4,63.2,80.1,63.2L80.1,63.2z M62,62.7H43.5v-5.2
		c4.3-4,8.6-8.2,12.1-12.6c1.3-1.6,2.7-3,2.3-5.1c-0.4-1.9-2-3.5-4.1-3.5c-2.3,0-4.2,1.8-6.3,4.1l-3.5-4c4.7-6.8,19.1-6.1,19.1,4.3
		c0,1.8-0.2,3.6-1.4,5.3c-2,2.8-7.3,7.9-10.6,11.1h12.4L62,62.7L62,62.7z M98.4,62.3l-1-6.1c6.1,3.8,13.9,1.3,13.9-3.7
		c0-4.9-5.6-7-9.4-3.2l-3.4-1.6V32.5h17.4l-1.4,5.3h-11v6.2c6.7-3.6,13.6,1.2,13.5,7.8c-0.1,6.4-4.6,11.4-11.6,11.5
		C103.1,63.2,100.8,62.7,98.4,62.3L98.4,62.3z"/>
</g>
</svg>
