<?xml version="1.0" encoding="utf-8"?>
<svg version="1.1"
	 xmlns="http://www.w3.org/2000/svg"
	 x="0px" y="0px" viewBox="0 0 284 738.4" enable-background="new 0 0 284 738.4" xml:space="preserve">
<g>
	
		<path fill-rule="evenodd" clip-rule="evenodd" fill="#FFFFFF" stroke="#000000" stroke-width="0.5669" stroke-miterlimit="22.9256" d="
		M81.6,0.3h120.8c6,0,10.9,4.9,10.9,10.9v120.8c0,6-4.9,10.9-10.9,10.9H81.6c-6,0-10.9-4.9-10.9-10.9V11.2
		C70.8,5.2,75.6,0.3,81.6,0.3L81.6,0.3z"/>
	<path fill-rule="evenodd" clip-rule="evenodd" fill="#3298DF" d="M81.4,4.4h121.3c3.6,0,6.5,2.9,6.5,6.5v121.3
		c0,3.6-2.9,6.5-6.5,6.5H81.4c-3.6,0-6.5-2.9-6.5-6.5V10.9C74.9,7.3,77.8,4.4,81.4,4.4L81.4,4.4z M159.7,101.3l-1.9-12.6
		c4.5,2.8,9.4,4.9,14.1,4.9c8.8,0,15-5.8,15-11.6c0-5.5-4.2-11.3-10.5-11c-2.7,0.1-5.8,1.4-9.1,4.2l-7.2-3.4V40h36.6l-2.9,11.7
		l-23,0v12.2c14.2-7,28.6,2.4,28.4,16.6c-0.2,13.4-9.4,24-24.4,24C170,104.4,164.7,102.9,159.7,101.3L159.7,101.3z M117.4,94
		l-15.8-35l-4.7,44l-11.9,0L92.2,40l11.6,0l13.6,29.1L130.9,40l11.6,0l7.2,63.1l-11.9,0l-4.7-44L117.4,94L117.4,94z"/>
	
		<path fill-rule="evenodd" clip-rule="evenodd" fill="#FFFFFF" stroke="#000000" stroke-width="0.5669" stroke-miterlimit="22.9256" d="
		M10.6,198.7h262.9c5.7,0,10.3,4.6,10.3,10.3v121.9c0,5.7-4.6,10.3-10.3,10.3H10.6c-5.7,0-10.3-4.6-10.3-10.3V209
		C0.3,203.3,4.9,198.7,10.6,198.7L10.6,198.7z"/>
	<path fill-rule="evenodd" clip-rule="evenodd" fill="#3298DF" d="M10.8,202.7h262.3c3.6,0,6.5,2.9,6.5,6.5v121.4
		c0,3.6-2.9,6.5-6.5,6.5H10.8c-3.6,0-6.5-2.9-6.5-6.5V209.3C4.3,205.7,7.2,202.7,10.8,202.7L10.8,202.7z M214.1,254.6
		c0,2.4,0.8,4.4,2.4,6c1.6,1.6,3.8,2.7,6.7,3.3c2.9-0.6,5.1-1.7,6.7-3.3c4.2-4.3,3.3-14-6.7-14C218.1,246.6,214.1,249.2,214.1,254.6
		L214.1,254.6z M223.2,274.7c-11.9,2.6-11.2,14.5-3.5,16.8c5.3,1.6,12.6-0.4,12.6-7.5C232.2,278.6,228.3,275.8,223.2,274.7
		L223.2,274.7z M223.2,236.9c-10.7,0-19.8,6.4-19.8,17.8c0,6.4,3.3,11.2,9,13.8v0.2c-16.1,5.8-13.9,33.9,10.8,33.9
		c24.8,0,26.9-28.1,10.8-33.9v-0.2C249.4,261.3,244.8,236.9,223.2,236.9L223.2,236.9z M166.3,291.5c5.5,0.1,8.3-5.9,9.5-11
		c1.5-6.7,2.4-28.7-6.6-31.5c-4.9-1.5-8.9,0.6-11,5.5c-3.2,7.4-4.4,30.9,4.4,36C163.8,291.1,165.1,291.5,166.3,291.5L166.3,291.5z
		 M166.3,302.8c-11.7,0-18.3-10-20.7-20.8c-3-13.8-1.2-37.6,14-43.6c9.7-3.8,19.2,1,24.1,10.3c7.3,13.8,6.9,45.8-10.8,52.7
		C170.8,302.4,168.6,302.8,166.3,302.8L166.3,302.8z M127.3,238.1l-0.3,63.1l-11.5,0l0-47.8l-8.3,5.1l-4.4-5.6l13.8-14.8
		L127.3,238.1L127.3,238.1z M67.2,238.1h6.2l21.2,63.1h-13l-3.8-12.6H56.5l-3.8,12.6h-13l21.2-63.1H67.2L67.2,238.1z M74.7,278.2
		l-7.5-24.8l-7.5,24.8H74.7L74.7,278.2z"/>
	
		<path fill-rule="evenodd" clip-rule="evenodd" fill="#FFFFFF" stroke="#000000" stroke-width="0.5669" stroke-miterlimit="22.9256" d="
		M10.6,595.6h262.9c5.7,0,10.3,4.6,10.3,10.3v121.9c0,5.7-4.6,10.3-10.3,10.3H10.6c-5.7,0-10.3-4.6-10.3-10.3V605.9
		C0.3,600.2,4.9,595.6,10.6,595.6L10.6,595.6z"/>
	<path fill-rule="evenodd" clip-rule="evenodd" fill="#3298DF" d="M10.8,599.6h262.3c3.6,0,6.5,2.9,6.5,6.5v121.4
		c0,3.6-2.9,6.5-6.5,6.5H10.8c-3.6,0-6.5-2.9-6.5-6.5V606.1C4.3,602.5,7.2,599.6,10.8,599.6L10.8,599.6z M134.9,635l-0.3,63.1
		l-11.5,0l0-47.8l-8.3,5.1l-4.4-5.6l13.8-14.8L134.9,635L134.9,635z M57.2,698.1h12.6v-22.3h12.1c11.2,0,20-10.3,20.2-20.6
		c0.2-10.3-7.9-20.2-19.1-20.2H57.2v43.1V698.1L57.2,698.1z M70.2,645.8h11.1c4.5,0,8.8,3.1,8.8,10.1c0,7-4.6,10-8.8,10H70.2V645.8
		L70.2,645.8z M170.5,635l-0.3,63.1l-11.5,0l0-47.8l-8.3,5.1l-4.4-5.6l13.8-14.8L170.5,635L170.5,635z M190.1,696.4l-1.9-12.6
		c4.6,2.8,9.4,4.9,14.1,4.9c8.8,0,15-5.8,15-11.6c0-5.5-4.2-11.3-10.5-11.1c-2.7,0.1-5.8,1.4-9.1,4.2l-7.3-3.4V635H227l-2.9,11.7
		l-23,0v12.2c14.2-7,28.7,2.4,28.5,16.6c-0.2,13.4-9.4,24-24.4,24.1C200.5,699.6,195.2,698,190.1,696.4L190.1,696.4z"/>
	
		<path fill-rule="evenodd" clip-rule="evenodd" fill="#FFFFFF" stroke="#000000" stroke-width="0.5669" stroke-miterlimit="22.9256" d="
		M10.6,397.1h262.9c5.7,0,10.3,4.6,10.3,10.3v121.9c0,5.7-4.6,10.3-10.3,10.3H10.6c-5.7,0-10.3-4.6-10.3-10.3V407.4
		C0.3,401.8,4.9,397.1,10.6,397.1L10.6,397.1z"/>
	<path fill-rule="evenodd" clip-rule="evenodd" fill="#168C30" d="M10.8,401.2h262.3c3.6,0,6.5,2.9,6.5,6.5v121.4
		c0,3.6-2.9,6.5-6.5,6.5H10.8c-3.6,0-6.5-2.9-6.5-6.5V407.7C4.3,404.1,7.2,401.2,10.8,401.2L10.8,401.2z M66.6,500.1v-63.5h40.2
		v10.8H78.7v14H102v11H78.7v17.1h28.1v10.7H66.6L66.6,500.1z M133.8,457.4c0,3.1,0.1,5.5,1.5,7.3c1.4,1.8,4,2.8,6.5,2.8
		c2.2,0,4.2-0.7,6.2-2.1c1.8-1.3,3.8-2.7,4.8-4.5c-0.1-3.5-1-6.6-2.6-9.2c-1.9-3.1-4.2-5.6-7.3-5.6C138,446,133.8,452.8,133.8,457.4
		L133.8,457.4z M142.2,435.6c8,0,14.7,4,18.6,11.7c3,5.9,3.6,12.8,3.6,21.3c0,16.5-8,33.1-25.9,32.6c-4.8-0.1-8.1-0.8-11.8-2.9
		l-2.1-11.9c14.4,9.8,28.1,3.9,28.1-14.4c-13.2,13-30.3,1.9-30.7-13.3C121.8,447.2,131.7,435.6,142.2,435.6L142.2,435.6z
		 M180.6,498.1l-1.9-12.6c4.6,2.8,9.4,4.9,14.1,4.9c8.8,0,15-5.8,15-11.6c0-5.5-4.2-11.3-10.5-11.1c-2.7,0.1-5.8,1.4-9.2,4.2
		l-7.3-3.4v-31.9h36.6l-2.9,11.7l-23,0v12.2c14.2-7,28.7,2.4,28.5,16.6c-0.2,13.4-9.4,24-24.4,24.1
		C191,501.2,185.6,499.6,180.6,498.1L180.6,498.1z"/>
</g>
</svg>
