<?xml version="1.0" encoding="utf-8"?>
<svg version="1.1"
	 xmlns="http://www.w3.org/2000/svg"
	 x="0px" y="0px" viewBox="0 0 284 379.7" enable-background="new 0 0 284 379.7" xml:space="preserve">
<g>
	
		<path fill-rule="evenodd" clip-rule="evenodd" fill="#FFFFFF" stroke="#000000" stroke-width="0.5669" stroke-miterlimit="22.9256" d="
		M7.5,0.3h269.1c3.9,0,7.2,3.2,7.2,7.2v81.3c0,3.9-3.2,7.2-7.2,7.2H7.5c-3.9,0-7.2-3.2-7.2-7.2V7.5C0.3,3.5,3.5,0.3,7.5,0.3L7.5,0.3
		z"/>
	<path fill-rule="evenodd" clip-rule="evenodd" fill="#3298DF" d="M100.8,3.1h175.5c2.8,0,5,2.3,5,5v80.2c0,2.8-2.3,5-5,5H100.8
		c-2.8,0-5-2.3-5-5V8.1C95.8,5.3,98,3.1,100.8,3.1L100.8,3.1z M216.7,68.3l-1.3-8.5c3.1,1.9,6.3,3.3,9.5,3.3
		c5.9,0,10.1-3.9,10.1-7.9c0-3.7-2.8-7.6-7.1-7.5c-1.8,0.1-3.9,0.9-6.2,2.8l-4.9-2.3V26.9h24.7l-1.9,7.9l-15.5,0v8.2
		c9.6-4.7,19.3,1.6,19.2,11.2c-0.1,9-6.3,16.2-16.5,16.2C223.7,70.4,220.1,69.3,216.7,68.3L216.7,68.3z M183.6,68.3l-1.3-8.5
		c3.1,1.9,6.3,3.3,9.5,3.3c5.9,0,10.1-3.9,10.1-7.9c0-3.7-2.8-7.6-7.1-7.5c-1.8,0.1-3.9,0.9-6.2,2.8l-4.9-2.3V26.9h24.7l-1.9,7.9
		l-15.5,0v8.2c9.6-4.7,19.3,1.6,19.2,11.2c-0.1,9-6.3,16.2-16.5,16.2C190.6,70.4,187,69.3,183.6,68.3L183.6,68.3z M155.7,63.4
		l-10.6-23.6l-3.2,29.7l-8,0l4.8-42.6l7.8,0l9.2,19.6l9.2-19.6l7.8,0l4.8,42.6l-8,0l-3.2-29.7L155.7,63.4L155.7,63.4z M7.8,3.1h80.9
		c2.8,0,5,2.3,5,5v80.2c0,2.8-2.3,5-5,5H7.8c-2.8,0-5-2.3-5-5V8.1C2.8,5.3,5,3.1,7.8,3.1L7.8,3.1z M84.6,54.7H49.5V70l-38-21.9
		l38-21.9v15.3h35.1V54.7L84.6,54.7z"/>
	
		<path fill-rule="evenodd" clip-rule="evenodd" fill="#FFFFFF" stroke="#000000" stroke-width="0.5669" stroke-miterlimit="22.9256" d="
		M7.5,142h269.1c3.9,0,7.2,3.2,7.2,7.2v81.3c0,3.9-3.2,7.2-7.2,7.2H7.5c-3.9,0-7.2-3.2-7.2-7.2v-81.3C0.3,145.2,3.5,142,7.5,142
		L7.5,142z"/>
	<path fill-rule="evenodd" clip-rule="evenodd" fill="#3298DF" d="M276.3,144.8h-80.9c-2.8,0-5,2.3-5,5V230c0,2.8,2.3,5,5,5h80.9
		c2.8,0,5-2.3,5-5v-80.2C281.3,147.1,279.1,144.8,276.3,144.8L276.3,144.8z M208.1,208.8l24.8-24.8l-10.8-10.8l42.3-11.4L253,204
		l-10.8-10.8L217.3,218L208.1,208.8L208.1,208.8z M183.3,144.8H7.8c-2.8,0-5,2.3-5,5V230c0,2.8,2.3,5,5,5h175.5c2.8,0,5-2.3,5-5
		v-80.2C188.3,147.1,186.1,144.8,183.3,144.8L183.3,144.8z M130.1,212.1c16.7,0,18.2-31.5,8.3-40.9c-8.2-7.8-22.7-3-22.7,18.8
		C115.7,199.6,119.3,212.1,130.1,212.1L130.1,212.1z M130.1,204.1c-8.4,0.1-8-22.5-3.6-26.9c2.2-2.3,6.8-2.3,8.7,2.5
		C137.6,185.2,138.1,204.2,130.1,204.1L130.1,204.1z M107.3,168.6l-0.2,42.7h-7.8l0-32.3l-5.6,3.4l-3-3.8l9.3-10L107.3,168.6
		L107.3,168.6z M67.6,205.2l-10.7-23.7l-3.2,29.8l-8,0l4.9-42.7l7.8,0l9.2,19.7l9.2-19.7l7.8,0l4.9,42.7l-8,0l-3.2-29.8L67.6,205.2
		L67.6,205.2z"/>
	
		<path fill-rule="evenodd" clip-rule="evenodd" fill="#FFFFFF" stroke="#000000" stroke-width="0.5669" stroke-miterlimit="22.9256" d="
		M7.5,283.7h269.1c3.9,0,7.2,3.2,7.2,7.2v81.3c0,3.9-3.2,7.2-7.2,7.2H7.5c-3.9,0-7.2-3.2-7.2-7.2v-81.3C0.3,287,3.5,283.7,7.5,283.7
		L7.5,283.7z"/>
	<path fill-rule="evenodd" clip-rule="evenodd" fill="#3298DF" d="M100.8,286.5h175.5c2.8,0,5,2.3,5,5v80.2c0,2.8-2.3,5-5,5H100.8
		c-2.8,0-5-2.3-5-5v-80.2C95.8,288.8,98,286.5,100.8,286.5L100.8,286.5z M220.4,351.8l-1.3-8.5c3.1,1.9,6.3,3.3,9.5,3.3
		c5.9,0,10.1-3.9,10.1-7.9c0-5.3-5.6-11-13.3-4.6l-4.9-2.3v-21.5h24.7l-1.9,7.9l-15.5,0v8.2c9.6-4.7,19.3,1.6,19.2,11.2
		c-0.1,9-6.3,16.2-16.5,16.2C227.3,353.9,223.7,352.8,220.4,351.8L220.4,351.8z M207.6,310.3l-0.2,42.6l-7.8,0l0-32.2l-5.6,3.4
		l-3-3.8l9.3-10L207.6,310.3L207.6,310.3z M183.9,310.3l-0.2,42.6l-7.8,0l0-32.2l-5.6,3.4l-3-3.8l9.3-10L183.9,310.3L183.9,310.3z
		 M132,352.9h8.5v-15h8.2c7.5,0,13.5-6.9,13.6-13.9c0.1-7-5.3-13.6-12.9-13.6H132V352.9L132,352.9z M140.8,317.6h7.5
		c8,0,7.9,13.6,0,13.6h-7.5V317.6L140.8,317.6z M7.8,286.5h80.9c2.8,0,5,2.3,5,5v80.2c0,2.8-2.3,5-5,5H7.8c-2.8,0-5-2.3-5-5v-80.2
		C2.8,288.8,5,286.5,7.8,286.5L7.8,286.5z M41.7,368.2v-35.1H26.3l21.9-38l21.9,38H54.8v35.1H41.7L41.7,368.2z"/>
</g>
</svg>
