<?xml version="1.0" encoding="utf-8"?>
<svg version="1.1"
	 xmlns="http://www.w3.org/2000/svg"
	 x="0px" y="0px" viewBox="0 0 340.7 114.6" enable-background="new 0 0 340.7 114.6" xml:space="preserve">
<g>
	
		<path fill-rule="evenodd" clip-rule="evenodd" fill="#FFFFFF" stroke="#000000" stroke-width="0.5669" stroke-miterlimit="22.9256" d="
		M325,0.3H15.7C7.2,0.3,0.3,7.2,0.3,15.7v83.2c0,8.5,6.9,15.4,15.4,15.4H325c8.5,0,15.4-6.9,15.4-15.4V15.7
		C340.4,7.2,333.5,0.3,325,0.3L325,0.3z"/>
	<path fill-rule="evenodd" clip-rule="evenodd" fill="#3298DF" d="M16.3,3.5h308.1c6.9,0,12.6,5.7,12.6,12.6v82.4
		c0,6.9-5.7,12.6-12.6,12.6c-243.4,0-255.2,0-308.1,0c-6.9,0-12.6-5.7-12.6-12.6V16.1C3.7,9.2,9.4,3.5,16.3,3.5L16.3,3.5z
		 M172.9,42.5h16.9c2.1,0,3.9,1.8,3.9,3.9v9.9c0,2.1-1.8,3.9-3.9,3.9H167c-3.5,0-4.5-4.1-3.1-6.3l6.5-9.7
		C171,43.2,171.7,42.5,172.9,42.5L172.9,42.5z M266.8,78.5c6.8,0,12.3,5.5,12.3,12.3c0,6.8-5.5,12.3-12.3,12.3s-12.3-5.5-12.3-12.3
		C254.5,84,260,78.5,266.8,78.5L266.8,78.5z M266.8,84.5c3.5,0,6.3,2.8,6.3,6.3c0,3.5-2.8,6.3-6.3,6.3c-3.5,0-6.3-2.8-6.3-6.3
		C260.5,87.3,263.3,84.5,266.8,84.5L266.8,84.5z M183.4,78.5c6.8,0,12.3,5.5,12.3,12.3c0,6.8-5.5,12.3-12.3,12.3
		c-6.8,0-12.3-5.5-12.3-12.3C171.1,84,176.6,78.5,183.4,78.5L183.4,78.5z M183.4,84.5c3.5,0,6.3,2.8,6.3,6.3c0,3.5-2.8,6.3-6.3,6.3
		c-3.5,0-6.3-2.8-6.3-6.3C177.1,87.3,179.9,84.5,183.4,84.5L183.4,84.5z M269.8,77.1h25v13.4h-14.1C280.6,83.9,276,78.4,269.8,77.1
		L269.8,77.1z M200.6,77.1h63.1c-6.2,1.4-10.8,6.8-10.9,13.4h-55.4c-0.2-7.6-6.4-13.7-14-13.7c-7.6,0-13.9,6.1-14,13.7h-7.2
		c-3.9,0-7.1-3.2-7.1-7.1v-6.3V62.8v-2.3c0.2-1.2,0.6-2.3,1.4-3.4l10.8-15.7c1.2-1.7,2.6-3.1,4.9-3.1h20.6c4.3,0,7.8,3.5,7.8,7.8
		v16.7V77.1L200.6,77.1z M203.7,74.1h91.2V24.2c0-3.7-3-6.7-6.7-6.7h-77.7c-3.7,0-6.7,3-6.7,6.7V74.1L203.7,74.1z M111.6,69.3H74.7
		v17L24.2,57.2l50.5-29.1v17h36.9V69.3L111.6,69.3z"/>
</g>
</svg>
