<?xml version="1.0" encoding="utf-8"?>
<svg version="1.1"
	 xmlns="http://www.w3.org/2000/svg"
	 x="0px" y="0px" viewBox="0 0 340.7 114.6" enable-background="new 0 0 340.7 114.6" xml:space="preserve">
<g>
	
		<path fill-rule="evenodd" clip-rule="evenodd" fill="#FFFFFF" stroke="#000000" stroke-width="0.5669" stroke-miterlimit="22.9256" d="
		M15.7,0.3H325c8.5,0,15.4,6.9,15.4,15.4v83.2c0,8.5-6.9,15.4-15.4,15.4H15.7c-8.5,0-15.4-6.9-15.4-15.4V15.7
		C0.3,7.2,7.2,0.3,15.7,0.3L15.7,0.3z"/>
	<path fill-rule="evenodd" clip-rule="evenodd" fill="#3298DF" d="M203.7,74.1h91.2V24.2c0-3.7-3-6.7-6.7-6.7h-77.7
		c-3.7,0-6.7,3-6.7,6.7V74.1L203.7,74.1z M200.6,77.1h63.1c-6.2,1.4-10.8,6.8-10.9,13.4h-55.4c-0.2-7.6-6.4-13.7-14-13.7
		c-7.6,0-13.9,6.1-14,13.7h-7.2c-3.9,0-7.1-3.2-7.1-7.1v-6.3V62.8v-2.3c0.2-1.2,0.6-2.3,1.4-3.4l10.8-15.7c1.2-1.7,2.6-3.1,4.9-3.1
		h20.6c4.3,0,7.8,3.5,7.8,7.8v16.7V77.1L200.6,77.1z M269.8,77.1h25v13.4h-14.1C280.6,83.9,276,78.4,269.8,77.1L269.8,77.1z
		 M183.4,84.5c3.5,0,6.3,2.8,6.3,6.3c0,3.5-2.8,6.3-6.3,6.3c-3.5,0-6.3-2.8-6.3-6.3C177.1,87.3,179.9,84.5,183.4,84.5L183.4,84.5z
		 M183.4,78.5c6.8,0,12.3,5.5,12.3,12.3c0,6.8-5.5,12.3-12.3,12.3c-6.8,0-12.3-5.5-12.3-12.3C171.1,84,176.6,78.5,183.4,78.5
		L183.4,78.5z M266.8,84.5c3.5,0,6.3,2.8,6.3,6.3c0,3.5-2.8,6.3-6.3,6.3c-3.5,0-6.3-2.8-6.3-6.3C260.5,87.3,263.3,84.5,266.8,84.5
		L266.8,84.5z M266.8,78.5c6.8,0,12.3,5.5,12.3,12.3c0,6.8-5.5,12.3-12.3,12.3s-12.3-5.5-12.3-12.3C254.5,84,260,78.5,266.8,78.5
		L266.8,78.5z M172.9,42.5h16.9c2.1,0,3.9,1.8,3.9,3.9v9.9c0,2.1-1.8,3.9-3.9,3.9H167c-3.5,0-4.5-4.1-3.1-6.3l6.5-9.7
		C171,43.2,171.7,42.5,172.9,42.5L172.9,42.5z M16.3,3.5h308.1c6.9,0,12.6,5.7,12.6,12.6v82.4c0,6.9-5.7,12.6-12.6,12.6H69.7V74.7
		h17.2L57.6,24.2L28.2,74.7h17.2v36.4H16.3c-6.9,0-12.6-5.7-12.6-12.6V16.1C3.7,9.2,9.4,3.5,16.3,3.5L16.3,3.5z"/>
</g>
</svg>
