<?xml version="1.0" encoding="utf-8"?>
<svg version="1.1"
	 xmlns="http://www.w3.org/2000/svg"
	 x="0px" y="0px" viewBox="0 0 340.7 114.6" enable-background="new 0 0 340.7 114.6" xml:space="preserve">
<g>
	
		<path fill-rule="evenodd" clip-rule="evenodd" fill="#FFFFFF" stroke="#000000" stroke-width="0.5669" stroke-miterlimit="22.9256" d="
		M15.7,0.3H325c8.5,0,15.4,6.9,15.4,15.4v83.2c0,8.5-6.9,15.4-15.4,15.4H15.7c-8.5,0-15.4-6.9-15.4-15.4V15.7
		C0.3,7.2,7.2,0.3,15.7,0.3L15.7,0.3z"/>
	<path fill-rule="evenodd" clip-rule="evenodd" fill="#3298DF" d="M324.4,3.5H16.3C9.4,3.5,3.7,9.2,3.7,16.1v82.4
		c0,6.9,5.7,12.6,12.6,12.6c243.4,0,255.2,0,308.1,0c6.9,0,12.6-5.7,12.6-12.6V16.1C337,9.2,331.4,3.5,324.4,3.5L324.4,3.5z
		 M167.8,42.5h-16.9c-2.1,0-3.9,1.8-3.9,3.9v9.9c0,2.1,1.7,3.9,3.9,3.9h22.8c3.5,0,4.5-4.1,3.1-6.3l-6.5-9.7
		C169.7,43.2,169,42.5,167.8,42.5L167.8,42.5z M74,78.5c-6.8,0-12.3,5.5-12.3,12.3c0,6.8,5.5,12.3,12.3,12.3
		c6.8,0,12.3-5.5,12.3-12.3C86.2,84,80.7,78.5,74,78.5L74,78.5z M74,84.5c-3.5,0-6.3,2.8-6.3,6.3c0,3.5,2.8,6.3,6.3,6.3
		c3.5,0,6.3-2.8,6.3-6.3C80.2,87.3,77.4,84.5,74,84.5L74,84.5z M157.3,78.5c-6.8,0-12.3,5.5-12.3,12.3c0,6.8,5.5,12.3,12.3,12.3
		c6.8,0,12.3-5.5,12.3-12.3C169.6,84,164.1,78.5,157.3,78.5L157.3,78.5z M157.3,84.5c-3.5,0-6.3,2.8-6.3,6.3c0,3.5,2.8,6.3,6.3,6.3
		c3.5,0,6.3-2.8,6.3-6.3C163.6,87.3,160.8,84.5,157.3,84.5L157.3,84.5z M70.9,77.1h-25v13.4h14.1C60.1,83.9,64.7,78.4,70.9,77.1
		L70.9,77.1z M140.1,77.1H77c6.2,1.4,10.8,6.8,10.9,13.4h55.4c0.2-7.6,6.4-13.7,14-13.7c7.6,0,13.9,6.1,14,13.7h7.2
		c3.9,0,7.1-3.2,7.1-7.1v-6.3V62.8v-2.3c-0.2-1.2-0.6-2.3-1.4-3.4l-10.8-15.7c-1.2-1.7-2.6-3.1-4.9-3.1h-20.6
		c-4.3,0-7.8,3.5-7.8,7.8v16.7V77.1L140.1,77.1z M137,74.1H45.8V24.2c0-3.7,3-6.7,6.7-6.7h77.7c3.7,0,6.7,3,6.7,6.7V74.1L137,74.1z
		 M229.1,69.3H266v17l50.5-29.1L266,28.1v17h-36.9V69.3L229.1,69.3z"/>
</g>
</svg>
