<?xml version="1.0" encoding="utf-8"?>
<svg version="1.1"
	 xmlns="http://www.w3.org/2000/svg"
	 x="0px" y="0px" viewBox="0 0 340.7 114.6" enable-background="new 0 0 340.7 114.6" xml:space="preserve">
<g>
	
		<path fill-rule="evenodd" clip-rule="evenodd" fill="#FFFFFF" stroke="#000000" stroke-width="0.5669" stroke-miterlimit="22.9256" d="
		M15.7,0.3H325c8.5,0,15.4,6.9,15.4,15.4v83.2c0,8.5-6.9,15.4-15.4,15.4H15.7c-8.5,0-15.4-6.9-15.4-15.4V15.7
		C0.3,7.2,7.2,0.3,15.7,0.3L15.7,0.3z"/>
	<path fill-rule="evenodd" clip-rule="evenodd" d="M16.3,3.5h308.1c6.9,0,12.6,5.7,12.6,12.6v82.4c0,6.9-5.7,12.6-12.6,12.6
		c-243.4,0-255.2,0-308.1,0c-6.9,0-12.6-5.7-12.6-12.6V16.1C3.7,9.2,9.4,3.5,16.3,3.5L16.3,3.5z M16.7,6.3H324
		c5.6,0,10.1,4.5,10.1,10.1v81.7c0,5.6-4.5,10.1-10.1,10.1H16.7c-5.6,0-10.1-4.5-10.1-10.1V16.4C6.6,10.9,11.2,6.3,16.7,6.3
		L16.7,6.3z M116.3,22.9h23.2h23.2V35h-16.8v56.8h-6.4h-6.4V35h-16.8V22.9L116.3,22.9z M183.2,57.3c0,7.8,1.4,13.7,4.3,17.7
		c5.8,8.1,16.1,8.1,21.9,0c2.8-4,4.3-10,4.3-18c0-7.9-1.4-13.8-4.1-17.7c-5.6-7.9-16.5-7.8-22.1,0.1
		C184.6,43.4,183.2,49.3,183.2,57.3L183.2,57.3z M171.7,57.7c0-21.2,8.9-36,26.6-36c17.4,0,26.8,14.7,26.8,35.7
		c0,21.4-9.7,35.5-26.6,35.5C181.5,92.9,171.7,79,171.7,57.7L171.7,57.7z M101.7,70.5C99.9,83.4,89,92.7,77.3,92.9
		c-17.4,0.4-26.4-15.6-26.4-35c0-11.5,2.5-20.4,7.5-26.7c5-6.3,11.5-9.7,19.6-9.5c12.4,0.3,20.1,7.7,23.3,21.5
		c-3.7,1.2-7.4,2.4-11.1,3.6c0.1,0-3-13.7-12.8-13.8c-10.3-0.1-14.1,12.9-14.2,24.8c0,10.6,3,23.9,13.9,23.9c7,0,11.7-7.1,13.1-14.4
		L101.7,70.5L101.7,70.5z M240.2,22.9h46.2v68.9h-11.3V34.7h-23.7v57.1h-11.3V22.9L240.2,22.9z"/>
</g>
</svg>
