<?xml version="1.0" encoding="utf-8"?>
<svg version="1.1"
	 xmlns="http://www.w3.org/2000/svg"
	 x="0px" y="0px" viewBox="0 0 340.7 114.6" enable-background="new 0 0 340.7 114.6" xml:space="preserve">
<g>
	
		<path fill-rule="evenodd" clip-rule="evenodd" fill="#FFFFFF" stroke="#000000" stroke-width="0.5669" stroke-miterlimit="22.9256" d="
		M15.7,0.3H325c8.5,0,15.4,6.9,15.4,15.4v83.2c0,8.5-6.9,15.4-15.4,15.4H15.7c-8.5,0-15.4-6.9-15.4-15.4V15.7
		C0.3,7.2,7.2,0.3,15.7,0.3L15.7,0.3z"/>
	<path fill-rule="evenodd" clip-rule="evenodd" fill="#F6F100" d="M16.7,6.3H324c0.1,0,0.2,0,0.3,0l0,0c0.1,0,0.2,0,0.3,0v0
		c0.1,0,0.2,0,0.3,0v0c0.1,0,0.2,0,0.3,0v0c0.1,0,0.2,0,0.3,0v0c0.1,0,0.2,0,0.3,0v0c0.1,0,0.2,0,0.2,0v0c0.1,0,0.2,0,0.2,0v0
		c0.1,0,0.2,0,0.2,0.1l0,0c0.1,0,0.2,0,0.2,0.1v0c0.1,0,0.2,0,0.2,0.1l0,0c0.1,0,0.2,0,0.2,0.1v0c0.1,0,0.2,0,0.2,0.1l0,0
		c0.1,0,0.2,0.1,0.2,0.1l0,0c0.1,0,0.2,0.1,0.2,0.1v0c0.1,0,0.2,0.1,0.2,0.1v0c0.1,0,0.2,0.1,0.2,0.1l0,0c0.1,0,0.1,0.1,0.2,0.1l0,0
		c0.1,0,0.1,0.1,0.2,0.1v0c0.1,0,0.1,0.1,0.2,0.1l0,0c0.1,0,0.1,0.1,0.2,0.1v0c0.1,0,0.1,0.1,0.2,0.1v0c0.1,0,0.1,0.1,0.2,0.1l0,0
		c0.1,0,0.1,0.1,0.2,0.1v0c0.1,0,0.1,0.1,0.2,0.1v0c0.1,0,0.1,0.1,0.2,0.1v0c0.1,0,0.1,0.1,0.2,0.1v0c0.1,0,0.1,0.1,0.2,0.2v0
		c0.1,0.1,0.1,0.1,0.2,0.2v0c0.1,0.1,0.1,0.1,0.2,0.2l0,0c0.1,0.1,0.1,0.1,0.2,0.2v0c0.1,0.1,0.1,0.1,0.2,0.2v0
		c0.1,0.1,0.1,0.1,0.2,0.2l0,0c0.1,0.1,0.1,0.1,0.2,0.2l0,0c0.1,0.1,0.1,0.1,0.2,0.2v0c0.1,0.1,0.1,0.1,0.2,0.2v0
		c0.1,0.1,0.1,0.1,0.2,0.2l0,0c0.1,0.1,0.1,0.1,0.1,0.2v0c0,0.1,0.1,0.1,0.1,0.2v0c0,0.1,0.1,0.1,0.1,0.2v0c0,0.1,0.1,0.1,0.1,0.2
		l0,0c0,0.1,0.1,0.1,0.1,0.2l0,0c0,0.1,0.1,0.1,0.1,0.2v0c0,0.1,0.1,0.1,0.1,0.2v0c0,0.1,0.1,0.1,0.1,0.2l0,0c0,0.1,0.1,0.1,0.1,0.2
		l0,0c0,0.1,0.1,0.1,0.1,0.2v0c0,0.1,0.1,0.1,0.1,0.2v0c0,0.1,0.1,0.2,0.1,0.2v0c0,0.1,0.1,0.2,0.1,0.2l0,0c0,0.1,0.1,0.2,0.1,0.2
		l0,0c0,0.1,0.1,0.2,0.1,0.2l0,0c0,0.1,0,0.2,0.1,0.2v0c0,0.1,0,0.2,0.1,0.2v0c0,0.1,0,0.2,0.1,0.2v0c0,0.1,0,0.2,0.1,0.2l0,0
		c0,0.1,0,0.2,0,0.2v0c0,0.1,0,0.2,0,0.2v0c0,0.1,0,0.2,0,0.3l0,0c0,0.1,0,0.2,0,0.3v0c0,0.1,0,0.2,0,0.3l0,0c0,0.1,0,0.2,0,0.3l0,0
		c0,0.1,0,0.2,0,0.3l0,0c0,0.1,0,0.2,0,0.3l0,0v81.7l0,0c0,0.1,0,0.2,0,0.3l0,0c0,0.1,0,0.2,0,0.3l0,0c0,0.1,0,0.2,0,0.3l0,0
		c0,0.1,0,0.2,0,0.3l0,0c0,0.1,0,0.2,0,0.3l0,0c0,0.1,0,0.2,0,0.3l0,0c0,0.1,0,0.2,0,0.2v0c0,0.1,0,0.2,0,0.2v0c0,0.1,0,0.2-0.1,0.2
		l0,0c0,0.1,0,0.2-0.1,0.2l0,0c0,0.1,0,0.2-0.1,0.2v0c0,0.1,0,0.2-0.1,0.2v0c0,0.1-0.1,0.2-0.1,0.2l0,0c0,0.1-0.1,0.2-0.1,0.2l0,0
		c0,0.1-0.1,0.2-0.1,0.2v0c0,0.1-0.1,0.2-0.1,0.2l0,0c0,0.1-0.1,0.2-0.1,0.2l0,0c0,0.1-0.1,0.1-0.1,0.2v0c0,0.1-0.1,0.1-0.1,0.2l0,0
		c0,0.1-0.1,0.1-0.1,0.2l0,0c0,0.1-0.1,0.1-0.1,0.2l0,0c0,0.1-0.1,0.1-0.1,0.2l0,0c0,0.1-0.1,0.1-0.1,0.2v0c0,0.1-0.1,0.1-0.1,0.2v0
		c0,0.1-0.1,0.1-0.1,0.2l0,0c0,0.1-0.1,0.1-0.1,0.2l0,0c0,0.1-0.1,0.1-0.1,0.2v0c0,0.1-0.1,0.1-0.2,0.2l0,0
		c-0.1,0.1-0.1,0.1-0.2,0.2v0c-0.1,0.1-0.1,0.1-0.2,0.2l0,0c-0.1,0.1-0.1,0.1-0.2,0.2l0,0c-0.1,0.1-0.1,0.1-0.2,0.2l0,0
		c-0.1,0.1-0.1,0.1-0.2,0.2v0c-0.1,0.1-0.1,0.1-0.2,0.2l0,0c-0.1,0.1-0.1,0.1-0.2,0.2l0,0c-0.1,0.1-0.1,0.1-0.2,0.2v0
		c-0.1,0.1-0.1,0.1-0.2,0.2v0c-0.1,0-0.1,0.1-0.2,0.1l0,0c-0.1,0-0.1,0.1-0.2,0.1l0,0c-0.1,0-0.1,0.1-0.2,0.1l0,0
		c-0.1,0-0.1,0.1-0.2,0.1l0,0c-0.1,0-0.1,0.1-0.2,0.1v0c-0.1,0-0.1,0.1-0.2,0.1l0,0c-0.1,0-0.1,0.1-0.2,0.1l0,0
		c-0.1,0-0.1,0.1-0.2,0.1v0c-0.1,0-0.1,0.1-0.2,0.1l0,0c-0.1,0-0.1,0.1-0.2,0.1l0,0c-0.1,0-0.1,0.1-0.2,0.1l0,0
		c-0.1,0-0.2,0.1-0.2,0.1v0c-0.1,0-0.2,0.1-0.2,0.1l0,0c-0.1,0-0.2,0.1-0.2,0.1v0c-0.1,0-0.2,0.1-0.2,0.1l0,0c-0.1,0-0.2,0-0.2,0.1
		l0,0c-0.1,0-0.2,0-0.2,0.1l0,0c-0.1,0-0.2,0-0.2,0.1l0,0c-0.1,0-0.2,0-0.2,0.1l0,0c-0.1,0-0.2,0-0.2,0v0c-0.1,0-0.2,0-0.2,0l0,0
		c-0.1,0-0.2,0-0.3,0l0,0c-0.1,0-0.2,0-0.3,0l0,0c-0.1,0-0.2,0-0.3,0v0c-0.1,0-0.2,0-0.3,0l0,0c-0.1,0-0.2,0-0.3,0l0,0
		c-0.1,0-0.2,0-0.3,0H16.7c-0.1,0-0.2,0-0.3,0l0,0c-0.1,0-0.2,0-0.3,0l0,0c-0.1,0-0.2,0-0.3,0v0c-0.1,0-0.2,0-0.3,0l0,0
		c-0.1,0-0.2,0-0.3,0l0,0c-0.1,0-0.2,0-0.3,0l0,0c-0.1,0-0.2,0-0.2,0v0c-0.1,0-0.2,0-0.2,0l0,0c-0.1,0-0.2,0-0.2-0.1l0,0
		c-0.1,0-0.2,0-0.2-0.1l0,0c-0.1,0-0.2,0-0.2-0.1l0,0c-0.1,0-0.2,0-0.2-0.1l0,0c-0.1,0-0.2,0-0.2-0.1v0c-0.1,0-0.2-0.1-0.2-0.1l0,0
		c-0.1,0-0.2-0.1-0.2-0.1v0c-0.1,0-0.2-0.1-0.2-0.1l0,0c-0.1,0-0.2-0.1-0.2-0.1l0,0c-0.1,0-0.1-0.1-0.2-0.1l0,0
		c-0.1,0-0.1-0.1-0.2-0.1v0c-0.1,0-0.1-0.1-0.2-0.1l0,0c-0.1,0-0.1-0.1-0.2-0.1l0,0c-0.1,0-0.1-0.1-0.2-0.1v0
		c-0.1,0-0.1-0.1-0.2-0.1l0,0c-0.1,0-0.1-0.1-0.2-0.1l0,0c-0.1,0-0.1-0.1-0.2-0.1l0,0c-0.1,0-0.1-0.1-0.2-0.1l0,0
		c-0.1,0-0.1-0.1-0.2-0.1v0c-0.1,0-0.1-0.1-0.2-0.2v0c-0.1-0.1-0.1-0.1-0.2-0.2l0,0c-0.1-0.1-0.1-0.1-0.2-0.2l0,0
		c-0.1-0.1-0.1-0.1-0.2-0.2v0c-0.1-0.1-0.1-0.1-0.2-0.2l0,0c-0.1-0.1-0.1-0.1-0.2-0.2l0,0c-0.1-0.1-0.1-0.1-0.2-0.2l0,0
		c-0.1-0.1-0.1-0.1-0.2-0.2v0c-0.1-0.1-0.1-0.1-0.2-0.2l0,0c-0.1-0.1-0.1-0.1-0.2-0.2v0c-0.1-0.1-0.1-0.1-0.1-0.2l0,0
		c0-0.1-0.1-0.1-0.1-0.2l0,0c0-0.1-0.1-0.1-0.1-0.2v0c0-0.1-0.1-0.1-0.1-0.2v0c0-0.1-0.1-0.1-0.1-0.2l0,0c0-0.1-0.1-0.1-0.1-0.2l0,0
		c0-0.1-0.1-0.1-0.1-0.2l0,0c0-0.1-0.1-0.1-0.1-0.2l0,0c0-0.1-0.1-0.1-0.1-0.2v0c0-0.1-0.1-0.1-0.1-0.2l0,0c0-0.1-0.1-0.1-0.1-0.2
		l0,0c0-0.1-0.1-0.2-0.1-0.2v0c0-0.1-0.1-0.2-0.1-0.2l0,0c0-0.1-0.1-0.2-0.1-0.2l0,0c0-0.1-0.1-0.2-0.1-0.2v0c0-0.1,0-0.2-0.1-0.2v0
		c0-0.1,0-0.2-0.1-0.2l0,0c0-0.1,0-0.2-0.1-0.2l0,0c0-0.1,0-0.2-0.1-0.2v0c0-0.1,0-0.2,0-0.2v0c0-0.1,0-0.2,0-0.2l0,0
		c0-0.1,0-0.2,0-0.3l0,0c0-0.1,0-0.2,0-0.3l0,0c0-0.1,0-0.2,0-0.3l0,0c0-0.1,0-0.2,0-0.3l0,0c0-0.1,0-0.2,0-0.3l0,0
		c0-0.1,0-0.2,0-0.3l0,0V16.4l0,0c0-0.1,0-0.2,0-0.3l0,0c0-0.1,0-0.2,0-0.3l0,0c0-0.1,0-0.2,0-0.3l0,0c0-0.1,0-0.2,0-0.3v0
		c0-0.1,0-0.2,0-0.3l0,0c0-0.1,0-0.2,0-0.3v0c0-0.1,0-0.2,0-0.2v0c0-0.1,0-0.2,0-0.2l0,0c0-0.1,0-0.2,0.1-0.2v0c0-0.1,0-0.2,0.1-0.2
		v0c0-0.1,0-0.2,0.1-0.2v0c0-0.1,0-0.2,0.1-0.2l0,0c0-0.1,0.1-0.2,0.1-0.2l0,0c0-0.1,0.1-0.2,0.1-0.2l0,0c0-0.1,0.1-0.2,0.1-0.2v0
		c0-0.1,0.1-0.2,0.1-0.2v0c0-0.1,0.1-0.1,0.1-0.2v0c0-0.1,0.1-0.1,0.1-0.2l0,0c0-0.1,0.1-0.1,0.1-0.2l0,0c0-0.1,0.1-0.1,0.1-0.2v0
		c0-0.1,0.1-0.1,0.1-0.2v0c0-0.1,0.1-0.1,0.1-0.2l0,0c0-0.1,0.1-0.1,0.1-0.2l0,0c0-0.1,0.1-0.1,0.1-0.2v0c0-0.1,0.1-0.1,0.1-0.2v0
		c0-0.1,0.1-0.1,0.1-0.2v0c0-0.1,0.1-0.1,0.1-0.2l0,0c0-0.1,0.1-0.1,0.2-0.2v0C9,10,9.1,9.9,9.1,9.8v0c0.1-0.1,0.1-0.1,0.2-0.2l0,0
		c0.1-0.1,0.1-0.1,0.2-0.2l0,0c0.1-0.1,0.1-0.1,0.2-0.2v0c0.1-0.1,0.1-0.1,0.2-0.2v0C9.8,9.1,9.9,9,10,9l0,0
		c0.1-0.1,0.1-0.1,0.2-0.2v0c0.1-0.1,0.1-0.1,0.2-0.2v0c0.1-0.1,0.1-0.1,0.2-0.2v0c0.1,0,0.1-0.1,0.2-0.1v0c0.1,0,0.1-0.1,0.2-0.1v0
		c0.1,0,0.1-0.1,0.2-0.1v0c0.1,0,0.1-0.1,0.2-0.1l0,0c0.1,0,0.1-0.1,0.2-0.1v0c0.1,0,0.1-0.1,0.2-0.1v0c0.1,0,0.1-0.1,0.2-0.1l0,0
		c0.1,0,0.1-0.1,0.2-0.1v0c0.1,0,0.1-0.1,0.2-0.1l0,0c0.1,0,0.1-0.1,0.2-0.1l0,0c0.1,0,0.1-0.1,0.2-0.1v0c0.1,0,0.2-0.1,0.2-0.1v0
		C13.1,7,13.2,7,13.3,7l0,0c0.1,0,0.2-0.1,0.2-0.1l0,0c0.1,0,0.2-0.1,0.2-0.1v0c0.1,0,0.2,0,0.2-0.1l0,0c0.1,0,0.2,0,0.2-0.1v0
		c0.1,0,0.2,0,0.2-0.1l0,0c0.1,0,0.2,0,0.2-0.1v0c0.1,0,0.2,0,0.2,0v0c0.1,0,0.2,0,0.2,0v0c0.1,0,0.2,0,0.3,0v0c0.1,0,0.2,0,0.3,0v0
		c0.1,0,0.2,0,0.3,0v0c0.1,0,0.2,0,0.3,0v0c0.1,0,0.2,0,0.3,0l0,0C16.6,6.3,16.7,6.3,16.7,6.3L16.7,6.3z M129,57.4
		c0,10.1,7.8,11.6,11.4,7.1c3.4-4.3,2.8-16.6-4.7-16.6C131.1,47.9,129,52.5,129,57.4L129,57.4z M122.1,57c0-8.1,5.1-15.2,13.6-15.2
		c18.4,0,18,31.3,0.1,31.3c-5,0-9.7-2.6-11.9-7.3C122.7,63.3,122.1,60.4,122.1,57L122.1,57z M182.1,29.6c-0.2,2.4-0.8,5.5-2,6.5
		c-1.4,1.1-1.3,0.8-3.8,0.8c-4.4,0.1-10.1-0.9-13.2,3.5c-1.2,1.7-1.6,3.9-1.7,6.8c2.9-6,21.6-7.4,21.6,10.3
		c0,18.8-21.6,19.8-26.2,6.8c-2-5.5-2.4-13.4-1.5-19.2c1.4-9.1,6-14.4,16-14.4h7.1C179.4,30.7,181.9,30.1,182.1,29.6L182.1,29.6z
		 M162.6,58c0,12.4,13.6,12,13.6,0C176.1,45.9,162.6,45.8,162.6,58L162.6,58z M186.8,42.6h13V53h6.7c6.2,0,10.4,2.7,10.4,9.5
		c0,5.6-4,9.5-10.4,9.5h-13.7V48.8h-6.1V42.6L186.8,42.6z M199.8,66.4c2.1,0,6.8,0.1,8.4-0.3c3.2-0.8,3.6-5,1.4-6.5
		c-1.8-1.3-6.9-1-9.8-1V66.4L199.8,66.4z M243.5,63.1l5.4,3.5c-2.2,3.9-7.7,6.5-12.8,6.5c-19.8-0.1-18.1-31.3-0.8-31.3
		c9,0,15.4,8.4,13.4,17.6h-19.4c0.1,2.3,1.1,4.5,2.3,5.8C235.1,68.7,241.6,66.8,243.5,63.1L243.5,63.1z M241.7,54.3
		c-0.1-3.6-2-6.7-6-6.7c-4.3,0-6.3,2.6-6.2,6.7H241.7L241.7,54.3z M274.1,57c8.2-2.4,6.7-17.1-11.1-14.8c-2.5,0.3-5.4,1.7-7.6,3
		l3.5,5.5c7.6-4.6,13.2-2,13.1,0.9c-0.1,4-5,3.1-7.1,3.3V60c2.8,0,7.9-0.4,7.9,3.6c0,5.5-11.4,4.2-14.7-0.3l-4.4,5
		c7.1,6.6,26.8,7.2,26.5-4.6C280,60.1,276.5,57.3,274.1,57L274.1,57z M308.9,71.9h-19.4v5.9h-6.2v-12h3.1c2.9-2.9,4-19.2,3.9-23.2
		h21.4v23.2h3.5v12h-6.2V71.9L308.9,71.9z M304.5,65.8l0-17.4h-7.9c-0.3,7.7-1.5,14.6-3.7,17.4H304.5L304.5,65.8z M108.2,45.2H72.3
		V27.9L22,57.3l50.3,29.4V69.4h35.9V45.2L108.2,45.2z"/>
	<path fill-rule="evenodd" clip-rule="evenodd" d="M16.3,3.5h308.1c6.9,0,12.6,5.7,12.6,12.6v82.4c0,6.9-5.7,12.6-12.6,12.6
		c-243.4,0-255.2,0-308.1,0c-6.9,0-12.6-5.7-12.6-12.6V16.1C3.7,9.2,9.4,3.5,16.3,3.5L16.3,3.5z M16.7,6.3H324
		c5.6,0,10.1,4.5,10.1,10.1v81.7c0,5.6-4.5,10.1-10.1,10.1H16.7c-5.6,0-10.1-4.5-10.1-10.1V16.4C6.6,10.9,11.2,6.3,16.7,6.3
		L16.7,6.3z M129,57.4c0,10.1,7.8,11.6,11.4,7.1c3.4-4.3,2.8-16.6-4.7-16.6C131.1,47.9,129,52.5,129,57.4L129,57.4z M122.1,57
		c0-8.1,5.1-15.2,13.6-15.2c18.4,0,18,31.3,0.1,31.3c-5,0-9.7-2.6-11.9-7.3C122.7,63.3,122.1,60.4,122.1,57L122.1,57z M182.1,29.6
		c-0.2,2.4-0.8,5.5-2,6.5c-1.4,1.1-1.3,0.8-3.8,0.8c-4.4,0.1-10.1-0.9-13.2,3.5c-1.2,1.7-1.6,3.9-1.7,6.8c2.9-6,21.6-7.4,21.6,10.3
		c0,18.8-21.6,19.8-26.2,6.8c-2-5.5-2.4-13.4-1.5-19.2c1.4-9.1,6-14.4,16-14.4h7.1C179.4,30.7,181.9,30.1,182.1,29.6L182.1,29.6z
		 M162.6,58c0,12.4,13.6,12,13.6,0C176.1,45.9,162.6,45.8,162.6,58L162.6,58z M186.8,42.6h13V53h6.7c6.2,0,10.4,2.7,10.4,9.5
		c0,5.6-4,9.5-10.4,9.5h-13.7V48.8h-6.1V42.6L186.8,42.6z M199.8,66.4c2.1,0,6.8,0.1,8.4-0.3c3.2-0.8,3.6-5,1.4-6.5
		c-1.8-1.3-6.9-1-9.8-1V66.4L199.8,66.4z M243.5,63.1l5.4,3.5c-2.2,3.9-7.7,6.5-12.8,6.5c-19.8-0.1-18.1-31.3-0.8-31.3
		c9,0,15.4,8.4,13.4,17.6h-19.4c0.1,2.3,1.1,4.5,2.3,5.8C235.1,68.7,241.6,66.8,243.5,63.1L243.5,63.1z M241.7,54.3
		c-0.1-3.6-2-6.7-6-6.7c-4.3,0-6.3,2.6-6.2,6.7H241.7L241.7,54.3z M274.1,57c8.2-2.4,6.7-17.1-11.1-14.8c-2.5,0.3-5.4,1.7-7.6,3
		l3.5,5.5c7.6-4.6,13.2-2,13.1,0.9c-0.1,4-5,3.1-7.1,3.3V60c2.8,0,7.9-0.4,7.9,3.6c0,5.5-11.4,4.2-14.7-0.3l-4.4,5
		c7.1,6.6,26.8,7.2,26.5-4.6C280,60.1,276.5,57.3,274.1,57L274.1,57z M308.9,71.9h-19.4v5.9h-6.2v-12h3.1c2.9-2.9,4-19.2,3.9-23.2
		h21.4v23.2h3.5v12h-6.2V71.9L308.9,71.9z M304.5,65.8l0-17.4h-7.9c-0.3,7.7-1.5,14.6-3.7,17.4H304.5L304.5,65.8z M108.2,45.2H72.3
		V27.9L22,57.3l50.3,29.4V69.4h35.9V45.2L108.2,45.2z"/>
</g>
</svg>
