<?xml version="1.0" encoding="utf-8"?>
<svg version="1.1"
	 xmlns="http://www.w3.org/2000/svg"
	 x="0px" y="0px" viewBox="0 0 340.7 114.6" enable-background="new 0 0 340.7 114.6" xml:space="preserve">
<g>
	
		<path fill-rule="evenodd" clip-rule="evenodd" fill="#FFFFFF" stroke="#000000" stroke-width="0.5669" stroke-miterlimit="22.9256" d="
		M15.7,0.3H325c8.5,0,15.4,6.9,15.4,15.4v83.2c0,8.5-6.9,15.4-15.4,15.4H15.7c-8.5,0-15.4-6.9-15.4-15.4V15.7
		C0.3,7.2,7.2,0.3,15.7,0.3L15.7,0.3z"/>
	<path fill-rule="evenodd" clip-rule="evenodd" fill="#F6F100" d="M232,45.2h36V27.9l50.3,29.4L268,86.7V69.4h-36V45.2L232,45.2z
		 M16.7,6.3H324c0.1,0,0.2,0,0.3,0l0,0c0.1,0,0.2,0,0.3,0v0c0.1,0,0.2,0,0.3,0v0c0.1,0,0.2,0,0.3,0v0c0.1,0,0.2,0,0.3,0v0
		c0.1,0,0.2,0,0.3,0v0c0.1,0,0.2,0,0.2,0v0c0.1,0,0.2,0,0.2,0v0c0.1,0,0.2,0,0.2,0.1l0,0c0.1,0,0.2,0,0.2,0.1v0c0.1,0,0.2,0,0.2,0.1
		l0,0c0.1,0,0.2,0,0.2,0.1v0c0.1,0,0.2,0,0.2,0.1l0,0c0.1,0,0.2,0.1,0.2,0.1l0,0c0.1,0,0.2,0.1,0.2,0.1v0c0.1,0,0.2,0.1,0.2,0.1v0
		c0.1,0,0.2,0.1,0.2,0.1l0,0c0.1,0,0.1,0.1,0.2,0.1l0,0c0.1,0,0.1,0.1,0.2,0.1v0c0.1,0,0.1,0.1,0.2,0.1l0,0c0.1,0,0.1,0.1,0.2,0.1v0
		c0.1,0,0.1,0.1,0.2,0.1v0c0.1,0,0.1,0.1,0.2,0.1l0,0c0.1,0,0.1,0.1,0.2,0.1v0c0.1,0,0.1,0.1,0.2,0.1v0c0.1,0,0.1,0.1,0.2,0.1v0
		c0.1,0,0.1,0.1,0.2,0.1v0c0.1,0,0.1,0.1,0.2,0.2v0c0.1,0.1,0.1,0.1,0.2,0.2v0c0.1,0.1,0.1,0.1,0.2,0.2l0,0c0.1,0.1,0.1,0.1,0.2,0.2
		v0c0.1,0.1,0.1,0.1,0.2,0.2v0c0.1,0.1,0.1,0.1,0.2,0.2l0,0c0.1,0.1,0.1,0.1,0.2,0.2l0,0c0.1,0.1,0.1,0.1,0.2,0.2v0
		c0.1,0.1,0.1,0.1,0.2,0.2v0c0.1,0.1,0.1,0.1,0.2,0.2l0,0c0.1,0.1,0.1,0.1,0.1,0.2v0c0,0.1,0.1,0.1,0.1,0.2v0c0,0.1,0.1,0.1,0.1,0.2
		v0c0,0.1,0.1,0.1,0.1,0.2l0,0c0,0.1,0.1,0.1,0.1,0.2l0,0c0,0.1,0.1,0.1,0.1,0.2v0c0,0.1,0.1,0.1,0.1,0.2v0c0,0.1,0.1,0.1,0.1,0.2
		l0,0c0,0.1,0.1,0.1,0.1,0.2l0,0c0,0.1,0.1,0.1,0.1,0.2v0c0,0.1,0.1,0.1,0.1,0.2v0c0,0.1,0.1,0.2,0.1,0.2v0c0,0.1,0.1,0.2,0.1,0.2
		l0,0c0,0.1,0.1,0.2,0.1,0.2l0,0c0,0.1,0.1,0.2,0.1,0.2l0,0c0,0.1,0,0.2,0.1,0.2v0c0,0.1,0,0.2,0.1,0.2v0c0,0.1,0,0.2,0.1,0.2v0
		c0,0.1,0,0.2,0.1,0.2l0,0c0,0.1,0,0.2,0,0.2v0c0,0.1,0,0.2,0,0.2v0c0,0.1,0,0.2,0,0.3l0,0c0,0.1,0,0.2,0,0.3v0c0,0.1,0,0.2,0,0.3
		l0,0c0,0.1,0,0.2,0,0.3l0,0c0,0.1,0,0.2,0,0.3l0,0c0,0.1,0,0.2,0,0.3l0,0v81.7l0,0c0,0.1,0,0.2,0,0.3l0,0c0,0.1,0,0.2,0,0.3l0,0
		c0,0.1,0,0.2,0,0.3l0,0c0,0.1,0,0.2,0,0.3l0,0c0,0.1,0,0.2,0,0.3l0,0c0,0.1,0,0.2,0,0.3l0,0c0,0.1,0,0.2,0,0.2v0c0,0.1,0,0.2,0,0.2
		v0c0,0.1,0,0.2-0.1,0.2l0,0c0,0.1,0,0.2-0.1,0.2l0,0c0,0.1,0,0.2-0.1,0.2v0c0,0.1,0,0.2-0.1,0.2v0c0,0.1-0.1,0.2-0.1,0.2l0,0
		c0,0.1-0.1,0.2-0.1,0.2l0,0c0,0.1-0.1,0.2-0.1,0.2v0c0,0.1-0.1,0.2-0.1,0.2l0,0c0,0.1-0.1,0.2-0.1,0.2l0,0c0,0.1-0.1,0.1-0.1,0.2v0
		c0,0.1-0.1,0.1-0.1,0.2l0,0c0,0.1-0.1,0.1-0.1,0.2l0,0c0,0.1-0.1,0.1-0.1,0.2l0,0c0,0.1-0.1,0.1-0.1,0.2l0,0c0,0.1-0.1,0.1-0.1,0.2
		v0c0,0.1-0.1,0.1-0.1,0.2v0c0,0.1-0.1,0.1-0.1,0.2l0,0c0,0.1-0.1,0.1-0.1,0.2l0,0c0,0.1-0.1,0.1-0.1,0.2v0c0,0.1-0.1,0.1-0.2,0.2
		l0,0c-0.1,0.1-0.1,0.1-0.2,0.2v0c-0.1,0.1-0.1,0.1-0.2,0.2l0,0c-0.1,0.1-0.1,0.1-0.2,0.2l0,0c-0.1,0.1-0.1,0.1-0.2,0.2l0,0
		c-0.1,0.1-0.1,0.1-0.2,0.2v0c-0.1,0.1-0.1,0.1-0.2,0.2l0,0c-0.1,0.1-0.1,0.1-0.2,0.2l0,0c-0.1,0.1-0.1,0.1-0.2,0.2v0
		c-0.1,0.1-0.1,0.1-0.2,0.2v0c-0.1,0-0.1,0.1-0.2,0.1l0,0c-0.1,0-0.1,0.1-0.2,0.1l0,0c-0.1,0-0.1,0.1-0.2,0.1l0,0
		c-0.1,0-0.1,0.1-0.2,0.1l0,0c-0.1,0-0.1,0.1-0.2,0.1v0c-0.1,0-0.1,0.1-0.2,0.1l0,0c-0.1,0-0.1,0.1-0.2,0.1l0,0
		c-0.1,0-0.1,0.1-0.2,0.1v0c-0.1,0-0.1,0.1-0.2,0.1l0,0c-0.1,0-0.1,0.1-0.2,0.1l0,0c-0.1,0-0.1,0.1-0.2,0.1l0,0
		c-0.1,0-0.2,0.1-0.2,0.1v0c-0.1,0-0.2,0.1-0.2,0.1l0,0c-0.1,0-0.2,0.1-0.2,0.1v0c-0.1,0-0.2,0.1-0.2,0.1l0,0c-0.1,0-0.2,0-0.2,0.1
		l0,0c-0.1,0-0.2,0-0.2,0.1l0,0c-0.1,0-0.2,0-0.2,0.1l0,0c-0.1,0-0.2,0-0.2,0.1l0,0c-0.1,0-0.2,0-0.2,0v0c-0.1,0-0.2,0-0.2,0l0,0
		c-0.1,0-0.2,0-0.3,0l0,0c-0.1,0-0.2,0-0.3,0l0,0c-0.1,0-0.2,0-0.3,0v0c-0.1,0-0.2,0-0.3,0l0,0c-0.1,0-0.2,0-0.3,0l0,0
		c-0.1,0-0.2,0-0.3,0H16.7c-0.1,0-0.2,0-0.3,0l0,0c-0.1,0-0.2,0-0.3,0l0,0c-0.1,0-0.2,0-0.3,0v0c-0.1,0-0.2,0-0.3,0l0,0
		c-0.1,0-0.2,0-0.3,0l0,0c-0.1,0-0.2,0-0.3,0l0,0c-0.1,0-0.2,0-0.2,0v0c-0.1,0-0.2,0-0.2,0l0,0c-0.1,0-0.2,0-0.2-0.1l0,0
		c-0.1,0-0.2,0-0.2-0.1l0,0c-0.1,0-0.2,0-0.2-0.1l0,0c-0.1,0-0.2,0-0.2-0.1l0,0c-0.1,0-0.2,0-0.2-0.1v0c-0.1,0-0.2-0.1-0.2-0.1l0,0
		c-0.1,0-0.2-0.1-0.2-0.1v0c-0.1,0-0.2-0.1-0.2-0.1l0,0c-0.1,0-0.2-0.1-0.2-0.1l0,0c-0.1,0-0.1-0.1-0.2-0.1l0,0
		c-0.1,0-0.1-0.1-0.2-0.1v0c-0.1,0-0.1-0.1-0.2-0.1l0,0c-0.1,0-0.1-0.1-0.2-0.1l0,0c-0.1,0-0.1-0.1-0.2-0.1v0
		c-0.1,0-0.1-0.1-0.2-0.1l0,0c-0.1,0-0.1-0.1-0.2-0.1l0,0c-0.1,0-0.1-0.1-0.2-0.1l0,0c-0.1,0-0.1-0.1-0.2-0.1l0,0
		c-0.1,0-0.1-0.1-0.2-0.1v0c-0.1,0-0.1-0.1-0.2-0.2v0c-0.1-0.1-0.1-0.1-0.2-0.2l0,0c-0.1-0.1-0.1-0.1-0.2-0.2l0,0
		c-0.1-0.1-0.1-0.1-0.2-0.2v0c-0.1-0.1-0.1-0.1-0.2-0.2l0,0c-0.1-0.1-0.1-0.1-0.2-0.2l0,0c-0.1-0.1-0.1-0.1-0.2-0.2l0,0
		c-0.1-0.1-0.1-0.1-0.2-0.2v0c-0.1-0.1-0.1-0.1-0.2-0.2l0,0c-0.1-0.1-0.1-0.1-0.2-0.2v0c-0.1-0.1-0.1-0.1-0.1-0.2l0,0
		c0-0.1-0.1-0.1-0.1-0.2l0,0c0-0.1-0.1-0.1-0.1-0.2v0c0-0.1-0.1-0.1-0.1-0.2v0c0-0.1-0.1-0.1-0.1-0.2l0,0c0-0.1-0.1-0.1-0.1-0.2l0,0
		c0-0.1-0.1-0.1-0.1-0.2l0,0c0-0.1-0.1-0.1-0.1-0.2l0,0c0-0.1-0.1-0.1-0.1-0.2v0c0-0.1-0.1-0.1-0.1-0.2l0,0c0-0.1-0.1-0.1-0.1-0.2
		l0,0c0-0.1-0.1-0.2-0.1-0.2v0c0-0.1-0.1-0.2-0.1-0.2l0,0c0-0.1-0.1-0.2-0.1-0.2l0,0c0-0.1-0.1-0.2-0.1-0.2v0c0-0.1,0-0.2-0.1-0.2v0
		c0-0.1,0-0.2-0.1-0.2l0,0c0-0.1,0-0.2-0.1-0.2l0,0c0-0.1,0-0.2-0.1-0.2v0c0-0.1,0-0.2,0-0.2v0c0-0.1,0-0.2,0-0.2l0,0
		c0-0.1,0-0.2,0-0.3l0,0c0-0.1,0-0.2,0-0.3l0,0c0-0.1,0-0.2,0-0.3l0,0c0-0.1,0-0.2,0-0.3l0,0c0-0.1,0-0.2,0-0.3l0,0
		c0-0.1,0-0.2,0-0.3l0,0V16.4l0,0c0-0.1,0-0.2,0-0.3l0,0c0-0.1,0-0.2,0-0.3l0,0c0-0.1,0-0.2,0-0.3l0,0c0-0.1,0-0.2,0-0.3v0
		c0-0.1,0-0.2,0-0.3l0,0c0-0.1,0-0.2,0-0.3v0c0-0.1,0-0.2,0-0.2v0c0-0.1,0-0.2,0-0.2l0,0c0-0.1,0-0.2,0.1-0.2v0c0-0.1,0-0.2,0.1-0.2
		v0c0-0.1,0-0.2,0.1-0.2v0c0-0.1,0-0.2,0.1-0.2l0,0c0-0.1,0.1-0.2,0.1-0.2l0,0c0-0.1,0.1-0.2,0.1-0.2l0,0c0-0.1,0.1-0.2,0.1-0.2v0
		c0-0.1,0.1-0.2,0.1-0.2v0c0-0.1,0.1-0.1,0.1-0.2v0c0-0.1,0.1-0.1,0.1-0.2l0,0c0-0.1,0.1-0.1,0.1-0.2l0,0c0-0.1,0.1-0.1,0.1-0.2v0
		c0-0.1,0.1-0.1,0.1-0.2v0c0-0.1,0.1-0.1,0.1-0.2l0,0c0-0.1,0.1-0.1,0.1-0.2l0,0c0-0.1,0.1-0.1,0.1-0.2v0c0-0.1,0.1-0.1,0.1-0.2v0
		c0-0.1,0.1-0.1,0.1-0.2v0c0-0.1,0.1-0.1,0.1-0.2l0,0c0-0.1,0.1-0.1,0.2-0.2v0C9,10,9.1,9.9,9.1,9.8v0c0.1-0.1,0.1-0.1,0.2-0.2l0,0
		c0.1-0.1,0.1-0.1,0.2-0.2l0,0c0.1-0.1,0.1-0.1,0.2-0.2v0c0.1-0.1,0.1-0.1,0.2-0.2v0C9.8,9.1,9.9,9,10,9l0,0
		c0.1-0.1,0.1-0.1,0.2-0.2v0c0.1-0.1,0.1-0.1,0.2-0.2v0c0.1-0.1,0.1-0.1,0.2-0.2v0c0.1,0,0.1-0.1,0.2-0.1v0c0.1,0,0.1-0.1,0.2-0.1v0
		c0.1,0,0.1-0.1,0.2-0.1v0c0.1,0,0.1-0.1,0.2-0.1l0,0c0.1,0,0.1-0.1,0.2-0.1v0c0.1,0,0.1-0.1,0.2-0.1v0c0.1,0,0.1-0.1,0.2-0.1l0,0
		c0.1,0,0.1-0.1,0.2-0.1v0c0.1,0,0.1-0.1,0.2-0.1l0,0c0.1,0,0.1-0.1,0.2-0.1l0,0c0.1,0,0.1-0.1,0.2-0.1v0c0.1,0,0.2-0.1,0.2-0.1v0
		C13.1,7,13.2,7,13.3,7l0,0c0.1,0,0.2-0.1,0.2-0.1l0,0c0.1,0,0.2-0.1,0.2-0.1v0c0.1,0,0.2,0,0.2-0.1l0,0c0.1,0,0.2,0,0.2-0.1v0
		c0.1,0,0.2,0,0.2-0.1l0,0c0.1,0,0.2,0,0.2-0.1v0c0.1,0,0.2,0,0.2,0v0c0.1,0,0.2,0,0.2,0v0c0.1,0,0.2,0,0.3,0v0c0.1,0,0.2,0,0.3,0v0
		c0.1,0,0.2,0,0.3,0v0c0.1,0,0.2,0,0.3,0v0c0.1,0,0.2,0,0.3,0l0,0C16.6,6.3,16.7,6.3,16.7,6.3L16.7,6.3z M208.6,65.8l0-17.4h-7.9
		c-0.3,7.7-1.5,14.6-3.7,17.4H208.6L208.6,65.8z M213,71.9h-19.4v5.9h-6.2v-12h3.1c2.9-2.9,4-19.2,3.9-23.2h21.4v23.2h3.5v12H213
		V71.9L213,71.9z M178.2,57c8.2-2.4,6.7-17.1-11.1-14.8c-2.5,0.3-5.4,1.7-7.6,3l3.5,5.5c7.6-4.6,13.2-2,13.1,0.9
		c-0.1,4-5,3.1-7.1,3.3V60c2.8,0,7.9-0.4,7.9,3.6c0,5.5-11.4,4.2-14.7-0.3l-4.4,5c7.1,6.6,26.8,7.2,26.5-4.6
		C184.1,60.1,180.5,57.3,178.2,57L178.2,57z M145.8,54.3c-0.1-3.6-2-6.7-6-6.7c-4.3,0-6.3,2.6-6.2,6.7H145.8L145.8,54.3z
		 M147.6,63.1l5.4,3.5c-2.2,3.9-7.7,6.5-12.8,6.5c-19.8-0.1-18.1-31.3-0.8-31.3c9,0,15.4,8.4,13.4,17.6h-19.4
		c0.1,2.3,1.1,4.5,2.3,5.8C139.1,68.7,145.7,66.8,147.6,63.1L147.6,63.1z M103.9,66.4c2.1,0,6.8,0.1,8.4-0.3c3.2-0.8,3.6-5,1.4-6.5
		c-1.8-1.3-6.9-1-9.8-1V66.4L103.9,66.4z M90.8,42.6h13V53h6.7c6.2,0,10.4,2.7,10.4,9.5c0,5.6-4,9.5-10.4,9.5H97V48.8h-6.1V42.6
		L90.8,42.6z M66.6,58c0,12.4,13.6,12,13.6,0C80.2,45.9,66.6,45.8,66.6,58L66.6,58z M86.2,29.6c-0.2,2.4-0.8,5.5-2,6.5
		c-1.4,1.1-1.3,0.8-3.8,0.8C76,37,70.3,36,67.2,40.4c-1.2,1.7-1.6,3.9-1.7,6.8c2.9-6,21.6-7.4,21.6,10.3c0,18.8-21.6,19.8-26.2,6.8
		c-2-5.5-2.4-13.4-1.5-19.2c1.4-9.1,6-14.4,16-14.4h7.1C83.5,30.7,85.9,30.1,86.2,29.6L86.2,29.6z M26.1,57
		c0-8.1,5.1-15.2,13.6-15.2c18.4,0,18,31.3,0.1,31.3c-5,0-9.7-2.6-11.9-7.3C26.7,63.3,26.1,60.4,26.1,57L26.1,57z M33.1,57.4
		c0,10.1,7.8,11.6,11.4,7.1c3.4-4.3,2.8-16.6-4.7-16.6C35.1,47.9,33.1,52.5,33.1,57.4L33.1,57.4z"/>
	<path fill-rule="evenodd" clip-rule="evenodd" d="M232,45.2h36V27.9l50.3,29.4L268,86.7V69.4h-36V45.2L232,45.2z M208.6,65.8
		l0-17.4h-7.9c-0.3,7.7-1.5,14.6-3.7,17.4H208.6L208.6,65.8z M213,71.9h-19.4v5.9h-6.2v-12h3.1c2.9-2.9,4-19.2,3.9-23.2h21.4v23.2
		h3.5v12H213V71.9L213,71.9z M178.2,57c8.2-2.4,6.7-17.1-11.1-14.8c-2.5,0.3-5.4,1.7-7.6,3l3.5,5.5c7.6-4.6,13.2-2,13.1,0.9
		c-0.1,4-5,3.1-7.1,3.3V60c2.8,0,7.9-0.4,7.9,3.6c0,5.5-11.4,4.2-14.7-0.3l-4.4,5c7.1,6.6,26.8,7.2,26.5-4.6
		C184.1,60.1,180.5,57.3,178.2,57L178.2,57z M145.8,54.3c-0.1-3.6-2-6.7-6-6.7c-4.3,0-6.3,2.6-6.2,6.7H145.8L145.8,54.3z
		 M147.6,63.1l5.4,3.5c-2.2,3.9-7.7,6.5-12.8,6.5c-19.8-0.1-18.1-31.3-0.8-31.3c9,0,15.4,8.4,13.4,17.6h-19.4
		c0.1,2.3,1.1,4.5,2.3,5.8C139.1,68.7,145.7,66.8,147.6,63.1L147.6,63.1z M103.9,66.4c2.1,0,6.8,0.1,8.4-0.3c3.2-0.8,3.6-5,1.4-6.5
		c-1.8-1.3-6.9-1-9.8-1V66.4L103.9,66.4z M90.8,42.6h13V53h6.7c6.2,0,10.4,2.7,10.4,9.5c0,5.6-4,9.5-10.4,9.5H97V48.8h-6.1V42.6
		L90.8,42.6z M66.6,58c0,12.4,13.6,12,13.6,0C80.2,45.9,66.6,45.8,66.6,58L66.6,58z M86.2,29.6c-0.2,2.4-0.8,5.5-2,6.5
		c-1.4,1.1-1.3,0.8-3.8,0.8C76,37,70.3,36,67.2,40.4c-1.2,1.7-1.6,3.9-1.7,6.8c2.9-6,21.6-7.4,21.6,10.3c0,18.8-21.6,19.8-26.2,6.8
		c-2-5.5-2.4-13.4-1.5-19.2c1.4-9.1,6-14.4,16-14.4h7.1C83.5,30.7,85.9,30.1,86.2,29.6L86.2,29.6z M26.1,57
		c0-8.1,5.1-15.2,13.6-15.2c18.4,0,18,31.3,0.1,31.3c-5,0-9.7-2.6-11.9-7.3C26.7,63.3,26.1,60.4,26.1,57L26.1,57z M33.1,57.4
		c0,10.1,7.8,11.6,11.4,7.1c3.4-4.3,2.8-16.6-4.7-16.6C35.1,47.9,33.1,52.5,33.1,57.4L33.1,57.4z M16.7,6.3H324
		c5.6,0,10.1,4.5,10.1,10.1v81.7c0,5.6-4.5,10.1-10.1,10.1H16.7c-5.6,0-10.1-4.5-10.1-10.1V16.4C6.6,10.9,11.2,6.3,16.7,6.3
		L16.7,6.3z M16.3,3.5h308.1c6.9,0,12.6,5.7,12.6,12.6v82.4c0,6.9-5.7,12.6-12.6,12.6c-243.4,0-255.2,0-308.1,0
		c-6.9,0-12.6-5.7-12.6-12.6V16.1C3.7,9.2,9.4,3.5,16.3,3.5L16.3,3.5z"/>
</g>
</svg>
