<?xml version="1.0" encoding="utf-8"?>
<svg version="1.1"
	 xmlns="http://www.w3.org/2000/svg"
	 x="0px" y="0px" viewBox="0 0 284 378" enable-background="new 0 0 284 378" xml:space="preserve">
<g>
	
		<path fill-rule="evenodd" clip-rule="evenodd" fill="#FFFFFF" stroke="#000000" stroke-width="0.5669" stroke-miterlimit="22.9256" d="
		M17.9,0.3h248.3c9.7,0,17.6,7.9,17.6,17.6v342.3c0,9.7-7.9,17.6-17.6,17.6H17.9c-9.7,0-17.6-7.9-17.6-17.6V17.9
		C0.3,8.2,8.2,0.3,17.9,0.3L17.9,0.3z"/>
	<path fill-rule="evenodd" clip-rule="evenodd" d="M16.9,5.7h250.1c6.3,0,11.5,5.2,11.5,11.5v343.6c0,6.3-5.2,11.5-11.5,11.5H16.9
		c-6.3,0-11.5-5.2-11.5-11.5V17.2C5.5,10.9,10.6,5.7,16.9,5.7L16.9,5.7z M149.8,174.2l64.9,64.9c3.1,3.1,5.8,7.4,7.6,12
		c2.5,6.5,2.2,11.2,2.3,18v100.5h41.8c5.3,0,9.6-4.3,9.6-9.6V17.9c0-5.3-4.3-9.6-9.6-9.6h-104V109c0,5.6-4.6,10.3-10.3,10.3H132
		c-5.7,0-10.3-4.6-10.3-10.3V8.4H71.9v191.4h20.6l-32.7,56.5L27,199.8h20.6V8.4H17.7c-5.3,0-9.6,4.3-9.6,9.6v342.2
		c0,5.3,4.3,9.6,9.6,9.6h104V269c0-5.6,4.6-10.3,10.3-10.3H152c5.7,0,10.3,4.6,10.3,10.3v100.6h37.9v-92.6c0-19.3,0.1-18-13.6-31.6
		l-54.1-54.1L118.1,206l-16.8-63.1l63.1,16.8L149.8,174.2L149.8,174.2z"/>
	<path fill-rule="evenodd" clip-rule="evenodd" fill="#F6F100" d="M17.7,8.4h29.9v191.4H27l32.7,56.5l32.7-56.5H71.9V8.4h49.8V109
		c0,5.6,4.6,10.3,10.3,10.3H152c5.7,0,10.3-4.6,10.3-10.3V8.4h104c5.3,0,9.6,4.3,9.6,9.6v342.2c0,5.3-4.3,9.6-9.6,9.6h-41.8V269.2
		c-0.1-6.8,0.2-11.5-2.3-18c-1.8-4.6-4.4-8.9-7.6-12l-64.9-64.9l14.6-14.6l-63.1-16.8l16.8,63.1l14.6-14.6l54.1,54.1
		c13.7,13.7,13.6,12.3,13.6,31.6v92.6h-37.9V269c0-5.6-4.6-10.3-10.3-10.3H132c-5.7,0-10.3,4.6-10.3,10.3v100.6h-104
		c-5.3,0-9.6-4.3-9.6-9.6V17.9C8.2,12.7,12.5,8.4,17.7,8.4L17.7,8.4z M220.4,47.5c26.3,0,47.6,21.3,47.6,47.6s-21.3,47.6-47.6,47.6
		s-47.6-21.3-47.6-47.6S194.2,47.5,220.4,47.5L220.4,47.5z"/>
	<path fill-rule="evenodd" clip-rule="evenodd" fill="#B92B1E" d="M220.4,56.4c21.4,0,38.7,17.3,38.7,38.7
		c0,21.4-17.3,38.7-38.7,38.7c-21.4,0-38.7-17.3-38.7-38.7C181.7,73.8,199.1,56.4,220.4,56.4L220.4,56.4z M220.4,47.5
		c26.3,0,47.6,21.3,47.6,47.6s-21.3,47.6-47.6,47.6s-47.6-21.3-47.6-47.6S194.2,47.5,220.4,47.5L220.4,47.5z"/>
</g>
</svg>
