<?xml version="1.0" encoding="utf-8"?>
<svg version="1.1"
	 xmlns="http://www.w3.org/2000/svg"
	 x="0px" y="0px" viewBox="0 0 284 378" enable-background="new 0 0 284 378" xml:space="preserve">
<g>
	
		<path fill-rule="evenodd" clip-rule="evenodd" fill="#FFFFFF" stroke="#000000" stroke-width="0.5669" stroke-miterlimit="22.9256" d="
		M17.9,0.3h248.3c9.7,0,17.6,7.9,17.6,17.6v342.3c0,9.7-7.9,17.6-17.6,17.6H17.9c-9.7,0-17.6-7.9-17.6-17.6V17.9
		C0.3,8.2,8.2,0.3,17.9,0.3L17.9,0.3z"/>
	<path fill-rule="evenodd" clip-rule="evenodd" d="M267.1,5.7H16.9c-6.3,0-11.5,5.2-11.5,11.5v343.6c0,6.3,5.2,11.5,11.5,11.5h250.1
		c6.3,0,11.5-5.2,11.5-11.5V17.2C278.6,10.9,273.4,5.7,267.1,5.7L267.1,5.7z M157.8,174.1l-50,50c-14.6,14.6-16.6,17.4-17,45.1
		v100.5H17.7c-5.3,0-9.6-4.3-9.6-9.6V17.9c0-5.3,4.3-9.6,9.6-9.6H149V109c0,5.6,4.6,10.3,10.3,10.3h19.9c5.7,0,10.3-4.6,10.3-10.3
		V8.4c80.6,0,23.5,0,76.7,0c5.3,0,9.6,4.3,9.6,9.6v342.2c0,5.3-4.3,9.6-9.6,9.6h-76.7V269c0-5.6-4.6-10.3-10.3-10.3h-19.9
		c-5.7,0-10.3,4.6-10.3,10.3v100.6h-33.9V261.3c0-10.5,3.1-13.4,7.9-18.2l52-51.9l14.6,14.6l16.8-63.1l-63.1,16.8L157.8,174.1
		L157.8,174.1z"/>
	<path fill-rule="evenodd" clip-rule="evenodd" fill="#F6F100" d="M17.7,369.7c-5.3,0-9.6-4.3-9.6-9.6V17.9c0-5.3,4.3-9.6,9.6-9.6
		H149V109c0,5.6,4.6,10.3,10.3,10.3h19.9c5.7,0,10.3-4.6,10.3-10.3V8.4h76.7c5.3,0,9.6,4.3,9.6,9.6v342.2c0,5.3-4.3,9.6-9.6,9.6
		h-76.7V269c0-5.6-4.6-10.3-10.3-10.3h-19.9c-5.7,0-10.3,4.6-10.3,10.3v100.6h-33.9V261.3c0-10.5,3.1-13.4,7.9-18.2l52-51.9
		l14.6,14.6l16.8-63.1l-63.1,16.8l14.6,14.6l-50,50c-14.6,14.6-16.6,17.4-17,45.1v100.5H17.7L17.7,369.7z M79.4,48.6
		c25.5,0,46.2,20.7,46.2,46.2c0,25.5-20.7,46.2-46.2,46.2s-46.2-20.7-46.2-46.2C33.2,69.3,53.9,48.6,79.4,48.6L79.4,48.6z"/>
	<path fill-rule="evenodd" clip-rule="evenodd" fill="#B92B1E" d="M79.4,48.6c25.5,0,46.2,20.7,46.2,46.2
		c0,25.5-20.7,46.2-46.2,46.2c-25.5,0-46.2-20.7-46.2-46.2C33.2,69.3,53.9,48.6,79.4,48.6L79.4,48.6z M47.2,85.3h64.4
		c0.9,0,1.6,0.7,1.6,1.6v15.9c0,0.9-0.7,1.6-1.6,1.6H47.2c-0.9,0-1.6-0.7-1.6-1.6V86.9C45.6,86,46.3,85.3,47.2,85.3L47.2,85.3z"/>
</g>
</svg>
