<?xml version="1.0" encoding="utf-8"?>
<svg version="1.1"
	 xmlns="http://www.w3.org/2000/svg"
	 x="0px" y="0px" viewBox="0 0 284 284" enable-background="new 0 0 284 284" xml:space="preserve">
<g>
	
		<path fill-rule="evenodd" clip-rule="evenodd" fill="#FFFFFF" stroke="#000000" stroke-width="0.5669" stroke-miterlimit="22.9256" d="
		M18.9,0.3h246.3c10.2,0,18.6,8.4,18.6,18.6v246.3c0,10.2-8.4,18.6-18.6,18.6H18.9c-10.2,0-18.6-8.4-18.6-18.6V18.9
		C0.3,8.6,8.6,0.3,18.9,0.3L18.9,0.3z"/>
	<path fill-rule="evenodd" clip-rule="evenodd" fill="#3298DF" d="M18.9,8.3h246.2c5.9,0,10.7,4.8,10.7,10.7v246.2
		c0,5.9-4.8,10.7-10.7,10.7c-167.8,0-78.3,0-246.2,0c-5.9,0-10.7-4.8-10.7-10.7V18.9C8.3,13.1,13.1,8.3,18.9,8.3L18.9,8.3z
		 M188.7,188.5c18.7,0,29.4-16,33.3-33.4c4.8-22.1,1.9-60.4-22.5-70.1c-15.6-6.2-30.8,1.6-38.7,16.6c-11.7,22.1-11.2,73.6,17.3,84.8
		C181.5,187.9,185,188.5,188.7,188.5L188.7,188.5z M188.7,170.3c-8.9,0.1-13.4-9.5-15.2-17.6c-2.4-10.7-3.9-46.1,10.6-50.6
		c7.9-2.5,14.3,1,17.7,8.8c5.1,11.9,7,49.6-7.1,57.8C192.7,169.8,190.7,170.3,188.7,170.3L188.7,170.3z M67.6,185.4l-3.3-20.6
		c7.3,4.5,15.3,6.2,22.8,6.2c14.1,0,24-9.4,24-18.7c0-8.9-6.7-17.7-16.9-17.3c-4.4,0.1-9.9,1.7-14.8,6.7l-11.5-5.5V84.7h58.7
		l-4.8,17.8H84.6v20.8c22.6-12.1,46,3.9,45.7,26.3c-0.4,21.5-15.4,38.5-39.2,38.9C83.6,188.6,75.9,186.6,67.6,185.4L67.6,185.4z"/>
</g>
</svg>
