<?xml version="1.0" encoding="utf-8"?>
<svg version="1.1"
	 xmlns="http://www.w3.org/2000/svg"
	 x="0px" y="0px" viewBox="0 0 284 284" enable-background="new 0 0 284 284" xml:space="preserve">
<g>
	
		<path fill-rule="evenodd" clip-rule="evenodd" fill="#FFFFFF" stroke="#000000" stroke-width="0.5669" stroke-miterlimit="22.9256" d="
		M18.9,0.3h246.3c10.2,0,18.6,8.4,18.6,18.6v246.3c0,10.2-8.4,18.6-18.6,18.6H18.9c-10.2,0-18.6-8.4-18.6-18.6V18.9
		C0.3,8.6,8.6,0.3,18.9,0.3L18.9,0.3z"/>
	<path fill-rule="evenodd" clip-rule="evenodd" fill="#3298DF" d="M18.9,8.3h246.2c5.9,0,10.7,4.8,10.7,10.7v246.2
		c0,5.9-4.8,10.7-10.7,10.7h-58V92.4c0-35.7-29.2-64.8-64.8-64.8c-14.4,0-27.8,4.8-38.5,12.8L90,24L66.5,88.5l67.7-11.9l-14-16.6
		c7.7-5.1,14.2-6.2,23.4-6.2c20.4,0,37.2,16.7,37.2,37.2v55.4c-10.8-8-24.1-12.7-38.4-12.7c-35.3,0-64.3,28.7-64.8,63.9h-0.1H55.8
		L90.2,257l34.3-59.5h-21.1c0-21.1,16.7-37.7,37.2-37.7h2.9c20.4,0,37.2,16.7,37.2,37.2v78.7H18.9c-5.9,0-10.7-4.8-10.7-10.7V18.9
		C8.3,13.1,13.1,8.3,18.9,8.3L18.9,8.3z M54.2,97.7L54,133.2l-6.5,0l0-26.9l-4.7,2.9l-2.5-3.2l7.7-8.3L54.2,97.7L54.2,97.7z
		 M61.1,132.5l-1.1-7.1c2.5,1.6,5.3,2.1,7.9,2.1c4.9,0,8.3-3.2,8.3-6.5c0-3.1-2.3-6.1-5.8-6c-1.5,0.1-3.4,0.6-5.1,2.3l-4-1.9V97.7
		h20.3l-1.6,6.2H67v7.2c7.8-4.2,15.9,1.4,15.8,9.1c-0.1,7.4-5.3,13.3-13.6,13.5C66.7,133.6,64,132.9,61.1,132.5L61.1,132.5z
		 M115.8,107.8l2.5,25.4l-5.9,0l-1.2-16.8l-6.9,13.2l-6.9-13.2l-1.2,16.8l-5.9,0l2.5-25.4h5.6l5.9,11.7l5.9-11.7H115.8L115.8,107.8z
		"/>
</g>
</svg>
