<?xml version="1.0" encoding="utf-8"?>
<svg version="1.1"
	 xmlns="http://www.w3.org/2000/svg"
	 x="0px" y="0px" viewBox="0 0 284 284" enable-background="new 0 0 284 284" xml:space="preserve">
<g>
	
		<path fill-rule="evenodd" clip-rule="evenodd" fill="#FFFFFF" stroke="#000000" stroke-width="0.5669" stroke-miterlimit="22.9256" d="
		M18.9,0.3h246.3c10.2,0,18.6,8.4,18.6,18.6v246.3c0,10.2-8.4,18.6-18.6,18.6H18.9c-10.2,0-18.6-8.4-18.6-18.6V18.9
		C0.3,8.6,8.6,0.3,18.9,0.3L18.9,0.3z"/>
	<path fill-rule="evenodd" clip-rule="evenodd" fill="#3298DF" d="M18.9,8.3h246.2c5.9,0,10.7,4.8,10.7,10.7v246.2
		c0,5.9-4.8,10.7-10.7,10.7h-63V128.4h18.4V18h-65.4v110.3h18.4v37.7c-14-24.1-32.6-40.4-54.6-57L53.6,59.8L36.4,82.6
		c20.8,15.7,41.7,31.3,62.6,47c19,14.3,33.5,26.5,49.4,50.5c13,19.4,22.6,46.3,25.1,77v18.7H18.9c-5.9,0-10.7-4.8-10.7-10.7V18.9
		C8.3,13.1,13.1,8.3,18.9,8.3L18.9,8.3z"/>
	<path fill-rule="evenodd" clip-rule="evenodd" fill="#B92B1E" d="M169.2,29.8h12.4v12.4h-12.4V29.8L169.2,29.8z M169.2,54.6h12.4
		V67h-12.4V54.6L169.2,54.6z M169.2,79.4h12.4v12.4h-12.4V79.4L169.2,79.4z M169.2,104.2h12.4v12.4h-12.4V104.2L169.2,104.2z
		 M181.6,42.2H194v12.4h-12.4V42.2L181.6,42.2z M181.6,67H194v12.4h-12.4V67L181.6,67z M181.6,91.8H194v12.4h-12.4V91.8L181.6,91.8z
		 M194,29.8h12.4v12.4H194V29.8L194,29.8z M194,54.6h12.4V67H194V54.6L194,54.6z M194,79.4h12.4v12.4H194V79.4L194,79.4z M194,104.2
		h12.4v12.4H194V104.2L194,104.2z"/>
</g>
</svg>
