<?xml version="1.0" encoding="utf-8"?>
<svg version="1.1"
	 xmlns="http://www.w3.org/2000/svg"
	 x="0px" y="0px" viewBox="0 0 284 284" enable-background="new 0 0 284 284" xml:space="preserve">
<g>
	
		<path fill-rule="evenodd" clip-rule="evenodd" fill="#FFFFFF" stroke="#000000" stroke-width="0.5669" stroke-miterlimit="22.9256" d="
		M18.9,0.3h246.3c10.2,0,18.6,8.4,18.6,18.6v246.3c0,10.2-8.4,18.6-18.6,18.6H18.9c-10.2,0-18.6-8.4-18.6-18.6V18.9
		C0.3,8.6,8.6,0.3,18.9,0.3L18.9,0.3z"/>
	<path fill-rule="evenodd" clip-rule="evenodd" fill="#3298DF" d="M18.9,8.3h246.2c5.9,0,10.7,4.8,10.7,10.7v160.5h-54v18.7h-51.6
		v18.7h-52v19H66.6v18.9H8.3V18.9C8.3,13.1,13.1,8.3,18.9,8.3L18.9,8.3z M275.8,198.9v66.2c0,5.9-4.8,10.7-10.7,10.7H76.5v-20.7
		h51.6v-18.7h52v-18.7h51.7v-18.7H275.8L275.8,198.9z M101,37.1c-3.3,12.8,7.2,24.5,20.1,18c7-3.5,14-8.5,13.9-17.9
		C134.6,18.2,105.4,19.9,101,37.1L101,37.1z M163.2,77.1l-26.7-18.2c-4.2-3.4-7.2-2.6-10.7-0.4c-4.1,2.6-11.6,6.1-14.7,8.5
		c-3.5,2.8-3.3,3.8-2.9,8l6.5,49.7c0.2,1.7,0.2,3.3-1.5,5.7l-17.7,26.4c-2.3,3.4-1.4,5.9,0.5,8.5l26,44.9
		c6.2,10.7,22.9,1.8,16.4-9.4l-20.6-35.9c-1.1-1.8-0.8-2.8,0.5-4.7l20.9-31.7c4-6,4.1-5.5,3.2-12.7c-0.8-6.4-2.3-15.2-2.4-16.6
		L137,78.8c2,1.4,14.3,9.7,14.9,10.7c0.8,1.2,4.1,23.8,4.5,27.1c1.5,9.9,17.9,10.4,15.7-3.4l-3.8-26
		C167.4,81.1,168.2,80.6,163.2,77.1L163.2,77.1z M105.1,87.4L78.8,119c-1.3,1.6-2,3.7-1.8,5.7c0.6,6.9,9.3,9.7,13.8,4.4l17.3-20.2
		L105.1,87.4L105.1,87.4z M97.4,176.5l-18.1,44.7c-0.9,2.3-0.9,4.8,0.1,7.1c3.3,7.5,14.3,7.5,17.4-0.1l12.7-30.4L97.4,176.5
		L97.4,176.5z"/>
</g>
</svg>
