<?xml version="1.0" encoding="utf-8"?>
<svg version="1.1"
	 xmlns="http://www.w3.org/2000/svg"
	 x="0px" y="0px" viewBox="0 0 284 284" enable-background="new 0 0 284 284" xml:space="preserve">
<g>
	
		<path fill-rule="evenodd" clip-rule="evenodd" fill="#FFFFFF" stroke="#000000" stroke-width="0.5669" stroke-miterlimit="22.9256" d="
		M18.9,0.3h246.3c10.2,0,18.6,8.4,18.6,18.6v246.3c0,10.2-8.4,18.6-18.6,18.6H18.9c-10.2,0-18.6-8.4-18.6-18.6V18.9
		C0.3,8.6,8.6,0.3,18.9,0.3L18.9,0.3z"/>
	<path fill-rule="evenodd" clip-rule="evenodd" fill="#3298DF" d="M8.2,198.9v66.2c0,5.9,4.8,10.7,10.7,10.7h188.6v-20.7h-51.6
		v-18.7h-52v-18.7H52.2v-18.7H8.2L8.2,198.9z M265.1,8.3H18.9c-5.9,0-10.7,4.8-10.7,10.7v160.5h54v18.7h51.6v18.7h52v19h51.6v18.9
		h58.3V18.9C275.8,13.1,271,8.3,265.1,8.3L265.1,8.3z M172.8,74.6l-26-14.3c-5.1-3-9.5-2.9-13.1-0.8l-12.9,7.3
		c-3.8,2.2-3.3,3.8-2.9,8l4.7,38.8c0.2,1.7,1,4.3-1.9,5.8l-29.9,15.2c-2.6,1.3-4.7,3.2-4.7,7.6l0,44.7c0,12.4,17.7,11.8,17.7-0.1
		v-34.2c0.1-3.2-0.1-4.8,1.8-5.8l43.1-21.6c4.6-2.3,4.1-3.3,3.4-9.8c-0.7-6.4-2.3-15.2-2.4-16.6l-3.1-20.3c2,1.4,14.8,8,15.5,9.1
		c0.8,1.2,6.3,23,6.8,26.3c1.5,9.9,18,10.3,15.7-3.4l-6.5-28.2C177.2,78.7,176.7,77,172.8,74.6L172.8,74.6z M113.4,33.9
		c-5.8,11.8,2.1,25.4,16,21.7c7.6-2,15.5-5.5,17.2-14.7C150.2,22.2,121.2,17.9,113.4,33.9L113.4,33.9z M114.4,85.3l-25.9,16.6
		c-1.8,1.1-3,2.9-3.4,4.9c-1.5,6.7,5.9,12.1,11.8,8.4l20.2-12.7L114.4,85.3L114.4,85.3z M147,130.8l13.3,73.4
		c0.4,2.4-0.1,4.9-1.4,6.9c-4.5,6.7-14.8,4.5-16.4-3.5l-11.9-68.4L147,130.8L147,130.8z"/>
</g>
</svg>
