<?xml version="1.0" encoding="utf-8"?>
<svg version="1.1"
	 xmlns="http://www.w3.org/2000/svg"
	 x="0px" y="0px" viewBox="0 0 284 284" enable-background="new 0 0 284 284" xml:space="preserve">
<g>
	
		<path fill-rule="evenodd" clip-rule="evenodd" fill="#FFFFFF" stroke="#000000" stroke-width="0.5669" stroke-miterlimit="22.9256" d="
		M265.2,0.3H18.9C8.6,0.3,0.3,8.6,0.3,18.9v246.3c0,10.2,8.4,18.6,18.6,18.6h246.3c10.2,0,18.6-8.4,18.6-18.6V18.9
		C283.7,8.6,275.4,0.3,265.2,0.3L265.2,0.3z"/>
	<path fill-rule="evenodd" clip-rule="evenodd" fill="#3298DF" d="M8.3,198.9v66.2c0,5.9,4.8,10.7,10.7,10.7h163.4V157h-53.8v45.1
		H63.9V81.9h64.6V127h53.8V8.3H18.9c-5.9,0-10.7,4.8-10.7,10.7V198.9L8.3,198.9z M211.2,275.8h53.9c5.9,0,10.7-4.8,10.7-10.7
		l0-246.2c0-5.9-4.8-10.7-10.7-10.7h-53.9V275.8L211.2,275.8z"/>
	<polygon fill-rule="evenodd" clip-rule="evenodd" fill="#B92B1E" points="119.3,90.9 73.2,90.9 73.2,193.1 119.3,193.1 119.3,90.9 
			"/>
</g>
</svg>
