<?xml version="1.0" encoding="utf-8"?>
<svg version="1.1"
	 xmlns="http://www.w3.org/2000/svg"
	 x="0px" y="0px" viewBox="0 0 284 284" enable-background="new 0 0 284 284" xml:space="preserve">
<g>
	
		<path fill-rule="evenodd" clip-rule="evenodd" fill="#FFFFFF" stroke="#000000" stroke-width="0.5669" stroke-miterlimit="22.9256" d="
		M18.9,0.3h246.3c10.2,0,18.6,8.4,18.6,18.6v246.3c0,10.2-8.4,18.6-18.6,18.6H18.9c-10.2,0-18.6-8.4-18.6-18.6V18.9
		C0.3,8.6,8.6,0.3,18.9,0.3L18.9,0.3z"/>
	<path fill-rule="evenodd" clip-rule="evenodd" fill="#3298DF" d="M275.8,198.9v66.2c0,5.9-4.8,10.7-10.7,10.7H101.7V157h53.8v45.1
		h64.6V81.9h-64.6V127h-53.8V8.3h163.4c5.9,0,10.7,4.8,10.7,10.7V198.9L275.8,198.9z M72.8,275.8H18.9c-5.9,0-10.7-4.8-10.7-10.7
		l0-246.2c0-5.9,4.8-10.7,10.7-10.7h53.9V275.8L72.8,275.8z"/>
	<polygon fill-rule="evenodd" clip-rule="evenodd" fill="#B92B1E" points="164.7,90.9 210.8,90.9 210.8,193.1 164.7,193.1 
		164.7,90.9 	"/>
</g>
</svg>
