<?xml version="1.0" encoding="utf-8"?>
<svg version="1.1"
	 xmlns="http://www.w3.org/2000/svg"
	 x="0px" y="0px" viewBox="0 0 284 284" enable-background="new 0 0 284 284" xml:space="preserve">
<g>
	
		<path fill-rule="evenodd" clip-rule="evenodd" fill="#FFFFFF" stroke="#000000" stroke-width="0.5669" stroke-miterlimit="22.9256" d="
		M18.9,0.3h246.3c10.2,0,18.6,8.4,18.6,18.6v246.3c0,10.2-8.4,18.6-18.6,18.6H18.9c-10.2,0-18.6-8.4-18.6-18.6V18.9
		C0.3,8.6,8.6,0.3,18.9,0.3L18.9,0.3z"/>
	<polygon fill-rule="evenodd" clip-rule="evenodd" fill="#B92B1E" points="91.8,54.5 192.3,54.5 192.3,101.3 91.8,101.3 91.8,54.5 	
		"/>
	<path fill-rule="evenodd" clip-rule="evenodd" fill="#3298DF" d="M275.8,198.9v66.2c0,5.9-4.8,10.7-10.7,10.7H156.9V110.7h44.9V45
		H82.2v65.7h44.9v165.1H18.9c-5.9,0-10.7-4.8-10.7-10.7l0-246.2c0-5.9,4.8-10.7,10.7-10.7h246.2c5.9,0,10.7,4.8,10.7,10.7V198.9
		L275.8,198.9z"/>
</g>
</svg>
