<?xml version="1.0" encoding="utf-8"?>
<svg version="1.1"
	 xmlns="http://www.w3.org/2000/svg"
	 x="0px" y="0px" viewBox="0 0 284 284" enable-background="new 0 0 284 284" xml:space="preserve">
<g>
	
		<path fill-rule="evenodd" clip-rule="evenodd" fill="#FFFFFF" stroke="#000000" stroke-width="0.5669" stroke-miterlimit="22.9256" d="
		M18.9,0.3h246.3c10.2,0,18.6,8.4,18.6,18.6v246.3c0,10.2-8.4,18.6-18.6,18.6H18.9c-10.2,0-18.6-8.4-18.6-18.6V18.9
		C0.3,8.6,8.6,0.3,18.9,0.3L18.9,0.3z"/>
	<path fill-rule="evenodd" clip-rule="evenodd" fill="#3298DF" d="M275.8,18.9V132h-39V8.3h28.3C271,8.3,275.8,13.1,275.8,18.9
		L275.8,18.9z M275.8,180.2v18.7v66.2c0,5.9-4.8,10.7-10.7,10.7H147.8h-14.6v-95.6h55.5h48.2H275.8L275.8,180.2z M85,275.8h-66
		c-5.9,0-10.7-4.8-10.7-10.7l0-84.9H85V275.8L85,275.8z M8.3,132l0-113.1c0-5.9,4.8-10.7,10.7-10.7h66V132H8.3L8.3,132z M133.2,8.3
		h14.6h40.8v34.1h-55.5V8.3L133.2,8.3z M133.2,90.6V132h55.5V90.6H133.2L133.2,90.6z"/>
	<path fill-rule="evenodd" clip-rule="evenodd" d="M119.4,132.5v13.6h59.4h18.1c3.1,0,5.6-2.5,5.6-5.6V82.2c0-3.1-2.5-5.6-5.6-5.6
		H125c-3.1,0-5.6,2.5-5.6,5.6V132.5L119.4,132.5z M57.9,132v14.1h41v-13.6V82.2c0-14.1,11.5-25.6,25.6-25.6h73.1
		c14.1,0,25.6,11.5,25.6,25.6v58.3c0,14.1-11.5,25.6-25.6,25.6h-18.7h-59.4v109.7H98.8V166.1h-41v14.1l-41.7-24.1L57.9,132L57.9,132
		z"/>
</g>
</svg>
