<?xml version="1.0" encoding="utf-8"?>
<svg version="1.1"
	 xmlns="http://www.w3.org/2000/svg"
	 x="0px" y="0px" viewBox="0 0 284 425.2" enable-background="new 0 0 284 425.2" xml:space="preserve">
<g>
	
		<path fill-rule="evenodd" clip-rule="evenodd" fill="#FFFFFF" stroke="#000000" stroke-width="0.5669" stroke-miterlimit="22.9256" d="
		M22,0.3h240c12,0,21.7,9.8,21.7,21.7v381.2c0,12-9.8,21.7-21.7,21.7H22c-12,0-21.7-9.8-21.7-21.7V22C0.3,10.1,10.1,0.3,22,0.3
		L22,0.3z"/>
	<path fill-rule="evenodd" clip-rule="evenodd" fill="#3298DF" d="M22.2,9.6h239.7c6.9,0,12.5,5.6,12.5,12.5v381.1
		c0,6.9-5.6,12.5-12.5,12.5H22.2c-6.9,0-12.5-5.6-12.5-12.5V22.1C9.7,15.2,15.3,9.6,22.2,9.6L22.2,9.6z M43.5,71.3h196.9
		c9.2,0,16.6,7.5,16.6,16.6v196.9c0,9.1-7.5,16.6-16.6,16.6H43.5c-9.2,0-16.6-7.5-16.6-16.6V88C26.9,78.8,34.4,71.3,43.5,71.3
		L43.5,71.3z"/>
	<polygon fill-rule="evenodd" clip-rule="evenodd" fill="#B92B1E" points="123.5,128.5 160.5,128.5 160.5,167.9 200,167.9 
		200,204.9 160.5,204.9 160.5,244.4 123.5,244.4 123.5,204.9 84.1,204.9 84.1,167.9 123.5,167.9 123.5,128.5 	"/>
</g>
</svg>
