<?xml version="1.0" encoding="utf-8"?>
<svg version="1.1"
	 xmlns="http://www.w3.org/2000/svg"
	 x="0px" y="0px" viewBox="0 0 284 425.2" enable-background="new 0 0 284 425.2" xml:space="preserve">
<g>
	
		<path fill-rule="evenodd" clip-rule="evenodd" fill="#FFFFFF" stroke="#000000" stroke-width="0.5669" stroke-miterlimit="22.9256" d="
		M22,0.3h240c12,0,21.7,9.8,21.7,21.7v381.2c0,12-9.8,21.7-21.7,21.7H22c-12,0-21.7-9.8-21.7-21.7V22C0.3,10.1,10.1,0.3,22,0.3
		L22,0.3z"/>
	<path fill-rule="evenodd" clip-rule="evenodd" fill="#3298DF" d="M22.2,9.6h239.7c6.9,0,12.5,5.6,12.5,12.5v381.1
		c0,6.9-5.6,12.5-12.5,12.5H22.2c-6.9,0-12.5-5.6-12.5-12.5V22.1C9.7,15.2,15.3,9.6,22.2,9.6L22.2,9.6z M43.5,71.3h196.9
		c9.2,0,16.6,7.5,16.6,16.6v196.9c0,9.2-7.5,16.6-16.6,16.6H43.5c-9.2,0-16.6-7.5-16.6-16.6V88C26.9,78.8,34.4,71.3,43.5,71.3
		L43.5,71.3z"/>
	<path fill-rule="evenodd" clip-rule="evenodd" d="M58.5,237.9h34.8c2.9,0,5.3,2.4,5.3,5.3c0,2.9-2.4,5.3-5.3,5.3l-1.5,0l6.9,26.7
		h-8.3l-6.9-26.7H68.3l-6.8,26.7h-8.3l6.8-26.7l-1.5,0c-2.9,0-5.3-2.4-5.3-5.3C53.1,240.3,55.5,237.9,58.5,237.9L58.5,237.9z
		 M166.8,146.6c13,21.5,23.8,33.5,47.2,44.1c-9.8,5.4-19.2,10.3-30.6,9c9.1,12.3,24,22.5,37.9,28.6c6.9,3,12.8,4.5,19.8,5.7
		c-13.2,8.9-27.2,16.1-43.9,17.3c-3.1,0.2-6.7,0.3-10.2,0.3v23.6h-27.9v-22c-4.6,1.7-7.7,5-16.6,6.2c-10,1.3-19-0.1-28.6-2.3
		l10.7-8.8c12.5-11.5,21.3-27.5,25.4-43.9c-10.4,5.4-18.5,7.5-31.3,9.2c9.6-8.4,14.3-13.4,19.9-24.4c6.8-13.3,6.4-23.8,5.7-37.6
		c-6,3-9.4,3.9-16.6,6.3c6.4-10.6,10.7-26.4,10.9-39.2c0.1-6.2-1-12.7-2-18.7c10.8,12.5,20.7,22.9,34.1,31.7l12.8,8.1
		C178.8,142.4,172,146.1,166.8,146.6L166.8,146.6z"/>
</g>
</svg>
