<?xml version="1.0" encoding="utf-8"?>
<svg version="1.1"
	 xmlns="http://www.w3.org/2000/svg"
	 x="0px" y="0px" viewBox="0 0 284 425.2" enable-background="new 0 0 284 425.2" xml:space="preserve">
<g>
	
		<path fill-rule="evenodd" clip-rule="evenodd" fill="#FFFFFF" stroke="#000000" stroke-width="0.5669" stroke-miterlimit="22.9256" d="
		M22,0.3h240c12,0,21.7,9.8,21.7,21.7v381.2c0,12-9.8,21.7-21.7,21.7H22c-12,0-21.7-9.8-21.7-21.7V22C0.3,10.1,10.1,0.3,22,0.3
		L22,0.3z"/>
	<path fill-rule="evenodd" clip-rule="evenodd" fill="#3298DF" d="M43.5,71.3h196.9c9.2,0,16.6,7.5,16.6,16.6v196.9
		c0,9.2-7.5,16.6-16.6,16.6H43.5c-9.2,0-16.6-7.5-16.6-16.6V88C26.9,78.8,34.4,71.3,43.5,71.3L43.5,71.3z M22.2,9.6h239.7
		c6.9,0,12.5,5.6,12.5,12.5v381.1c0,6.9-5.6,12.5-12.5,12.5H22.2c-6.9,0-12.5-5.6-12.5-12.5V22.1C9.7,15.2,15.3,9.6,22.2,9.6
		L22.2,9.6z"/>
	<path d="M234.9,195.1c-1.9,13-13.3,22.3-25.6,22.5c-18.3,0.4-27.6-15.7-27.6-35.2c0-11.5,2.6-20.5,7.8-26.9
		c5.2-6.4,12.1-9.8,20.6-9.6c13,0.3,21.1,7.8,24.5,21.6c-3.9,1.2-7.7,2.4-11.6,3.6c0.1,0-3.1-13.8-13.5-13.9
		c-10.8-0.1-14.8,13-14.8,25c0,10.6,3.2,24.1,14.6,24.1c7.3,0,12.2-7.1,13.7-14.5L234.9,195.1L234.9,195.1z M121.5,148.1H171v67.4
		h-12.7v-55.9h-24.2v55.9h-12.7V148.1L121.5,148.1z M64.3,148.1h40.5V203h7.8v23.9h-12.1v-14.1H61.7v14.1H49.1V203h7.8
		C63.7,188.9,64.3,163.9,64.3,148.1L64.3,148.1z M76.2,159c0,19.6-1.8,35-5.4,44h20.8v-44H76.2L76.2,159z"/>
</g>
</svg>
