<?xml version="1.0" encoding="utf-8"?>
<svg version="1.1"
	 xmlns="http://www.w3.org/2000/svg"
	 x="0px" y="0px" viewBox="0 0 284 425.2" enable-background="new 0 0 284 425.2" xml:space="preserve">
<g>
	
		<path fill-rule="evenodd" clip-rule="evenodd" fill="#FFFFFF" stroke="#000000" stroke-width="0.5669" stroke-miterlimit="22.9256" d="
		M22,0.3h240c12,0,21.7,9.8,21.7,21.7v381.2c0,12-9.8,21.7-21.7,21.7H22c-12,0-21.7-9.8-21.7-21.7V22C0.3,10.1,10.1,0.3,22,0.3
		L22,0.3z"/>
	<path fill-rule="evenodd" clip-rule="evenodd" fill="#3298DF" d="M43.5,71.3h196.9c9.2,0,16.6,7.5,16.6,16.6v196.9
		c0,9.2-7.5,16.6-16.6,16.6H43.5c-9.2,0-16.6-7.5-16.6-16.6V88C26.9,78.8,34.4,71.3,43.5,71.3L43.5,71.3z M22.2,9.6h239.7
		c6.9,0,12.5,5.6,12.5,12.5v381.1c0,6.9-5.6,12.5-12.5,12.5H22.2c-6.9,0-12.5-5.6-12.5-12.5V22.1C9.7,15.2,15.3,9.6,22.2,9.6
		L22.2,9.6z M111.2,381.3c8.4,0,13.2-7.1,14.9-14.9c2.2-9.9,0.9-27-10.1-31.3c-7-2.8-13.8,0.7-17.3,7.4
		C92.5,354.1,94.5,381.3,111.2,381.3L111.2,381.3z M111.2,373.1c-4,0-6-4.2-6.8-7.9c-1.1-4.8-1.7-20.6,4.8-22.6
		c3.5-1.1,6.4,0.5,7.9,3.9C119.6,352.6,120.2,373.2,111.2,373.1L111.2,373.1z M75.7,381.3c8.4,0,13.2-7.1,14.9-14.9
		c2.2-9.9,0.9-27-10.1-31.3c-7-2.8-13.8,0.7-17.3,7.4C57,354.1,59,381.3,75.7,381.3L75.7,381.3z M75.7,373.1c-4,0-6-4.2-6.8-7.9
		c-1.1-4.8-1.7-20.6,4.8-22.6c3.5-1.1,6.4,0.5,7.9,3.9C84.2,352.6,84.7,373.2,75.7,373.1L75.7,373.1z M155,376.4l-8.9-18.3l-2.6,23
		l-6.7,0l4.1-33h6.6l7.7,15.2l7.7-15.2h6.6l4.1,33l-6.7,0l-2.6-23L155,376.4L155,376.4z M54.4,335l-0.2,46.1h-8.4l0-34.9l-6.1,3.7
		l-3.2-4.1L46.5,335L54.4,335L54.4,335z M211.8,367.1v13.8l39.6-23.2l-39.6-23.2v13.8h-17.5v0.4v18.2v0.4H211.8L211.8,367.1z"/>
	<path d="M240.3,178.4h-4c-3.3,0-5.8,0.8-5.8,4.3c0,3.5,2.9,4.3,5.8,4.3h4V178.4L240.3,178.4z M240.3,204.4v-12.6H239
		c-5.4,0-5.4,1.4-7.5,4.7l-4,7.8h-6.9c1.2-1.5,5.2-8.7,6.4-11.5c0.8-1.8,1.7-2.4,3.7-3c-4.2-1-6.5-3.6-6.5-7.9c0-1.9,0.5-3.6,1.4-5
		c1-1.5,2.2-2.4,3.8-2.9c1.6-0.5,3.9-0.8,7-0.8h9.5v31.1H240.3L240.3,204.4z M60.5,162.5H67l3.5,41.9h-6.2l-2.1-30l-7.9,24l-7.9-24
		l-2.1,30h-6.2l3.5-41.9h6.5l6.2,18.7L60.5,162.5L60.5,162.5z M108.3,173.3H128v31.1h-5.9v-25.8h-7.9l-0.4,13.3
		c-0.2,7.3-4.1,12.1-11.2,13.4l-1.1-5.8c5.7-1.2,6.1-4.7,6.4-8.5L108.3,173.3L108.3,173.3z M75,173.3h5.7v21l11.4-21h5.6v31.1h-5.6
		v-20.6l-11.5,20.6H75V173.3L75,173.3z M163.5,204.4h6h10.8h4v6h5.6v-6v-5.2h-3.6v-25.9h-6v25.9h-10.8v-25.9h-6v25.9V204.4
		L163.5,204.4z M134.2,173.3h5.7v21l11.4-21h5.6v31.1h-5.6v-20.6l-11.5,20.6h-5.7V173.3L134.2,173.3z M193.8,173.3h5.7v21l11.4-21
		h5.6v31.1h-5.6v-20.6l-11.5,20.6h-5.7V173.3L193.8,173.3z"/>
</g>
</svg>
