<?xml version="1.0" encoding="utf-8"?>
<svg version="1.1"
	 xmlns="http://www.w3.org/2000/svg"
	 x="0px" y="0px" viewBox="0 0 284 425.2" enable-background="new 0 0 284 425.2" xml:space="preserve">
<g>
	
		<path fill-rule="evenodd" clip-rule="evenodd" fill="#FFFFFF" stroke="#000000" stroke-width="0.5669" stroke-miterlimit="22.9256" d="
		M22,0.3h240c12,0,21.7,9.8,21.7,21.7v381.2c0,12-9.8,21.7-21.7,21.7H22c-12,0-21.7-9.8-21.7-21.7V22C0.3,10.1,10.1,0.3,22,0.3
		L22,0.3z"/>
	<path fill-rule="evenodd" clip-rule="evenodd" fill="#3298DF" d="M22.2,9.6h239.7c6.9,0,12.5,5.6,12.5,12.5v381.1
		c0,6.9-5.6,12.5-12.5,12.5H22.2c-6.9,0-12.5-5.6-12.5-12.5V22.1C9.7,15.2,15.3,9.6,22.2,9.6L22.2,9.6z M43.5,71.3h196.9
		c9.2,0,16.6,7.5,16.6,16.6v196.9c0,9.2-7.5,16.6-16.6,16.6H43.5c-9.2,0-16.6-7.5-16.6-16.6V88C26.9,78.8,34.4,71.3,43.5,71.3
		L43.5,71.3z M167.9,379.4c0,1.9,0.4,3.3,1.2,4.3c0.8,1,1.8,1.5,2.9,1.5c1.2,0,2.1-0.5,2.9-1.5c0.8-1,1.2-2.4,1.2-4.4
		c0-1.9-0.4-3.3-1.2-4.3c-0.8-1-1.8-1.5-2.9-1.5c-1.2,0-2.1,0.5-2.9,1.5C168.3,376.1,167.9,377.5,167.9,379.4L167.9,379.4z
		 M163.6,379.1c0-1.6,0.4-3.2,1.1-4.7c0.7-1.5,1.7-2.7,3-3.4c1.3-0.8,2.7-1.2,4.3-1.2c2.5,0,4.5,0.9,6.1,2.7
		c1.6,1.8,2.4,4.1,2.4,6.8c0,2.8-0.8,5.1-2.4,6.9c-1.6,1.8-3.6,2.7-6,2.7c-1.5,0-2.9-0.4-4.3-1.1c-1.4-0.8-2.4-1.9-3.1-3.3
		C164,383,163.6,381.3,163.6,379.1L163.6,379.1z M67.1,370.3h4.4v6.5c3.5-0.5,4.7-6.7,9.7-7l0.8,3.8c-2.8-0.1-4.1,4.2-6.2,4.8
		c3.9,0.5,3.8,4.8,8,10.2h-5c-4.6-7.7-3.5-8.2-7.3-8.2v8.2h-4.4V370.3L67.1,370.3z M204.7,370.1h4.3v4.6v1.8h4.2
		c4.1,0,6.7,2.3,6.6,5.9c-0.1,3.6-2.9,6.3-6.6,6.3h-8.6v-14V370.1L204.7,370.1z M209.1,384.8h3c1.8,0,3.5-0.7,3.5-2.2
		c0-1.6-1.8-2.2-3.5-2.2h-3V384.8L209.1,384.8z M90.4,379.4c0,1.9,0.4,3.3,1.2,4.3c0.8,1,1.8,1.5,2.9,1.5c1.2,0,2.1-0.5,2.9-1.5
		c0.8-1,1.2-2.4,1.2-4.4c0-1.9-0.4-3.3-1.2-4.3c-0.8-1-1.8-1.5-2.9-1.5c-1.2,0-2.1,0.5-2.9,1.5C90.8,376.1,90.4,377.5,90.4,379.4
		L90.4,379.4z M86.2,379.1c0-1.6,0.4-3.2,1.1-4.7c0.7-1.5,1.7-2.7,3-3.4c1.3-0.8,2.7-1.2,4.3-1.2c2.5,0,4.5,0.9,6.1,2.7
		c1.6,1.8,2.4,4.1,2.4,6.8c0,2.8-0.8,5.1-2.4,6.9c-1.6,1.8-3.6,2.7-6,2.7c-1.5,0-2.9-0.4-4.3-1.1c-1.4-0.8-2.4-1.9-3.1-3.3
		C86.5,383,86.2,381.3,86.2,379.1L86.2,379.1z M111.3,380.8h6.4v7.9h4.3v-18.5h-4.3v6.9h-6.4v-6.9H107v18.5h4.3V380.8L111.3,380.8z
		 M147.4,377.7c0-4.6,6.1-5.8,7.8-1.4c1.1,2.9,0.5,8.6-4,8.7c-1.4,0-2.8-0.8-3.4-2.2c-0.3-0.5-0.4-1.2-0.4-2V377.7L147.4,377.7z
		 M147.4,395.9v-8.6c0.5,0,1,1.6,4.1,1.6c5.2,0.1,8.5-4.6,8.6-9.5c0.1-5-2.7-9.7-8.4-9.6c-1.5,0-3.1,0.5-4.2,1.9h-0.1l-0.7-1.4
		c-1.6,0-1.8,0-3.5,0v25.7H147.4L147.4,395.9z M135.2,374.1v14.5H135h-1.9h-1.9H131v-14.5h-5.4v-4c5,0,10,0,15,0v4H135.2
		L135.2,374.1z M187.5,370.1h11.8v18.5h-3.5v-15.4H191l-0.2,7.9c-0.1,4.4-2.4,7.2-6.7,8l-0.7-3.4c3.4-0.7,3.7-2.8,3.8-5L187.5,370.1
		L187.5,370.1z M29.9,353.3v-19.7h-7.6v-5.4h20.4v5.4h-7.6v19.7H29.9L29.9,353.3z M191.7,338.7v14.5h-0.2h-1.9h-1.9h-0.2v-14.5h-5.4
		v-4c5,0,10,0,15,0v4H191.7L191.7,338.7z M118.9,347.4c-0.6,3.5-4.1,6-7.9,6c-5.7,0.1-8.6-4.2-8.6-9.4c0-3.1,0.8-5.5,2.4-7.2
		c1.6-1.7,3.7-2.6,6.4-2.6c4,0.1,6.5,2.1,7.6,5.8c-1.2,0.3-2.4,0.6-3.6,1c0,0-1-3.2-4.2-3.2c-3.3,0-4.4,3-4.4,6.2c0,2.8,0.9,6,4.4,6
		c2.3,0,3.7-1.5,4.2-3.5L118.9,347.4L118.9,347.4z M220,334.7h4.3v5.9v1.1h4.2c4.1,0,6.6,2.2,6.5,5.6c-0.1,3.4-2.9,5.9-6.5,5.9H220
		v-12.7V334.7L220,334.7z M224.3,349.6h3c1.8,0,3.6-0.7,3.6-2.4c0-1.6-1.9-2.3-3.6-2.3h-3.1V349.6L224.3,349.6z M237.3,334.7h4.2
		v18.5h-4.2V334.7L237.3,334.7z M65.2,340l-2-3.3c4.4-3.6,14.6-3.9,14.6,4.2l0,8.1c0,0.4,0.4,0.9,0.8,0.9h1l-1.4,3.3
		c-2.1,0.2-3.8-0.4-4.5-2.2c-1.3,1.7-3,2.4-4.8,2.4c-2.8,0-5.5-2.1-5.6-5.5c-0.3-6.3,7.8-6.6,10.2-6.8C73.6,336,67,337.8,65.2,340
		L65.2,340z M73.5,344.3c-2.1,0.7-6.2,0.6-6.1,3.3c0.1,3.3,4.6,2.6,6.1-0.4L73.5,344.3L73.5,344.3z M245.8,334.7h4.3v11.4l7.3-11.4
		h4.3v18.6h-4.3v-11.1l-7.3,11.1h-4.3V334.7L245.8,334.7z M260.3,326.8c-0.5,3.2-3.3,5.7-6.7,5.7c-3.4,0-6.1-2.5-6.7-5.7h3.3
		c0.5,1.4,1.8,2.4,3.3,2.4c1.6,0,2.9-1,3.3-2.4H260.3L260.3,326.8z M146.3,343.9c0,1.9,0.4,3.3,1.2,4.3c0.8,1,1.8,1.5,2.9,1.5
		c1.2,0,2.1-0.5,2.9-1.5c0.8-1,1.2-2.4,1.2-4.4c0-1.9-0.4-3.3-1.2-4.3c-0.8-1-1.8-1.5-2.9-1.5c-1.2,0-2.1,0.5-2.9,1.5
		C146.7,340.6,146.3,342,146.3,343.9L146.3,343.9z M142,343.6c0-1.6,0.4-3.2,1.1-4.7c0.7-1.5,1.7-2.7,3-3.4c1.3-0.8,2.7-1.2,4.3-1.2
		c2.5,0,4.5,0.9,6.1,2.7c1.6,1.8,2.4,4.1,2.4,6.8c0,2.8-0.8,5.1-2.4,6.9c-1.6,1.8-3.6,2.7-6,2.7c-1.5,0-2.9-0.4-4.3-1.1
		c-1.4-0.8-2.4-1.9-3.1-3.3C142.4,347.5,142,345.7,142,343.6L142,343.6z M47.9,342.2c0-4.6,6.1-5.8,7.8-1.4c1.1,2.9,0.5,8.6-4,8.7
		c-1.4,0-2.8-0.8-3.4-2.2c-0.3-0.5-0.4-1.2-0.4-2V342.2L47.9,342.2z M47.9,360.4v-8.6c0.5,0,1,1.6,4.1,1.6c5.2,0.1,8.5-4.6,8.6-9.5
		c0.1-5-2.7-9.7-8.4-9.6c-1.5,0-3.1,0.5-4.2,1.9h-0.1l-0.7-1.4c-1.6,0-1.8,0-3.5,0v25.7H47.9L47.9,360.4z M87.8,345.4h6.4v7.9h4.3
		v-18.5h-4.3v6.9h-6.4v-6.9h-4.3v18.5h4.3V345.4L87.8,345.4z M122.7,334.7h15.1v18.5h-4.3v-14.7H127v14.7h-4.3V334.7L122.7,334.7z
		 M166.9,342.2c0-4.6,6.1-5.8,7.8-1.4c1.1,2.9,0.5,8.6-4,8.7c-1.4,0-2.8-0.8-3.4-2.2c-0.3-0.5-0.4-1.2-0.4-2V342.2L166.9,342.2z
		 M166.9,360.4v-8.6c0.5,0,1,1.6,4.1,1.6c5.2,0.1,8.5-4.6,8.6-9.5c0.1-5-2.7-9.7-8.4-9.6c-1.5,0-3.1,0.5-4.2,1.9h-0.1l-0.7-1.4
		c-1.6,0-1.8,0-3.5,0v25.7H166.9L166.9,360.4z M204.8,345.4h6.4v7.9h4.3v-18.5h-4.3v6.9h-6.4v-6.9h-4.3v18.5h4.3V345.4L204.8,345.4z
		"/>
	<path fill-rule="evenodd" clip-rule="evenodd" d="M180.4,243.2c7.3,0,13.2,5.9,13.2,13.2c0,7.3-5.9,13.2-13.2,13.2
		c-7.3,0-13.2-5.9-13.2-13.2C167.1,249.2,173.1,243.2,180.4,243.2L180.4,243.2z M180.4,250.5c3.3,0,6,2.7,6,6c0,3.3-2.7,6-6,6
		c-3.3,0-6-2.7-6-6C174.4,253.1,177,250.5,180.4,250.5L180.4,250.5z M97.5,243.2c7.3,0,13.2,5.9,13.2,13.2c0,7.3-5.9,13.2-13.2,13.2
		c-7.3,0-13.2-5.9-13.2-13.2C84.3,249.2,90.2,243.2,97.5,243.2L97.5,243.2z M97.5,250.5c3.3,0,6,2.7,6,6c0,3.3-2.7,6-6,6s-6-2.7-6-6
		C91.5,253.1,94.2,250.5,97.5,250.5L97.5,250.5z M90.9,200.2h107.5c5.2,0,7,3,8.3,6.6c1.9,5.7,3.8,11.4,5.9,17.1v26.3
		c0,3.7-3,6.7-6.7,6.7h-10c0-0.2,0-0.3,0-0.5c0-8.7-6.8-15.7-15.5-15.7c-8.7,0-15.4,7.1-15.4,15.7c0,0.2,0,0.3,0,0.5h-52.1
		c0-0.2,0-0.3,0-0.5c0-8.7-6.6-15.7-15.3-15.7c-8.7,0-15.5,7.1-15.5,15.7c0,0.2,0,0.3,0,0.5h-3.8c-3.7,0-6.7-3-6.7-6.7v-25.5
		l10.3-17.8C83.7,203.7,85.8,200.2,90.9,200.2L90.9,200.2z M141.9,205.9h19.5c1.4,0,2.5,1.1,2.5,2.5v13.1c0,1.4-1.1,2.5-2.5,2.5
		h-19.5c-1.4,0-2.5-1.1-2.5-2.5v-13.1C139.4,207,140.5,205.9,141.9,205.9L141.9,205.9z M173.8,205.9h18c1.4,0,2.8,0.6,3.4,2.5
		l3.2,11.4c0.6,1.9-0.1,4.2-2.8,4.2h-21.8c-1.4,0-2.5-1.1-2.5-2.5v-13.1C171.2,207,172.4,205.9,173.8,205.9L173.8,205.9z
		 M97.8,205.9h-7.3c-1.4,0-2.7,0.8-3.7,2.5l-6.6,11.4c-1,1.8,0.1,4.2,2.8,4.2h14.8c1.4,0,2.5-1.1,2.5-2.5v-13.1
		C100.3,207,99.1,205.9,97.8,205.9L97.8,205.9z M110.1,205.9h19.5c1.4,0,2.5,1.1,2.5,2.5v13.1c0,1.4-1.1,2.5-2.5,2.5h-19.5
		c-1.4,0-2.5-1.1-2.5-2.5v-13.1C107.6,207,108.7,205.9,110.1,205.9L110.1,205.9z M89,123.7h17.2c2.2,0,4,1.8,4,4v10c0,2.2-1.8,4-4,4
		H82.9c-3.6,0-4.6-4.2-3.1-6.4l6.6-9.9C87,124.4,87.7,123.7,89,123.7L89,123.7z M184.5,156.4c6.9,0,12.5,5.6,12.5,12.5
		c0,6.9-5.6,12.5-12.5,12.5c-6.9,0-12.5-5.6-12.5-12.5C172.1,162,177.7,156.4,184.5,156.4L184.5,156.4z M184.5,162.5
		c3.5,0,6.4,2.9,6.4,6.4c0,3.5-2.9,6.4-6.4,6.4c-3.5,0-6.4-2.9-6.4-6.4C178.2,165.4,181,162.5,184.5,162.5L184.5,162.5z M99.6,156.4
		c6.9,0,12.5,5.6,12.5,12.5c0,6.9-5.6,12.5-12.5,12.5c-6.9,0-12.5-5.6-12.5-12.5C87.1,162,92.7,156.4,99.6,156.4L99.6,156.4z
		 M99.6,162.5c3.5,0,6.4,2.9,6.4,6.4c0,3.5-2.9,6.4-6.4,6.4c-3.5,0-6.4-2.9-6.4-6.4C93.2,165.4,96.1,162.5,99.6,162.5L99.6,162.5z
		 M187.7,155h25.5v13.6h-14.3C198.7,161.9,194,156.4,187.7,155L187.7,155z M117.2,155h64.3c-6.3,1.4-11,7-11.1,13.6h-56.4
		c-0.2-7.7-6.5-14-14.3-14c-7.8,0-14.1,6.2-14.3,14H78c-4,0-7.2-3.2-7.2-7.2V155v-10.5V142c0.2-1.2,0.6-2.4,1.4-3.4l11-15.9
		c1.2-1.8,2.6-3.1,5-3.1h21c4.4,0,7.9,3.6,7.9,7.9v17V155L117.2,155z M120.4,151.9h92.8v-38.3c0-3.8-3.1-6.8-6.8-6.8h-79.2
		c-3.8,0-6.8,3.1-6.8,6.8V151.9L120.4,151.9z"/>
</g>
</svg>
