<?xml version="1.0" encoding="utf-8"?>
<svg version="1.1"
	 xmlns="http://www.w3.org/2000/svg"
	 x="0px" y="0px" viewBox="0 0 284 425.2" enable-background="new 0 0 284 425.2" xml:space="preserve">
<g>
	
		<path fill-rule="evenodd" clip-rule="evenodd" fill="#FFFFFF" stroke="#000000" stroke-width="0.5669" stroke-miterlimit="22.9256" d="
		M22,0.3h240c12,0,21.7,9.8,21.7,21.7v381.2c0,12-9.8,21.7-21.7,21.7H22c-12,0-21.7-9.8-21.7-21.7V22C0.3,10.1,10.1,0.3,22,0.3
		L22,0.3z"/>
	<path fill-rule="evenodd" clip-rule="evenodd" fill="#3298DF" d="M22.2,9.6h239.7c6.9,0,12.5,5.6,12.5,12.5v381.1
		c0,6.9-5.6,12.5-12.5,12.5H22.2c-6.9,0-12.5-5.6-12.5-12.5V22.1C9.7,15.2,15.3,9.6,22.2,9.6L22.2,9.6z M43.5,71.3h196.9
		c9.2,0,16.6,7.5,16.6,16.6v196.9c0,9.2-7.5,16.6-16.6,16.6H43.5c-9.2,0-16.6-7.5-16.6-16.6V88C26.9,78.8,34.4,71.3,43.5,71.3
		L43.5,71.3z M117.6,361.8h7.8l4.2,38.4h-7.4l-2.5-27.5l-9.5,22.1l-9.5-22.1l-2.5,27.5h-7.4l4.2-38.4h7.8l7.4,17.2L117.6,361.8
		L117.6,361.8z M168.3,400.3h6.2h11.3h4.1v6.2h5.8v-6.2v-5.4h-4.7v-21.8h-6.8v21.8h-9.2v-21.8h-1.5h-5.3v21.8V400.3L168.3,400.3z
		 M139.5,361.8h24.6v7.4h-17.2v31h-7.4V361.8L139.5,361.8z M106.7,336.7c0-1.9,0-3.3-0.9-4.4c-0.9-1.1-2.5-1.7-4-1.7
		c-1.4,0-2.6,0.4-3.9,1.3c-1.1,0.8-2.4,1.6-3,2.7c0.1,2.1,0.6,4,1.6,5.6c1.2,1.9,2.7,2.8,4.6,2.8c1.4,0,2.6-0.6,3.6-1.8
		C105.8,339.9,106.7,338.5,106.7,336.7L106.7,336.7z M109.5,346c-2.4,2.4-4.9,4-8.1,4c-5,0-8.7-2.8-11.2-7.5
		c-1.9-3.6-2.8-7.4-2.8-12.6c0-5.7,2-10.4,4.5-14.5c3.6-5.8,12.6-6.2,18.7-3.7l1.7,7.4c-3.9-1.5-10.8-4.1-14.5-0.2
		c-2.4,2.6-2.7,5-2.7,8.9c3.9-4,11.4-4.8,15.6-0.5C115.4,332,114.2,341.3,109.5,346L109.5,346z M139.5,320.9c0,1.5-0.5,2.8-1.5,3.8
		c-1,1-2.4,1.7-4.3,2.1c-1.9-0.4-3.3-1.1-4.3-2.1c-1-1-1.5-2.3-1.5-3.8c0-0.9,0.2-1.6,0.5-2.2c0.3-0.6,0.7-1.2,1.2-1.6
		c0.5-0.4,1.1-0.8,1.9-1c0.7-0.2,1.5-0.3,2.3-0.3c0.8,0,1.6,0.1,2.3,0.3c0.7,0.2,1.3,0.5,1.8,1c0.5,0.4,0.9,1,1.2,1.6
		C139.4,319.3,139.5,320,139.5,320.9L139.5,320.9z M133.7,332.5c1.9,0.4,3.4,1.2,4.5,2.2c1,1.1,1.6,2.4,1.6,4c0,0.9-0.2,1.7-0.5,2.3
		c-0.3,0.7-0.8,1.2-1.3,1.7c-0.5,0.4-1.2,0.8-1.9,1c-0.7,0.2-1.5,0.3-2.4,0.3c-0.8,0-1.6-0.1-2.4-0.3c-0.7-0.2-1.4-0.6-1.9-1
		c-0.5-0.4-1-1-1.3-1.7c-0.3-0.7-0.5-1.4-0.5-2.3c0-1.6,0.5-2.9,1.6-4C130.3,333.7,131.8,332.9,133.7,332.5L133.7,332.5z
		 M133.7,310.2c6.5,0,12,3.9,12,10.7c0,3.9-2,6.7-5.4,8.3v0.1c9.7,3.5,8.4,20.5-6.5,20.5s-16.3-17-6.5-20.5v-0.1
		C117.9,325,120.6,310.2,133.7,310.2L133.7,310.2z M184,349.9c15.2,0,16.5-28.1,7.6-36.6c-7.4-7-20.6-2.7-20.6,16.7
		C170.9,338.8,174.1,349.9,184,349.9L184,349.9z M184,342.7c-7.7,0.1-7.2-20.1-3.3-24c2-2,6.1-2.1,7.9,2.2
		C190.8,325.9,191.2,342.8,184,342.7L184,342.7z M158.6,340.5c2.3,0,4.1,1.8,4.1,4.1c0,0.7-0.2,1.4-0.5,2l-4.5,8.4H155l3.4-6.4
		c-2.2-0.1-3.9-1.9-3.9-4.1C154.5,342.3,156.3,340.5,158.6,340.5L158.6,340.5z"/>
	<path d="M48,204.2h9.7v-17.8h8.4c8.9,0,15.9-8.2,16.1-16.4c0.1-8.2-6.3-16.1-15.2-16.1H48v34.4V204.2L48,204.2z M58,162.6h7.6
		c3.6,0,7,2.5,7,8c0,5.6-3.6,8-7,8H58V162.6L58,162.6z M93.1,178.7l-4-6.4c8.7-7.2,28.7-7.7,28.7,8.2l0,16c0,0.7,0.8,1.8,1.5,1.8h2
		l-2.8,6.4c-4.2,0.5-7.5-0.9-8.9-4.3c-2.5,3.3-6,4.8-9.4,4.8c-5.5,0-10.8-4.1-11.1-10.8c-0.6-12.5,15.4-13.1,20.1-13.5
		C109.7,170.8,96.6,174.5,93.1,178.7L93.1,178.7z M109.4,187.1c-4,1.4-12.1,1.1-12,6.5c0.1,6.4,9,5.1,12-0.8L109.4,187.1
		L109.4,187.1z M168,168.5h8.2v21.9l14-21.9h8.2v35.7h-8.2v-21.5l-14,21.5H168V168.5L168,168.5z M214.7,186.4c0,3.7,0.8,6.5,2.3,8.5
		c1.6,2,3.5,3,5.8,3c2.3,0,4.2-1,5.8-3c1.6-2,2.3-4.8,2.3-8.6c0-3.6-0.8-6.5-2.3-8.4c-1.5-2-3.5-3-5.8-3c-2.3,0-4.2,1-5.8,3
		C215.5,179.8,214.7,182.7,214.7,186.4L214.7,186.4z M206.3,185.9c0-3.2,0.7-6.2,2.1-9.2c1.4-3,3.4-5.2,5.9-6.8
		c2.5-1.6,5.4-2.4,8.5-2.4c4.8,0,8.8,1.8,11.9,5.3c3.1,3.5,4.6,8,4.6,13.4c0,5.5-1.6,10-4.7,13.6c-3.1,3.6-7.1,5.4-11.8,5.4
		c-2.9,0-5.7-0.7-8.4-2.2c-2.7-1.5-4.7-3.7-6.1-6.6C207,193.5,206.3,190,206.3,185.9L206.3,185.9z M154.3,203.8h-22.6v7h-7.3v-14.4
		h3.6c3.3-3.5,4.6-23.1,4.5-27.9h24.9v27.9h4.1v14.4h-7.3V203.8L154.3,203.8z M149.2,196.4l0-20.9H140c-0.3,9.2-1.8,17.5-4.3,20.9
		H149.2L149.2,196.4z"/>
</g>
</svg>
