<?xml version="1.0" encoding="utf-8"?>
<svg version="1.1"
	 xmlns="http://www.w3.org/2000/svg"
	 x="0px" y="0px" viewBox="0 0 284 425.2" enable-background="new 0 0 284 425.2" xml:space="preserve">
<g>
	
		<path fill-rule="evenodd" clip-rule="evenodd" fill="#FFFFFF" stroke="#000000" stroke-width="0.5669" stroke-miterlimit="22.9256" d="
		M22,0.3h240c12,0,21.7,9.8,21.7,21.7v381.2c0,12-9.8,21.7-21.7,21.7H22c-12,0-21.7-9.8-21.7-21.7V22C0.3,10.1,10.1,0.3,22,0.3
		L22,0.3z"/>
	<path fill-rule="evenodd" clip-rule="evenodd" d="M156.3,204.2h8.4l4.6,41.4h-8l-2.7-29.6l-10.3,23.8L138,216l-2.7,29.6h-8
		l4.6-41.4h8.4l8,18.5L156.3,204.2L156.3,204.2z M206.1,245.6h23.3v6h6.3v-11.8h-5v-23.9h-7.4v23.9h-9.9v-23.9h-7.4V245.6
		L206.1,245.6z M176.2,204.2h26.5v7.2h-18.5v34.2h-8V204.2L176.2,204.2z M77.6,211.5l2-7.4h25.2v7.4c-5.7,7.5-11.2,22.3-13.4,34
		l-8.9-0.2c2.8-11.7,8.2-23.9,13.9-33.9H77.6L77.6,211.5z M71.7,245.6H46.4v-7.2c5.9-5.5,11.8-11.2,16.5-17.2c1.7-2.2,3.8-4.1,3.1-7
		c-0.6-2.6-2.7-4.8-5.6-4.8c-3.1,0.1-5.7,2.5-8.6,5.7l-4.9-5.4c6.4-9.4,26.1-8.4,26.1,5.8c0,2.5-0.3,5-1.9,7.3
		c-2.8,3.9-10,10.8-14.5,15.2h17L71.7,245.6L71.7,245.6z M152.4,144.4h-5c-4.1,0-7.3,1-7.3,5c0,4.1,3.6,5,7.3,5h5V144.4L152.4,144.4
		z M152.4,174.8v-14.7h-1.6c-6.7,0-6.7,1.7-9.4,5.5l-5,9.2h-8.6c1.5-1.7,6.4-10.2,8-13.4c1-2.2,2.2-2.9,4.7-3.5
		c-5.3-1.2-8.1-4.3-8.1-9.3c0-2.2,0.6-4.2,1.8-5.9c1.2-1.7,2.8-2.9,4.7-3.5c1.9-0.6,4.8-0.9,8.7-0.9h11.8v36.4H152.4L152.4,174.8z
		 M83.9,158.9c-1.4,9.9-10,17-19.2,17.2c-13.8,0.3-20.8-12-20.8-26.9c0-8.8,2-15.7,5.9-20.6c3.9-4.9,9.1-7.5,15.5-7.3
		c9.8,0.3,15.9,6,18.4,16.6c-2.9,0.9-5.8,1.8-8.7,2.8c0,0-2.4-10.6-10.1-10.6c-8.1-0.1-11.1,9.9-11.2,19.1c0,8.1,2.4,18.4,11,18.4
		c5.5,0,9.2-5.5,10.3-11.1L83.9,158.9L83.9,158.9z M209.9,138.3h8.6v9.1v3.4h8.4c8.2,0,13.3,4.6,13.1,11.6
		c-0.2,7.1-5.7,12.3-13.1,12.3h-17.1v-27.4V138.3L209.9,138.3z M218.6,167.9h6c3.6,0,7-1.6,7-5.1c0-3.5-3.6-5.1-7-5.1h-6V167.9
		L218.6,167.9z M192.4,155.9c10-3,8.1-21.5-13.5-18.6c-3.1,0.4-6.5,2.1-9.2,3.8l4.2,6.9c9.2-5.7,15.9-2.5,15.8,1.1
		c-0.1,5-6.1,4-8.6,4.1v6.5c3.4,0,9.6-0.5,9.6,4.5c0,6.9-13.8,5.3-17.8-0.3l-5.4,6.3c8.6,8.3,32.5,9.1,32.1-5.7
		C199.6,159.8,195.3,156.3,192.4,155.9L192.4,155.9z M92.3,138.3H109c5.4,0,11.5,1.8,11.5,9.5c0,2-0.5,3.8-1.5,5.3
		c-1,1.5-2,2.5-3.4,3c2.1,0.6,3.5,1.7,4.4,3.5c1.8,3.5,1.8,6.9-0.1,10.3c-2,3.6-6,4.9-9.2,4.9H92.3V138.3L92.3,138.3z M100.4,154
		h5.1c2.5,0,4.3-0.4,5.4-1.1c1.1-0.7,1.7-1.9,1.7-3.6c0-1.5-0.5-2.6-1.5-3.3c-1-0.7-2.9-1-5.5-1h-5.1V154L100.4,154z M100.4,168h6.3
		c2.3,0,3.9-0.3,5-1c1-0.7,1.6-1.9,1.6-3.6c0-1.8-0.6-3-1.8-3.7c-1.2-0.7-3.5-1-6.9-1h-4.1V168L100.4,168z"/>
	<path fill-rule="evenodd" clip-rule="evenodd" fill="#3298DF" d="M43.5,71.3h196.9c9.2,0,16.6,7.5,16.6,16.6v196.9
		c0,9.2-7.5,16.6-16.6,16.6H43.5c-9.2,0-16.6-7.5-16.6-16.6V88C26.9,78.8,34.4,71.3,43.5,71.3L43.5,71.3z M163.7,359h10.1v12.5h6.8
		V342h-6.8v10.9h-10.1V342h-6.8v29.5h6.8V359L163.7,359z M208.4,357.6c-3.4,1.2-10,0.9-9.9,5.4c0.1,5.3,7.5,4.2,10-0.6L208.4,357.6
		L208.4,357.6z M194.9,350.6l-3.3-5.3c7.2-5.9,23.8-6.4,23.8,6.8l0,13.3c0,0.6,0.6,1.5,1.3,1.5h1.6l-2.3,5.3
		c-3.5,0.4-6.2-0.7-7.4-3.6c-2,2.8-4.9,4-7.8,4c-4.6,0-8.9-3.4-9.2-9c-0.5-10.3,12.8-10.8,16.7-11.2
		C208.6,344,197.8,347.1,194.9,350.6L194.9,350.6z M137.4,357.6c-3.4,1.2-10,0.9-9.9,5.4c0.1,5.3,7.5,4.2,10-0.6L137.4,357.6
		L137.4,357.6z M123.9,350.6l-3.3-5.3c7.2-5.9,23.8-6.4,23.8,6.8l0,13.3c0,0.6,0.6,1.5,1.3,1.5h1.6l-2.3,5.3
		c-3.5,0.4-6.2-0.7-7.4-3.6c-2,2.8-4.9,4-7.8,4c-4.6,0-8.9-3.4-9.2-9c-0.5-10.3,12.8-10.8,16.7-11.2
		C137.7,344,126.8,347.1,123.9,350.6L123.9,350.6z M231.5,342h20.1v29.5h-6v-23.2h-8.1l-0.4,11.3c-0.2,6.9-4.2,11.5-11.4,12.8
		l-1.1-5.5c5.8-1.1,6.2-4.4,6.5-8L231.5,342L231.5,342z M85.7,342h7.1v10.5c5.7-0.8,7.7-10.8,15.8-11.1l1.3,6.1
		c-4.5-0.1-6.6,6.8-10.2,7.7c6.3,0.7,6.2,7.7,13.1,16.4h-8.1c-7.5-12.3-5.8-13.1-11.9-13.1v13.1h-7.1V342L85.7,342z M37,333.9
		c2.6-2.6,5.3-4.3,8.7-4.3c5.4,0,9.4,3,12,8.1c2,3.8,3.1,8,3.1,13.6c0,6.1-2.1,11.2-4.8,15.6c-3.9,6.3-13.5,6.7-20.2,4l-1.8-8
		c4.2,1.6,11.7,4.5,15.7,0.2c2.6-2.8,2.9-5.4,2.9-9.6c-4.2,4.3-12.3,5.2-16.8,0.6C30.6,349,31.9,338.9,37,333.9L37,333.9z M40,343.9
		c0,2,0,3.6,1,4.8c1,1.2,2.7,1.8,4.4,1.8c1.5,0,2.8-0.5,4.2-1.4c1.2-0.8,2.6-1.7,3.2-2.9c-0.1-2.3-0.7-4.3-1.7-6c-1.3-2-2.9-3-5-3
		c-1.5,0-2.8,0.6-3.9,1.9C41,340.4,40,342,40,343.9L40,343.9z M22.2,9.6h239.7c6.9,0,12.5,5.6,12.5,12.5v381.1
		c0,6.9-5.6,12.5-12.5,12.5H22.2c-6.9,0-12.5-5.6-12.5-12.5V22.1C9.7,15.2,15.3,9.6,22.2,9.6L22.2,9.6z"/>
</g>
</svg>
