<?xml version="1.0" encoding="utf-8"?>
<svg version="1.1"
	 xmlns="http://www.w3.org/2000/svg"
	 x="0px" y="0px" viewBox="0 0 284 425.2" enable-background="new 0 0 284 425.2" xml:space="preserve">
<g>
	
		<path fill-rule="evenodd" clip-rule="evenodd" fill="#FFFFFF" stroke="#000000" stroke-width="0.5669" stroke-miterlimit="22.9256" d="
		M22,0.3h240c12,0,21.7,9.8,21.7,21.7v381.2c0,12-9.8,21.7-21.7,21.7H22c-12,0-21.7-9.8-21.7-21.7V22C0.3,10.1,10.1,0.3,22,0.3
		L22,0.3z"/>
	<path fill-rule="evenodd" clip-rule="evenodd" fill="#3298DF" d="M22.2,9.6h239.7c6.9,0,12.5,5.6,12.5,12.5v381.1
		c0,6.9-5.6,12.5-12.5,12.5H22.2c-6.9,0-12.5-5.6-12.5-12.5V22.1C9.7,15.2,15.3,9.6,22.2,9.6L22.2,9.6z M43.5,97.5h196.9
		c9.2,0,16.6,7.5,16.6,16.6v196.9c0,9.1-7.5,16.6-16.6,16.6H43.5c-9.2,0-16.6-7.5-16.6-16.6V114.1C26.9,105,34.4,97.5,43.5,97.5
		L43.5,97.5z"/>
	<path fill-rule="evenodd" clip-rule="evenodd" d="M185.9,164.7c-0.8,26.5-16.7,29.3-18.8,33.5c-1.5,3-2.4,9.3,1.9,10.7
		c10.7,3.8,14.9,0.2,24.9,11.2c5.3,5.8,9.9,15.3,10.4,23.3c0.1,1.8,0.1,4.3,0.1,6.9c-9.6-4.5-19.2-21.6-28.8-21.6
		c-9.8,0-19.6,18.2-29.5,22c-2.3,1-4.7,0.9-7,0c-9.9-3.9-19.8-22-29.8-22c-9.5,0-18.9,16.8-28.4,21.5c2.2-9.7,7-30.1,14.9-36
		c10.7-8,33.3-1.2,32.2-10.4c-1-8.2-13.4-4.8-17.7-10c-4.1-4.9-1.3-8-1.3-9.3c0-0.5-1.2-1.7-0.3-3.4c0.7-1.4-2-2-0.9-4.3
		c1.8-3.6,1.4-1.4-2.8-6.1c-3.9-4.5,5.9-9.4,5.9-12.6c0-2.9-0.4-4.7-0.5-7.3c-0.3-5.7,0.8-13.6,3.9-18.4
		c9.6-15.4,45.4-17.1,60.3-4.1C185.9,138.3,186.3,150.6,185.9,164.7L185.9,164.7z M42.2,242.3c11.3,0,22.6,22.7,33.9,22.7
		c11,0,22-22.7,33-22.7c11.1,0,22.2,22.7,33.3,22.7c11,0,21.9-22.7,32.9-22.7c11.1,0,22.2,22.7,33.2,22.7c11,0,22.1-22.7,33.1-22.7
		v13.5c-11,0-22.1,22.7-33.1,22.7c-11.1,0-22.2-22.7-33.2-22.7c-11,0-22,22.7-32.9,22.7c-11.1,0-22.2-22.7-33.3-22.7
		c-11,0-22,22.7-33,22.7c-11.3,0-22.6-22.7-33.9-22.7V242.3L42.2,242.3z M42.2,269.3c11.3,0,22.6,22.7,33.9,22.7
		c11,0,22-22.7,33-22.7c11.1,0,22.2,22.7,33.3,22.7c11,0,21.9-22.7,32.9-22.7c11.1,0,22.2,22.7,33.2,22.7c11,0,22.1-22.7,33.1-22.7
		v13.5c-11,0-22.1,22.7-33.1,22.7c-11.1,0-22.2-22.7-33.2-22.7c-11,0-22,22.7-32.9,22.7c-11.1,0-22.2-22.7-33.3-22.7
		c-11,0-22,22.7-33,22.7c-11.3,0-22.6-22.7-33.9-22.7V269.3L42.2,269.3z"/>
</g>
</svg>
