<?xml version="1.0" encoding="utf-8"?>
<svg version="1.1"
	 xmlns="http://www.w3.org/2000/svg"
	 x="0px" y="0px" viewBox="0 0 284 425.2" enable-background="new 0 0 284 425.2" xml:space="preserve">
<g>
	
		<path fill-rule="evenodd" clip-rule="evenodd" fill="#FFFFFF" stroke="#000000" stroke-width="0.5669" stroke-miterlimit="22.9256" d="
		M22,0.3h240c12,0,21.7,9.8,21.7,21.7v381.2c0,12-9.8,21.7-21.7,21.7H22c-12,0-21.7-9.8-21.7-21.7V22C0.3,10.1,10.1,0.3,22,0.3
		L22,0.3z"/>
	<path fill-rule="evenodd" clip-rule="evenodd" fill="#3298DF" d="M22.2,9.6h239.7c6.9,0,12.5,5.6,12.5,12.5v381.1
		c0,6.9-5.6,12.5-12.5,12.5H22.2c-6.9,0-12.5-5.6-12.5-12.5V22.1C9.7,15.2,15.3,9.6,22.2,9.6L22.2,9.6z M43.5,71.3h196.9
		c9.2,0,16.6,7.5,16.6,16.6v196.9c0,9.2-7.5,16.6-16.6,16.6H43.5c-9.2,0-16.6-7.5-16.6-16.6V88C26.9,78.8,34.4,71.3,43.5,71.3
		L43.5,71.3z"/>
	<path d="M219.6,199.6c-2.1,14-14.6,24-28,24.2c-20,0.4-30.3-16.9-30.3-37.9c0-12.4,2.9-22.1,8.6-28.9c5.7-6.9,13.2-10.5,22.5-10.3
		c14.2,0.4,23.1,8.4,26.8,23.3c-4.2,1.3-8.5,2.6-12.7,3.9c0.1,0-3.4-13-14.8-13c-11.8-0.1-15.5,12-15.6,24.9
		c0,11.5,3.1,24.3,15.6,24.3c8,0,13.1-6.1,14.7-14L219.6,199.6L219.6,199.6z M81.3,222l-16-73.4h15.5L90.9,199l11.4-50.4h7h7
		l11.4,50.4l10.1-50.4h15.5l-16,73.4h-17.1l-10.9-47.6L98.4,222H81.3L81.3,222z"/>
</g>
</svg>
