<?xml version="1.0" encoding="utf-8"?>
<svg version="1.1"
	 xmlns="http://www.w3.org/2000/svg"
	 x="0px" y="0px" viewBox="0 0 284 425.2" enable-background="new 0 0 284 425.2" xml:space="preserve">
<g>
	
		<path fill-rule="evenodd" clip-rule="evenodd" fill="#FFFFFF" stroke="#000000" stroke-width="0.5669" stroke-miterlimit="22.9256" d="
		M22,0.3h240c12,0,21.7,9.8,21.7,21.7v381.2c0,12-9.8,21.7-21.7,21.7H22c-12,0-21.7-9.8-21.7-21.7V22C0.3,10.1,10.1,0.3,22,0.3
		L22,0.3z"/>
	<path fill-rule="evenodd" clip-rule="evenodd" fill="#3298DF" d="M22.2,9.6h239.7c6.9,0,12.5,5.6,12.5,12.5v381.1
		c0,6.9-5.6,12.5-12.5,12.5H22.2c-6.9,0-12.5-5.6-12.5-12.5V22.1C9.7,15.2,15.3,9.6,22.2,9.6L22.2,9.6z M203.6,375.7l-8.9-17.9
		l-2.6,22.5l-6.7,0l4.1-32.3h6.6l7.7,14.9l7.7-14.9h6.6l4.1,32.3l-6.7,0l-2.6-22.5L203.6,375.7L203.6,375.7z M83.8,346.6
		c0,1.7-0.6,3.2-1.7,4.3c-1.1,1.1-2.7,1.9-4.8,2.4c-2.1-0.4-3.7-1.2-4.8-2.4c-3-3.1-2.4-10,4.8-10C80.9,340.9,83.8,342.8,83.8,346.6
		L83.8,346.6z M77.3,361.1c8.6,1.8,8,10.4,2.5,12.1C70.2,376,66.5,363.4,77.3,361.1L77.3,361.1z M77.3,333.9
		c15.5,0,18.9,17.5,7.8,22.7v0.1c11.6,4.2,10,24.3-7.8,24.3c-17.8,0-19.3-20.2-7.8-24.3v-0.1C58.5,351.5,61.8,333.9,77.3,333.9
		L77.3,333.9z M115.2,373.1c-4,0-6-4.2-6.8-7.9c-1.1-4.8-1.7-20.6,4.8-22.6c3.5-1.1,6.4,0.5,7.9,3.9
		C123.6,352.6,124.2,373.2,115.2,373.1L115.2,373.1z M115.2,381.3c8.4,0,13.2-7.1,14.9-14.9c2.2-9.9,0.9-27-10.1-31.3
		c-7-2.8-13.8,0.7-17.3,7.4C96.5,354.1,98.4,381.3,115.2,381.3L115.2,381.3z M156.4,373.1c-4,0-6-4.2-6.8-7.9
		c-1.1-4.8-1.7-20.6,4.8-22.6c3.5-1.1,6.4,0.5,7.9,3.9C164.8,352.6,165.4,373.2,156.4,373.1L156.4,373.1z M156.4,381.3
		c8.4,0,13.2-7.1,14.9-14.9c2.2-9.9,0.9-27-10.1-31.3c-7-2.8-13.8,0.7-17.3,7.4C137.7,354.1,139.7,381.3,156.4,381.3L156.4,381.3z
		 M43.5,71.3h196.9c9.2,0,16.6,7.5,16.6,16.6v196.9c0,9.1-7.5,16.6-16.6,16.6H43.5c-9.2,0-16.6-7.5-16.6-16.6V88
		C26.9,78.8,34.4,71.3,43.5,71.3L43.5,71.3z"/>
	<path fill-rule="evenodd" clip-rule="evenodd" d="M151.4,97h69.4c5.6,0,10.2,4.6,10.2,10.2v168h-89.7v-168
		C141.2,101.5,145.8,97,151.4,97L151.4,97z M159.2,114.7H213c2.5,0,4.6,2.1,4.6,4.6v45.1c0,2.5-2.1,4.6-4.6,4.6h-53.7
		c-2.5,0-4.6-2.1-4.6-4.6v-45.1C154.6,116.8,156.7,114.7,159.2,114.7L159.2,114.7z M129,110.4h9.2v10.2h-8c-4.7,0-5.5,3.2-5.5,6.8
		v11.1c0,10.4-1.5,18.7-11,28.9c-14.4,15.5-28.8,30.9-43.1,46.5c-16.8,18.5-4,50.6,23,50.6c16.9,0,30.5-13.7,30.5-30.5v-52.4
		c0.3-8.5,5.9-13.5,14.1-13.5v9.4c-3.4,0-4.5,2.2-4.5,5.2l0,51.2c0,22.2-18,40.2-40.2,40.2c-34.9,0-53.1-41.5-29.7-67.3
		c14-15.3,28.2-30.5,42-46c7.6-8.6,9.1-15.2,9.1-22.6l0.1-15.1C115.1,116,122.2,110.7,129,110.4L129,110.4z"/>
</g>
</svg>
