<?xml version="1.0" encoding="utf-8"?>
<svg version="1.1"
	 xmlns="http://www.w3.org/2000/svg"
	 x="0px" y="0px" viewBox="0 0 284 425.2" enable-background="new 0 0 284 425.2" xml:space="preserve">
<g>
	
		<path fill-rule="evenodd" clip-rule="evenodd" fill="#FFFFFF" stroke="#000000" stroke-width="0.5669" stroke-miterlimit="22.9256" d="
		M22,0.3h240c12,0,21.7,9.8,21.7,21.7v381.2c0,12-9.8,21.7-21.7,21.7H22c-12,0-21.7-9.8-21.7-21.7V22C0.3,10.1,10.1,0.3,22,0.3
		L22,0.3z"/>
	<path fill-rule="evenodd" clip-rule="evenodd" fill="#3298DF" d="M22.2,9.6h239.7c6.9,0,12.5,5.6,12.5,12.5v381.1
		c0,6.9-5.6,12.5-12.5,12.5H22.2c-6.9,0-12.5-5.6-12.5-12.5V22.1C9.7,15.2,15.3,9.6,22.2,9.6L22.2,9.6z M111.2,381.3
		c8.4,0,13.2-7.1,14.9-14.9c2.2-9.9,0.9-27-10.1-31.3c-7-2.8-13.8,0.7-17.3,7.4C92.5,354.1,94.5,381.3,111.2,381.3L111.2,381.3z
		 M111.2,373.1c-4,0-6-4.2-6.8-7.9c-1.1-4.8-1.7-20.6,4.8-22.6c3.5-1.1,6.4,0.5,7.9,3.9C119.6,352.6,120.2,373.2,111.2,373.1
		L111.2,373.1z M75.7,381.3c8.4,0,13.2-7.1,14.9-14.9c2.2-9.9,0.9-27-10.1-31.3c-7-2.8-13.8,0.7-17.3,7.4
		C57,354.1,59,381.3,75.7,381.3L75.7,381.3z M75.7,373.1c-4,0-6-4.2-6.8-7.9c-1.1-4.8-1.7-20.6,4.8-22.6c3.5-1.1,6.4,0.5,7.9,3.9
		C84.2,352.6,84.7,373.2,75.7,373.1L75.7,373.1z M155,376.4l-8.9-18.3l-2.6,23l-6.7,0l4.1-33h6.6l7.7,15.2l7.7-15.2h6.6l4.1,33
		l-6.7,0l-2.6-23L155,376.4L155,376.4z M54.4,335l-0.2,46.1l-8.4,0l0-34.9l-6.1,3.7l-3.2-4.1L46.5,335L54.4,335L54.4,335z
		 M211.8,367.1v13.8l39.6-23.2l-39.6-23.2v13.8h-17.6v0.4v18.2v0.4H211.8L211.8,367.1z M43.5,71.3h196.9c9.2,0,16.6,7.5,16.6,16.6
		v196.9c0,9.1-7.5,16.6-16.6,16.6H43.5c-9.2,0-16.6-7.5-16.6-16.6V88C26.9,78.8,34.4,71.3,43.5,71.3L43.5,71.3z"/>
	<path fill-rule="evenodd" clip-rule="evenodd" d="M173.7,128.1v14.6H166c-3.5,0-7.9,3.3-9.4,6.3c-4.3,9,3.8,20.2,3.8,23.8v100.9
		c0,10.1-8.3,18.3-18.3,18.3c-10.1,0-18.3-8.3-18.3-18.3c0-9.6-0.3-100.5,0.2-101.8c1.1-3.1,4.7-12.3,4.8-15
		c0.3-7.6-2.2-14.2-12-14.2h-9.4c-2,0-1.8,0.1-3.6-1.1c-5.2-3.5-8.8-8.3-9.6-13.5h38.4v-12H94.1c1.3-8.8,10.6-14.3,19.8-19.8
		c4.9-3,6.1-4.6,10.2-8h49.6v27.8h-22.1v12H173.7L173.7,128.1z"/>
</g>
</svg>
