<?xml version="1.0" encoding="utf-8"?>
<svg version="1.1"
	 xmlns="http://www.w3.org/2000/svg"
	 x="0px" y="0px" viewBox="0 0 284 425.2" enable-background="new 0 0 284 425.2" xml:space="preserve">
<g>
	
		<path fill-rule="evenodd" clip-rule="evenodd" fill="#FFFFFF" stroke="#000000" stroke-width="0.5669" stroke-miterlimit="22.9256" d="
		M22,0.3h240c12,0,21.7,9.8,21.7,21.7v381.2c0,12-9.8,21.7-21.7,21.7H22c-12,0-21.7-9.8-21.7-21.7V22C0.3,10.1,10.1,0.3,22,0.3
		L22,0.3z"/>
	<path fill-rule="evenodd" clip-rule="evenodd" fill="#3298DF" d="M22.2,9.6h239.7c6.9,0,12.5,5.6,12.5,12.5v381.1
		c0,6.9-5.6,12.5-12.5,12.5H22.2c-6.9,0-12.5-5.6-12.5-12.5V22.1C9.7,15.2,15.3,9.6,22.2,9.6L22.2,9.6z M43.5,71.3h196.9
		c9.2,0,16.6,7.5,16.6,16.6v196.9c0,9.1-7.5,16.6-16.6,16.6H43.5c-9.2,0-16.6-7.5-16.6-16.6V88C26.9,78.8,34.4,71.3,43.5,71.3
		L43.5,71.3z"/>
	<path fill-rule="evenodd" clip-rule="evenodd" d="M113,273.6c0,5.6-4.5,10.1-10.1,10.1c-5.6,0-10.1-4.5-10.1-10.1l0,0v-13.8H113
		V273.6L113,273.6L113,273.6z M191.4,273.6L191.4,273.6v-13.8h-20.3v13.8l0,0c0,5.6,4.5,10.1,10.1,10.1
		C186.9,283.7,191.4,279.2,191.4,273.6L191.4,273.6z M112.8,188.2h58.5c2.9,0,4.4,2.5,5.3,5.3l7.8,24H99.6l7.4-24
		C107.9,190.7,109.8,188.2,112.8,188.2L112.8,188.2z M190.9,217.3c4,0,7.3,3.3,7.3,7.3v25.8c0,4-3.3,7.3-7.3,7.3H93.2
		c-4,0-7.3-3.3-7.3-7.3v-25.8c0-4,3.3-7.3,7.3-7.3l9.5-29.3c1.1-3.4,2.9-6.5,6.5-6.5h65.7c3.6,0,5.4,3.1,6.5,6.5L190.9,217.3
		L190.9,217.3z M139.6,128h5v49.4h-5V128L139.6,128z M119.8,128h5l-4.5,49.4h-5L119.8,128L119.8,128z M106.5,128h5L58,283.7h-5
		L106.5,128L106.5,128z M177.7,128h-5l53.5,155.7h5L177.7,128L177.7,128z M164.4,128h-5l4.5,49.4h5L164.4,128L164.4,128z
		 M132.6,88.3h9.5h9.5v7.3c0.2,2.9,0.9,5.2,3.7,7.8c5,4.8,11.8,1.6,15.4,3.5c8,4.3,7.2,10.3,7.2,18.6h-35.8h-35.8
		c0-8.2-0.8-14.2,7.2-18.6c3.6-2,10.4,1.3,15.4-3.5c2.7-2.6,3.5-4.8,3.7-7.8V88.3L132.6,88.3z"/>
</g>
</svg>
