<?xml version="1.0" encoding="utf-8"?>
<svg version="1.1"
	 xmlns="http://www.w3.org/2000/svg"
	 x="0px" y="0px" viewBox="0 0 284 425.2" enable-background="new 0 0 284 425.2" xml:space="preserve">
<g>
	
		<path fill-rule="evenodd" clip-rule="evenodd" fill="#FFFFFF" stroke="#000000" stroke-width="0.5669" stroke-miterlimit="22.9256" d="
		M22,0.3h240c12,0,21.7,9.8,21.7,21.7v381.2c0,12-9.8,21.7-21.7,21.7H22c-12,0-21.7-9.8-21.7-21.7V22C0.3,10.1,10.1,0.3,22,0.3
		L22,0.3z"/>
	<path fill-rule="evenodd" clip-rule="evenodd" fill="#3298DF" d="M22.2,9.6h239.7c6.9,0,12.5,5.6,12.5,12.5v381.1
		c0,6.9-5.6,12.5-12.5,12.5H22.2c-6.9,0-12.5-5.6-12.5-12.5V22.1C9.7,15.2,15.3,9.6,22.2,9.6L22.2,9.6z M43.5,71.3h196.9
		c9.2,0,16.6,7.5,16.6,16.6v196.9c0,9.1-7.5,16.6-16.6,16.6H43.5c-9.2,0-16.6-7.5-16.6-16.6V88C26.9,78.8,34.4,71.3,43.5,71.3
		L43.5,71.3z"/>
	<path fill-rule="evenodd" clip-rule="evenodd" d="M180.9,88.3h-10.9c-4.6,0-8.3,3.7-8.3,8.3v29.1c0,4.6,3.7,8.3,8.3,8.3h10.9V88.3
		L180.9,88.3z M109.1,236.3l-3.6-10.3c-1.5-4.3-6.3-6.6-10.6-5.2l-27.5,9.5c-4.3,1.5-6.6,6.3-5.2,10.6l3.6,10.3L109.1,236.3
		L109.1,236.3z M211.5,100.4c8.4,8.2,12.3,19.9,12.1,31.6c-0.1,11.3-6.2,35.4-10.4,46.7c-9.8,26.7-31.4,56.8-53.5,74.6
		c-13.5,10.8-27.7,19-43.3,25c-6.3,2.4-10.6,2.3-17.6,1.5c-15.6-1.9-25.9-12.3-32.1-26l43.2-14.9c1.8,7,8.5,8.5,12.8,3.6
		c1.2-1.3,65.4-91.9,67.9-95.9c2.2-3.5,2.6-6.5,0.2-9.7c-1.9-2.7-4.6-2.7-7.4-2.7V88.3c7.9,0.6,11.8,1,18.8,5.2
		C205.4,95.4,208.8,97.8,211.5,100.4L211.5,100.4z"/>
</g>
</svg>
