<?xml version="1.0" encoding="utf-8"?>
<svg version="1.1"
	 xmlns="http://www.w3.org/2000/svg"
	 x="0px" y="0px" viewBox="0 0 284 425.2" enable-background="new 0 0 284 425.2" xml:space="preserve">
<g>
	
		<path fill-rule="evenodd" clip-rule="evenodd" fill="#FFFFFF" stroke="#000000" stroke-width="0.5669" stroke-miterlimit="22.9256" d="
		M22,0.3h240c12,0,21.7,9.8,21.7,21.7v381.2c0,12-9.8,21.7-21.7,21.7H22c-12,0-21.7-9.8-21.7-21.7V22C0.3,10.1,10.1,0.3,22,0.3
		L22,0.3z"/>
	<path fill-rule="evenodd" clip-rule="evenodd" fill="#3298DF" d="M22.2,9.6h239.7c6.9,0,12.5,5.6,12.5,12.5v381.1
		c0,6.9-5.6,12.5-12.5,12.5H22.2c-6.9,0-12.5-5.6-12.5-12.5V22.1C9.7,15.2,15.3,9.6,22.2,9.6L22.2,9.6z M43.5,71.3h196.9
		c9.2,0,16.6,7.5,16.6,16.6v196.9c0,9.1-7.5,16.6-16.6,16.6H43.5c-9.2,0-16.6-7.5-16.6-16.6V88C26.9,78.8,34.4,71.3,43.5,71.3
		L43.5,71.3z"/>
	<path fill-rule="evenodd" clip-rule="evenodd" d="M91.1,226h5v57.6h-5V226L91.1,226z M83.1,226h5L81,283.6h-5L83.1,226L83.1,226z
		 M104.2,226h-5l7.1,57.6h5L104.2,226L104.2,226z M195,96.9c5.3,0,9.6,4.3,9.6,9.6c0,5.3-4.3,9.6-9.6,9.6h-17.1v16.6h8.7
		c2.5,0,4.6,2.1,4.6,4.6v6.6c0,3.3,2.7,6,6,6h32v-8.8c0-4.6,3.7-8.3,8.3-8.3h2.1v62.1h-2.1c-4.6,0-8.3-3.7-8.3-8.3v-8.8l-42.8,0
		c-6.6,0.1-8.5,8.9-17.9,8.9c-9.8,0-11.5-9.5-19.3-10.7c-1.7-0.3-6.2-0.2-8.2-0.2c-18.6,0-33.7,15.2-33.7,33.7v12.7H79.8v-14.5
		c0-31.8,26-57.8,57.8-57.8h2.2c3.3,0,6-2.7,6-6v-6.6c0-2.5,2.1-4.6,4.6-4.6h8.7v-16.6h-17.1c-5.3,0-9.6-4.3-9.6-9.6
		c0-5.3,4.3-9.6,9.6-9.6H195L195,96.9z"/>
</g>
</svg>
