<?xml version="1.0" encoding="utf-8"?>
<svg version="1.1"
	 xmlns="http://www.w3.org/2000/svg"
	 x="0px" y="0px" viewBox="0 0 283.5 142.4" enable-background="new 0 0 283.5 142.4" xml:space="preserve">
<g>
	<path fill-rule="evenodd" clip-rule="evenodd" d="M263.5,0c11,0.3,19.9,9.1,19.9,20.2v102c0,11-8.4,20-19.4,20.3v0l-244.1,0v0
		C8.9,142.1,0,133.3,0,122.2v-102C0,9.2,8.9,0.3,19.9,0v0L263.5,0L263.5,0L263.5,0z M60.5,79.1H223l56,26.9V20.2
		c0-8.6-6.9-15.5-15.5-15.8v0l-243.6,0v0C11.3,4.8,4.4,11.6,4.4,20.2V106L60.5,79.1L60.5,79.1z M279,118.8l-56-26.9V138l41,0v0
		c8.6-0.3,15-7.3,15-15.8V118.8L279,118.8z M209.2,138V90.7H74.3V138L209.2,138L209.2,138z M60.5,138V91.9L4.4,118.8v3.4
		c0,8.6,6.9,15.5,15.5,15.8v0L60.5,138L60.5,138z M179.6,57.5c-5.7-1.6-11.6,1.8-13.2,7.6c-1.6,5.7,1.8,11.6,7.6,13.2
		c5.7,1.6,11.6-1.8,13.2-7.6C188.7,65,185.3,59.1,179.6,57.5L179.6,57.5z M178.3,62.3c-3.1-0.8-6.3,1-7.1,4.1
		c-0.8,3.1,1,6.3,4.1,7.1c3.1,0.8,6.3-1,7.1-4.1C183.2,66.4,181.3,63.2,178.3,62.3L178.3,62.3z M174.2,27.1l-31,0
		c-1.9,0-3.4,1.4-4.6,2.9l-8.3,9.6c-1.2,1.4-0.1,5,3,5.1l42.8,0c1.9,0,4.2-2.6,4-4.4l-1.3-9.9C178.6,28.5,176.1,27.1,174.2,27.1
		L174.2,27.1z M196.4,45.5c-5.4-6.4-10.8-12.7-16.1-19.1c-2.9-3.5-4.3-3.4-8.7-3.4c-9.2,0-18.5,0.1-27.7,0.1c-2.4,0-4,0.3-5.9,2.2
		c-5.7,5.8-10.9,12.4-16.6,18.2c-8.6,1.2-16.8,2.4-25.5,3.7C92.7,47.6,90,49.6,90,52l0.1,9c0.5,3.1,1.4,4.2,4.5,5l0.1,0
		c0.1-0.4,0.2-0.8,0.3-1.3c1.8-6.5,8.6-10.4,15.1-8.7c5.7,1.5,9.4,6.9,9.1,12.6l44.1,0l1.1-0.1c-0.1-1.3,0.1-2.6,0.4-3.9
		c1.8-6.6,8.6-10.5,15.2-8.7c5.2,1.4,8.8,6,9.1,11.1c4-1.6,5.5-1.1,6.4-5.9l2-10C198.2,48.1,198.5,47.9,196.4,45.5L196.4,45.5z
		 M108.5,62.3c-3.1-0.8-6.3,1-7.1,4.1c-0.8,3.1,1,6.3,4.1,7.1c3.1,0.8,6.3-1,7.1-4.1C113.4,66.4,111.6,63.2,108.5,62.3L108.5,62.3z
		 M109.8,57.5c-5.7-1.6-11.6,1.8-13.2,7.6c-1.6,5.7,1.8,11.6,7.6,13.2c5.7,1.6,11.6-1.8,13.2-7.6C118.9,65,115.5,59.1,109.8,57.5
		L109.8,57.5z"/>
</g>
</svg>
