<?xml version="1.0" encoding="utf-8"?>
<svg version="1.1"
	 xmlns="http://www.w3.org/2000/svg"
	 x="0px" y="0px" viewBox="0 0 283.5 142.4" enable-background="new 0 0 283.5 142.4" xml:space="preserve">
<g>
	<path fill-rule="evenodd" clip-rule="evenodd" d="M127.6,50.8c3.2,0,5.9,2.6,5.9,5.9v20.7c0,3.2-2.6,5.9-5.9,5.9H49
		c-3.2,0-5.9-2.6-5.9-5.9V56.7c0-3.2,2.6-5.9,5.9-5.9l7.7-23.6c0.9-2.7,2.3-5.2,5.2-5.2h52.8c2.9,0,4.3,2.5,5.2,5.2L127.6,50.8
		L127.6,50.8z M64.8,27.3h47c2.3,0,3.5,2,4.3,4.3l6.3,19.3H54.2l6-19.3C60.9,29.4,62.4,27.3,64.8,27.3L64.8,27.3z M128.1,96V84.9
		h-16.3V96c0,4.5,3.7,8.2,8.2,8.2C124.4,104.2,128.1,100.5,128.1,96L128.1,96z M65,96c0,4.5-3.7,8.2-8.2,8.2c-4.5,0-8.2-3.7-8.2-8.2
		V84.9H65V96L65,96z M4.4,105.6h137.6l25.8,17.3l14.1-5.2c15,6.7,28.7,8,40.9,2.3c18.5,10.8,37.2,11.9,56,3.5c0-0.4,0-0.8,0-1.3
		v-102c0-8.6-6.9-15.5-15.5-15.8v0l-243.6,0v0C11.3,4.8,4.4,11.6,4.4,20.2V105.6L4.4,105.6z M263.5,0c11,0.3,19.9,9.1,19.9,20.2v102
		c0,11-8.4,20-19.4,20.3v0l-244.1,0v0C8.9,142.1,0,133.3,0,122.2v-102C0,9.2,8.9,0.3,19.9,0v0L263.5,0L263.5,0L263.5,0z"/>
</g>
</svg>
