<?xml version="1.0" encoding="utf-8"?>
<svg version="1.1"
	 xmlns="http://www.w3.org/2000/svg"
	 x="0px" y="0px" viewBox="0 0 283.5 283.4" enable-background="new 0 0 283.5 283.4" xml:space="preserve">
<g>
	<path fill-rule="evenodd" clip-rule="evenodd" d="M20,4.5C11.4,4.8,4.5,11.6,4.5,20.2l0,106.9h96.2c30.6,0,55.6,25,55.6,55.6V279
		l107.7,0v0c8.6-0.3,15-7.3,15-15.8l0-117.5H154.5v-7.9H279l0-117.5c0-8.6-6.9-15.5-15.5-15.8v0l-120.2,0h2.3v128.2h-7.9V4.4L20,4.5
		L20,4.5L20,4.5z M4.4,156l0,107.2c0,8.6,6.9,15.5,15.5,15.8v0l107.4,0v-97.8c0-13.8-11.3-25.2-25.2-25.2H4.4L4.4,156z M263.5,0
		c11,0.3,19.9,9.1,19.9,20.2l-0.1,243c0,11-8.4,20-19.4,20.3v0l-244,0v0C8.9,283.1,0,274.3,0,263.2l0-243C0.1,9.2,9,0.3,20,0v0
		L263.5,0L263.5,0L263.5,0z"/>
</g>
</svg>
