<?xml version="1.0" encoding="utf-8"?>
<svg version="1.1"
	 xmlns="http://www.w3.org/2000/svg"
	 x="0px" y="0px" viewBox="0 0 283.5 142.4" enable-background="new 0 0 283.5 142.4" xml:space="preserve">
<g>
	<path fill-rule="evenodd" clip-rule="evenodd" d="M263.5,0c11,0.3,19.9,9.1,19.9,20.2v102c0,11-8.4,20-19.4,20.3v0l-244.1,0v0
		C8.9,142.1,0,133.3,0,122.2v-102C0,9.2,8.9,0.3,19.9,0v0L263.5,0L263.5,0L263.5,0z M114.7,4.4v52.7L7.3,32.4L141.7,138l122.3,0v0
		c8.6-0.3,15-7.3,15-15.8v-102c0-8.6-6.9-15.5-15.5-15.8v0l-94.8,0v52.7l107.5-24.7L141.7,138l-121.8,0v0
		c-8.6-0.3-15.5-7.1-15.5-15.8v-102c0-8.6,6.9-15.5,15.5-15.8v0L114.7,4.4L114.7,4.4z"/>
</g>
</svg>
