<?xml version="1.0" encoding="utf-8"?>
<svg version="1.1"
	 xmlns="http://www.w3.org/2000/svg"
	 x="0px" y="0px" viewBox="0 0 283.5 142.6" enable-background="new 0 0 283.5 142.6" xml:space="preserve">
<g>
	<path fill-rule="evenodd" clip-rule="evenodd" d="M263.5,0c11,0.3,19.9,9.1,19.9,20.2v102c0,18-19.4,21.5-19.4,20.3l-244.1,0
		C8.9,142.1,0,133.3,0,122.2v-102C0,9.2,8.9,0.3,19.9,0L263.5,0L263.5,0z M4.4,122.2c0,8.6,6.9,15.5,15.5,15.8l244.1,0
		c8.6-0.3,15-7.3,15-15.8v-102c0-8.6-6.9-15.5-15.5-15.8l-243.6,0C11.3,4.8,4.4,11.6,4.4,20.2V122.2L4.4,122.2z M71.4,53
		c14.7,0,26.9,10.8,28.9,25c12.9-4,25.7-4,38.6,0c2.1-14.1,14.3-25,29-25c14.8,0,27.1,11,29,25.3l41.7-41.7
		c4.7-4.7,15.5-3.6,15.5,5.3v7.3H250l0-7.5c0-4.8-6-4.2-8.4-1.9l-39.1,39.1v10.3h-6.1c-3.1,12.8-14.7,22.3-28.4,22.3
		c-16.2,0-29.3-13.1-29.3-29.3l0-0.8c-12.7-3.9-25.3-3.9-38,0l0,0.8c0,16.2-13.1,29.3-29.3,29.3c-13.8,0-25.3-9.5-28.4-22.3h-4.4
		V78.9l4.7-4.7c2.8-9.6,10.4-17.3,20-20l17.5-17.5c4.7-4.7,15.5-3.6,15.5,5.3v7.3h-4.2l0-7.5c0-4.8-6-4.2-8.4-1.9L70.6,53
		C70.9,53,71.1,53,71.4,53L71.4,53z M71.4,57c14,0,25.3,11.3,25.3,25.3c0,14-11.3,25.3-25.3,25.3c-14,0-25.3-11.3-25.3-25.3
		C46.1,68.3,57.5,57,71.4,57L71.4,57z M167.9,57c14,0,25.3,11.3,25.3,25.3c0,14-11.3,25.3-25.3,25.3c-14,0-25.3-11.3-25.3-25.3
		C142.6,68.3,154,57,167.9,57L167.9,57z M71.4,58.9c12.9,0,23.4,10.5,23.4,23.4c0,12.9-10.5,23.4-23.4,23.4S48,95.2,48,82.3
		C48,69.3,58.5,58.9,71.4,58.9L71.4,58.9z M167.9,58.9c12.9,0,23.4,10.5,23.4,23.4c0,12.9-10.5,23.4-23.4,23.4s-23.4-10.5-23.4-23.4
		C144.6,69.3,155,58.9,167.9,58.9L167.9,58.9z"/>
</g>
</svg>
