<?xml version="1.0" encoding="utf-8"?>
<svg version="1.1"
	 xmlns="http://www.w3.org/2000/svg"
	 x="0px" y="0px" viewBox="0 0 283.5 142.6" enable-background="new 0 0 283.5 142.6" xml:space="preserve">
<g>
	<path fill-rule="evenodd" clip-rule="evenodd" d="M4.4,122.2c0,8.6,6.9,15.5,15.5,15.8l244.1,0c8.6-0.3,15-7.3,15-15.8v-102
		c0-8.6-6.9-15.5-15.5-15.8l-243.6,0C11.3,4.8,4.4,11.6,4.4,20.2V122.2L4.4,122.2z M263.5,0c11,0.3,19.9,9.1,19.9,20.2v102
		c0,18-19.4,21.5-19.4,20.3l-244.1,0C8.9,142.1,0,133.3,0,122.2v-102C0,9.2,8.9,0.3,19.9,0L263.5,0L263.5,0z M87,95h-6.2l-10.1,21.1
		h6.2L87,95L87,95z M113.1,104.1h-6.2l-10.1,21.1h6.2L113.1,104.1L113.1,104.1z M139.3,95h-6.2l-10.1,21.1h6.2L139.3,95L139.3,95z
		 M165.2,104.1h-6.2l-10.1,21.1h6.2L165.2,104.1L165.2,104.1z M192.5,95h-6.2l-10.1,21.1h6.2L192.5,95L192.5,95z M105.6,34.3
		c7.8-1.8,15,0.3,20.6,6.1l3.9,4l3.3-5.1c6.5-10.1,19.9-18.6,31.8-20.6c9.1-1.5,19.8-0.5,28.2,3.3c8.6,4,13.7,7.2,18.4,15.6
		c4.6,8.2,5,16.4,2.5,25.4c-2,7.2-9,15.8-15.3,20.2c-9.8,6.8-19,7.5-30.6,8.4c-26.1,2-54.3,1.1-80.2-3.3C81.8,87.1,74.2,86,70,82.7
		c-6.8-5.4-9.6-14.5-6.7-22.3c1.1-3,5.4-7.4,8.2-8.8c5.9-3,10.2-1.8,16,0C91.2,44,97,36.4,105.6,34.3L105.6,34.3z M103.1,42.6
		c14.4-9,26.7,8.7,27.4,22.3l1.2,0c1.7-19.2,13-35,32.7-39.3c13-2.8,27.4,0.2,37.2,9.5c3.5,3.3,6.8,9.8,7.2,14.6
		c1.4,15.7-9.7,28.1-23.9,32.7c-11.2,3.6-47.4,3.8-60,3.1C111.8,85,95.4,83,82.6,80.4c-6.5-1.3-11.4-3.2-13.2-10
		C64.9,52.7,88.8,52.8,89.3,65l1.3,0C92.2,55.8,94.9,47.7,103.1,42.6L103.1,42.6z"/>
</g>
</svg>
