<?xml version="1.0" encoding="utf-8"?>
<svg version="1.1"
	 xmlns="http://www.w3.org/2000/svg"
	 x="0px" y="0px" viewBox="0 0 283.5 142.4" enable-background="new 0 0 283.5 142.4" xml:space="preserve">
<g>
	<path fill-rule="evenodd" clip-rule="evenodd" d="M263.5,138c8.6-0.3,15.5-7.1,15.5-15.8v-102c0-8.6-6.9-15.5-15.5-15.8v0l-32.5,0
		l0,0l-20.8,0l0,0l-190.8,0v0c-8.6,0.3-15,7.3-15,15.8v102c0,8.6,6.9,15.5,15.5,15.8v0L263.5,138L263.5,138L263.5,138z M19.9,142.4
		C8.9,142.1,0,133.3,0,122.2v-102C0,9.3,8.4,0.3,19.4,0v0l244.1,0v0c11,0.3,19.9,9.1,19.9,20.2v102c0,11.1-8.9,19.9-19.9,20.2v0
		L19.9,142.4L19.9,142.4L19.9,142.4z M160.6,97c-1.8,16.1-15.5,28.6-32.1,28.6c-5.4,0-10.5-1.3-15-3.7l-5.7,5.7
		c6,3.6,13.1,5.7,20.6,5.7c17,0,31.5-10.6,37.3-25.6L160.6,97L160.6,97z M102.4,112.3c-3.9-5.3-6.2-11.9-6.2-19
		c0-12.7,7.3-23.7,18-28.9l-1.4-7.8c-14.3,6.1-24.2,20.3-24.2,36.8c0,9.2,3.1,17.7,8.4,24.5L102.4,112.3L102.4,112.3z M121.8,31.6
		l3.9,21.3h25.6v10.2h-23.8l1.1,6.2h16.8l-11.1,11.1h-15.5L109.4,29c-2.2-2.1-3.5-5.1-3.5-8.4c0-6.5,5.3-11.8,11.8-11.8
		c6.5,0,11.8,5.3,11.8,11.8C129.5,25.6,126.3,30,121.8,31.6L121.8,31.6z M163.2,72.3l13.7,28.6l13.4-6.8l5.2,10.5l-23.3,11.7
		l-17.5-35.6L163.2,72.3L163.2,72.3z"/>
	<polygon fill-rule="evenodd" clip-rule="evenodd" fill="#B92B1E" points="210.3,4.4 231.1,4.4 97.5,138 76.7,138 210.3,4.4 	"/>
</g>
</svg>
