<?xml version="1.0" encoding="utf-8"?>
<svg version="1.1"
	 xmlns="http://www.w3.org/2000/svg"
	 x="0px" y="0px" viewBox="0 0 283.5 142.4" enable-background="new 0 0 283.5 142.4" xml:space="preserve">
<g>
	<path fill-rule="evenodd" clip-rule="evenodd" d="M19.9,0C8.9,0.3,0,9.1,0,20.2v102c0,11,8.4,20,19.4,20.3v0l244.1,0v0
		c11-0.3,19.9-9.1,19.9-20.2v-102c0-11.1-8.9-19.9-19.9-20.2v0L19.9,0L19.9,0L19.9,0z M263.5,4.5c8.6,0.3,15.5,7.1,15.5,15.8v102
		c0,8.6-6.9,15.5-15.5,15.8v0l-244.1,0v0c-8.6-0.3-15-7.3-15-15.8v-102c0-8.6,6.9-15.5,15.5-15.8v0L263.5,4.5L263.5,4.5L263.5,4.5z
		 M169.4,61.1l3.5,34l-8.1,0l-1.6-22.5l-9.5,17.7l-9.5-17.7l-1.6,22.5l-8.1,0l3.5-34l7.7,0l8,15.7l8-15.7L169.4,61.1L169.4,61.1z
		 M107.9,95.8c8.7,0,13.7-7.5,15.5-15.6c2.3-10.3,0.9-28.2-10.5-32.7c-7.3-2.9-14.4,0.8-18.1,7.7C88.4,67.5,90.4,95.8,107.9,95.8
		L107.9,95.8z M107.9,87.3c-4.1,0-6.2-4.4-7.1-8.2c-1.1-5-1.8-21.5,5-23.6c3.7-1.2,6.7,0.5,8.2,4.1
		C116.7,65.9,117.3,87.4,107.9,87.3L107.9,87.3z M69.1,95.8c8.7,0,13.7-7.5,15.5-15.6c2.3-10.3,0.9-28.2-10.5-32.7
		c-7.3-2.9-14.4,0.8-18.1,7.7C49.7,67.5,51.7,95.8,69.1,95.8L69.1,95.8z M69.1,87.3c-4.1,0-6.2-4.4-7.1-8.2c-1.1-5-1.8-21.5,5-23.6
		c3.7-1.2,6.7,0.5,8.2,4.1C78,65.9,78.5,87.4,69.1,87.3L69.1,87.3z M43.7,47.2l-0.2,48.1l-8.8,0l0-36.4l-6.4,3.9L25,58.4l10.5-11.3
		L43.7,47.2L43.7,47.2z M220,99.2l47.7-28l-47.7-28v18.3h-34.9v19.4H220V99.2L220,99.2z"/>
</g>
</svg>
