<?xml version="1.0" encoding="utf-8"?>
<svg version="1.1"
	 xmlns="http://www.w3.org/2000/svg"
	 x="0px" y="0px" viewBox="0 0 283.5 283.3" enable-background="new 0 0 283.5 283.3" xml:space="preserve">
<g>
	<path fill-rule="evenodd" clip-rule="evenodd" d="M163.2,231.1c13.1,0,20.6-11.2,23.3-23.4c3.4-15.5,1.4-42.3-15.8-49.1
		c-10.9-4.3-21.6,1.1-27.1,11.6c-8.2,15.5-7.8,51.6,12.1,59.4C158.1,230.6,160.6,231.1,163.2,231.1L163.2,231.1z M163.2,218.3
		c-6.2,0.1-9.4-6.6-10.7-12.4c-1.7-7.5-2.7-32.3,7.5-35.5c5.6-1.7,10,0.7,12.4,6.2c3.6,8.3,4.9,34.7-5,40.5
		C166,218,164.6,218.4,163.2,218.3L163.2,218.3z M256.3,179.4l5.2,50.9l-12,0l-2.4-33.8L232.9,223l-14.1-26.5l-2.4,33.8l-12,0
		l5.2-50.9h11.4l12,23.5l12-23.5H256.3L256.3,179.4z M85,229.5l-2.4-15.1c5.2,3.2,10.7,4.6,16,4.6c10,0,17-6.6,17-13.2
		c0-6.3-4.7-12.4-11.9-12.1c-3.1,0.1-6.5,1.5-10.4,4.7l-8.2-3.9V158h41.5l-3.3,13.3l-26-0.1V185c16.1-7.9,32.5,2.7,32.2,18.8
		c-0.2,15.2-10.6,27.2-27.7,27.3C96.6,231.1,90.9,230.4,85,229.5L85,229.5z M69.4,230.3H25.4v-12.5c6-5.6,12.5-11.9,18-17.7
		c4.4-4.6,8.1-9,10.6-12.2c3-3.8,6.5-7,5.5-12.1c-1-4.5-4.7-8.4-9.7-8.3c-5.4,0.1-9.9,4.3-14.9,9.8l-8.4-9.4
		c4.7-6.9,15.1-10.8,22.9-10.8c12.1,0,22.4,8.4,22.4,20.9c0,4.3-0.5,8.6-3.4,12.6c-2.6,3.7-8.3,9.8-15.2,16.6l-9.9,9.8h29.4
		L69.4,230.3L69.4,230.3z M25.6,113.5l8.2-8.3c16,16.4,27.1,6.8,27.7-1.3c1-15-31.5-2.8-32.3-31c-0.5-19.1,24.2-30.7,43.1-11.7
		L65,70.5c-3.3-2.9-5.4-6.3-13.8-6.6c-6.4-0.2-10.3,3.9-10.3,8.8c0.3,14.6,33.4,3.9,32.4,31.1C72.4,128.5,39.9,133.5,25.6,113.5
		L25.6,113.5z M103.3,124.6v-58H85.9V52.8h48v13.7h-17.4v58H103.3L103.3,124.6z M143.3,89.2c0-43.1,35-44.5,48.1-27.7
		c13.1,16.9,11.6,64.3-20.1,64.3C151.9,125.9,143.3,109.1,143.3,89.2L143.3,89.2z M155.2,88.7c0,33.1,31.8,33.8,31.8-0.2
		c0-28.9-20.2-28.4-27.4-18.3C156.7,74.3,155.2,80.5,155.2,88.7L155.2,88.7z M214.2,124.6h13.2V99.2h12.5
		c13.2,0,23.7-11.7,23.9-23.4c0.2-11.7-9.3-23-22.6-23h-27.1v49V124.6L214.2,124.6z M227.4,65.5h12c5.6,0,11.1,3.2,11.1,10.5
		c0,7.2-5.8,10.4-11.1,10.4h-12.1V65.5L227.4,65.5z M19.9,0C14.7,0.1,9.8,2.2,6,5.9c-3.9,3.8-6,8.9-6,14.3V263
		c0,5.4,2,10.5,5.8,14.4c3.6,3.7,8.5,5.7,13.6,5.9v0l244.1,0v0c5.2-0.1,10.2-2.2,13.9-5.9c3.9-3.8,6-8.9,6-14.3V20.2
		c0-5.4-2.2-10.5-6-14.3c-3.7-3.7-8.7-5.8-13.9-5.9v0L19.9,0L19.9,0L19.9,0z M263.5,4.5c4.1,0.1,7.9,1.7,10.8,4.6
		c3,3,4.7,6.9,4.7,11.2V263c0,4.2-1.7,8.2-4.7,11.2c-2.9,2.9-6.8,4.5-10.8,4.6v0l-244.1,0v0c-4-0.1-7.7-1.7-10.5-4.5
		c-3-3-4.5-7.1-4.5-11.3V20.2C4.4,16,6.1,12,9.1,9c2.9-2.9,6.8-4.5,10.8-4.6v0L263.5,4.5L263.5,4.5L263.5,4.5z"/>
</g>
</svg>
