<?xml version="1.0" encoding="utf-8"?>
<svg version="1.1"
	 xmlns="http://www.w3.org/2000/svg"
	 x="0px" y="0px" viewBox="0 0 283.5 142.4" enable-background="new 0 0 283.5 142.4" xml:space="preserve">
<g>
	<path fill-rule="evenodd" clip-rule="evenodd" d="M263.5,4.5c4.1,0.1,7.9,1.7,10.8,4.6c3,3,4.7,6.9,4.7,11.2v102
		c0,4.2-1.7,8.2-4.7,11.2c-2.9,2.9-6.8,4.5-10.8,4.6v0l-244.1,0v0c-4-0.1-7.7-1.7-10.5-4.5c-3-3-4.5-7.1-4.5-11.3v-102
		C4.4,16,6.1,12,9.1,9c2.9-2.9,6.8-4.5,10.8-4.6v0L263.5,4.5L263.5,4.5L263.5,4.5z M19.9,0C14.7,0.1,9.8,2.2,6,5.9
		c-3.9,3.8-6,8.9-6,14.3v102c0,5.4,2,10.5,5.8,14.4c3.6,3.7,8.5,5.7,13.6,5.9v0l244.1,0v0c5.2-0.1,10.2-2.2,13.9-5.9
		c3.9-3.8,6-8.9,6-14.3v-102c0-5.4-2.2-10.5-6-14.3c-3.7-3.7-8.7-5.8-13.9-5.9v0L19.9,0L19.9,0L19.9,0z M256.3,56.4l5.2,50.7
		l-12.1,0L247,73.4l-14.2,26.3l-14.2-26.3l-2.4,33.6l-12.1,0l5.2-50.7l11.5,0l12.1,23.4l12.1-23.4L256.3,56.4L256.3,56.4z
		 M23.9,105.3l-1.2-14.1c7.4,5.7,31.9,9.1,32.7-5.4c0.4-7.4-5.2-10.4-11.8-10.4c-2.1,0-4.4,0.2-6.6,0.9V64.5
		c9.9-1.2,15.1-5.7,15.3-11.9c0.1-3.1-2.1-6.8-7.6-7c-4.8-0.2-12,3.1-16.2,6.5l-4.4-12.3c5.1-3.5,15.2-5.6,21.8-5.6
		c10.7,0,20.5,5.6,20.5,17.4c0,6.7-5,12.4-12.6,16.1v0.2C63.7,69.3,70,77.9,70,87.6c0,15.4-14.7,20.5-26.4,20.5
		C36.5,108.1,28.1,107.9,23.9,105.3L23.9,105.3z M103.7,95.3c-6.2,0.1-9.4-6.6-10.7-12.4c-1.7-7.5-2.7-32.3,7.5-35.5
		c5.6-1.7,10,0.7,12.4,6.2c3.6,8.3,4.9,34.7-5,40.5C106.5,94.9,105.1,95.3,103.7,95.3L103.7,95.3z M103.7,108.1
		c13.1,0,20.6-11.2,23.3-23.4c3.4-15.5,1.4-42.3-15.8-49.1c-10.9-4.3-21.6,1.1-27.1,11.6c-8.2,15.5-7.8,51.6,12.1,59.4
		C98.7,107.6,101.2,108,103.7,108.1L103.7,108.1z M162.8,95.3c-6.2,0.1-9.4-6.6-10.7-12.4c-1.7-7.5-2.7-32.3,7.5-35.5
		c5.6-1.7,10,0.7,12.4,6.2c3.6,8.3,4.9,34.7-5,40.5C165.6,94.9,164.2,95.3,162.8,95.3L162.8,95.3z M162.8,108.1
		c13.1,0,20.6-11.2,23.3-23.4c3.4-15.5,1.4-42.3-15.8-49.1c-10.9-4.3-21.6,1.1-27.1,11.6c-8.2,15.5-7.8,51.6,12.1,59.4
		C157.8,107.6,160.2,108,162.8,108.1L162.8,108.1z"/>
</g>
</svg>
