<?xml version="1.0" encoding="utf-8"?>
<svg version="1.1"
	 xmlns="http://www.w3.org/2000/svg"
	 x="0px" y="0px" viewBox="0 0 283.5 142.6" enable-background="new 0 0 283.5 142.6" xml:space="preserve">
<g>
	<path fill-rule="evenodd" clip-rule="evenodd" d="M4.4,122.2c0,8.6,6.9,15.5,15.5,15.8l244.1,0c8.6-0.3,15-7.3,15-15.8v-102
		c0-8.6-6.9-15.5-15.5-15.8l-243.6,0C11.3,4.8,4.4,11.6,4.4,20.2V122.2L4.4,122.2z M263.5,0c11,0.3,19.9,9.1,19.9,20.2v102
		c0,18-19.4,21.5-19.4,20.3l-244.1,0C8.9,142.1,0,133.3,0,122.2v-102C0,9.2,8.9,0.3,19.9,0L263.5,0L263.5,0z M140,86.9
		c-0.1-2.2-1.2-4.1-3.7-4.1c-2.6,0-3.8,1.6-3.8,4.1H140L140,86.9z M141,92.3l3.3,2.1c-1.3,2.4-4.7,4-7.8,4c-5.2,0-8.8-3.8-8.8-9.4
		c0-5.1,3.3-9.7,8.3-9.7c5.5,0,9.4,5.1,8.2,10.8h-11.9c0,1.4,0.7,2.8,1.4,3.6C135.9,95.7,139.9,94.5,141,92.3L141,92.3z M109.6,79.7
		h12.8v18.1h-3.8v-15h-5.2l-0.3,7.7c-0.1,4.3-2.7,7-7.3,7.8l-0.7-3.4c3.7-0.7,4-2.7,4.1-4.9L109.6,79.7L109.6,79.7z M214.9,53.5
		c0,1.9,0.4,3.3,1.2,4.3c0.8,1,1.8,1.5,2.9,1.5c1.2,0,2.1-0.5,2.9-1.5c0.8-1,1.2-2.5,1.2-4.4c0-1.9-0.4-3.3-1.2-4.3
		c-0.8-1-1.8-1.5-2.9-1.5c-1.2,0-2.2,0.5-2.9,1.5C215.3,50.2,214.9,51.6,214.9,53.5L214.9,53.5z M210.6,53.2c0-1.6,0.4-3.2,1.1-4.7
		c0.7-1.5,1.7-2.7,3-3.4c1.3-0.8,2.7-1.2,4.4-1.2c2.5,0,4.5,0.9,6.1,2.7c1.6,1.8,2.4,4.1,2.4,6.8c0,2.8-0.8,5.1-2.4,6.9
		c-1.6,1.8-3.6,2.7-6,2.7c-1.5,0-2.9-0.4-4.3-1.1c-1.4-0.8-2.4-1.9-3.1-3.3C211,57.1,210.6,55.3,210.6,53.2L210.6,53.2z M131.8,49.6
		h10.4v5.2h-10.4V49.6L131.8,49.6z M162.4,98.1h-1.7v-8.3h-0.9c-1,0-1.4,0.3-1.9,0.9c-2,2.6-3,4.8-4.6,7.3l-4.4,0
		c1.6-1.9,2.2-3.4,3.3-5.1c0.8-1.2,1.6-2.7,2.2-3.5c0.6-0.8,1.1-1.3,2.1-1.5c-0.5-0.1-2.3-2.6-3.1-3.9c-0.3-0.5-0.8-1.1-1.9-1.1
		h-0.9l0.9-3.5c1.4,0,2.6,0.5,3.2,1.2c1.4,1.4,2.8,3.9,4.2,5.5c0.4,0.5,0.9,0.5,1.6,0.4V80h1.7h1.7v6.6c0.6,0.1,1.2,0.1,1.6-0.4
		c1.5-1.6,2.9-4.1,4.2-5.5c0.6-0.7,1.8-1.2,3.2-1.2l0.9,3.5h-0.9c-1,0-1.5,0.6-1.9,1.1c-0.8,1.3-2.5,3.8-3.1,3.9
		c1,0.2,1.5,0.7,2.1,1.5c0.6,0.8,1.4,2.3,2.2,3.5c1.1,1.7,1.7,3.1,3.3,5.1l-4.4,0c-1.6-2.6-2.6-4.8-4.6-7.3
		c-0.5-0.6-0.9-0.9-1.9-0.9h-0.9v8.3H162.4L162.4,98.1z M96.9,86.9c-0.1-2.2-1.2-4.1-3.7-4.1c-2.6,0-3.8,1.6-3.8,4.1H96.9L96.9,86.9
		z M98,92.3l3.3,2.1c-1.3,2.4-4.7,4-7.8,4c-5.2,0-8.8-3.8-8.8-9.4c0-5.1,3.3-9.7,8.3-9.7c5.5,0,9.4,5.1,8.2,10.8H89.4
		c0,1.4,0.7,2.8,1.4,3.6C92.8,95.7,96.8,94.5,98,92.3L98,92.3z M65.9,79.7h13.7v3.6h-4.8v14.5h-4.1V83.3h-4.8V79.7L65.9,79.7z
		 M92.5,62.7v-7.3h-0.7c-3.1,0-3.1,0.8-4.4,2.7L85,62.7h-4c0.7-0.8,3-5.1,3.7-6.7c0.5-1.1,1-1.4,2.2-1.7c-2.5-0.6-3.8-2.1-3.8-4.6
		c0-1.1,0.3-2.1,0.8-2.9c0.6-0.9,1.3-1.4,2.2-1.7c0.9-0.3,2.3-0.5,4.1-0.5h5.5v18.1H92.5L92.5,62.7z M92.5,47.6h-2.3
		c-1.9,0-3.4,0.5-3.4,2.5c0,2,1.7,2.5,3.4,2.5h2.3V47.6L92.5,47.6z M181.3,80h4.3v6.4c3.4-0.5,4.6-6.6,9.5-6.8l0.8,3.7
		c-2.7-0.1-4,4.2-6.1,4.7c3.8,0.5,3.8,4.7,7.9,10h-4.9c-4.5-7.5-3.5-8-7.1-8v8h-4.3V80L181.3,80z M48.4,58.9l0-10.7h-4.8
		c-0.2,4.7-0.9,9-2.2,10.7H48.4L48.4,58.9z M51.1,62.7H39.1v3.6h-3.8v-7.4h1.9c1.8-1.8,2.4-11.8,2.4-14.3h13.1v14.3h2.2v7.4h-3.8
		V62.7L51.1,62.7z M61.4,44.6h12.8v18.1h-3.8v-15h-5.2l-0.3,7.7c-0.1,4.3-2.7,7-7.3,7.8l-0.7-3.4c3.7-0.7,4-2.7,4.1-4.9L61.4,44.6
		L61.4,44.6z M151.1,53.5c0,1.9,0.4,3.3,1.2,4.3c0.8,1,1.8,1.5,2.9,1.5c1.2,0,2.1-0.5,2.9-1.5c0.8-1,1.2-2.5,1.2-4.4
		c0-1.9-0.4-3.3-1.2-4.3c-0.8-1-1.8-1.5-2.9-1.5c-1.2,0-2.2,0.5-2.9,1.5C151.5,50.2,151.1,51.6,151.1,53.5L151.1,53.5z M146.8,53.2
		c0-1.6,0.4-3.2,1.1-4.7c0.7-1.5,1.7-2.7,3-3.4c1.3-0.8,2.7-1.2,4.4-1.2c2.5,0,4.5,0.9,6.1,2.7c1.6,1.8,2.4,4.1,2.4,6.8
		c0,2.8-0.8,5.1-2.4,6.9c-1.6,1.8-3.6,2.7-6,2.7c-1.5,0-2.9-0.4-4.3-1.1c-1.4-0.8-2.4-1.9-3.1-3.3C147.1,57.1,146.8,55.3,146.8,53.2
		L146.8,53.2z M194.1,55h6.5v7.7h4.4V44.6h-4.4v6.7h-6.5v-6.7h-4.4v18.1h4.4V55L194.1,55z M184.7,57.1c-0.6,3.5-4.1,6-7.9,6
		c-5.7,0.1-8.6-4.2-8.6-9.4c0-3.1,0.8-5.5,2.4-7.2c1.6-1.7,3.7-2.6,6.4-2.6c4,0.1,6.5,2.1,7.6,5.8c-1.2,0.3-2.4,0.6-3.6,1
		c0,0-1-3.2-4.2-3.2c-3.3,0-4.4,3-4.4,6.2c0,2.8,0.9,6,4.4,6c2.3,0,3.7-1.5,4.2-3.5L184.7,57.1L184.7,57.1z M202.8,80h4.2V91L214,80
		h4.2v18.1H214V87.2l-7.1,10.9h-4.2V80L202.8,80z M232.5,44.6h4.2v11.1l7.1-11.1h4.2v18.1h-4.2V51.9l-7.1,10.9h-4.2V44.6L232.5,44.6
		z M246.7,36.9c-0.5,3.1-3.2,5.5-6.5,5.5c-3.3,0-6-2.4-6.5-5.5h3.3c0.5,1.4,1.7,2.4,3.3,2.4c1.5,0,2.8-1,3.3-2.4H246.7L246.7,36.9z
		 M112.3,61.9l-0.4-5c2.7,2,11.6,3.2,11.9-1.9c0.1-2.6-1.9-3.7-4.3-3.7c-0.8,0-1.6,0.1-2.4,0.3v-4.2c3.6-0.4,5.5-2,5.6-4.2
		c0.1-1.1-0.7-2.4-2.8-2.5c-1.7-0.1-4.3,1.1-5.9,2.3l-1.6-4.4c1.9-1.2,5.5-2,7.9-2c3.9,0,7.4,2,7.4,6.2c0,2.4-1.8,4.4-4.6,5.7v0.1
		c3.5,0.5,5.8,3.6,5.8,7c0,5.4-5.3,7.3-9.6,7.3C116.9,62.8,113.8,62.8,112.3,61.9L112.3,61.9z"/>
</g>
</svg>
