<?xml version="1.0" encoding="utf-8"?>
<svg version="1.1"
	 xmlns="http://www.w3.org/2000/svg"
	 x="0px" y="0px" viewBox="0 0 283.5 142.4" enable-background="new 0 0 283.5 142.4" xml:space="preserve">
<g>
	<path fill-rule="evenodd" clip-rule="evenodd" d="M143.7,39.2h21.5c1.5,0,2.8,1.3,2.8,2.8v14.5c0,1.5-1.3,2.8-2.8,2.8h-21.5
		c-1.5,0-2.8-1.3-2.8-2.8V42C140.9,40.4,142.2,39.2,143.7,39.2L143.7,39.2z M130.1,39.2H122c-1.5,0-3,0.9-4.1,2.8l-7.2,12.6
		c-1.1,1.9,0.1,4.6,3.1,4.6h16.3c1.5,0,2.8-1.3,2.8-2.8V42C132.9,40.4,131.6,39.2,130.1,39.2L130.1,39.2z M214,39.2h19.9
		c1.5,0,3.1,0.7,3.7,2.8l3.6,12.6c0.6,2.1-0.1,4.6-3.1,4.6H214c-1.5,0-2.8-1.3-2.8-2.8V42C211.2,40.4,212.5,39.2,214,39.2L214,39.2z
		 M178.8,39.2h21.5c1.5,0,2.8,1.3,2.8,2.8v14.5c0,1.5-1.3,2.8-2.8,2.8h-21.5c-1.5,0-2.8-1.3-2.8-2.8V42
		C176,40.4,177.3,39.2,178.8,39.2L178.8,39.2z M122.5,32.9h118.7c5.8,0,7.7,3.3,9.1,7.3c2.2,6.3,4.2,12.6,6.5,18.9v29.1
		c0,4.1-3.3,7.4-7.4,7.4h-11c0-0.2,0-0.4,0-0.6c0-9.6-7.5-17.4-17.1-17.4c-9.6,0-17,7.8-17,17.4c0,0.2,0,0.4,0,0.6h-57.5
		c0-0.2,0-0.4,0-0.6c0-9.6-7.3-17.4-16.9-17.4c-9.6,0-17.1,7.8-17.1,17.4c0,0.2,0,0.4,0,0.6h-4.2c-4.1,0-7.4-3.3-7.4-7.4V60
		l11.4-19.7C114.6,36.7,116.9,32.9,122.5,32.9L122.5,32.9z M129.8,88.4c3.7,0,6.6,3,6.6,6.6c0,3.7-3,6.6-6.6,6.6
		c-3.7,0-6.6-3-6.6-6.6C123.2,91.3,126.1,88.4,129.8,88.4L129.8,88.4z M129.8,80.4c8.1,0,14.6,6.5,14.6,14.6
		c0,8.1-6.5,14.6-14.6,14.6c-8.1,0-14.6-6.5-14.6-14.6C115.2,86.9,121.7,80.4,129.8,80.4L129.8,80.4z M221.3,88.4
		c3.7,0,6.6,3,6.6,6.6c0,3.7-3,6.6-6.6,6.6c-3.7,0-6.6-3-6.6-6.6C214.6,91.3,217.6,88.4,221.3,88.4L221.3,88.4z M221.3,80.4
		c8.1,0,14.6,6.5,14.6,14.6c0,8.1-6.5,14.6-14.6,14.6c-8.1,0-14.6-6.5-14.6-14.6C206.7,86.9,213.2,80.4,221.3,80.4L221.3,80.4z
		 M46.5,44.3h13.9v19.8h19.8v13.9H60.4v19.8H46.5V78.1H26.7V64.1h19.8V44.3L46.5,44.3z M19.9,0C14.7,0.1,9.8,2.2,6,5.9
		c-3.9,3.8-6,8.9-6,14.3v102c0,5.4,2,10.5,5.8,14.4c3.6,3.7,8.5,5.7,13.6,5.9v0l244.1,0v0c5.2-0.1,10.2-2.2,13.9-5.9
		c3.9-3.8,6-8.9,6-14.3v-102c0-5.4-2.2-10.5-6-14.3c-3.7-3.7-8.7-5.8-13.9-5.9v0L19.9,0L19.9,0L19.9,0z M263.5,4.5
		c4.1,0.1,7.9,1.7,10.8,4.6c3,3,4.7,6.9,4.7,11.2v102c0,4.2-1.7,8.2-4.7,11.2c-2.9,2.9-6.8,4.5-10.8,4.6v0l-244.1,0v0
		c-4-0.1-7.7-1.7-10.5-4.5c-3-3-4.5-7.1-4.5-11.3v-102C4.4,16,6.1,12,9.1,9c2.9-2.9,6.8-4.5,10.8-4.6v0L263.5,4.5L263.5,4.5
		L263.5,4.5z"/>
</g>
</svg>
