<?xml version="1.0" encoding="utf-8"?>
<svg version="1.1"
	 xmlns="http://www.w3.org/2000/svg"
	 x="0px" y="0px" viewBox="0 0 283.5 142.4" enable-background="new 0 0 283.5 142.4" xml:space="preserve">
<g>
	<path fill-rule="evenodd" clip-rule="evenodd" d="M46.5,44.4h13.9v19.8h19.8v13.9H60.4V98H46.5V78.2H26.7V64.3h19.8V44.4L46.5,44.4
		z M176,58.9h19c2,0,3.7,1.7,3.7,3.7v12.6c0,2-1.7,3.7-3.7,3.7h-19c-2,0-3.7-1.7-3.7-3.7V62.6C172.3,60.6,174,58.9,176,58.9
		L176,58.9z M205.2,58.9h19c2,0,3.7,1.7,3.7,3.7v12.6c0,2-1.7,3.7-3.7,3.7h-19c-2,0-3.7-1.7-3.7-3.7V62.6
		C201.5,60.6,203.2,58.9,205.2,58.9L205.2,58.9z M146.8,58.9h19c2,0,3.7,1.7,3.7,3.7v12.6c0,2-1.7,3.7-3.7,3.7h-19
		c-2,0-3.7-1.7-3.7-3.7V62.6C143.1,60.6,144.7,58.9,146.8,58.9L146.8,58.9z M128.9,58.9h7.6c2,0,3.7,1.7,3.7,3.7v12.6
		c0,2-1.7,3.7-3.7,3.7H122c-4.2,0-4.3-3.5-2.9-5.9l6.1-10.4C126.3,60.9,126.9,58.9,128.9,58.9L128.9,58.9z M242.1,58.9h-7.6
		c-2,0-3.7,1.7-3.7,3.7v12.6c0,2,1.7,3.7,3.7,3.7H249c4.2,0,4.3-3.5,2.9-5.9l-6.1-10.4C244.7,60.9,244.1,58.9,242.1,58.9L242.1,58.9
		z M132,53.9h49.8h7.4H239c4.9,0,7,2.8,8.9,6.3c1.4,2.6,2.8,5,4.2,7.4c1.4,2.4,2.7,4.8,4.1,7.2c1.9,3.2,2.2,4.9,2.2,8.5v14.4
		c0,6.4-5.3,11.7-11.7,11.7h-3.6c0-5.9-4.8-10.6-10.6-10.6c-31.3,0-62.6,0-94,0c-5.9,0-10.6,4.8-10.6,10.6h-3.6
		c-6.4,0-11.7-5.3-11.7-11.7V83.3c0-3.6,0.3-5.3,2.2-8.5c1.4-2.4,2.8-4.9,4.1-7.2c1.4-2.4,2.8-4.8,4.2-7.4
		C125,56.7,127.1,53.9,132,53.9L132,53.9z M183.2,110.2h11.4h9.8c-0.5-5.4,3.3-9.6,6.1-10.4l-11.5,0v0h-10.1h-10.1l0,0l-18.3,0
		c2.8,0.8,6.6,4.9,6.1,10.4H183.2L183.2,110.2z M147.1,111.8c-1,3.8-4.5,6.7-8.6,6.7c-4.9,0-8.9-4-8.9-8.9c0-4.9,4-8.9,8.9-8.9
		c4.2,0,7.7,2.8,8.6,6.7c1-3.8,4.5-6.7,8.6-6.7c4.9,0,8.9,4,8.9,8.9c0,4.9-4,8.9-8.9,8.9C151.6,118.5,148.1,115.6,147.1,111.8
		L147.1,111.8z M223.8,111.8c-1,3.8-4.5,6.7-8.6,6.7c-4.9,0-8.9-4-8.9-8.9c0-4.9,4-8.9,8.9-8.9c4.2,0,7.7,2.8,8.6,6.7
		c1-3.8,4.5-6.7,8.7-6.7c4.9,0,8.9,4,8.9,8.9c0,4.9-4,8.9-8.9,8.9C228.3,118.5,224.8,115.6,223.8,111.8L223.8,111.8z M172.2,50.8
		h13.3h13.3l9.9-11.7l-21.9-20l0-6.5h-1.3h-1.3l0,6.5l-21.9,20L172.2,50.8L172.2,50.8z M185.5,47.7h-11.7l-7.2-8.5L185.5,22h0l0,0
		l18.8,17.1l-7.2,8.5H185.5L185.5,47.7z M263.5,4.5c4.1,0.1,7.9,1.7,10.8,4.6c3,3,4.7,6.9,4.7,11.2v102c0,4.2-1.7,8.2-4.7,11.2
		c-2.9,2.9-6.8,4.5-10.8,4.6v0l-244.1,0v0c-4-0.1-7.7-1.7-10.5-4.5c-3-3-4.5-7.1-4.5-11.3v-102C4.4,16,6.1,12,9.1,9
		c2.9-2.9,6.8-4.5,10.8-4.6v0L263.5,4.5L263.5,4.5L263.5,4.5z M19.9,0C14.7,0.1,9.8,2.2,6,5.9c-3.9,3.8-6,8.9-6,14.3v102
		c0,5.4,2,10.5,5.8,14.4c3.6,3.7,8.5,5.7,13.6,5.9v0l244.1,0v0c5.2-0.1,10.2-2.2,13.9-5.9c3.9-3.8,6-8.9,6-14.3v-102
		c0-5.4-2.2-10.5-6-14.3c-3.7-3.7-8.7-5.8-13.9-5.9v0L19.9,0L19.9,0L19.9,0z"/>
</g>
</svg>
