<?xml version="1.0" encoding="utf-8"?>
<svg version="1.1"
	 xmlns="http://www.w3.org/2000/svg"
	 x="0px" y="0px" viewBox="0 0 283.5 142.4" enable-background="new 0 0 283.5 142.4" xml:space="preserve">
<g>
	<path fill-rule="evenodd" clip-rule="evenodd" d="M19.9,0C14.7,0.1,9.8,2.2,6,5.9c-3.9,3.8-6,8.9-6,14.3v102c0,5.4,2,10.5,5.8,14.4
		c3.6,3.7,8.5,5.7,13.6,5.9v0l244.1,0v0c5.2-0.1,10.2-2.2,13.9-5.9c3.9-3.8,6-8.9,6-14.3v-102c0-5.4-2.2-10.5-6-14.3
		c-3.7-3.7-8.7-5.8-13.9-5.9v0L19.9,0L19.9,0L19.9,0z M263.5,4.5c4.1,0.1,7.9,1.7,10.8,4.6c3,3,4.7,6.9,4.7,11.2v102
		c0,4.2-1.7,8.2-4.7,11.2c-2.9,2.9-6.8,4.5-10.8,4.6v0l-244.1,0v0c-4-0.1-7.7-1.7-10.5-4.5c-3-3-4.5-7.1-4.5-11.3v-102
		C4.4,16,6.1,12,9.1,9c2.9-2.9,6.8-4.5,10.8-4.6v0L263.5,4.5L263.5,4.5L263.5,4.5z M46.5,44.4h13.9v19.8h19.8v13.9H60.4V98H46.5
		V78.2H26.7V64.3h19.8V44.4L46.5,44.4z M93.5,88.2l6.9,0l2.5-22.6l8.1,17.7l8.1-17.7l2.5,22.6l6.9,0l-3.7-34l-7,0l-6.8,15l-6.8-15
		l-7,0L93.5,88.2L93.5,88.2z M137.2,88.2h20.9v-5.9h-14.9v-9.3h12.1v-5.6h-12.1v-7.5h15v-5.9h-21V88.2L137.2,88.2z M177.1,88.2h6.5
		V60.1h9.5v-5.9h-25.5v5.9h9.5V88.2L177.1,88.2z M202.2,88.2h6.5V75.9h3.9c7.7,0,13.6-3.1,13.6-11.3c0-2.6-1-5.1-3-6.9
		c-2.9-2.7-7.1-3.4-10.9-3.4h-10.1V88.2L202.2,88.2z M208.7,60.1l3.1,0c3.7,0,7.8,0.4,7.8,5c0,4.1-3.7,4.9-7.1,4.9l-3.8,0
		L208.7,60.1L208.7,60.1z M248,53.4c-9.6,0-13.9,9.5-13.8,17.9c0.2,23.8,27.4,23.8,27.6,0C261.9,62.9,257.6,53.4,248,53.4L248,53.4z
		 M255.3,71.2c0,4.6-1.3,12-7.2,11.9c-2.5,0-3.8-1-5.2-2.9c-3.5-4.9-3.3-21,5.1-20.9C254,59.3,255.3,66.5,255.3,71.2L255.3,71.2z"/>
</g>
</svg>
