<?xml version="1.0" encoding="utf-8"?>
<svg version="1.1"
	 xmlns="http://www.w3.org/2000/svg"
	 x="0px" y="0px" viewBox="0 0 142.6 283.5" enable-background="new 0 0 142.6 283.5" xml:space="preserve">
<g>
	<path fill-rule="evenodd" clip-rule="evenodd" d="M20.4,4.4C11.8,4.4,5,11.3,4.7,19.9l0,244.1c0.3,8.6,7.3,15,15.8,15h102
		c8.6,0,15.5-6.9,15.8-15.5l0-243.6c-0.3-8.6-7.1-15.5-15.8-15.5H20.4L20.4,4.4z M142.6,263.5c-0.3,11-9.1,19.9-20.2,19.9h-102
		C2.5,283.5-1,264,0.2,264l0-244.1C0.5,8.9,9.4,0,20.4,0h102c11.1,0,19.9,8.9,20.2,19.9L142.6,263.5L142.6,263.5z M71.4,23.6
		l41.1,70.2H85.4c0,31.9,0,63.8,0,95.7h27.1l-41.1,70.2l-41.1-70.2h27.1c0-31.9,0-63.8,0-95.7H30.3L71.4,23.6L71.4,23.6z"/>
</g>
</svg>
