<?xml version="1.0" encoding="utf-8"?>
<svg version="1.1"
	 xmlns="http://www.w3.org/2000/svg"
	 x="0px" y="0px" viewBox="0 0 142.4 283.5" enable-background="new 0 0 142.4 283.5" xml:space="preserve">
<g>
	<path fill-rule="evenodd" clip-rule="evenodd" d="M142.4,263.5c-0.3,11-9.1,19.9-20.2,19.9h-102c-11,0-20-8.4-20.3-19.4h0L0,19.9h0
		C0.3,8.9,9.2,0,20.2,0h102c11.1,0,19.9,8.9,20.2,19.9h0L142.4,263.5L142.4,263.5L142.4,263.5z M138,19.9
		c-0.3-8.6-7.1-15.5-15.8-15.5h-102c-8.6,0-15.5,6.9-15.8,15.5h0l0,244.1h0c0.3,8.6,7.3,15,15.8,15h102c8.6,0,15.5-6.9,15.8-15.5h0
		L138,19.9L138,19.9L138,19.9z M88.2,220.2l3.8,36.7l-8.8,0l-1.7-24.3l-10.3,19.1l-10.3-19.1l-1.7,24.3l-8.8,0l3.8-36.7h8.3
		l8.7,16.9l8.7-16.9H88.2L88.2,220.2z M56.7,148.1l-0.2,51.5h-9.4l0-39l-6.8,4.1l-3.6-4.6l11.2-12.1L56.7,148.1L56.7,148.1z
		 M87,200.6c9.5,0,14.9-8.1,16.9-16.9c2.5-11.2,1-30.7-11.4-35.6c-7.9-3.1-15.6,0.8-19.7,8.4C65.8,169.8,68,200.6,87,200.6L87,200.6
		z M87,191.4c-4.5,0-6.8-4.8-7.7-9c-1.2-5.5-2-23.4,5.4-25.7c4-1.3,7.3,0.5,9,4.5C96.6,168.1,97.2,191.5,87,191.4L87,191.4z
		 M94.3,63L71.2,22.9L48.1,63h13.4v52.8h19.4V63H94.3L94.3,63z"/>
</g>
</svg>
