<?xml version="1.0" encoding="utf-8"?>
<svg version="1.1"
	 xmlns="http://www.w3.org/2000/svg"
	 x="0px" y="0px" viewBox="0 0 283.5 142.4" enable-background="new 0 0 283.5 142.4" xml:space="preserve">
<g>
	<path fill-rule="evenodd" clip-rule="evenodd" d="M263.5,0c11,0.3,19.9,9.1,19.9,20.2v102c0,11-8.4,20-19.4,20.3v0l-244.1,0v0
		C8.9,142.1,0,133.3,0,122.2v-102C0,9.2,8.9,0.3,19.9,0v0L263.5,0L263.5,0L263.5,0z M19.9,4.5C11.3,4.8,4.4,11.6,4.4,20.2v102
		c0,8.6,6.9,15.5,15.5,15.8v0l244.1,0v0c8.6-0.3,15-7.3,15-15.8v-102c0-8.6-6.9-15.5-15.5-15.8v0L19.9,4.5L19.9,4.5L19.9,4.5z
		 M20.7,94l-0.8-9.4c4.9,3.8,21.3,6.1,21.8-3.6c0.3-4.9-3.4-6.9-7.8-6.9c-1.4,0-2.9,0.1-4.4,0.6v-8c6.6-0.8,10-3.8,10.2-7.9
		c0.1-2.1-1.4-4.6-5.1-4.7c-3.2-0.1-8,2.1-10.8,4.4l-2.9-8.2c3.4-2.3,10.1-3.7,14.5-3.8c7.1,0,13.7,3.7,13.7,11.6
		c0,4.5-3.4,8.3-8.4,10.7V69c6.5,1,10.7,6.7,10.7,13.1c0,10.2-9.8,13.6-17.6,13.6C29.1,95.8,23.5,95.7,20.7,94L20.7,94z M73.3,95.8
		c8.7,0,13.7-7.5,15.5-15.6c2.3-10.3,0.9-28.2-10.5-32.7c-7.3-2.9-14.4,0.8-18.1,7.7C53.8,67.5,55.9,95.8,73.3,95.8L73.3,95.8z
		 M73.3,87.3c-4.1,0-6.2-4.4-7.1-8.2c-1.1-5-1.8-21.5,5-23.6c3.7-1.1,6.7,0.5,8.2,4.1C82.1,65.9,82.7,87.4,73.3,87.3L73.3,87.3z
		 M134.8,61.1l3.5,34l-8.1,0l-1.6-22.5l-9.5,17.7l-9.5-17.7L108,95.1l-8.1,0l3.5-34l7.7,0l8.1,15.7l8-15.7L134.8,61.1L134.8,61.1z
		 M216.3,99.2l47.7-28l-47.7-28v18.3h-34.9v19.4h34.9V99.2L216.3,99.2z"/>
</g>
</svg>
