<?xml version="1.0" encoding="utf-8"?>
<svg version="1.1"
	 xmlns="http://www.w3.org/2000/svg"
	 x="0px" y="0px" viewBox="0 0 283.5 142.4" enable-background="new 0 0 283.5 142.4" xml:space="preserve">
<g>
	<path fill-rule="evenodd" clip-rule="evenodd" d="M185.4,94.5l-1.6-10c3.4,2.1,7.1,3,10.6,3c6.6,0,11.2-4.4,11.2-8.7
		c0-4.1-3.1-8.2-7.9-8c-2,0.1-4.3,1-6.9,3.1l-5.4-2.6V47.2h27.5l-2.2,8.8l-17.2,0v9.1c10.6-5.2,21.5,1.8,21.3,12.5
		c-0.2,10-7,18-18.3,18C193,95.6,189.2,95.1,185.4,94.5L185.4,94.5z M175,95.1h-29.1v-8.3c4-3.7,8.3-7.8,11.9-11.7
		c2.9-3.1,5.4-6,7-8.1c2-2.5,4.3-4.7,3.6-8c-0.6-3-3.1-5.5-6.4-5.5c-3.6,0.1-6.5,2.8-9.9,6.5l-5.6-6.2c3.1-4.5,10-7.1,15.2-7.1
		c8,0,14.8,5.5,14.8,13.8c0,2.9-0.3,5.7-2.2,8.3c-1.8,2.4-5.5,6.5-10.1,11l-6.6,6.5h19.5L175,95.1L175,95.1z M19.9,0
		C8.9,0.3,0,9.1,0,20.2v102c0,11,8.4,20,19.4,20.3v0l244.1,0v0c11-0.3,19.9-9.1,19.9-20.2v-102c0-11.1-8.9-19.9-19.9-20.2v0L19.9,0
		L19.9,0L19.9,0z M263.5,4.5c8.6,0.3,15.5,7.1,15.5,15.8v102c0,8.6-6.9,15.5-15.5,15.8v0l-244.1,0v0c-8.6-0.3-15-7.3-15-15.8v-102
		c0-8.6,6.9-15.5,15.5-15.8v0L263.5,4.5L263.5,4.5L263.5,4.5z M259.3,61.1l3.5,34l-8.1,0l-1.6-22.5l-9.5,17.7l-9.5-17.7l-1.6,22.5
		l-8.1,0l3.5-34l7.7,0l8.1,15.7l8-15.7L259.3,61.1L259.3,61.1z M68.3,99.2l-47.7-28l47.7-28v18.3h34.9v19.4H68.3V99.2L68.3,99.2z"/>
</g>
</svg>
