<?xml version="1.0" encoding="utf-8"?>
<svg version="1.1"
	 xmlns="http://www.w3.org/2000/svg"
	 x="0px" y="0px" viewBox="0 0 142.4 283.5" enable-background="new 0 0 142.4 283.5" xml:space="preserve">
<g>
	<path fill-rule="evenodd" clip-rule="evenodd" d="M142.4,263.5c-0.3,11-9.1,19.9-20.2,19.9h-102c-11,0-20-8.4-20.3-19.4h0L0,19.9h0
		C0.3,8.9,9.2,0,20.2,0h102c11.1,0,19.9,8.9,20.2,19.9h0L142.4,263.5L142.4,263.5L142.4,263.5z M85.2,4.4l-0.1,184.8h27.2
		l-41.1,70.2l-41.1-70.2h27.2L57.2,4.4h-37c-8.6,0-15.5,6.9-15.8,15.5h0l0,244.1h0c0.3,8.6,7.3,15,15.8,15h102
		c8.6,0,15.5-6.9,15.8-15.5h0l0-243.6h0c-0.3-8.6-7.1-15.5-15.8-15.5H85.2L85.2,4.4z"/>
</g>
</svg>
