<?xml version="1.0" encoding="utf-8"?>
<svg version="1.1"
	 xmlns="http://www.w3.org/2000/svg"
	 x="0px" y="0px" viewBox="0 0 283.5 142.4" enable-background="new 0 0 283.5 142.4" xml:space="preserve">
<g>
	<path fill-rule="evenodd" clip-rule="evenodd" d="M263.5,0c11,0.3,19.9,9.1,19.9,20.2v102c0,11-8.4,20-19.4,20.3v0l-244.1,0v0
		C8.9,142.1,0,133.3,0,122.2v-102C0,9.2,8.9,0.3,19.9,0v0L263.5,0L263.5,0L263.5,0z M19.9,4.5C11.3,4.8,4.4,11.6,4.4,20.2v102
		c0,8.6,6.9,15.5,15.5,15.8v0l244.1,0v0c8.6-0.3,15-7.3,15-15.8v-102c0-8.6-6.9-15.5-15.5-15.8v0L19.9,4.5L19.9,4.5L19.9,4.5z
		 M58,71.7L36.1,34.8L14.3,71.7h14.2v35.2h15.1V71.7H58L58,71.7z M269.1,71.7l-21.8-36.9l-21.8,36.9h14.2v35.2h15.1V71.7H269.1
		L269.1,71.7z M84.4,47.2l-0.2,48.1h-8.8l0-36.4L69,62.7l-3.3-4.3l10.5-11.3L84.4,47.2L84.4,47.2z M109.8,87.3
		c-4.1,0-6.2-4.4-7.1-8.2c-1.1-5-1.8-21.5,5-23.6c3.7-1.1,6.7,0.5,8.2,4.1C118.7,65.9,119.2,87.4,109.8,87.3L109.8,87.3z
		 M109.8,95.8c8.7,0,13.7-7.5,15.5-15.6c2.3-10.3,0.9-28.2-10.5-32.7c-7.3-2.9-14.4,0.8-18.1,7.7C90.4,67.5,92.4,95.8,109.8,95.8
		L109.8,95.8z M148.6,87.3c-4.1,0-6.2-4.4-7.1-8.2c-1.1-5-1.8-21.5,5-23.6c3.7-1.1,6.7,0.5,8.2,4.1C157.4,65.9,158,87.4,148.6,87.3
		L148.6,87.3z M148.6,95.8c8.7,0,13.7-7.5,15.5-15.6c2.3-10.3,0.9-28.2-10.5-32.7c-7.3-2.9-14.4,0.8-18.1,7.7
		C129.1,67.5,131.2,95.8,148.6,95.8L148.6,95.8z M210.1,61.1l3.5,34l-8.1,0l-1.6-22.5l-9.5,17.7l-9.5-17.7l-1.6,22.5l-8.1,0l3.5-34
		l7.7,0l8.1,15.7l8-15.7L210.1,61.1L210.1,61.1z"/>
</g>
</svg>
