<?xml version="1.0" encoding="utf-8"?>
<svg version="1.1"
	 xmlns="http://www.w3.org/2000/svg"
	 x="0px" y="0px" viewBox="0 0 283.5 142.4" enable-background="new 0 0 283.5 142.4" xml:space="preserve">
<g>
	<path fill-rule="evenodd" clip-rule="evenodd" d="M263.5,0c11,0.3,19.9,9.1,19.9,20.2v102c0,11-8.4,20-19.4,20.3v0l-244.1,0v0
		C8.9,142.1,0,133.3,0,122.2v-102C0,9.2,8.9,0.3,19.9,0v0L263.5,0L263.5,0L263.5,0z M4.4,57.2l184.8,0.1V30.1l70.2,41.1l-70.2,41.1
		V85.1L4.4,85.2v37c0,8.6,6.9,15.5,15.5,15.8v0l244.1,0v0c8.6-0.3,15-7.3,15-15.8v-102c0-8.6-6.9-15.5-15.5-15.8v0l-243.6,0v0
		C11.3,4.8,4.4,11.6,4.4,20.2V57.2L4.4,57.2z"/>
</g>
</svg>
