<?xml version="1.0" encoding="utf-8"?>
<svg version="1.1"
	 xmlns="http://www.w3.org/2000/svg"
	 x="0px" y="0px" viewBox="0 0 283.5 142.6" enable-background="new 0 0 283.5 142.6" xml:space="preserve">
<g>
	<path fill-rule="evenodd" clip-rule="evenodd" d="M4.4,122.2c0,8.6,6.9,15.5,15.5,15.8l244.1,0c8.6-0.3,15-7.3,15-15.8v-102
		c0-8.6-6.9-15.5-15.5-15.8l-243.6,0C11.3,4.8,4.4,11.6,4.4,20.2V122.2L4.4,122.2z M263.5,0c11,0.3,19.9,9.1,19.9,20.2v102
		c0,18-19.4,21.5-19.4,20.3l-244.1,0C8.9,142.1,0,133.3,0,122.2v-102C0,9.2,8.9,0.3,19.9,0L263.5,0L263.5,0z M23.6,71.2l70.2-41.1
		v27.1c31.9,0,63.8,0,95.7,0V30.1l70.2,41.1l-70.2,41.1V85.2c-31.9,0-63.8,0-95.7,0v27.1L23.6,71.2L23.6,71.2z"/>
</g>
</svg>
