<?xml version="1.0" encoding="utf-8"?>
<svg version="1.1"
	 xmlns="http://www.w3.org/2000/svg"
	 x="0px" y="0px" viewBox="0 0 283.5 142.4" enable-background="new 0 0 283.5 142.4" xml:space="preserve">
<g>
	<path fill-rule="evenodd" clip-rule="evenodd" d="M19.9,0C8.9,0.3,0,9.1,0,20.2v102c0,11,8.4,20,19.4,20.3v0l244.1,0v0
		c11-0.3,19.9-9.1,19.9-20.2v-102c0-11.1-8.9-19.9-19.9-20.2v0L19.9,0L19.9,0L19.9,0z M279,57.2L94.2,57.3V30.1L24,71.2l70.2,41.1
		V85.1L279,85.2v37c0,8.6-6.9,15.5-15.5,15.8v0l-244.1,0v0c-8.6-0.3-15-7.3-15-15.8v-102c0-8.6,6.9-15.5,15.5-15.8v0l243.6,0v0
		c8.6,0.3,15.5,7.1,15.5,15.8V57.2L279,57.2z"/>
</g>
</svg>
