<?xml version="1.0" encoding="utf-8"?>
<svg version="1.1"
	 xmlns="http://www.w3.org/2000/svg"
	 x="0px" y="0px" viewBox="0 0 283.5 142.4" enable-background="new 0 0 283.5 142.4" xml:space="preserve">
<g>
	<path fill-rule="evenodd" clip-rule="evenodd" d="M263.5,0c11,0.3,19.9,9.1,19.9,20.2v102c0,11-8.4,20-19.4,20.3v0l-244.1,0v0
		C8.9,142.1,0,133.3,0,122.2v-102C0,9.2,8.9,0.3,19.9,0v0L263.5,0L263.5,0L263.5,0z M19.9,4.5C11.3,4.8,4.4,11.6,4.4,20.2v102
		c0,8.6,6.9,15.5,15.5,15.8v0l244.1,0v0c8.6-0.3,15-7.3,15-15.8v-102c0-8.6-6.9-15.5-15.5-15.8v0L19.9,4.5L19.9,4.5L19.9,4.5z
		 M108,103.3h67.5v-3.6H108V103.3L108,103.3z M117.5,105.5H108v19.1h9.5v-7.5h18c0.9,2.6,3.3,4.5,6.2,4.5c2.9,0,5.4-1.9,6.2-4.5h18
		v7.5h9.5v-19.1H166v7.5h-18c-0.9-2.6-3.3-4.5-6.2-4.5c-2.9,0-5.4,1.9-6.2,4.5h-18V105.5L117.5,105.5z"/>
	<path fill-rule="evenodd" clip-rule="evenodd" fill="#D39218" d="M115.1,17.8h53.3c3.7,0,6.8,3.1,6.8,6.8v72.6h-66.9V24.6
		C108.3,20.9,111.3,17.8,115.1,17.8L115.1,17.8z"/>
</g>
</svg>
