<?xml version="1.0" encoding="utf-8"?>
<svg version="1.1"
	 xmlns="http://www.w3.org/2000/svg"
	 x="0px" y="0px" viewBox="0 0 283.5 142.4" enable-background="new 0 0 283.5 142.4" xml:space="preserve">
<g>
	<path fill-rule="evenodd" clip-rule="evenodd" d="M263.5,0c11,0.3,19.9,9.1,19.9,20.2v102c0,11-8.4,20-19.4,20.3v0l-244.1,0v0
		C8.9,142.1,0,133.3,0,122.2v-102C0,9.2,8.9,0.3,19.9,0v0L263.5,0L263.5,0L263.5,0z M19.9,4.5C11.3,4.8,4.4,11.6,4.4,20.2v102
		c0,8.6,6.9,15.5,15.5,15.8v0l244.1,0v0c8.6-0.3,15-7.3,15-15.8v-102c0-8.6-6.9-15.5-15.5-15.8v0L19.9,4.5L19.9,4.5L19.9,4.5z
		 M184.6,72.4c14.1,0,25.6,11.5,25.6,25.6c0,14.1-11.5,25.6-25.6,25.6c-14.1,0-25.6-11.5-25.6-25.6C159,83.8,170.5,72.4,184.6,72.4
		L184.6,72.4z M87,95.8c5.1,0,9.2,4.1,9.2,9.2c0,5.1-4.1,9.2-9.2,9.2c-5.1,0-9.2-4.1-9.2-9.2C77.8,100,81.9,95.8,87,95.8L87,95.8z
		 M87,86.5c10.2,0,18.5,8.3,18.5,18.5c0,10.2-8.3,18.5-18.5,18.5c-10.2,0-18.5-8.3-18.5-18.5C68.5,94.8,76.8,86.5,87,86.5L87,86.5z
		 M184.6,83.2c8.1,0,14.7,6.6,14.7,14.7c0,8.1-6.6,14.7-14.7,14.7c-8.1,0-14.7-6.6-14.7-14.7C169.9,89.8,176.5,83.2,184.6,83.2
		L184.6,83.2z M85.6,54.5h26.1V25.3h8.1v29.2h17.4l11.5-29.2c1.5-3.8,3.3-7.4,7.4-7.4h32.3c4,0,7.4,3.3,7.4,7.4v29.2l3.7,7.2
		l-4.5,9.7c-3.2-1.2-6.7-1.9-10.3-1.9c-15.8,0-28.5,12.8-28.5,28.5c0,0.2,0,0.4,0,0.6h-48.6c-2.7-8.7-10.9-15-20.5-15
		c-2.7,0-5.3,0.5-7.6,1.4V60.7C79.4,57.3,82.2,54.5,85.6,54.5L85.6,54.5z M158.4,25.2h23.1c1.8,0,3.3,1.5,3.3,3.3v22.7
		c0,1.8-1.5,3.3-3.3,3.3h-31.9c-2,0-3.6-2.7-2.5-5.4l7.9-20.5C155.8,26.8,156.6,25.2,158.4,25.2L158.4,25.2z"/>
</g>
</svg>
