<?xml version="1.0" encoding="utf-8"?>
<svg version="1.1"
	 xmlns="http://www.w3.org/2000/svg"
	 x="0px" y="0px" viewBox="0 0 283.5 142.4" enable-background="new 0 0 283.5 142.4" xml:space="preserve">
<g>
	<path fill-rule="evenodd" clip-rule="evenodd" d="M263.5,0c11,0.3,19.9,9.1,19.9,20.2v102c0,11-8.4,20-19.4,20.3v0l-244.1,0v0
		C8.9,142.1,0,133.3,0,122.2v-102C0,9.2,8.9,0.3,19.9,0v0L263.5,0L263.5,0L263.5,0z M19.9,4.5C11.3,4.8,4.4,11.6,4.4,20.2v102
		c0,8.6,6.9,15.5,15.5,15.8v0l244.1,0v0c8.6-0.3,15-7.3,15-15.8v-102c0-8.6-6.9-15.5-15.5-15.8v0L19.9,4.5L19.9,4.5L19.9,4.5z
		 M205.1,87.3c-10.2-2.8-20.6,3.3-23.4,13.4c-2.8,10.2,3.3,20.6,13.4,23.4c10.2,2.8,20.6-3.3,23.4-13.4
		C221.2,100.5,215.2,90,205.1,87.3L205.1,87.3z M202.8,95.8c-5.5-1.5-11.1,1.8-12.6,7.2c-1.5,5.5,1.8,11.1,7.2,12.6
		c5.5,1.5,11.1-1.8,12.6-7.2C211.5,102.9,208.2,97.3,202.8,95.8L202.8,95.8z M195.7,33.3l-54.9,0c-3.3,0-6.1,2.6-8.2,5.1l-14.7,17
		c-2.2,2.5-0.2,8.9,5.4,8.9l75.8,0.1c3.3,0,7.5-4.6,7.1-7.9L203.9,39C203.4,35.8,199,33.3,195.7,33.3L195.7,33.3z M235,65.9
		c-9.5-11.3-19.1-22.5-28.6-33.8c-5.2-6.1-7.6-6.1-15.5-6c-16.3,0.1-32.7,0.1-49,0.2c-4.3,0-7.1,0.5-10.5,3.9
		c-10.2,10.2-19.3,22-29.4,32.3c-15.3,2.2-29.8,4.3-45.1,6.5c-5.7,0.8-10.5,4.3-10.4,8.5l0.3,15.9c0.9,5.5,2.4,7.4,8,8.8l0.3,0.1
		c0.1-0.7,0.3-1.5,0.5-2.2c3.1-11.6,15.2-18.5,26.7-15.3c10.1,2.7,16.6,12.2,16.1,22.3h78.1l1.9-0.1c-0.1-2.3,0.1-4.6,0.7-6.9
		c3.2-11.7,15.2-18.6,26.9-15.4c9.3,2.5,15.5,10.6,16.1,19.7c7.1-2.8,9.7-2,11.4-10.5l3.6-17.8C238,70.5,238.6,70.1,235,65.9
		L235,65.9z M79.2,95.8c-5.5-1.5-11.1,1.8-12.6,7.2c-1.5,5.5,1.8,11.1,7.2,12.6c5.5,1.5,11.1-1.8,12.6-7.2
		C87.9,102.9,84.6,97.3,79.2,95.8L79.2,95.8z M81.5,87.3c-10.2-2.8-20.6,3.3-23.4,13.4c-2.8,10.2,3.3,20.6,13.4,23.4
		c10.2,2.8,20.6-3.3,23.4-13.4C97.6,100.5,91.6,90,81.5,87.3L81.5,87.3z"/>
</g>
</svg>
