<?xml version="1.0" encoding="utf-8"?>
<svg version="1.1"
	 xmlns="http://www.w3.org/2000/svg"
	 x="0px" y="0px" viewBox="0 0 283.5 142.4" enable-background="new 0 0 283.5 142.4" xml:space="preserve">
<g>
	<path fill-rule="evenodd" clip-rule="evenodd" d="M263.5,0c11,0.3,19.9,9.1,19.9,20.2v102c0,11-8.4,20-19.4,20.3v0l-244.1,0v0
		C8.9,142.1,0,133.3,0,122.2v-102C0,9.2,8.9,0.3,19.9,0v0L263.5,0L263.5,0L263.5,0z M19.9,4.5C11.3,4.8,4.4,11.6,4.4,20.2v102
		c0,8.6,6.9,15.5,15.5,15.8v0l244.1,0v0c8.6-0.3,15-7.3,15-15.8v-102c0-8.6-6.9-15.5-15.5-15.8v0L19.9,4.5L19.9,4.5L19.9,4.5z
		 M112,87.6h127.4V34.9c0-5.2-4.2-9.4-9.4-9.4H121.4c-5.2,0-9.4,4.2-9.4,9.4V87.6L112,87.6z M107.6,91.7h88.2
		c-8.6,1.9-15.1,9.5-15.3,18.7h-77.4c-0.2-10.6-8.9-19.2-19.6-19.2c-10.7,0-19.4,8.5-19.6,19.2h-10c-5.4,0-9.9-4.4-9.9-9.9v-8.8
		V77.3V74c0.2-1.7,0.9-3.3,2-4.7l15.1-21.9c1.7-2.4,3.6-4.3,6.9-4.3h28.8c6,0,10.9,4.9,10.9,10.9v23.3V91.7L107.6,91.7z M204.4,91.7
		h34.9v18.7h-19.7C219.5,101.3,213,93.6,204.4,91.7L204.4,91.7z M83.5,102.1c4.8,0,8.8,3.9,8.8,8.8c0,4.8-3.9,8.8-8.8,8.8
		s-8.8-3.9-8.8-8.8C74.8,106,78.7,102.1,83.5,102.1L83.5,102.1z M83.5,93.7c9.5,0,17.1,7.7,17.1,17.1c0,9.5-7.7,17.1-17.1,17.1
		c-9.5,0-17.1-7.7-17.1-17.1C66.4,101.4,74.1,93.7,83.5,93.7L83.5,93.7z M200.1,102.1c4.8,0,8.8,3.9,8.8,8.8c0,4.8-3.9,8.8-8.8,8.8
		c-4.8,0-8.8-3.9-8.8-8.8C191.3,106,195.3,102.1,200.1,102.1L200.1,102.1z M200.1,93.7c9.5,0,17.1,7.7,17.1,17.1
		c0,9.5-7.7,17.1-17.1,17.1c-9.5,0-17.1-7.7-17.1-17.1C183,101.4,190.6,93.7,200.1,93.7L200.1,93.7z M68.9,48.9h23.6
		c3,0,5.4,2.4,5.4,5.4v13.8c0,3-2.4,5.4-5.4,5.4H60.6c-4.9,0-6.3-5.8-4.3-8.8L65.4,51C66.3,49.8,67.3,48.9,68.9,48.9L68.9,48.9z"/>
</g>
</svg>
