<?xml version="1.0" encoding="utf-8"?>
<svg version="1.1"
	 xmlns="http://www.w3.org/2000/svg"
	 x="0px" y="0px" viewBox="0 0 283.5 142.4" enable-background="new 0 0 283.5 142.4" xml:space="preserve">
<g>
	<path fill-rule="evenodd" clip-rule="evenodd" d="M263.5,0c11,0.3,19.9,9.1,19.9,20.2v102c0,11-8.4,20-19.4,20.3v0l-244.1,0v0
		C8.9,142.1,0,133.3,0,122.2v-102C0,9.2,8.9,0.3,19.9,0v0L263.5,0L263.5,0L263.5,0z M19.9,4.5C11.3,4.8,4.4,11.6,4.4,20.2v102
		c0,8.6,6.9,15.5,15.5,15.8v0l244.1,0v0c8.6-0.3,15-7.3,15-15.8v-102c0-8.6-6.9-15.5-15.5-15.8v0L19.9,4.5L19.9,4.5L19.9,4.5z
		 M113.7,53.4h52.8L151.2,90l-40.3-30.9L113.7,53.4L113.7,53.4z M84.4,61.5c5.5,0,10.7,1.4,15.2,3.9l9.3-19.6
		c0.3-0.6,0.6-1.3,0.6-2.1c0-0.9-0.5-1.8-1.2-2.4c-0.8-0.7-1.9-1-2.8-1.5c-0.9-0.6-1.8-1.3-2.5-2.1c-5.1-5.3-4.4-13.9,2-17.8
		c1.5-0.9,3.1-1.4,4.9-1.4l16.4,0c5.2,0,4.8,7,0.4,7h-15.7c-3.3,0-5,3.6-3.4,6.2c0.1,0.2,0.2,0.3,0.4,0.5c1.3,1.5,3.6,2.2,5.1,3.5
		c3.2,2.8,4,6.1,3.4,10.1l0,0.3l52.1,0l1.7-3.7h-13.6c-6.2,0-6.2-9.7,0-9.7h22.7c6.2,0,6.2,9.7,0,9.7h-2.5l-0.1,0.2
		c-0.4,1-0.8,1.9-1.2,2.8c-0.3,0.7-1,2.4-1.1,3.1c-0.1,0.6,0.2,1.2,0.6,1.6c3.4,4.8,6.9,9.5,10.3,14.3c4.2-2,8.9-3.2,13.8-3.2
		c17.5,0,31.6,14.2,31.6,31.6s-14.2,31.6-31.6,31.6c-15.7,0-28.6-11.4-31.2-26.3l-17.2,0.1l-43.2-32.9l-1.9,4
		c6.5,5.8,10.5,14.2,10.5,23.6c0,17.5-14.2,31.6-31.6,31.6c-17.5,0-31.6-14.2-31.6-31.6S67,61.5,84.4,61.5L84.4,61.5z M195.7,91.5
		h-22.9c0.5-7.5,4.1-14.2,9.6-18.7L195.7,91.5L195.7,91.5z M167.5,91.5H157l14.3-34.3l8,11.3C172.5,73.9,167.9,82.1,167.5,91.5
		L167.5,91.5z M173.2,98.4l26.4-0.1c1.3,0,2.6-0.5,3.5-1.6c1.6-1.8,1.5-4.3,0.2-6.3c-2-3.1-4.2-6.2-6.3-9.2
		c-2.9-4.1-5.7-8.1-8.6-12.2c3.3-1.4,6.9-2.3,10.7-2.3c14.5,0,26.3,11.8,26.3,26.3s-11.8,26.3-26.3,26.3
		C186.3,119.4,175.7,110.4,173.2,98.4L173.2,98.4z M97.3,70.2l-6.1,12.7c-0.5,1.1-1.4,2.8-2.3,3.7l0,0l-4.7,2.8
		c-1.8,1.1-4,3.3-2.9,5.5c0.1,0.3,0.3,0.5,0.5,0.7c1.1,1.1,3.2,1.3,4.5,0.5l7.8-4.7c1.2-0.7,2.2-2.7,2.8-4l6.2-12.8
		c4.7,4.8,7.6,11.3,7.6,18.5c0,14.5-11.8,26.3-26.3,26.3c-14.5,0-26.3-11.8-26.3-26.3s11.8-26.3,26.3-26.3
		C89.1,66.8,93.5,68.1,97.3,70.2L97.3,70.2z"/>
</g>
</svg>
