<?xml version="1.0" encoding="utf-8"?>
<svg version="1.1"
	 xmlns="http://www.w3.org/2000/svg"
	 x="0px" y="0px" viewBox="0 0 283.5 142.4" enable-background="new 0 0 283.5 142.4" xml:space="preserve">
<g>
	<path fill-rule="evenodd" clip-rule="evenodd" d="M19.9,4.5C11.3,4.8,4.4,11.6,4.4,20.2v102c0,8.6,6.9,15.5,15.5,15.8v0l244.1,0v0
		c8.6-0.3,15-7.3,15-15.8v-102c0-8.6-6.9-15.5-15.5-15.8v0L19.9,4.5L19.9,4.5L19.9,4.5z M263.5,0c11,0.3,19.9,9.1,19.9,20.2v102
		c0,11-8.4,20-19.4,20.3v0l-244.1,0v0C8.9,142.1,0,133.3,0,122.2v-102C0,9.2,8.9,0.3,19.9,0v0L263.5,0L263.5,0L263.5,0z M183.2,56.6
		l3.4,8.4L183.2,56.6l3.4,8.4c-8.9,5.1-15,14.7-15,25.7c0,16.3,13.2,29.5,29.5,29.5c16.3,0,29.5-13.2,29.5-29.5
		c0-19.3-18.2-33.3-36.8-28.7l-2.2-5.4H206v-4c0-5.2-4.3-9.5-9.5-9.5h-38.4c-1.4,0-3,1.3-3.6,2.6l-5,10.9H183.2L183.2,56.6z
		 M82.3,61.1c2.6,0,5,0.3,7.4,0.9l8.7-21.6c-5.8,0-5,0.8-5-12.8c0-3.9,2.6-3,7.2-3H118c4.6,0,4.6,7.4,0,7.4l-6.2,0
		c-0.7,0.1-4.5,6-5.2,7H138c9.2,0,9.2,14.3,0,14.3h-18c-5.7,0-4.5,3.9-3.6,6.9h0l3.6,13.2c0.6,2,1.9,3.9,4,3.9h11c2.1,0,3-2,4-3.9
		l6.8-13.2h30.4c2.2,0,3.3,2.7,1.6,4.2c-10.2,9.3-14,24.5-9.5,37.8h-41.6c-5.2,0-8.1-4.5-9.5-9.5l-12.7-46.6L96.9,65
		c9,5.1,15,14.7,15,25.7c0,16.3-13.2,29.5-29.5,29.5c-16.3,0-29.5-13.2-29.5-29.5S66,61.1,82.3,61.1L82.3,61.1z M93.2,74.2L89,84.6
		c5.3,5.8,1.2,15.2-6.7,15.2c-5,0-9.1-4.1-9.1-9.1c0-4.9,3.8-8.8,8.6-9.1L86,71.3c-12.1-2.3-23.4,7-23.4,19.4
		c0,10.9,8.8,19.7,19.7,19.7C101.8,110.4,109.4,84.9,93.2,74.2L93.2,74.2z M190.3,74.2l4.2,10.3c-5.3,5.8-1.3,15.2,6.7,15.2
		c5,0,9.1-4.1,9.1-9.1c0-4.8-3.7-8.7-8.4-9l-4.2-10.4c12.1-2.1,23.2,7.1,23.2,19.4c0,10.9-8.8,19.7-19.7,19.7
		C181.6,110.4,174.1,84.9,190.3,74.2L190.3,74.2z"/>
</g>
</svg>
