<?xml version="1.0" encoding="utf-8"?>
<svg version="1.1"
	 xmlns="http://www.w3.org/2000/svg"
	 x="0px" y="0px" viewBox="0 0 283.5 142.4" enable-background="new 0 0 283.5 142.4" xml:space="preserve">
<g>
	<path fill-rule="evenodd" clip-rule="evenodd" d="M19.9,4.5C11.3,4.8,4.4,11.6,4.4,20.2v102c0,8.6,6.9,15.5,15.5,15.8v0l244.1,0v0
		c8.6-0.3,15-7.3,15-15.8v-102c0-8.6-6.9-15.5-15.5-15.8v0L19.9,4.5L19.9,4.5L19.9,4.5z M263.5,0c11,0.3,19.9,9.1,19.9,20.2v102
		c0,11-8.4,20-19.4,20.3v0l-244.1,0v0C8.9,142.1,0,133.3,0,122.2v-102C0,9.2,8.9,0.3,19.9,0v0L263.5,0L263.5,0L263.5,0z M101.1,33.5
		H126c1.8,0,3.2,1.4,3.2,3.2v16.7c0,1.8-1.4,3.2-3.2,3.2h-24.8c-1.8,0-3.2-1.4-3.2-3.2V36.7C97.9,34.9,99.4,33.5,101.1,33.5
		L101.1,33.5z M85.4,33.5h-9.3c-1.8,0-3.5,1-4.7,3.2l-8.3,14.5c-1.3,2.2,0.1,5.4,3.6,5.4h18.8c1.8,0,3.2-1.4,3.2-3.2V36.7
		C88.6,34.9,87.2,33.5,85.4,33.5L85.4,33.5z M182.1,33.5H205c1.8,0,3.6,0.8,4.3,3.2l4.1,14.5c0.7,2.5-0.1,5.4-3.6,5.4h-27.7
		c-1.8,0-3.2-1.4-3.2-3.2V36.7C178.9,34.9,180.3,33.5,182.1,33.5L182.1,33.5z M141.6,33.5h24.8c1.8,0,3.2,1.4,3.2,3.2v16.7
		c0,1.8-1.4,3.2-3.2,3.2h-24.8c-1.8,0-3.2-1.4-3.2-3.2V36.7C138.3,34.9,139.8,33.5,141.6,33.5L141.6,33.5z M76.7,26.2h136.8
		c6.7,0,8.9,3.8,10.5,8.4c2.5,7.3,4.9,14.5,7.4,21.8v33.5c0,4.7-3.8,8.5-8.5,8.5h-12.7c0-0.2,0-0.4,0-0.6c0-11.1-8.6-20-19.7-20
		c-11.1,0-19.6,9-19.6,20c0,0.2,0,0.4,0,0.6h-66.2c0-0.2,0-0.4,0-0.6c0-11.1-8.4-20-19.5-20c-11.1,0-19.8,9-19.8,20
		c0,0.2,0,0.4,0,0.6h-4.9c-4.7,0-8.5-3.8-8.5-8.5V57.4l13.1-22.7C67.6,30.7,70.3,26.2,76.7,26.2L76.7,26.2z M85.1,90.1
		c4.2,0,7.6,3.4,7.6,7.6c0,4.2-3.4,7.6-7.6,7.6c-4.2,0-7.6-3.4-7.6-7.6C77.5,93.6,80.9,90.1,85.1,90.1L85.1,90.1z M85.1,81
		c9.3,0,16.8,7.5,16.8,16.8c0,9.3-7.5,16.8-16.8,16.8c-9.3,0-16.8-7.5-16.8-16.8C68.3,88.5,75.8,81,85.1,81L85.1,81z M190.5,90.1
		c4.2,0,7.6,3.4,7.6,7.6c0,4.2-3.4,7.6-7.6,7.6c-4.2,0-7.6-3.4-7.6-7.6C182.9,93.6,186.3,90.1,190.5,90.1L190.5,90.1z M190.5,81
		c9.3,0,16.8,7.5,16.8,16.8c0,9.3-7.5,16.8-16.8,16.8c-9.3,0-16.8-7.5-16.8-16.8C173.7,88.5,181.2,81,190.5,81L190.5,81z"/>
</g>
</svg>
