<?xml version="1.0" encoding="utf-8"?>
<svg version="1.1"
	 xmlns="http://www.w3.org/2000/svg"
	 x="0px" y="0px" viewBox="0 0 283.5 142.4" enable-background="new 0 0 283.5 142.4" xml:space="preserve">
<g>
	<path fill-rule="evenodd" clip-rule="evenodd" d="M263.5,0c11,0.3,19.9,9.1,19.9,20.2v102c0,11-8.4,20-19.4,20.3v0l-244.1,0v0
		C8.9,142.1,0,133.3,0,122.2v-102C0,9.2,8.9,0.3,19.9,0v0L263.5,0L263.5,0L263.5,0z M19.9,4.5C11.3,4.8,4.4,11.6,4.4,20.2v102
		c0,8.6,6.9,15.5,15.5,15.8v0l244.1,0v0c8.6-0.3,15-7.3,15-15.8v-102c0-8.6-6.9-15.5-15.5-15.8v0L19.9,4.5L19.9,4.5L19.9,4.5z
		 M157.9,82c10.1,0,18.2,8.2,18.2,18.2c0,10.1-8.2,18.2-18.2,18.2c-10.1,0-18.2-8.2-18.2-18.2C139.7,90.2,147.8,82,157.9,82
		L157.9,82z M157.9,91.6c4.8,0,8.6,3.9,8.6,8.6c0,4.8-3.9,8.6-8.6,8.6c-4.8,0-8.6-3.9-8.6-8.6C149.3,95.5,153.1,91.6,157.9,91.6
		L157.9,91.6z M106.5,35.1h123.7v63.3h-50c-0.9-11.5-10.5-20.5-22.2-20.5c-11.7,0-21.3,9-22.2,20.5h-20.1h-9.1H44.2V90h62.2V35.1
		L106.5,35.1z"/>
</g>
</svg>
