<?xml version="1.0" encoding="utf-8"?>
<svg version="1.1"
	 xmlns="http://www.w3.org/2000/svg"
	 x="0px" y="0px" viewBox="0 0 283.5 142.4" enable-background="new 0 0 283.5 142.4" xml:space="preserve">
<g>
	<path fill-rule="evenodd" clip-rule="evenodd" d="M263.5,0c11,0.3,19.9,9.1,19.9,20.2v102c0,11-8.4,20-19.4,20.3v0l-244.1,0v0
		C8.9,142.1,0,133.3,0,122.2v-102C0,9.2,8.9,0.3,19.9,0v0L263.5,0L263.5,0L263.5,0z M19.9,4.5C11.3,4.8,4.4,11.6,4.4,20.2v102
		c0,8.6,6.9,15.5,15.5,15.8v0l244.1,0v0c8.6-0.3,15-7.3,15-15.8v-102c0-8.6-6.9-15.5-15.5-15.8v0L19.9,4.5L19.9,4.5L19.9,4.5z
		 M214.8,123.5l-0.6-6.7c3.5,2.7,15.2,4.3,15.6-2.6c0.2-3.5-2.5-4.9-5.6-4.9c-1,0-2.1,0.1-3.1,0.4v-5.7c4.7-0.6,7.2-2.7,7.3-5.7
		c0.1-1.5-1-3.3-3.6-3.3c-2.3-0.1-5.7,1.5-7.7,3.1l-2.1-5.8c2.4-1.7,7.2-2.7,10.4-2.7c5.1,0,9.8,2.7,9.8,8.3c0,3.2-2.4,5.9-6,7.7
		v0.1c4.7,0.7,7.7,4.8,7.7,9.4c0,7.3-7,9.7-12.6,9.7C220.8,124.8,216.8,124.8,214.8,123.5L214.8,123.5z M252.1,124.8
		c6.2,0,9.8-5.3,11.1-11.1c1.6-7.4,0.6-20.1-7.5-23.3c-5.2-2.1-10.3,0.5-12.9,5.5C238.2,104.6,239.6,124.8,252.1,124.8L252.1,124.8z
		 M252.1,118.8c-3,0-4.5-3.2-5.1-5.9c-0.8-3.6-1.3-15.4,3.5-16.9c2.6-0.8,4.8,0.3,5.9,2.9C258.4,103.5,258.8,118.8,252.1,118.8
		L252.1,118.8z M172.2,81.3l-0.2,42.9l-7.8,0l0-32.5l-5.7,3.5l-3-3.8l9.4-10.1L172.2,81.3L172.2,81.3z M106.9,124.8
		c6.2,0,9.8-5.3,11.1-11.1c1.6-7.4,0.6-20.1-7.5-23.3c-5.2-2.1-10.3,0.5-12.9,5.5C93,104.6,94.4,124.8,106.9,124.8L106.9,124.8z
		 M106.9,118.8c-3,0-4.5-3.2-5.1-5.9c-0.8-3.6-1.3-15.4,3.5-16.9c2.6-0.8,4.8,0.3,5.9,2.9C113.2,103.5,113.6,118.8,106.9,118.8
		L106.9,118.8z M79.4,124.8c6.2,0,9.8-5.3,11.1-11.1c1.6-7.4,0.6-20.1-7.5-23.3c-5.2-2.1-10.3,0.5-12.9,5.5
		C65.5,104.6,67,124.8,79.4,124.8L79.4,124.8z M79.4,118.8c-3,0-4.5-3.2-5.1-5.9c-0.8-3.6-1.3-15.4,3.5-16.9
		c2.6-0.8,4.8,0.3,5.9,2.9C85.8,103.5,86.1,118.8,79.4,118.8L79.4,118.8z M57.8,114.7c2.6,0,4.7,2.1,4.7,4.7c0,2.6-2.1,4.7-4.7,4.7
		c-2.6,0-4.7-2.1-4.7-4.7C53.1,116.9,55.2,114.7,57.8,114.7L57.8,114.7z M204.6,114.7c2.6,0,4.7,2.1,4.7,4.7c0,2.6-2.1,4.7-4.7,4.7
		c-2.6,0-4.7-2.1-4.7-4.7C199.8,116.9,201.9,114.7,204.6,114.7L204.6,114.7z M124.7,102.4h30v8.2h-30V102.4L124.7,102.4z M36.2,80.6
		c14.5,0,17.7,16.5,7.3,21.3v0.1c10.9,3.9,9.4,22.9-7.3,22.9c-16.7,0-18.2-18.9-7.3-22.9v-0.1C18.5,97,21.6,80.6,36.2,80.6
		L36.2,80.6z M36.2,106.1c8,1.7,7.5,9.8,2.4,11.3C29.5,120.1,26,108.2,36.2,106.1L36.2,106.1z M42.3,92.5c0,1.6-0.5,3-1.6,4
		c-1.1,1.1-2.6,1.8-4.5,2.2c-2-0.4-3.5-1.2-4.5-2.2c-2.9-2.9-2.2-9.4,4.5-9.4C39.5,87.1,42.3,88.9,42.3,92.5L42.3,92.5z M179.5,89
		l2.1-7.7h26V89c-5.8,7.8-11.5,23-13.7,35.2h-9c2.9-12.2,8.5-24.9,14.3-35.2H179.5L179.5,89z"/>
	<path fill-rule="evenodd" clip-rule="evenodd" fill="#B92B1E" d="M141.7,21.8c2.5,0,4.9,0.3,7.2,1L146,41.6l14.8-11.9
		c3.4,3.4,6,7.7,7.2,12.5L150.3,49l17.8,6.9c-1.3,4.8-3.8,9.1-7.2,12.5L146,56.5l2.9,18.8c-2.3,0.6-4.7,1-7.2,1
		c-2.5,0-4.9-0.3-7.2-1l2.9-18.8l-14.8,11.9c-3.4-3.4-6-7.7-7.2-12.5l17.8-6.9l-17.8-6.9c1.3-4.8,3.8-9.1,7.2-12.5l14.8,11.9
		l-2.9-18.8C136.8,22.1,139.2,21.8,141.7,21.8L141.7,21.8z"/>
</g>
</svg>
