<?xml version="1.0" encoding="utf-8"?>
<svg version="1.1"
	 xmlns="http://www.w3.org/2000/svg"
	 x="0px" y="0px" viewBox="0 0 283.5 142.4" enable-background="new 0 0 283.5 142.4" xml:space="preserve">
<g>
	<path fill-rule="evenodd" clip-rule="evenodd" d="M263.5,0c11,0.3,19.9,9.1,19.9,20.2v102c0,11-8.4,20-19.4,20.3v0l-244.1,0v0
		C8.9,142.1,0,133.3,0,122.2v-102C0,9.2,8.9,0.3,19.9,0v0L263.5,0L263.5,0L263.5,0z M19.9,4.5C11.3,4.8,4.4,11.6,4.4,20.2v102
		c0,8.6,6.9,15.5,15.5,15.8v0l244.1,0v0c8.6-0.3,15-7.3,15-15.8v-102c0-8.6-6.9-15.5-15.5-15.8v0L19.9,4.5L19.9,4.5L19.9,4.5z
		 M170.5,59.5h3.2c1.9,0,3.7-0.7,3.7-2.4c0-1.6-1.9-2.4-3.7-2.4h-3.2V59.5L170.5,59.5z M165.9,44.1h4.6v4.8v1.8h4.5
		c4.4,0,7.1,2.4,7,6.2c-0.1,3.8-3.1,6.6-7,6.6h-9.1V48.9V44.1L165.9,44.1z M146.9,44.1h13.9v19.5h-4.2V47.4h-5.6l-0.3,8.3
		c-0.2,4.6-2.9,7.6-7.9,8.4l-0.8-3.6c4-0.7,4.3-2.9,4.5-5.3L146.9,44.1L146.9,44.1z M42.5,53.8c0,2.1,0.4,3.6,1.3,4.7
		c0.9,1.1,1.9,1.6,3.2,1.6c1.3,0,2.3-0.5,3.2-1.6c0.9-1.1,1.3-2.7,1.3-4.7c0-2-0.4-3.6-1.3-4.7c-0.9-1.1-1.9-1.6-3.2-1.6
		c-1.3,0-2.4,0.5-3.2,1.6C43,50.2,42.5,51.8,42.5,53.8L42.5,53.8z M37.8,53.5c0-1.8,0.4-3.5,1.2-5.1c0.8-1.6,1.9-2.9,3.3-3.8
		c1.4-0.9,3-1.3,4.8-1.3c2.7,0,4.9,1,6.6,2.9c1.7,2,2.6,4.4,2.6,7.4c0,3-0.9,5.5-2.6,7.5c-1.7,2-3.9,3-6.6,3c-1.6,0-3.2-0.4-4.7-1.2
		c-1.5-0.8-2.6-2-3.4-3.6C38.2,57.8,37.8,55.8,37.8,53.5L37.8,53.5z M116.7,63.6h-13v3.9h-4.2v-8h2.1c1.9-1.9,2.7-12.8,2.6-15.5
		h14.3v15.5h2.3v8h-4.2V63.6L116.7,63.6z M113.8,59.5l0-11.6h-5.3c-0.2,5.1-1,9.7-2.4,11.6H113.8L113.8,59.5z M64.4,55.3h7.1v8.3
		h4.8V44.1h-4.8v7.2h-7.1v-7.2h-4.8v19.5h4.8V55.3L64.4,55.3z M17.9,44.1h16.3v19.5h-4.6V48.1h-7v15.5h-4.6V44.1L17.9,44.1z
		 M206.4,44.1h4.6V56l7.8-11.9h4.6v19.5h-4.6V51.8L211,63.6h-4.6V44.1L206.4,44.1z M228,43.9h4.8v7c3.9-0.5,5.3-7.2,10.8-7.4
		l0.9,4.1c-3.1-0.1-4.5,4.5-6.9,5.1c4.3,0.5,4.2,5.1,8.9,10.9h-5.5c-5.1-8.2-3.9-8.7-8.1-8.7v8.7H228V43.9L228,43.9z M119.3,92.5
		c-0.6,3.8-4.5,6.5-8.6,6.6c-6.2,0.1-9.3-4.6-9.3-10.2c0-3.4,0.9-6,2.6-7.8c1.8-1.9,4.1-2.8,6.9-2.8c4.4,0.1,7.1,2.3,8.3,6.3
		c-1.3,0.3-2.6,0.7-3.9,1c0,0-1.1-3.5-4.5-3.5c-3.6,0-4.8,3.2-4.8,6.7c0,3.1,1,6.6,4.8,6.6c2.5,0,4-1.7,4.5-3.8L119.3,92.5
		L119.3,92.5z M127.2,86.6c0-4.9,6.6-6.2,8.4-1.5c1.2,3.1,0.6,9.2-4.3,9.3c-1.5,0-3-0.9-3.7-2.3c-0.3-0.6-0.4-1.3-0.4-2.1V86.6
		L127.2,86.6z M127.2,106v-9.1c0.6,0,1.1,1.7,4.4,1.7c5.6,0.1,9.2-5,9.2-10.2c0.1-5.3-2.9-10.4-9.1-10.3c-1.6,0-3.3,0.5-4.6,2h-0.1
		l-0.8-1.5c-1.8,0-2,0-3.7,0V106H127.2L127.2,106z M94.4,57.6l3.6,2.3c-1.5,2.6-5.1,4.4-8.5,4.3C84,64.2,80,60,80,54
		c0-5.6,3.6-10.6,9-10.6c6,0,10.3,5.6,8.9,11.7H85.1c0,1.6,0.7,3,1.5,3.9C88.8,61.4,93.2,60.1,94.4,57.6L94.4,57.6z M93.2,51.8
		c-0.1-2.4-1.3-4.5-4-4.5c-2.8,0-4.2,1.8-4.2,4.5H93.2L93.2,51.8z M188.3,84.4l-2.3-3.5c5-4,16.6-4.3,16.6,4.5l0,8.8
		c0,0.4,0.4,1,0.9,1h1.1l-1.6,3.6c-2.4,0.3-4.3-0.5-5.1-2.4c-1.4,1.8-3.4,2.7-5.4,2.6c-3.2,0-6.2-2.3-6.4-6
		c-0.3-6.9,8.9-7.2,11.6-7.5C197.8,80,190.3,82,188.3,84.4L188.3,84.4z M197.7,89c-2.3,0.8-7,0.6-6.9,3.6c0.1,3.6,5.2,2.8,6.9-0.4
		L197.7,89L197.7,89z M136.8,57.6l3.6,2.3c-1.5,2.6-5.1,4.4-8.5,4.3c-5.6,0-9.6-4.2-9.6-10.3c0-5.6,3.6-10.6,9-10.6
		c6,0,10.3,5.6,8.9,11.7h-12.9c0,1.6,0.7,3,1.5,3.9C131.2,61.4,135.6,60.1,136.8,57.6L136.8,57.6z M135.6,51.8
		c-0.1-2.4-1.3-4.5-4-4.5c-2.8,0-4.2,1.8-4.2,4.5H135.6L135.6,51.8z M189.8,55.3h7.1v8.3h4.8V44.1h-4.8v7.2h-7.1v-7.2H185v19.5h4.8
		V55.3L189.8,55.3z M248.5,51.9H266v5.2h-17.5V51.9L248.5,51.9z M80.2,86.7h17.5v5.2H80.2V86.7L80.2,86.7z M157.5,92.4l3.6,2.3
		c-1.5,2.6-5.1,4.4-8.5,4.3c-5.6,0-9.6-4.2-9.6-10.3c0-5.6,3.6-10.6,9-10.6c6,0,10.3,5.6,8.9,11.7h-12.9c0,1.6,0.7,3,1.5,3.9
		C151.9,96.2,156.3,94.9,157.5,92.4L157.5,92.4z M156.4,86.6c-0.1-2.4-1.3-4.5-4-4.5c-2.8,0-4.2,1.8-4.2,4.5H156.4L156.4,86.6z
		 M180.2,98.4h-13v3.9h-4.2v-8h2.1c1.9-1.9,2.7-12.8,2.6-15.5H182v15.5h2.3v8h-4.2V98.4L180.2,98.4z M177.2,94.3l0-11.6H172
		c-0.2,5.1-1,9.7-2.4,11.6H177.2L177.2,94.3z"/>
</g>
</svg>
