<?xml version="1.0" encoding="utf-8"?>
<svg version="1.1"
	 xmlns="http://www.w3.org/2000/svg"
	 x="0px" y="0px" viewBox="0 0 283.5 142.4" enable-background="new 0 0 283.5 142.4" xml:space="preserve">
<g>
	<path fill-rule="evenodd" clip-rule="evenodd" d="M263.5,0c11,0.3,19.9,9.1,19.9,20.2v102c0,11-8.4,20-19.4,20.3v0l-244.1,0v0
		C8.9,142.1,0,133.3,0,122.2v-102C0,9.2,8.9,0.3,19.9,0v0L263.5,0L263.5,0L263.5,0z M19.9,4.5C11.3,4.8,4.4,11.6,4.4,20.2v102
		c0,8.6,6.9,15.5,15.5,15.8v0l244.1,0v0c8.6-0.3,15-7.3,15-15.8v-102c0-8.6-6.9-15.5-15.5-15.8v0L19.9,4.5L19.9,4.5L19.9,4.5z"/>
	<path fill-rule="evenodd" clip-rule="evenodd" fill="#B92B1E" d="M141.7,17.6c4.9,0,9.7,0.7,14.2,1.9l-5.8,37.1L179.4,33
		c6.8,6.7,11.8,15.2,14.3,24.7l-35,13.5l35,13.5c-2.5,9.5-7.5,18-14.3,24.7l-29.2-23.5l5.8,37.1c-4.5,1.2-9.3,1.9-14.2,1.9
		c-4.9,0-9.7-0.7-14.2-1.9l5.8-37.1l-29.2,23.5c-6.8-6.7-11.8-15.2-14.3-24.7l35-13.5l-35-13.5c2.5-9.5,7.5-18,14.3-24.7l29.2,23.5
		l-5.8-37.1C132,18.2,136.8,17.6,141.7,17.6L141.7,17.6z"/>
</g>
</svg>
