<?xml version="1.0" encoding="utf-8"?>
<svg version="1.1"
	 xmlns="http://www.w3.org/2000/svg"
	 x="0px" y="0px" viewBox="0 0 283.5 142.4" enable-background="new 0 0 283.5 142.4" xml:space="preserve">
<g>
	<path fill-rule="evenodd" clip-rule="evenodd" d="M263.5,0c11,0.3,19.9,9.1,19.9,20.2v102c0,11-8.4,20-19.4,20.3v0l-244.1,0v0
		C8.9,142.1,0,133.3,0,122.2v-102C0,9.2,8.9,0.3,19.9,0v0L263.5,0L263.5,0L263.5,0z M19.9,4.5C11.3,4.8,4.4,11.6,4.4,20.2v102
		c0,8.6,6.9,15.5,15.5,15.8v0l244.1,0v0c8.6-0.3,15-7.3,15-15.8v-102c0-8.6-6.9-15.5-15.5-15.8v0L19.9,4.5L19.9,4.5L19.9,4.5z
		 M214.8,88.2l-0.6-6.7c3.5,2.7,15.2,4.3,15.6-2.6c0.2-3.5-2.5-4.9-5.6-4.9c-1,0-2.1,0.1-3.1,0.4v-5.7c4.7-0.6,7.2-2.7,7.3-5.7
		c0.1-1.5-1-3.3-3.6-3.3c-2.3-0.1-5.7,1.5-7.7,3.1l-2.1-5.8c2.4-1.7,7.2-2.7,10.4-2.7c5.1,0,9.8,2.7,9.8,8.3c0,3.2-2.4,5.9-6,7.7
		v0.1c4.7,0.7,7.7,4.8,7.7,9.4c0,7.3-7,9.7-12.6,9.7C220.8,89.5,216.8,89.4,214.8,88.2L214.8,88.2z M252.1,89.5
		c6.2,0,9.8-5.3,11.1-11.1c1.6-7.4,0.6-20.1-7.5-23.3c-5.2-2.1-10.3,0.5-12.9,5.5C238.2,69.3,239.6,89.5,252.1,89.5L252.1,89.5z
		 M252.1,83.4c-3,0-4.5-3.2-5.1-5.9c-0.8-3.6-1.3-15.4,3.5-16.9c2.6-0.8,4.8,0.3,5.9,2.9C258.4,68.2,258.8,83.5,252.1,83.4
		L252.1,83.4z M172.2,46L172,88.9h-7.8l0-32.5l-5.7,3.5l-3-3.8l9.4-10.1L172.2,46L172.2,46z M106.9,89.5c6.2,0,9.8-5.3,11.1-11.1
		c1.6-7.4,0.6-20.1-7.5-23.3c-5.2-2.1-10.3,0.5-12.9,5.5C93,69.3,94.4,89.5,106.9,89.5L106.9,89.5z M106.9,83.4
		c-3,0-4.5-3.2-5.1-5.9c-0.8-3.6-1.3-15.4,3.5-16.9c2.6-0.8,4.8,0.3,5.9,2.9C113.2,68.2,113.6,83.5,106.9,83.4L106.9,83.4z
		 M79.4,89.5c6.2,0,9.8-5.3,11.1-11.1c1.6-7.4,0.6-20.1-7.5-23.3c-5.2-2.1-10.3,0.5-12.9,5.5C65.5,69.3,67,89.5,79.4,89.5L79.4,89.5
		z M79.4,83.4c-3,0-4.5-3.2-5.1-5.9c-0.8-3.6-1.3-15.4,3.5-16.9c2.6-0.8,4.8,0.3,5.9,2.9C85.8,68.2,86.1,83.5,79.4,83.4L79.4,83.4z
		 M57.8,79.4c2.6,0,4.7,2.1,4.7,4.7c0,2.6-2.1,4.7-4.7,4.7c-2.6,0-4.7-2.1-4.7-4.7C53.1,81.5,55.2,79.4,57.8,79.4L57.8,79.4z
		 M204.6,79.4c2.6,0,4.7,2.1,4.7,4.7c0,2.6-2.1,4.7-4.7,4.7c-2.6,0-4.7-2.1-4.7-4.7C199.8,81.5,201.9,79.4,204.6,79.4L204.6,79.4z
		 M124.7,67.1h30v8.2h-30V67.1L124.7,67.1z M36.2,45.2c14.5,0,17.7,16.5,7.3,21.3v0.1c10.9,3.9,9.4,22.9-7.3,22.9
		c-16.7,0-18.2-18.9-7.3-22.9v-0.1C18.5,61.7,21.6,45.2,36.2,45.2L36.2,45.2z M36.2,70.7c8,1.7,7.5,9.8,2.4,11.3
		C29.5,84.8,26,72.9,36.2,70.7L36.2,70.7z M42.3,57.2c0,1.6-0.5,3-1.6,4c-1.1,1.1-2.6,1.8-4.5,2.2c-2-0.4-3.5-1.2-4.5-2.2
		c-2.9-2.9-2.2-9.4,4.5-9.4C39.5,51.8,42.3,53.6,42.3,57.2L42.3,57.2z M179.5,53.7l2.1-7.7h26v7.7c-5.8,7.7-11.5,23-13.7,35.2h-9
		c2.9-12.2,8.5-24.9,14.3-35.2H179.5L179.5,53.7z"/>
</g>
</svg>
