<?xml version="1.0" encoding="utf-8"?>
<svg version="1.1"
	 xmlns="http://www.w3.org/2000/svg"
	 x="0px" y="0px" viewBox="0 0 283.5 142.4" enable-background="new 0 0 283.5 142.4" xml:space="preserve">
<g>
	<path fill-rule="evenodd" clip-rule="evenodd" d="M263.5,0c11,0.3,19.9,9.1,19.9,20.2v102c0,11-8.4,20-19.4,20.3v0l-244.1,0v0
		C8.9,142.1,0,133.3,0,122.2v-102C0,9.2,8.9,0.3,19.9,0v0L263.5,0L263.5,0L263.5,0z M19.9,4.5C11.3,4.8,4.4,11.6,4.4,20.2v102
		c0,8.6,6.9,15.5,15.5,15.8v0l244.1,0v0c8.6-0.3,15-7.3,15-15.8v-102c0-8.6-6.9-15.5-15.5-15.8v0L19.9,4.5L19.9,4.5L19.9,4.5z
		 M116.7,107.2c5.2,0,8.2-4.4,9.2-9.2c1.3-6.1,0.5-16.7-6.2-19.4c-4.3-1.7-8.5,0.4-10.7,4.6C105.1,90.4,106.3,107.2,116.7,107.2
		L116.7,107.2z M116.7,102.2c-2.5,0-3.7-2.6-4.2-4.9c-0.7-3-1.1-12.8,2.9-14c2.2-0.7,4,0.3,4.9,2.4
		C121.9,89.5,122.2,102.2,116.7,102.2L116.7,102.2z M77.6,98.6c2.3,0,4.1,1.8,4.1,4.1c0,2.2-1.8,4.1-4.1,4.1c-2.2,0-4.1-1.8-4.1-4.1
		C73.5,100.4,75.3,98.6,77.6,98.6L77.6,98.6z M130.1,88.4h24.6v7.1h-24.6V88.4L130.1,88.4z M59.5,70.4c12.1,0,14.7,13.7,6.1,17.7
		v0.1c9,3.3,7.8,19-6.1,19c-13.9,0-15.1-15.7-6.1-19v-0.1C44.8,84.1,47.4,70.4,59.5,70.4L59.5,70.4z M59.5,91.6
		c6.7,1.4,6.3,8.1,2,9.4C54,103.3,51.1,93.4,59.5,91.6L59.5,91.6z M64.6,80.3c0,1.3-0.4,2.5-1.3,3.4c-0.9,0.9-2.1,1.5-3.8,1.9
		c-1.6-0.3-2.9-1-3.8-1.9c-2.4-2.4-1.8-7.8,3.8-7.8C62.3,75.9,64.6,77.4,64.6,80.3L64.6,80.3z M161.3,74.1c2.2-2.2,4.5-3.7,7.5-3.7
		c4.6,0,8.1,2.6,10.3,6.9c1.7,3.3,2.6,6.9,2.6,11.6c0,5.3-1.8,9.6-4.2,13.4c-3.3,5.4-11.6,5.8-17.4,3.4l-1.5-6.9
		c3.6,1.4,10,3.8,13.5,0.2c2.3-2.4,2.5-4.6,2.5-8.2c-3.6,3.7-10.5,4.4-14.4,0.5C155.8,87,156.9,78.4,161.3,74.1L161.3,74.1z
		 M163.9,82.7c0,1.8,0,3.1,0.9,4.1c0.8,1,2.3,1.6,3.7,1.6c1.3,0,2.4-0.4,3.6-1.2c1-0.7,2.2-1.5,2.8-2.5c-0.1-2-0.6-3.7-1.5-5.2
		c-1.1-1.7-2.5-2.6-4.3-2.6c-1.3,0-2.4,0.6-3.4,1.7C164.7,79.7,163.9,81,163.9,82.7L163.9,82.7z M86,106.2l-0.5-5.6
		c2.9,2.3,12.6,3.6,12.9-2.1c0.2-2.9-2-4.1-4.7-4.1c-0.8,0-1.7,0.1-2.6,0.4V90c3.9-0.5,6-2.3,6.1-4.7c0.1-1.2-0.8-2.7-3-2.8
		c-1.9-0.1-4.7,1.2-6.4,2.6l-1.7-4.9c2-1.4,6-2.2,8.6-2.2c4.2,0,8.1,2.2,8.1,6.9c0,2.7-2,4.9-5,6.4v0.1c3.9,0.6,6.4,4,6.4,7.8
		c0,6.1-5.8,8.1-10.4,8.1C91,107.2,87.7,107.2,86,106.2L86,106.2z M187.6,98.6c2.3,0,4.1,1.8,4.1,4.1c0,2.2-1.8,4.1-4.1,4.1
		c-2.2,0-4.1-1.8-4.1-4.1C183.5,100.4,185.3,98.6,187.6,98.6L187.6,98.6z M226.6,107.2c5.2,0,8.2-4.4,9.2-9.2
		c1.3-6.1,0.5-16.7-6.2-19.4c-4.3-1.7-8.5,0.4-10.7,4.6C215,90.4,216.2,107.2,226.6,107.2L226.6,107.2z M226.6,102.2
		c-2.5,0-3.7-2.6-4.2-4.9c-0.7-3-1.1-12.8,2.9-14c2.2-0.7,4,0.3,4.9,2.4C231.8,89.5,232.2,102.2,226.6,102.2L226.6,102.2z
		 M196,106.2l-0.5-5.6c2.9,2.3,12.6,3.6,12.9-2.1c0.2-2.9-2-4.1-4.7-4.1c-0.8,0-1.7,0.1-2.6,0.4V90c3.9-0.5,6-2.3,6.1-4.7
		c0.1-1.2-0.8-2.7-3-2.8c-1.9-0.1-4.7,1.2-6.4,2.6l-1.7-4.9c2-1.4,6-2.2,8.6-2.2c4.2,0,8.1,2.2,8.1,6.9c0,2.7-2,4.9-5,6.4v0.1
		c3.9,0.6,6.4,4,6.4,7.8c0,6.1-5.8,8.1-10.4,8.1C200.9,107.2,197.6,107.2,196,106.2L196,106.2z M200.2,46.4h7.1v8.3h4.7V35.2h-4.7
		v7.2h-7.1v-7.2h-4.7v19.5h4.7V46.4L200.2,46.4z M146.3,42.9c-0.1-2.4-1.3-4.5-4-4.5c-2.8,0-4.2,1.8-4.1,4.5H146.3L146.3,42.9z
		 M147.5,48.8l3.6,2.3c-1.5,2.6-5.1,4.4-8.5,4.3c-5.6,0-9.5-4.2-9.5-10.3c0-5.6,3.6-10.6,9-10.6c6,0,10.2,5.6,8.9,11.7h-12.9
		c0,1.6,0.7,3,1.5,3.9C141.9,52.5,146.2,51.2,147.5,48.8L147.5,48.8z M104,42.9c-0.1-2.4-1.3-4.5-4-4.5c-2.8,0-4.2,1.8-4.1,4.5H104
		L104,42.9z M105.2,48.8l3.6,2.3c-1.5,2.6-5.1,4.4-8.5,4.3c-5.6,0-9.5-4.2-9.5-10.3c0-5.6,3.6-10.6,9-10.6c6,0,10.2,5.6,8.9,11.7
		H95.9c0,1.6,0.7,3,1.5,3.9C99.6,52.5,104,51.2,105.2,48.8L105.2,48.8z M238.3,35.1h4.8v7c3.9-0.5,5.2-7.2,10.7-7.4l0.9,4.1
		c-3-0.1-4.5,4.5-6.9,5.1c4.3,0.5,4.2,5.1,8.9,10.9h-5.5c-5.1-8.2-3.9-8.7-8-8.7v8.7h-4.8V35.1L238.3,35.1z M216.8,35.2h4.6v11.9
		l7.8-11.9h4.6v19.5h-4.6V43l-7.8,11.7h-4.6V35.2L216.8,35.2z M29,35.2h16.2v19.5h-4.6V39.2h-7v15.5H29V35.2L29,35.2z M75.3,46.4
		h7.1v8.3h4.7V35.2h-4.7v7.2h-7.1v-7.2h-4.7v19.5h4.7V46.4L75.3,46.4z M124.5,50.7l0-11.6h-5.2c-0.2,5.1-1,9.7-2.4,11.6H124.5
		L124.5,50.7z M127.4,54.8h-12.9v3.9h-4.1v-8h2.1c1.9-1.9,2.6-12.8,2.6-15.5h14.2v15.5h2.3v8h-4.1V54.8L127.4,54.8z M48.8,44.7
		c0-1.8,0.4-3.5,1.2-5.1c0.8-1.6,1.9-2.9,3.3-3.8c1.4-0.9,3-1.3,4.7-1.3c2.7,0,4.9,1,6.6,2.9c1.7,2,2.6,4.4,2.6,7.4
		c0,3-0.9,5.5-2.6,7.5c-1.7,2-3.9,3-6.6,3c-1.6,0-3.2-0.4-4.7-1.2c-1.5-0.8-2.6-2-3.4-3.6C49.2,48.9,48.8,47,48.8,44.7L48.8,44.7z
		 M53.5,45c0,2.1,0.4,3.6,1.3,4.7c0.9,1.1,1.9,1.6,3.2,1.6c1.3,0,2.3-0.5,3.2-1.6c0.9-1.1,1.3-2.7,1.3-4.7c0-2-0.4-3.6-1.3-4.7
		c-0.9-1.1-1.9-1.6-3.2-1.6c-1.3,0-2.3,0.5-3.2,1.6C53.9,41.4,53.5,42.9,53.5,45L53.5,45z M157.5,35.2h13.8v19.5h-4.2V38.5h-5.6
		l-0.3,8.3c-0.2,4.6-2.9,7.6-7.8,8.4l-0.8-3.6c4-0.7,4.3-2.9,4.5-5.3L157.5,35.2L157.5,35.2z M176.4,35.2h4.6v4.8v1.8h4.5
		c4.4,0,7.1,2.4,7,6.2c-0.1,3.8-3.1,6.6-7,6.6h-9.1V40.1V35.2L176.4,35.2z M181,50.7h3.2c1.9,0,3.7-0.7,3.7-2.4
		c0-1.6-1.9-2.4-3.7-2.4H181V50.7L181,50.7z"/>
</g>
</svg>
