<?xml version="1.0" encoding="utf-8"?>
<svg version="1.1"
	 xmlns="http://www.w3.org/2000/svg"
	 x="0px" y="0px" viewBox="0 0 283.5 142.4" enable-background="new 0 0 283.5 142.4" xml:space="preserve">
<g>
	<path fill-rule="evenodd" clip-rule="evenodd" d="M263.5,0c11,0.3,19.9,9.1,19.9,20.2v102c0,11-8.4,20-19.4,20.3v0l-244.1,0v0
		C8.9,142.1,0,133.3,0,122.2v-102C0,9.2,8.9,0.3,19.9,0v0L263.5,0L263.5,0L263.5,0z M279,105.9H140.8V119H4.4V20.2
		c0-8.6,6.9-15.5,15.5-15.8v0l243.6,0v0c8.6,0.3,15.5,7.1,15.5,15.8V105.9L279,105.9z M182,77.3c7.3-3.2,15.9,0.2,19.1,7.6
		c3.2,7.3-0.2,15.9-7.6,19.1c-7.3,3.2-15.9-0.2-19.1-7.6C171.2,89,174.6,80.4,182,77.3L182,77.3z M184.6,83.4
		c4-1.7,8.5,0.1,10.3,4.1c1.7,4-0.1,8.5-4.1,10.3c-4,1.7-8.5-0.1-10.3-4.1C178.8,89.7,180.7,85.1,184.6,83.4L184.6,83.4z M64.1,77.8
		c5.9-9.5,11.9-19,17.8-28.5c3.3-5.2,5.1-5.4,11-6.2c12.3-1.7,24.6-3.5,36.9-5.2c3.2-0.5,5.4-0.4,8.3,1.8
		c8.8,6.6,16.9,14.5,25.7,21.1c11.7,0,22.9,0,34.7,0c4.4,0,8.3,2.1,8.8,5.3l1.5,12c-0.1,4.2-1,5.8-5,7.5l-0.2,0.1
		c-0.2-0.5-0.4-1.1-0.6-1.6c-3.6-8.4-13.4-12.3-21.8-8.6c-7.3,3.1-11.2,11-9.7,18.5l-58.7,8.5l-1.4,0.1c-0.2-1.7-0.6-3.4-1.3-5.1
		c-3.6-8.5-13.5-12.3-21.9-8.7c-6.7,2.9-10.5,9.7-10,16.6c-5.6-1.3-7.5-0.5-9.7-6.7l-4.6-13C62.3,81.6,61.9,81.4,64.1,77.8
		L64.1,77.8z M90.2,49l41.3-5.9c2.5-0.4,4.8,1.3,6.7,2.9l12.9,11.2c1.9,1.7,1.1,6.7-3.1,7.3l-57,8.3c-2.5,0.4-6.2-2.6-6.2-5.2
		l-0.2-13.4C84.6,51.7,87.7,49.4,90.2,49L90.2,49z M91.6,96.8c4-1.7,8.5,0.1,10.3,4.1c1.7,4-0.1,8.5-4.1,10.3
		c-4,1.7-8.5-0.1-10.3-4.1S87.6,98.5,91.6,96.8L91.6,96.8z M88.9,90.7c7.3-3.2,15.9,0.2,19.1,7.6c3.2,7.3-0.2,15.9-7.6,19.1
		c-7.3,3.2-15.9-0.2-19.1-7.6C78.2,102.4,81.6,93.9,88.9,90.7L88.9,90.7z"/>
</g>
</svg>
