<?xml version="1.0" encoding="utf-8"?>
<svg version="1.1"
	 xmlns="http://www.w3.org/2000/svg"
	 x="0px" y="0px" viewBox="0 0 283.5 142.4" enable-background="new 0 0 283.5 142.4" xml:space="preserve">
<g>
	<path fill-rule="evenodd" clip-rule="evenodd" d="M263.5,0c11,0.3,19.9,9.1,19.9,20.2v102c0,11-8.4,20-19.4,20.3v0l-244.1,0v0
		C8.9,142.1,0,133.3,0,122.2v-102C0,9.2,8.9,0.3,19.9,0v0L263.5,0L263.5,0L263.5,0z M279,105.9h-85.1V119H4.4V20.2
		c0-8.6,6.9-15.5,15.5-15.8v0l243.6,0v0c8.6,0.3,15.5,7.1,15.5,15.8V105.9L279,105.9z M118.4,109.4c0,4.5-3.7,8.2-8.2,8.2
		c-4.5,0-8.2-3.7-8.2-8.2V98.3h16.3V109.4L118.4,109.4z M181.5,109.4V98.3h-16.3v11.1c0,4.5,3.7,8.2,8.2,8.2
		C177.8,117.6,181.5,113.9,181.5,109.4L181.5,109.4z M118.2,40.7h47c2.3,0,3.5,2,4.3,4.3l6.3,19.3h-68.1l6-19.3
		C114.3,42.8,115.9,40.7,118.2,40.7L118.2,40.7z M181,64.2c3.2,0,5.9,2.6,5.9,5.9v20.7c0,3.2-2.6,5.9-5.9,5.9h-78.6
		c-3.2,0-5.9-2.6-5.9-5.9V70.1c0-3.2,2.6-5.9,5.9-5.9l7.7-23.6c0.9-2.7,2.3-5.2,5.2-5.2h52.8c2.9,0,4.3,2.5,5.2,5.2L181,64.2
		L181,64.2z"/>
</g>
</svg>
