<?xml version="1.0" encoding="utf-8"?>
<svg version="1.1"
	 xmlns="http://www.w3.org/2000/svg"
	 x="0px" y="0px" viewBox="0 0 283.5 142.4" enable-background="new 0 0 283.5 142.4" xml:space="preserve">
<g>
	<path fill-rule="evenodd" clip-rule="evenodd" d="M263.5,0c11,0.3,19.9,9.1,19.9,20.2v102c0,11-8.4,20-19.4,20.3v0l-244.1,0v0
		C8.9,142.1,0,133.3,0,122.2v-102C0,9.2,8.9,0.3,19.9,0v0L263.5,0L263.5,0L263.5,0z M279,105.9H140.8V119H4.4V20.2
		c0-8.6,6.9-15.5,15.5-15.8v0l243.6,0v0c8.6,0.3,15.5,7.1,15.5,15.8V105.9L279,105.9z M96.3,89.5c-7.9-1-15.2,4.7-16.1,12.6
		c-1,7.9,4.7,15.2,12.6,16.1c7.9,1,15.2-4.7,16.1-12.6C109.9,97.7,104.3,90.5,96.3,89.5L96.3,89.5z M95.5,96.2
		c-4.3-0.5-8.2,2.5-8.7,6.8c-0.5,4.3,2.5,8.2,6.8,8.7c4.3,0.5,8.2-2.5,8.7-6.8C102.8,100.6,99.8,96.7,95.5,96.2L95.5,96.2z
		 M209.5,56.8c-8.4-7.4-16.8-14.9-25.2-22.3c-4.6-4.1-6.4-3.7-12.3-2.9c-12.3,1.8-24.6,3.6-36.9,5.4c-3.2,0.5-5.3,1.2-7.4,4
		c-6.5,8.8-12.1,18.7-18.7,27.5c-11.3,3.3-22,6.5-33.2,9.8c-4.2,1.2-7.4,4.3-6.9,7.6l1.9,11.9c1.3,4,2.6,5.3,7,5.8l0.2,0
		c0-0.6,0-1.1,0.1-1.7c1.1-9,9.4-15.5,18.5-14.4c7.9,1,13.8,7.4,14.5,15l58.7-8.4l1.4-0.3c-0.3-1.7-0.4-3.4-0.2-5.2
		c1.1-9.1,9.4-15.6,18.6-14.5c7.3,0.9,12.8,6.3,14.3,13.1c5-2.9,7.1-2.6,7.4-9.2l0.8-13.7C212.4,60,212.7,59.6,209.5,56.8
		L209.5,56.8z M176.4,36.5l-41.3,6c-2.5,0.4-4.3,2.6-5.6,4.7l-9.2,14.4c-1.4,2.1,0.8,6.7,5,6.1l57.1-8.1c2.5-0.4,5.2-4.3,4.5-6.7
		L183.2,40C182.5,37.6,178.9,36.2,176.4,36.5L176.4,36.5z M188.5,82.8c-4.3-0.5-8.2,2.5-8.7,6.8c-0.5,4.3,2.5,8.2,6.8,8.7
		c4.3,0.5,8.2-2.5,8.7-6.8C195.9,87.2,192.8,83.3,188.5,82.8L188.5,82.8z M189.4,76.2c-7.9-1-15.2,4.7-16.1,12.6
		c-1,7.9,4.7,15.2,12.6,16.1c7.9,1,15.2-4.7,16.1-12.6C203,84.4,197.3,77.1,189.4,76.2L189.4,76.2z"/>
</g>
</svg>
