<?xml version="1.0" encoding="utf-8"?>
<svg version="1.1"
	 xmlns="http://www.w3.org/2000/svg"
	 x="0px" y="0px" viewBox="0 0 283.5 142.4" enable-background="new 0 0 283.5 142.4" xml:space="preserve">
<g>
	<path fill-rule="evenodd" clip-rule="evenodd" d="M263.5,0c11,0.3,19.9,9.1,19.9,20.2v102c0,11-8.4,20-19.4,20.3v0l-244.1,0v0
		C8.9,142.1,0,133.3,0,122.2v-102C0,9.2,8.9,0.3,19.9,0v0L263.5,0L263.5,0L263.5,0z M279,105.9H140.5V119H4.4V20.2
		c0-8.6,6.9-15.5,15.5-15.8v0l243.6,0v0c8.6,0.3,15.5,7.1,15.5,15.8V105.9L279,105.9z M172,96.2c0,4.5-3.7,8.2-8.2,8.2
		s-8.2-3.7-8.2-8.2l0,0V85.1H172V96.2L172,96.2L172,96.2z M235.1,96.2L235.1,96.2V85.1h-16.3v11.1l0,0c0,4.5,3.7,8.2,8.2,8.2
		S235.1,100.7,235.1,96.2L235.1,96.2z M171.8,27.5h47c2.3,0,3.5,2,4.3,4.3l6.3,19.3h-68.1l6-19.3C168,29.6,169.5,27.5,171.8,27.5
		L171.8,27.5z M234.7,51c3.2,0,5.9,2.6,5.9,5.9v20.7c0,3.2-2.6,5.9-5.9,5.9h-78.6c-3.2,0-5.9-2.6-5.9-5.9V56.9
		c0-3.2,2.6-5.9,5.9-5.9l7.7-23.6c0.9-2.7,2.3-5.2,5.2-5.2h52.8c2.9,0,4.3,2.5,5.2,5.2L234.7,51L234.7,51z"/>
</g>
</svg>
