<?xml version="1.0" encoding="utf-8"?>
<svg version="1.1"
	 xmlns="http://www.w3.org/2000/svg"
	 x="0px" y="0px" viewBox="0 0 283.5 142.4" enable-background="new 0 0 283.5 142.4" xml:space="preserve">
<g>
	<path fill-rule="evenodd" clip-rule="evenodd" d="M263.5,0c11,0.3,19.9,9.1,19.9,20.2v102c0,11-8.4,20-19.4,20.3v0l-244.1,0v0
		C8.9,142.1,0,133.3,0,122.2v-102C0,9.2,8.9,0.3,19.9,0v0L263.5,0L263.5,0L263.5,0z M279,105.9H106V119H4.4V20.2
		c0-8.6,6.9-15.5,15.5-15.8v0l243.6,0v0c8.6,0.3,15.5,7.1,15.5,15.8V105.9L279,105.9z M137.4,76.7c-7.7-2.1-15.7,2.5-17.8,10.2
		s2.5,15.7,10.2,17.8c7.7,2.1,15.7-2.5,17.8-10.2C149.7,86.7,145.2,78.8,137.4,76.7L137.4,76.7z M135.7,83.1
		c-4.2-1.1-8.4,1.3-9.6,5.5c-1.1,4.2,1.3,8.4,5.5,9.6c4.2,1.1,8.4-1.3,9.6-5.5C142.3,88.5,139.9,84.3,135.7,83.1L135.7,83.1z
		 M254.1,60.4c-7.2-8.6-14.5-17.1-21.7-25.7c-4-4.7-5.8-4.6-11.8-4.6c-12.4,0-24.9,0.1-37.3,0.1c-3.3,0-5.4,0.4-7.9,2.9
		C167.7,41,160.8,50,153,57.7c-11.6,1.6-22.7,3.3-34.3,4.9c-4.3,0.6-8,3.2-7.9,6.5l0.2,12.1c0.7,4.2,1.9,5.6,6.1,6.7l0.2,0.1
		c0.1-0.6,0.2-1.1,0.4-1.7c2.4-8.8,11.5-14,20.3-11.7c7.7,2.1,12.6,9.3,12.2,16.9l59.3,0l1.4-0.1c-0.1-1.7,0.1-3.5,0.6-5.2
		c2.4-8.9,11.6-14.1,20.4-11.7c7.1,1.9,11.8,8.1,12.3,15c5.4-2.1,7.4-1.5,8.7-8l2.7-13.5C256.5,63.9,256.9,63.6,254.1,60.4
		L254.1,60.4z M224.3,35.6l-41.7,0c-2.5,0-4.6,2-6.3,3.9l-11.2,12.9c-1.7,1.9-0.2,6.8,4.1,6.8l57.6,0.1c2.5,0,5.7-3.5,5.4-6
		L230.5,40C230.1,37.5,226.8,35.6,224.3,35.6L224.3,35.6z M229.7,83.1c-4.2-1.1-8.4,1.3-9.6,5.5c-1.1,4.2,1.3,8.4,5.5,9.6
		c4.2,1.1,8.4-1.3,9.6-5.5C236.3,88.5,233.8,84.3,229.7,83.1L229.7,83.1z M231.4,76.7c-7.7-2.1-15.7,2.5-17.8,10.2
		c-2.1,7.7,2.5,15.7,10.2,17.8c7.7,2.1,15.7-2.5,17.8-10.2C243.7,86.7,239.2,78.8,231.4,76.7L231.4,76.7z"/>
</g>
</svg>
