<?xml version="1.0" encoding="utf-8"?>
<svg version="1.1"
	 xmlns="http://www.w3.org/2000/svg"
	 x="0px" y="0px" viewBox="0 0 283.5 142.4" enable-background="new 0 0 283.5 142.4" xml:space="preserve">
<g>
	<path fill-rule="evenodd" clip-rule="evenodd" d="M263.5,0c11,0.3,19.9,9.1,19.9,20.2v102c0,11-8.4,20-19.4,20.3v0l-244.1,0v0
		C8.9,142.1,0,133.3,0,122.2v-102C0,9.2,8.9,0.3,19.9,0v0L263.5,0L263.5,0L263.5,0z M279,105.9H141.1V119H4.4V20.2
		c0-8.6,6.9-15.5,15.5-15.8v0l243.6,0v0c8.6,0.3,15.5,7.1,15.5,15.8V105.9L279,105.9z M116.9,107.7c0.9,4.4-1.9,8.7-6.3,9.7
		c-4.4,0.9-8.7-1.9-9.7-6.3l0,0l-2.3-10.9l16-3.4L116.9,107.7L116.9,107.7L116.9,107.7z M178.6,94.6L178.6,94.6l-2.3-10.9l-16,3.4
		l2.3,10.9l0,0c0.9,4.4,5.3,7.2,9.7,6.3C176.7,103.3,179.6,99,178.6,94.6L178.6,94.6z M102.4,40.6l46-9.8c2.3-0.5,3.9,1.3,5.1,3.3
		l10.2,17.6L97,65.9l1.8-20.1C99,43.4,100.1,41.1,102.4,40.6L102.4,40.6z M168.7,50.4c3.2-0.7,6.3,1.4,7,4.5l4.3,20.3
		c0.7,3.2-1.4,6.3-4.5,7L98.7,98.6c-3.2,0.7-6.3-1.4-7-4.5l-4.3-20.3c-0.7-3.2,1.4-6.3,4.5-7l2.6-24.7c0.3-2.9,1.2-5.6,4-6.2
		l51.6-11c2.8-0.6,4.8,1.5,6.2,4L168.7,50.4L168.7,50.4z"/>
</g>
</svg>
