<?xml version="1.0" encoding="utf-8"?>
<svg version="1.1"
	 xmlns="http://www.w3.org/2000/svg"
	 x="0px" y="0px" viewBox="0 0 283.5 142.4" enable-background="new 0 0 283.5 142.4" xml:space="preserve">
<g>
	<path fill-rule="evenodd" clip-rule="evenodd" d="M263.5,0c11,0.3,19.9,9.1,19.9,20.2v102c0,11-8.4,20-19.4,20.3v0l-244.1,0v0
		C8.9,142.1,0,133.3,0,122.2v-102C0,9.2,8.9,0.3,19.9,0v0L263.5,0L263.5,0L263.5,0z M279,105.9H176.3V119H4.4V20.2
		c0-8.6,6.9-15.5,15.5-15.8v0l243.6,0v0c8.6,0.3,15.5,7.1,15.5,15.8V105.9L279,105.9z M154.9,89.8c7.7-2.1,15.7,2.5,17.8,10.2
		c2.1,7.7-2.5,15.7-10.2,17.8c-7.7,2.1-15.7-2.5-17.8-10.2C142.6,99.8,147.1,91.9,154.9,89.8L154.9,89.8z M156.6,96.2
		c4.2-1.1,8.4,1.3,9.6,5.5c1.1,4.2-1.3,8.4-5.5,9.6s-8.4-1.3-9.6-5.5C150,101.7,152.5,97.4,156.6,96.2L156.6,96.2z M38.2,73.5
		c7.2-8.6,14.5-17.1,21.7-25.7c4-4.7,5.8-4.6,11.8-4.6c12.4,0,24.9,0.1,37.3,0.1c3.2,0,5.4,0.4,7.9,2.9c7.7,7.8,14.7,16.8,22.4,24.5
		c11.6,1.6,22.7,3.3,34.3,4.9c4.3,0.6,8,3.2,7.9,6.5l-0.2,12.1c-0.7,4.2-1.9,5.6-6.1,6.7l-0.2,0.1c-0.1-0.6-0.2-1.1-0.4-1.7
		c-2.4-8.8-11.5-14-20.3-11.7c-7.7,2.1-12.6,9.3-12.2,16.9H82.8l-1.4-0.1c0.1-1.7-0.1-3.5-0.6-5.2c-2.4-8.9-11.6-14.1-20.4-11.7
		c-7.1,1.9-11.8,8.1-12.3,15c-5.4-2.1-7.4-1.5-8.7-8l-2.7-13.5C35.8,77,35.4,76.7,38.2,73.5L38.2,73.5z M68,48.7l41.7,0
		c2.5,0,4.6,2,6.3,3.9l11.2,12.9c1.7,1.9,0.2,6.8-4.1,6.8l-57.6,0.1c-2.5,0-5.7-3.5-5.4-6l1.7-13.3C62.2,50.6,65.5,48.7,68,48.7
		L68,48.7z M62.6,96.2c4.2-1.1,8.4,1.3,9.6,5.5c1.1,4.2-1.3,8.4-5.5,9.6c-4.2,1.1-8.4-1.3-9.6-5.5C56,101.7,58.5,97.4,62.6,96.2
		L62.6,96.2z M60.9,89.8c7.7-2.1,15.7,2.5,17.8,10.2c2.1,7.7-2.5,15.7-10.2,17.8c-7.7,2.1-15.7-2.5-17.8-10.2
		C48.6,99.8,53.2,91.9,60.9,89.8L60.9,89.8z"/>
</g>
</svg>
