<?xml version="1.0" encoding="utf-8"?>
<svg version="1.1"
	 xmlns="http://www.w3.org/2000/svg"
	 x="0px" y="0px" viewBox="0 0 283.5 142.4" enable-background="new 0 0 283.5 142.4" xml:space="preserve">
<g>
	<path fill-rule="evenodd" clip-rule="evenodd" d="M57.4,92c-7.7-2.1-15.7,2.5-17.8,10.2c-2.1,7.7,2.5,15.7,10.2,17.8
		c7.7,2.1,15.7-2.5,17.8-10.2C69.7,102,65.1,94.1,57.4,92L57.4,92z M55.7,98.4c-4.2-1.1-8.4,1.3-9.6,5.5c-1.1,4.2,1.3,8.4,5.5,9.6
		c4.2,1.1,8.4-1.3,9.6-5.5C62.3,103.9,59.8,99.6,55.7,98.4L55.7,98.4z M50.2,50.9L8.5,51c-1.5,0-2.9,0.7-4.1,1.7v21.9l48.4,0
		c2.5,0,5.7-3.5,5.4-6l-1.7-13.3C56.1,52.8,52.8,50.9,50.2,50.9L50.2,50.9z M80.1,75.7C72.9,67.2,65.6,58.6,58.4,50
		c-4-4.7-5.8-4.6-11.8-4.6c-12.4,0-24.9,0.1-37.3,0.1c-1.9,0-3.5,0.2-4.9,0.8V20.2c0-8.6,6.9-15.5,15.5-15.8v0l243.6,0v0
		c8.6,0.3,15.5,7.1,15.5,15.8v102c0,8.6-6.4,15.5-15,15.8v0l-244.1,0v0c-8.6-0.3-15.5-7.1-15.5-15.8v-15.3l31.1,0l1.4-0.1
		c-0.1-1.7,0.1-3.5,0.6-5.2c2.4-8.9,11.6-14.1,20.4-11.7c7.1,1.9,11.8,8.1,12.3,15c5.4-2.1,7.4-1.5,8.7-8l2.7-13.5
		C82.5,79.2,82.9,78.9,80.1,75.7L80.1,75.7z M263.5,0c11,0.3,19.9,9.1,19.9,20.2v102c0,11-8.4,20-19.4,20.3v0l-244.1,0v0
		C8.9,142.1,0,133.3,0,122.2V118v-11.1V74.5V57.4V50V32.5V20.2C0,9.2,8.9,0.3,19.9,0v0L263.5,0L263.5,0L263.5,0z M122.5,75.4
		c3.3-12,14.1-21,27.1-21c3.1,0,6.1,0.5,9,1.5l-2.5,2.5c-2.1-0.6-4.2-0.9-6.5-0.9c-13.2,0-24.1,10.5-25,23.8
		c-2.8-3.3-6.9-5.3-11.5-5.3c-8.5,0-15.4,7-15.4,15.7c0,6.8,4.3,12.7,10.2,14.8l-2.4,2.4c-2.7-1.2-5-3.1-6.8-5.3l-18.6-2.7l2.5-4.1
		h12.7c-0.5-1.6-0.7-3.4-0.7-5.1c0-10.2,8.1-18.8,18.5-18.8C116.5,72.8,119.7,73.7,122.5,75.4L122.5,75.4z M200.2,34.9
		c22.5,0.7,40.2,19.2,40.2,41.5c0,22.8-18.4,41.6-41.5,41.6c-11.8,0-22.9-5-30.7-13.5c-5.1,4.5-11.6,7.1-18.6,7.1
		c-7.1,0-13.7-2.7-18.8-7.3l2.2-2.2c4.4,4,10.2,6.4,16.6,6.4c7.5,0,14.2-3.4,18.8-8.7c7,9.2,18.1,15.1,30.5,15.1
		c21.2,0,38.4-17.2,38.4-38.5c0-21.2-17.2-38.5-38.4-38.5c-0.6,0-1.2,0-1.8,0L200.2,34.9L200.2,34.9z"/>
	<polygon fill-rule="evenodd" clip-rule="evenodd" fill="#B92B1E" points="210,4.4 230.8,4.4 97.2,138 76.4,138 210,4.4 	"/>
</g>
</svg>
