<?xml version="1.0" encoding="utf-8"?>
<svg version="1.1"
	 xmlns="http://www.w3.org/2000/svg"
	 x="0px" y="0px" viewBox="0 0 283.5 142.4" enable-background="new 0 0 283.5 142.4" xml:space="preserve">
<g>
	<path fill-rule="evenodd" clip-rule="evenodd" d="M199,98.8h-33.3v-9.4c7.8-7.2,15.5-14.8,21.7-22.6c2.3-2.9,4.9-5.3,4.1-9.2
		c-0.7-3.4-3.6-6.3-7.3-6.3c-4.1,0.1-7.5,3.2-11.3,7.4l-6.4-7.1c3.6-5.2,11.4-8.2,17.4-8.2c16.3,0,20.4,17,14.4,25.4
		c-3.7,5.1-13.1,14.2-19.1,20h22.3L199,98.8L199,98.8z M116.4,92.7l-1.5-9.3c9.6,5.9,20.3,1.6,20.3-5.3c0-5.5-6-11-13.7-4.5
		l-5.1-2.4V48.7h25.6l-2,8.2l-16,0v8.5c9.9-4.9,20,1.7,19.8,11.6c-0.2,9.3-6.5,16.7-17,16.8C123.5,93.7,120,93.3,116.4,92.7
		L116.4,92.7z M263.5,0c11,0.3,19.9,9.1,19.9,20.2v102c0,11-8.4,20-19.4,20.3v0l-244.1,0v0C8.9,142.1,0,133.3,0,122.2v-102
		C0,9.2,8.9,0.3,19.9,0v0L263.5,0L263.5,0L263.5,0z M19.9,4.5C11.3,4.8,4.4,11.6,4.4,20.2v102c0,8.6,6.9,15.5,15.5,15.8v0l244.1,0v0
		c8.6-0.3,15-7.3,15-15.8v-102c0-8.6-6.9-15.5-15.5-15.8v0L19.9,4.5L19.9,4.5L19.9,4.5z M49.4,54.5l-0.1,33.5h-6.1l0-25.3l-4.4,2.7
		l-2.3-3l7.3-7.8L49.4,54.5L49.4,54.5z M110.7,49.2l-0.2,43.9h-8l0-33.3l-5.8,3.5l-3.1-3.9l9.6-10.3L110.7,49.2L110.7,49.2z
		 M64.9,82.2c-7.2,0.1-7-20.5-1.5-22.2c2.6-0.8,4.6,0.3,5.7,2.9C71,67.4,71.4,82.3,64.9,82.2L64.9,82.2z M64.9,88.2
		c6.1,0,9.6-5.2,10.8-10.8c1.6-7.2,0.6-19.6-7.3-22.8c-5.1-2-10,0.5-12.6,5.4C51.3,68.4,52.7,88.2,64.9,88.2L64.9,88.2z M225.4,89.4
		c-4.7,0-7-5-8-9.3c-1.3-5.6-2-24.2,5.6-26.6c4.2-1.3,7.5,0.5,9.3,4.6C235.4,65.3,236,89.5,225.4,89.4L225.4,89.4z M225.4,99
		c9.8,0,15.5-8.4,17.5-17.5c2.5-11.6,1-31.7-11.8-36.8c-8.2-3.2-16.2,0.9-20.3,8.7C203.5,67,205.8,98.9,225.4,99L225.4,99z
		 M56.1,35.5c10.5,0,19.9,4.4,26.5,11.5c17.9-25.3,56-23.8,71.9,2.9c8.5-18.9,27.5-32,49.6-32c30,0,54.4,24.3,54.4,54.4
		c0,30-24.3,54.4-54.4,54.4c-22.3,0-41.4-13.4-49.8-32.5c-16.1,26.3-53.8,27.6-71.7,2.5c-22.3,23.9-62.8,8.2-62.8-24.8
		C19.8,51.7,36,35.5,56.1,35.5L56.1,35.5z M155.5,51.5c0.1,0.2,0.2,0.4,0.3,0.6C155.7,51.9,155.6,51.7,155.5,51.5L155.5,51.5z
		 M155.9,52.4c6.1,12,6.2,26.4,0.2,38.5c7.6,18.5,25.9,31.6,47.2,31.6c28.2,0,51-22.8,51-51c0-28.2-22.8-51-51-51
		C181.8,20.4,163.4,33.6,155.9,52.4L155.9,52.4z M154.7,93.3c-0.1,0.2-0.3,0.4-0.4,0.7C154.5,93.7,154.6,93.5,154.7,93.3L154.7,93.3
		z M83.8,48.3c11.3,13.3,11.5,32.8,0.5,46.3c7.3,10.1,19.2,16.7,32.7,16.7c22.2,0,40.3-18,40.3-40.3c0-22.2-18-40.3-40.3-40.3
		C103.2,30.9,91,37.8,83.8,48.3L83.8,48.3z M55.5,37.2c18.8,0,34.1,15.3,34.1,34.1c0,18.8-15.3,34.1-34.1,34.1
		c-18.8,0-34.1-15.3-34.1-34.1C21.5,52.4,36.7,37.2,55.5,37.2L55.5,37.2z"/>
</g>
</svg>
