<?xml version="1.0" encoding="utf-8"?>
<svg version="1.1"
	 xmlns="http://www.w3.org/2000/svg"
	 x="0px" y="0px" viewBox="0 0 283.5 142.4" enable-background="new 0 0 283.5 142.4" xml:space="preserve">
<g>
	<path fill-rule="evenodd" clip-rule="evenodd" d="M263.5,0c11,0.3,19.9,9.1,19.9,20.2v102c0,11-8.4,20-19.4,20.3v0l-244.1,0v0
		C8.9,142.1,0,133.3,0,122.2v-102C0,9.2,8.9,0.3,19.9,0v0L263.5,0L263.5,0L263.5,0z M19.9,4.5C11.3,4.8,4.4,11.6,4.4,20.2v102
		c0,8.6,6.9,15.5,15.5,15.8v0l244.1,0v0c8.6-0.3,15-7.3,15-15.8v-102c0-8.6-6.9-15.5-15.5-15.8v0L19.9,4.5L19.9,4.5L19.9,4.5z
		 M40.5,95.1l-1-12.1c6.3,4.9,27.3,7.8,28-4.6c0.4-6.3-4.4-8.9-10.1-8.9c-1.8,0-3.7,0.2-5.6,0.8V60.2c8.4-1,12.9-4.9,13.1-10.2
		c0.1-2.7-1.8-5.8-6.5-6c-4.1-0.1-10.2,2.7-13.8,5.6l-3.7-10.5c4.4-3,13-4.8,18.6-4.8c9.1,0,17.6,4.8,17.6,14.9
		c0,5.7-4.3,10.6-10.8,13.8v0.2c8.4,1.3,13.8,8.6,13.8,16.9c0,13.1-12.5,17.5-22.6,17.5C51.3,97.4,44.1,97.3,40.5,95.1L40.5,95.1z
		 M108.1,97.4c11.2,0,17.6-9.6,19.9-20c2.9-13.2,1.2-36.1-13.5-41.9c-9.3-3.7-18.4,1-23.2,9.9C83.1,61,85.7,97.4,108.1,97.4
		L108.1,97.4z M108.1,86.5c-5.3,0.1-8-5.7-9.1-10.6c-1.5-6.4-2.3-27.6,6.4-30.3c4.7-1.5,8.6,0.6,10.6,5.3
		C119.4,59.1,120.1,86.6,108.1,86.5L108.1,86.5z M177.8,65.8l3.1,30.7l-7.3,0l-1.4-20.3l-8.6,16l-8.6-16l-1.4,20.3l-7.3,0l3.1-30.7
		l6.9,0l7.3,14.1l7.3-14.1L177.8,65.8L177.8,65.8z M229.3,83.5h11.1v13h7.5V65.8h-7.5v11.4h-11.1V65.8h-7.5v30.7h7.5V83.5
		L229.3,83.5z M187.1,65.8h7.2v18.8l12.3-18.8h7.2v30.7h-7.2V78.1l-12.3,18.4h-7.2V65.8L187.1,65.8z"/>
</g>
</svg>
